G04 #@! TF.GenerationSoftware,KiCad,Pcbnew,(5.1.5-0-10_14)*
G04 #@! TF.CreationDate,2020-02-22T10:41:04+08:00*
G04 #@! TF.ProjectId,audio-board,61756469-6f2d-4626-9f61-72642e6b6963,rev?*
G04 #@! TF.SameCoordinates,Original*
G04 #@! TF.FileFunction,Copper,L2,Bot*
G04 #@! TF.FilePolarity,Positive*
%FSLAX46Y46*%
G04 Gerber Fmt 4.6, Leading zero omitted, Abs format (unit mm)*
G04 Created by KiCad (PCBNEW (5.1.5-0-10_14)) date 2020-02-22 10:41:04*
%MOMM*%
%LPD*%
G04 APERTURE LIST*
%ADD10C,2.000000*%
%ADD11C,1.600000*%
%ADD12C,1.524000*%
%ADD13R,1.600000X1.600000*%
%ADD14C,4.500000*%
%ADD15R,2.600000X2.600000*%
%ADD16C,2.600000*%
%ADD17R,1.700000X1.700000*%
%ADD18O,1.700000X1.700000*%
%ADD19C,0.800000*%
%ADD20C,0.500000*%
%ADD21C,0.250000*%
%ADD22C,0.200000*%
%ADD23C,0.254000*%
G04 APERTURE END LIST*
D10*
X122585000Y-96465000D03*
X122585000Y-99005000D03*
X122585000Y-101545000D03*
D11*
X119985000Y-96465000D03*
X119985000Y-101545000D03*
D12*
X140715000Y-99085000D03*
X138175000Y-99085000D03*
X135635000Y-99085000D03*
X133095000Y-99085000D03*
X138175000Y-104165000D03*
D11*
X147185000Y-91385000D03*
X147185000Y-106625000D03*
X144645000Y-91385000D03*
X142105000Y-91385000D03*
X139565000Y-91385000D03*
X137025000Y-91385000D03*
X134485000Y-91385000D03*
X131945000Y-91385000D03*
X129405000Y-91385000D03*
X126865000Y-91385000D03*
X124325000Y-91385000D03*
X121785000Y-91385000D03*
X119245000Y-91385000D03*
X116705000Y-91385000D03*
X114165000Y-91385000D03*
X144645000Y-106625000D03*
X142105000Y-106625000D03*
X139565000Y-106625000D03*
X137025000Y-106625000D03*
X134485000Y-106625000D03*
X131945000Y-106625000D03*
X129405000Y-106625000D03*
X126865000Y-106625000D03*
X124325000Y-106625000D03*
X121785000Y-106625000D03*
X119245000Y-106625000D03*
X116705000Y-106625000D03*
D13*
X114165000Y-106625000D03*
D14*
X128675000Y-95005000D03*
X128675000Y-103005000D03*
X152675000Y-95005000D03*
X152675000Y-103005000D03*
D15*
X157675000Y-99005000D03*
D16*
X163675000Y-99005000D03*
X160675000Y-103705000D03*
D17*
X168675000Y-91505000D03*
D18*
X166135000Y-91505000D03*
X163595000Y-91505000D03*
X161055000Y-91505000D03*
D19*
X169175000Y-100255000D03*
X144925000Y-93755000D03*
X146175000Y-93755000D03*
X147425000Y-93755000D03*
X146175000Y-101505000D03*
X144925000Y-94755000D03*
X146175000Y-94755000D03*
X146175000Y-100255000D03*
X147425000Y-94755000D03*
X146175000Y-95755000D03*
X146175000Y-97005000D03*
X146175000Y-98255000D03*
X147425000Y-98255000D03*
X147425000Y-97005000D03*
X147425000Y-95755000D03*
X144925000Y-95755000D03*
X144925000Y-97005000D03*
X144925000Y-98255000D03*
X146175000Y-99255000D03*
D20*
X115905001Y-96643003D02*
X115905001Y-92184999D01*
X118266998Y-99005000D02*
X115905001Y-96643003D01*
X115905001Y-92184999D02*
X116705000Y-91385000D01*
X122585000Y-99005000D02*
X118266998Y-99005000D01*
X114165000Y-103106998D02*
X114165000Y-106625000D01*
X118266998Y-99005000D02*
X114165000Y-103106998D01*
X115415001Y-107875001D02*
X114165000Y-106625000D01*
X152966522Y-107875001D02*
X115415001Y-107875001D01*
X161836523Y-99005000D02*
X152966522Y-107875001D01*
X163675000Y-99005000D02*
X161836523Y-99005000D01*
D21*
X167925000Y-99005000D02*
X169175000Y-100255000D01*
X163675000Y-99005000D02*
X167925000Y-99005000D01*
X164759999Y-90129999D02*
X166135000Y-91505000D01*
X140820001Y-90129999D02*
X164759999Y-90129999D01*
X139565000Y-91385000D02*
X140820001Y-90129999D01*
X162095000Y-93005000D02*
X163595000Y-91505000D01*
X160129998Y-93005000D02*
X162095000Y-93005000D01*
X137025000Y-91385000D02*
X138395000Y-92755000D01*
X150175000Y-92755000D02*
X150675000Y-92255000D01*
X159379998Y-92255000D02*
X160129998Y-93005000D01*
X150675000Y-92255000D02*
X159379998Y-92255000D01*
X138395000Y-92755000D02*
X150175000Y-92755000D01*
X146545000Y-106625000D02*
X147185000Y-106625000D01*
X144925000Y-105005000D02*
X146545000Y-106625000D01*
X140925000Y-105005000D02*
X144925000Y-105005000D01*
X140715000Y-104795000D02*
X140925000Y-105005000D01*
X140715000Y-99085000D02*
X140715000Y-104795000D01*
X140264989Y-101174989D02*
X140264989Y-104981400D01*
X143475011Y-105455011D02*
X143845001Y-105825001D01*
X143845001Y-105825001D02*
X144645000Y-106625000D01*
X138175000Y-99085000D02*
X140264989Y-101174989D01*
X140738600Y-105455011D02*
X143475011Y-105455011D01*
X140264989Y-104981400D02*
X140738600Y-105455011D01*
X139814978Y-105167800D02*
X141272178Y-106625000D01*
X141272178Y-106625000D02*
X142105000Y-106625000D01*
X135635000Y-99085000D02*
X139814978Y-103264978D01*
X139814978Y-103264978D02*
X139814978Y-105167800D01*
X139364967Y-103746205D02*
X139364967Y-106424967D01*
X133095000Y-99085000D02*
X136265000Y-102255000D01*
X136265000Y-102255000D02*
X137873762Y-102255000D01*
X139364967Y-106424967D02*
X139565000Y-106625000D01*
X137873762Y-102255000D02*
X139364967Y-103746205D01*
D22*
G36*
X171542001Y-107872000D02*
G01*
X147853066Y-107872000D01*
X148082548Y-107718665D01*
X148278665Y-107522548D01*
X148432754Y-107291938D01*
X148538892Y-107035699D01*
X148593000Y-106763676D01*
X148593000Y-106486324D01*
X148538892Y-106214301D01*
X148432754Y-105958062D01*
X148278665Y-105727452D01*
X148082548Y-105531335D01*
X147851938Y-105377246D01*
X147595699Y-105271108D01*
X147323676Y-105217000D01*
X147046324Y-105217000D01*
X146774301Y-105271108D01*
X146518062Y-105377246D01*
X146407643Y-105451025D01*
X146069618Y-105113000D01*
X149175000Y-105113000D01*
X149293615Y-105101317D01*
X149407672Y-105066719D01*
X149512787Y-105010534D01*
X149604921Y-104934921D01*
X149680534Y-104842787D01*
X149736719Y-104737672D01*
X149771317Y-104623615D01*
X149783000Y-104505000D01*
X149783000Y-102723512D01*
X149817000Y-102723512D01*
X149817000Y-103286488D01*
X149926831Y-103838648D01*
X150142273Y-104358771D01*
X150455046Y-104826869D01*
X150853131Y-105224954D01*
X151321229Y-105537727D01*
X151841352Y-105753169D01*
X152393512Y-105863000D01*
X152956488Y-105863000D01*
X153508648Y-105753169D01*
X154028771Y-105537727D01*
X154496869Y-105224954D01*
X154894954Y-104826869D01*
X155207727Y-104358771D01*
X155423169Y-103838648D01*
X155487132Y-103517078D01*
X158767000Y-103517078D01*
X158767000Y-103892922D01*
X158840323Y-104261543D01*
X158984152Y-104608777D01*
X159192960Y-104921279D01*
X159458721Y-105187040D01*
X159771223Y-105395848D01*
X160118457Y-105539677D01*
X160487078Y-105613000D01*
X160862922Y-105613000D01*
X161231543Y-105539677D01*
X161578777Y-105395848D01*
X161891279Y-105187040D01*
X162157040Y-104921279D01*
X162365848Y-104608777D01*
X162509677Y-104261543D01*
X162583000Y-103892922D01*
X162583000Y-103517078D01*
X162509677Y-103148457D01*
X162365848Y-102801223D01*
X162157040Y-102488721D01*
X161891279Y-102222960D01*
X161578777Y-102014152D01*
X161231543Y-101870323D01*
X160862922Y-101797000D01*
X160487078Y-101797000D01*
X160118457Y-101870323D01*
X159771223Y-102014152D01*
X159458721Y-102222960D01*
X159192960Y-102488721D01*
X158984152Y-102801223D01*
X158840323Y-103148457D01*
X158767000Y-103517078D01*
X155487132Y-103517078D01*
X155533000Y-103286488D01*
X155533000Y-102723512D01*
X155423169Y-102171352D01*
X155207727Y-101651229D01*
X154894954Y-101183131D01*
X154496869Y-100785046D01*
X154028771Y-100472273D01*
X153508648Y-100256831D01*
X152956488Y-100147000D01*
X152393512Y-100147000D01*
X151841352Y-100256831D01*
X151321229Y-100472273D01*
X150853131Y-100785046D01*
X150455046Y-101183131D01*
X150142273Y-101651229D01*
X149926831Y-102171352D01*
X149817000Y-102723512D01*
X149783000Y-102723512D01*
X149783000Y-93505000D01*
X149781326Y-93488000D01*
X150138998Y-93488000D01*
X150175000Y-93491546D01*
X150254181Y-93483747D01*
X150142273Y-93651229D01*
X149926831Y-94171352D01*
X149817000Y-94723512D01*
X149817000Y-95286488D01*
X149926831Y-95838648D01*
X150142273Y-96358771D01*
X150455046Y-96826869D01*
X150853131Y-97224954D01*
X151321229Y-97537727D01*
X151841352Y-97753169D01*
X152393512Y-97863000D01*
X152956488Y-97863000D01*
X153508648Y-97753169D01*
X153624938Y-97705000D01*
X155764059Y-97705000D01*
X155764059Y-100305000D01*
X155775798Y-100424189D01*
X155810564Y-100538797D01*
X155867021Y-100644421D01*
X155942999Y-100737001D01*
X156035579Y-100812979D01*
X156141203Y-100869436D01*
X156255811Y-100904202D01*
X156375000Y-100915941D01*
X158975000Y-100915941D01*
X159094189Y-100904202D01*
X159208797Y-100869436D01*
X159314421Y-100812979D01*
X159407001Y-100737001D01*
X159482979Y-100644421D01*
X159539436Y-100538797D01*
X159574202Y-100424189D01*
X159585941Y-100305000D01*
X159585941Y-100253561D01*
X162427146Y-100253561D01*
X162548484Y-100556367D01*
X162872787Y-100746330D01*
X163227918Y-100869375D01*
X163600229Y-100920773D01*
X163975414Y-100898549D01*
X164339055Y-100803557D01*
X164677176Y-100639447D01*
X164801516Y-100556367D01*
X164922854Y-100253561D01*
X163675000Y-99005707D01*
X162427146Y-100253561D01*
X159585941Y-100253561D01*
X159585941Y-98930229D01*
X161759227Y-98930229D01*
X161781451Y-99305414D01*
X161876443Y-99669055D01*
X162040553Y-100007176D01*
X162123633Y-100131516D01*
X162426439Y-100252854D01*
X163674293Y-99005000D01*
X163675707Y-99005000D01*
X164923561Y-100252854D01*
X165226367Y-100131516D01*
X165416330Y-99807213D01*
X165539375Y-99452082D01*
X165590773Y-99079771D01*
X165568549Y-98704586D01*
X165473557Y-98340945D01*
X165309447Y-98002824D01*
X165226367Y-97878484D01*
X164923561Y-97757146D01*
X163675707Y-99005000D01*
X163674293Y-99005000D01*
X162426439Y-97757146D01*
X162123633Y-97878484D01*
X161933670Y-98202787D01*
X161810625Y-98557918D01*
X161759227Y-98930229D01*
X159585941Y-98930229D01*
X159585941Y-97756439D01*
X162427146Y-97756439D01*
X163675000Y-99004293D01*
X164922854Y-97756439D01*
X164801516Y-97453633D01*
X164477213Y-97263670D01*
X164122082Y-97140625D01*
X163749771Y-97089227D01*
X163374586Y-97111451D01*
X163010945Y-97206443D01*
X162672824Y-97370553D01*
X162548484Y-97453633D01*
X162427146Y-97756439D01*
X159585941Y-97756439D01*
X159585941Y-97705000D01*
X159574202Y-97585811D01*
X159539436Y-97471203D01*
X159482979Y-97365579D01*
X159407001Y-97272999D01*
X159314421Y-97197021D01*
X159208797Y-97140564D01*
X159094189Y-97105798D01*
X158975000Y-97094059D01*
X156375000Y-97094059D01*
X156255811Y-97105798D01*
X156141203Y-97140564D01*
X156035579Y-97197021D01*
X155942999Y-97272999D01*
X155867021Y-97365579D01*
X155810564Y-97471203D01*
X155775798Y-97585811D01*
X155764059Y-97705000D01*
X153624938Y-97705000D01*
X154028771Y-97537727D01*
X154496869Y-97224954D01*
X154894954Y-96826869D01*
X155207727Y-96358771D01*
X155423169Y-95838648D01*
X155533000Y-95286488D01*
X155533000Y-94723512D01*
X155423169Y-94171352D01*
X155207727Y-93651229D01*
X154894954Y-93183131D01*
X154699823Y-92988000D01*
X159076380Y-92988000D01*
X159586229Y-93497850D01*
X159609181Y-93525817D01*
X159720795Y-93617416D01*
X159848134Y-93685480D01*
X159944391Y-93714679D01*
X159986304Y-93727393D01*
X160129997Y-93741546D01*
X160165999Y-93738000D01*
X162058998Y-93738000D01*
X162095000Y-93741546D01*
X162238693Y-93727393D01*
X162376864Y-93685480D01*
X162504203Y-93617416D01*
X162615817Y-93525817D01*
X162638773Y-93497845D01*
X163219705Y-92916913D01*
X163451399Y-92963000D01*
X163738601Y-92963000D01*
X164020283Y-92906970D01*
X164285622Y-92797063D01*
X164524421Y-92637503D01*
X164727503Y-92434421D01*
X164865000Y-92228642D01*
X165002497Y-92434421D01*
X165205579Y-92637503D01*
X165444378Y-92797063D01*
X165709717Y-92906970D01*
X165991399Y-92963000D01*
X166278601Y-92963000D01*
X166560283Y-92906970D01*
X166825622Y-92797063D01*
X167064421Y-92637503D01*
X167226249Y-92475675D01*
X167260564Y-92588797D01*
X167317021Y-92694421D01*
X167392999Y-92787001D01*
X167485579Y-92862979D01*
X167591203Y-92919436D01*
X167705811Y-92954202D01*
X167825000Y-92965941D01*
X169525000Y-92965941D01*
X169644189Y-92954202D01*
X169758797Y-92919436D01*
X169864421Y-92862979D01*
X169957001Y-92787001D01*
X170032979Y-92694421D01*
X170089436Y-92588797D01*
X170124202Y-92474189D01*
X170135941Y-92355000D01*
X170135941Y-90655000D01*
X170124202Y-90535811D01*
X170089436Y-90421203D01*
X170032979Y-90315579D01*
X169957001Y-90222999D01*
X169864421Y-90147021D01*
X169847544Y-90138000D01*
X171542000Y-90138000D01*
X171542001Y-107872000D01*
G37*
X171542001Y-107872000D02*
X147853066Y-107872000D01*
X148082548Y-107718665D01*
X148278665Y-107522548D01*
X148432754Y-107291938D01*
X148538892Y-107035699D01*
X148593000Y-106763676D01*
X148593000Y-106486324D01*
X148538892Y-106214301D01*
X148432754Y-105958062D01*
X148278665Y-105727452D01*
X148082548Y-105531335D01*
X147851938Y-105377246D01*
X147595699Y-105271108D01*
X147323676Y-105217000D01*
X147046324Y-105217000D01*
X146774301Y-105271108D01*
X146518062Y-105377246D01*
X146407643Y-105451025D01*
X146069618Y-105113000D01*
X149175000Y-105113000D01*
X149293615Y-105101317D01*
X149407672Y-105066719D01*
X149512787Y-105010534D01*
X149604921Y-104934921D01*
X149680534Y-104842787D01*
X149736719Y-104737672D01*
X149771317Y-104623615D01*
X149783000Y-104505000D01*
X149783000Y-102723512D01*
X149817000Y-102723512D01*
X149817000Y-103286488D01*
X149926831Y-103838648D01*
X150142273Y-104358771D01*
X150455046Y-104826869D01*
X150853131Y-105224954D01*
X151321229Y-105537727D01*
X151841352Y-105753169D01*
X152393512Y-105863000D01*
X152956488Y-105863000D01*
X153508648Y-105753169D01*
X154028771Y-105537727D01*
X154496869Y-105224954D01*
X154894954Y-104826869D01*
X155207727Y-104358771D01*
X155423169Y-103838648D01*
X155487132Y-103517078D01*
X158767000Y-103517078D01*
X158767000Y-103892922D01*
X158840323Y-104261543D01*
X158984152Y-104608777D01*
X159192960Y-104921279D01*
X159458721Y-105187040D01*
X159771223Y-105395848D01*
X160118457Y-105539677D01*
X160487078Y-105613000D01*
X160862922Y-105613000D01*
X161231543Y-105539677D01*
X161578777Y-105395848D01*
X161891279Y-105187040D01*
X162157040Y-104921279D01*
X162365848Y-104608777D01*
X162509677Y-104261543D01*
X162583000Y-103892922D01*
X162583000Y-103517078D01*
X162509677Y-103148457D01*
X162365848Y-102801223D01*
X162157040Y-102488721D01*
X161891279Y-102222960D01*
X161578777Y-102014152D01*
X161231543Y-101870323D01*
X160862922Y-101797000D01*
X160487078Y-101797000D01*
X160118457Y-101870323D01*
X159771223Y-102014152D01*
X159458721Y-102222960D01*
X159192960Y-102488721D01*
X158984152Y-102801223D01*
X158840323Y-103148457D01*
X158767000Y-103517078D01*
X155487132Y-103517078D01*
X155533000Y-103286488D01*
X155533000Y-102723512D01*
X155423169Y-102171352D01*
X155207727Y-101651229D01*
X154894954Y-101183131D01*
X154496869Y-100785046D01*
X154028771Y-100472273D01*
X153508648Y-100256831D01*
X152956488Y-100147000D01*
X152393512Y-100147000D01*
X151841352Y-100256831D01*
X151321229Y-100472273D01*
X150853131Y-100785046D01*
X150455046Y-101183131D01*
X150142273Y-101651229D01*
X149926831Y-102171352D01*
X149817000Y-102723512D01*
X149783000Y-102723512D01*
X149783000Y-93505000D01*
X149781326Y-93488000D01*
X150138998Y-93488000D01*
X150175000Y-93491546D01*
X150254181Y-93483747D01*
X150142273Y-93651229D01*
X149926831Y-94171352D01*
X149817000Y-94723512D01*
X149817000Y-95286488D01*
X149926831Y-95838648D01*
X150142273Y-96358771D01*
X150455046Y-96826869D01*
X150853131Y-97224954D01*
X151321229Y-97537727D01*
X151841352Y-97753169D01*
X152393512Y-97863000D01*
X152956488Y-97863000D01*
X153508648Y-97753169D01*
X153624938Y-97705000D01*
X155764059Y-97705000D01*
X155764059Y-100305000D01*
X155775798Y-100424189D01*
X155810564Y-100538797D01*
X155867021Y-100644421D01*
X155942999Y-100737001D01*
X156035579Y-100812979D01*
X156141203Y-100869436D01*
X156255811Y-100904202D01*
X156375000Y-100915941D01*
X158975000Y-100915941D01*
X159094189Y-100904202D01*
X159208797Y-100869436D01*
X159314421Y-100812979D01*
X159407001Y-100737001D01*
X159482979Y-100644421D01*
X159539436Y-100538797D01*
X159574202Y-100424189D01*
X159585941Y-100305000D01*
X159585941Y-100253561D01*
X162427146Y-100253561D01*
X162548484Y-100556367D01*
X162872787Y-100746330D01*
X163227918Y-100869375D01*
X163600229Y-100920773D01*
X163975414Y-100898549D01*
X164339055Y-100803557D01*
X164677176Y-100639447D01*
X164801516Y-100556367D01*
X164922854Y-100253561D01*
X163675000Y-99005707D01*
X162427146Y-100253561D01*
X159585941Y-100253561D01*
X159585941Y-98930229D01*
X161759227Y-98930229D01*
X161781451Y-99305414D01*
X161876443Y-99669055D01*
X162040553Y-100007176D01*
X162123633Y-100131516D01*
X162426439Y-100252854D01*
X163674293Y-99005000D01*
X163675707Y-99005000D01*
X164923561Y-100252854D01*
X165226367Y-100131516D01*
X165416330Y-99807213D01*
X165539375Y-99452082D01*
X165590773Y-99079771D01*
X165568549Y-98704586D01*
X165473557Y-98340945D01*
X165309447Y-98002824D01*
X165226367Y-97878484D01*
X164923561Y-97757146D01*
X163675707Y-99005000D01*
X163674293Y-99005000D01*
X162426439Y-97757146D01*
X162123633Y-97878484D01*
X161933670Y-98202787D01*
X161810625Y-98557918D01*
X161759227Y-98930229D01*
X159585941Y-98930229D01*
X159585941Y-97756439D01*
X162427146Y-97756439D01*
X163675000Y-99004293D01*
X164922854Y-97756439D01*
X164801516Y-97453633D01*
X164477213Y-97263670D01*
X164122082Y-97140625D01*
X163749771Y-97089227D01*
X163374586Y-97111451D01*
X163010945Y-97206443D01*
X162672824Y-97370553D01*
X162548484Y-97453633D01*
X162427146Y-97756439D01*
X159585941Y-97756439D01*
X159585941Y-97705000D01*
X159574202Y-97585811D01*
X159539436Y-97471203D01*
X159482979Y-97365579D01*
X159407001Y-97272999D01*
X159314421Y-97197021D01*
X159208797Y-97140564D01*
X159094189Y-97105798D01*
X158975000Y-97094059D01*
X156375000Y-97094059D01*
X156255811Y-97105798D01*
X156141203Y-97140564D01*
X156035579Y-97197021D01*
X155942999Y-97272999D01*
X155867021Y-97365579D01*
X155810564Y-97471203D01*
X155775798Y-97585811D01*
X155764059Y-97705000D01*
X153624938Y-97705000D01*
X154028771Y-97537727D01*
X154496869Y-97224954D01*
X154894954Y-96826869D01*
X155207727Y-96358771D01*
X155423169Y-95838648D01*
X155533000Y-95286488D01*
X155533000Y-94723512D01*
X155423169Y-94171352D01*
X155207727Y-93651229D01*
X154894954Y-93183131D01*
X154699823Y-92988000D01*
X159076380Y-92988000D01*
X159586229Y-93497850D01*
X159609181Y-93525817D01*
X159720795Y-93617416D01*
X159848134Y-93685480D01*
X159944391Y-93714679D01*
X159986304Y-93727393D01*
X160129997Y-93741546D01*
X160165999Y-93738000D01*
X162058998Y-93738000D01*
X162095000Y-93741546D01*
X162238693Y-93727393D01*
X162376864Y-93685480D01*
X162504203Y-93617416D01*
X162615817Y-93525817D01*
X162638773Y-93497845D01*
X163219705Y-92916913D01*
X163451399Y-92963000D01*
X163738601Y-92963000D01*
X164020283Y-92906970D01*
X164285622Y-92797063D01*
X164524421Y-92637503D01*
X164727503Y-92434421D01*
X164865000Y-92228642D01*
X165002497Y-92434421D01*
X165205579Y-92637503D01*
X165444378Y-92797063D01*
X165709717Y-92906970D01*
X165991399Y-92963000D01*
X166278601Y-92963000D01*
X166560283Y-92906970D01*
X166825622Y-92797063D01*
X167064421Y-92637503D01*
X167226249Y-92475675D01*
X167260564Y-92588797D01*
X167317021Y-92694421D01*
X167392999Y-92787001D01*
X167485579Y-92862979D01*
X167591203Y-92919436D01*
X167705811Y-92954202D01*
X167825000Y-92965941D01*
X169525000Y-92965941D01*
X169644189Y-92954202D01*
X169758797Y-92919436D01*
X169864421Y-92862979D01*
X169957001Y-92787001D01*
X170032979Y-92694421D01*
X170089436Y-92588797D01*
X170124202Y-92474189D01*
X170135941Y-92355000D01*
X170135941Y-90655000D01*
X170124202Y-90535811D01*
X170089436Y-90421203D01*
X170032979Y-90315579D01*
X169957001Y-90222999D01*
X169864421Y-90147021D01*
X169847544Y-90138000D01*
X171542000Y-90138000D01*
X171542001Y-107872000D01*
G36*
X115611335Y-107522548D02*
G01*
X115807452Y-107718665D01*
X116036934Y-107872000D01*
X115378725Y-107872000D01*
X115397001Y-107857001D01*
X115472980Y-107764421D01*
X115529437Y-107658797D01*
X115564203Y-107544189D01*
X115572115Y-107463852D01*
X115611335Y-107522548D01*
G37*
X115611335Y-107522548D02*
X115807452Y-107718665D01*
X116036934Y-107872000D01*
X115378725Y-107872000D01*
X115397001Y-107857001D01*
X115472980Y-107764421D01*
X115529437Y-107658797D01*
X115564203Y-107544189D01*
X115572115Y-107463852D01*
X115611335Y-107522548D01*
G36*
X115965337Y-90178935D02*
G01*
X115873798Y-90240099D01*
X115812410Y-90491703D01*
X116705000Y-91384293D01*
X117597590Y-90491703D01*
X117536202Y-90240099D01*
X117361864Y-90138000D01*
X118576934Y-90138000D01*
X118347452Y-90291335D01*
X118151335Y-90487452D01*
X117997246Y-90718062D01*
X117973823Y-90774609D01*
X117911065Y-90645337D01*
X117849901Y-90553798D01*
X117598297Y-90492410D01*
X116705707Y-91385000D01*
X117598297Y-92277590D01*
X117849901Y-92216202D01*
X117976057Y-92000784D01*
X117997246Y-92051938D01*
X118151335Y-92282548D01*
X118347452Y-92478665D01*
X118578062Y-92632754D01*
X118834301Y-92738892D01*
X119106324Y-92793000D01*
X119383676Y-92793000D01*
X119655699Y-92738892D01*
X119911938Y-92632754D01*
X120142548Y-92478665D01*
X120338665Y-92282548D01*
X120492754Y-92051938D01*
X120515000Y-91998232D01*
X120537246Y-92051938D01*
X120691335Y-92282548D01*
X120887452Y-92478665D01*
X121118062Y-92632754D01*
X121374301Y-92738892D01*
X121646324Y-92793000D01*
X121923676Y-92793000D01*
X122195699Y-92738892D01*
X122451938Y-92632754D01*
X122682548Y-92478665D01*
X122878665Y-92282548D01*
X123032754Y-92051938D01*
X123055000Y-91998232D01*
X123077246Y-92051938D01*
X123231335Y-92282548D01*
X123427452Y-92478665D01*
X123658062Y-92632754D01*
X123914301Y-92738892D01*
X124186324Y-92793000D01*
X124463676Y-92793000D01*
X124735699Y-92738892D01*
X124991938Y-92632754D01*
X125222548Y-92478665D01*
X125418665Y-92282548D01*
X125572754Y-92051938D01*
X125595000Y-91998232D01*
X125617246Y-92051938D01*
X125771335Y-92282548D01*
X125967452Y-92478665D01*
X126198062Y-92632754D01*
X126454301Y-92738892D01*
X126726324Y-92793000D01*
X126845177Y-92793000D01*
X126455046Y-93183131D01*
X126142273Y-93651229D01*
X125926831Y-94171352D01*
X125817000Y-94723512D01*
X125817000Y-95286488D01*
X125926831Y-95838648D01*
X126142273Y-96358771D01*
X126455046Y-96826869D01*
X126853131Y-97224954D01*
X127321229Y-97537727D01*
X127841352Y-97753169D01*
X128393512Y-97863000D01*
X128956488Y-97863000D01*
X129508648Y-97753169D01*
X130028771Y-97537727D01*
X130496869Y-97224954D01*
X130894954Y-96826869D01*
X131207727Y-96358771D01*
X131423169Y-95838648D01*
X131533000Y-95286488D01*
X131533000Y-94723512D01*
X131423169Y-94171352D01*
X131207727Y-93651229D01*
X130894954Y-93183131D01*
X130496869Y-92785046D01*
X130170443Y-92566935D01*
X130302548Y-92478665D01*
X130498665Y-92282548D01*
X130652754Y-92051938D01*
X130675000Y-91998232D01*
X130697246Y-92051938D01*
X130851335Y-92282548D01*
X131047452Y-92478665D01*
X131278062Y-92632754D01*
X131534301Y-92738892D01*
X131806324Y-92793000D01*
X132083676Y-92793000D01*
X132355699Y-92738892D01*
X132611938Y-92632754D01*
X132842548Y-92478665D01*
X133038665Y-92282548D01*
X133192754Y-92051938D01*
X133215000Y-91998232D01*
X133237246Y-92051938D01*
X133391335Y-92282548D01*
X133587452Y-92478665D01*
X133818062Y-92632754D01*
X134074301Y-92738892D01*
X134346324Y-92793000D01*
X134623676Y-92793000D01*
X134895699Y-92738892D01*
X135151938Y-92632754D01*
X135382548Y-92478665D01*
X135578665Y-92282548D01*
X135732754Y-92051938D01*
X135755000Y-91998232D01*
X135777246Y-92051938D01*
X135931335Y-92282548D01*
X136127452Y-92478665D01*
X136358062Y-92632754D01*
X136614301Y-92738892D01*
X136886324Y-92793000D01*
X137163676Y-92793000D01*
X137357774Y-92754392D01*
X137500382Y-92897000D01*
X132175000Y-92897000D01*
X132056385Y-92908683D01*
X131942328Y-92943281D01*
X131837213Y-92999466D01*
X131745079Y-93075079D01*
X131669466Y-93167213D01*
X131613281Y-93272328D01*
X131578683Y-93386385D01*
X131567000Y-93505000D01*
X131567000Y-97505000D01*
X131578683Y-97623615D01*
X131613281Y-97737672D01*
X131669466Y-97842787D01*
X131745079Y-97934921D01*
X131837213Y-98010534D01*
X131942328Y-98066719D01*
X132056385Y-98101317D01*
X132133604Y-98108923D01*
X132030851Y-98211676D01*
X131880922Y-98436062D01*
X131777648Y-98685386D01*
X131725000Y-98950067D01*
X131725000Y-99219933D01*
X131777648Y-99484614D01*
X131880922Y-99733938D01*
X132030851Y-99958324D01*
X132221676Y-100149149D01*
X132446062Y-100299078D01*
X132695386Y-100402352D01*
X132960067Y-100455000D01*
X133229933Y-100455000D01*
X133395457Y-100422075D01*
X135721232Y-102747851D01*
X135744183Y-102775817D01*
X135855797Y-102867416D01*
X135983136Y-102935480D01*
X136079393Y-102964679D01*
X136121306Y-102977393D01*
X136265000Y-102991546D01*
X136301002Y-102988000D01*
X137462482Y-102988000D01*
X137455287Y-102991493D01*
X137366242Y-103050990D01*
X137309410Y-103298703D01*
X138175000Y-104164293D01*
X138189143Y-104150151D01*
X138189850Y-104150858D01*
X138175707Y-104165000D01*
X138189850Y-104179143D01*
X138189143Y-104179850D01*
X138175000Y-104165707D01*
X137309410Y-105031297D01*
X137361021Y-105256254D01*
X137163676Y-105217000D01*
X136886324Y-105217000D01*
X136614301Y-105271108D01*
X136358062Y-105377246D01*
X136127452Y-105531335D01*
X135931335Y-105727452D01*
X135777246Y-105958062D01*
X135755000Y-106011768D01*
X135732754Y-105958062D01*
X135578665Y-105727452D01*
X135382548Y-105531335D01*
X135151938Y-105377246D01*
X134895699Y-105271108D01*
X134623676Y-105217000D01*
X134346324Y-105217000D01*
X134074301Y-105271108D01*
X133818062Y-105377246D01*
X133587452Y-105531335D01*
X133391335Y-105727452D01*
X133237246Y-105958062D01*
X133215000Y-106011768D01*
X133192754Y-105958062D01*
X133038665Y-105727452D01*
X132842548Y-105531335D01*
X132611938Y-105377246D01*
X132355699Y-105271108D01*
X132083676Y-105217000D01*
X131806324Y-105217000D01*
X131534301Y-105271108D01*
X131278062Y-105377246D01*
X131047452Y-105531335D01*
X130851335Y-105727452D01*
X130697246Y-105958062D01*
X130675000Y-106011768D01*
X130652754Y-105958062D01*
X130498665Y-105727452D01*
X130302548Y-105531335D01*
X130170443Y-105443065D01*
X130496869Y-105224954D01*
X130894954Y-104826869D01*
X131207727Y-104358771D01*
X131310169Y-104111454D01*
X136799413Y-104111454D01*
X136815398Y-104380846D01*
X136883633Y-104641944D01*
X137001493Y-104884713D01*
X137060990Y-104973758D01*
X137308703Y-105030590D01*
X138174293Y-104165000D01*
X137308703Y-103299410D01*
X137060990Y-103356242D01*
X136924615Y-103589115D01*
X136836291Y-103844118D01*
X136799413Y-104111454D01*
X131310169Y-104111454D01*
X131423169Y-103838648D01*
X131533000Y-103286488D01*
X131533000Y-102723512D01*
X131423169Y-102171352D01*
X131207727Y-101651229D01*
X130894954Y-101183131D01*
X130496869Y-100785046D01*
X130028771Y-100472273D01*
X129508648Y-100256831D01*
X128956488Y-100147000D01*
X128393512Y-100147000D01*
X127841352Y-100256831D01*
X127321229Y-100472273D01*
X126853131Y-100785046D01*
X126455046Y-101183131D01*
X126142273Y-101651229D01*
X125926831Y-102171352D01*
X125817000Y-102723512D01*
X125817000Y-103286488D01*
X125926831Y-103838648D01*
X126142273Y-104358771D01*
X126455046Y-104826869D01*
X126845177Y-105217000D01*
X126726324Y-105217000D01*
X126454301Y-105271108D01*
X126198062Y-105377246D01*
X125967452Y-105531335D01*
X125771335Y-105727452D01*
X125617246Y-105958062D01*
X125595000Y-106011768D01*
X125572754Y-105958062D01*
X125418665Y-105727452D01*
X125222548Y-105531335D01*
X124991938Y-105377246D01*
X124735699Y-105271108D01*
X124463676Y-105217000D01*
X124186324Y-105217000D01*
X123914301Y-105271108D01*
X123658062Y-105377246D01*
X123427452Y-105531335D01*
X123231335Y-105727452D01*
X123077246Y-105958062D01*
X123055000Y-106011768D01*
X123032754Y-105958062D01*
X122878665Y-105727452D01*
X122682548Y-105531335D01*
X122451938Y-105377246D01*
X122195699Y-105271108D01*
X121923676Y-105217000D01*
X121646324Y-105217000D01*
X121374301Y-105271108D01*
X121118062Y-105377246D01*
X120887452Y-105531335D01*
X120691335Y-105727452D01*
X120537246Y-105958062D01*
X120515000Y-106011768D01*
X120492754Y-105958062D01*
X120338665Y-105727452D01*
X120142548Y-105531335D01*
X119911938Y-105377246D01*
X119655699Y-105271108D01*
X119383676Y-105217000D01*
X119106324Y-105217000D01*
X118834301Y-105271108D01*
X118578062Y-105377246D01*
X118347452Y-105531335D01*
X118151335Y-105727452D01*
X117997246Y-105958062D01*
X117975000Y-106011768D01*
X117952754Y-105958062D01*
X117798665Y-105727452D01*
X117602548Y-105531335D01*
X117371938Y-105377246D01*
X117115699Y-105271108D01*
X116843676Y-105217000D01*
X116566324Y-105217000D01*
X116294301Y-105271108D01*
X116038062Y-105377246D01*
X115807452Y-105531335D01*
X115611335Y-105727452D01*
X115572115Y-105786148D01*
X115564203Y-105705811D01*
X115529437Y-105591203D01*
X115472980Y-105485579D01*
X115397001Y-105392999D01*
X115304421Y-105317020D01*
X115198797Y-105260563D01*
X115084189Y-105225797D01*
X114965000Y-105214058D01*
X114317500Y-105217000D01*
X114165500Y-105369000D01*
X114165500Y-106624500D01*
X114185500Y-106624500D01*
X114185500Y-106625500D01*
X114165500Y-106625500D01*
X114165500Y-106645500D01*
X114164500Y-106645500D01*
X114164500Y-106625500D01*
X114144500Y-106625500D01*
X114144500Y-106624500D01*
X114164500Y-106624500D01*
X114164500Y-105369000D01*
X114012500Y-105217000D01*
X113365000Y-105214058D01*
X113308000Y-105219672D01*
X113308000Y-101656475D01*
X115997000Y-101656475D01*
X115997000Y-101953525D01*
X116054951Y-102244868D01*
X116168627Y-102519306D01*
X116333660Y-102766294D01*
X116543706Y-102976340D01*
X116790694Y-103141373D01*
X117065132Y-103255049D01*
X117356475Y-103313000D01*
X117653525Y-103313000D01*
X117944868Y-103255049D01*
X118219306Y-103141373D01*
X118466294Y-102976340D01*
X118676340Y-102766294D01*
X118841373Y-102519306D01*
X118880120Y-102425763D01*
X118891335Y-102442548D01*
X119087452Y-102638665D01*
X119318062Y-102792754D01*
X119574301Y-102898892D01*
X119846324Y-102953000D01*
X120123676Y-102953000D01*
X120395699Y-102898892D01*
X120651938Y-102792754D01*
X120882548Y-102638665D01*
X121078665Y-102442548D01*
X121164731Y-102313741D01*
X121335985Y-102570040D01*
X121559960Y-102794015D01*
X121823327Y-102969991D01*
X122115964Y-103091205D01*
X122426626Y-103153000D01*
X122743374Y-103153000D01*
X123054036Y-103091205D01*
X123346673Y-102969991D01*
X123610040Y-102794015D01*
X123834015Y-102570040D01*
X124009991Y-102306673D01*
X124131205Y-102014036D01*
X124193000Y-101703374D01*
X124193000Y-101386626D01*
X124131205Y-101075964D01*
X124009991Y-100783327D01*
X123834015Y-100519960D01*
X123610040Y-100295985D01*
X123551729Y-100257023D01*
X123619695Y-100040402D01*
X122585000Y-99005707D01*
X121550305Y-100040402D01*
X121618271Y-100257023D01*
X121559960Y-100295985D01*
X121335985Y-100519960D01*
X121164731Y-100776259D01*
X121078665Y-100647452D01*
X120882548Y-100451335D01*
X120651938Y-100297246D01*
X120395699Y-100191108D01*
X120123676Y-100137000D01*
X119846324Y-100137000D01*
X119574301Y-100191108D01*
X119318062Y-100297246D01*
X119087452Y-100451335D01*
X118891335Y-100647452D01*
X118737246Y-100878062D01*
X118722723Y-100913123D01*
X118676340Y-100843706D01*
X118466294Y-100633660D01*
X118219306Y-100468627D01*
X117944868Y-100354951D01*
X117653525Y-100297000D01*
X117356475Y-100297000D01*
X117065132Y-100354951D01*
X116790694Y-100468627D01*
X116543706Y-100633660D01*
X116333660Y-100843706D01*
X116168627Y-101090694D01*
X116054951Y-101365132D01*
X115997000Y-101656475D01*
X113308000Y-101656475D01*
X113308000Y-98942065D01*
X120970445Y-98942065D01*
X120989191Y-99258258D01*
X121069262Y-99564718D01*
X121207582Y-99849669D01*
X121277512Y-99954327D01*
X121549598Y-100039695D01*
X122584293Y-99005000D01*
X122585707Y-99005000D01*
X123620402Y-100039695D01*
X123892488Y-99954327D01*
X124052570Y-99681008D01*
X124156253Y-99381710D01*
X124199555Y-99067935D01*
X124180809Y-98751742D01*
X124100738Y-98445282D01*
X123962418Y-98160331D01*
X123892488Y-98055673D01*
X123620402Y-97970305D01*
X122585707Y-99005000D01*
X122584293Y-99005000D01*
X121549598Y-97970305D01*
X121277512Y-98055673D01*
X121117430Y-98328992D01*
X121013747Y-98628290D01*
X120970445Y-98942065D01*
X113308000Y-98942065D01*
X113308000Y-96056475D01*
X115957000Y-96056475D01*
X115957000Y-96353525D01*
X116014951Y-96644868D01*
X116128627Y-96919306D01*
X116293660Y-97166294D01*
X116503706Y-97376340D01*
X116750694Y-97541373D01*
X117025132Y-97655049D01*
X117316475Y-97713000D01*
X117613525Y-97713000D01*
X117904868Y-97655049D01*
X118179306Y-97541373D01*
X118426294Y-97376340D01*
X118636340Y-97166294D01*
X118707416Y-97059922D01*
X118737246Y-97131938D01*
X118891335Y-97362548D01*
X119087452Y-97558665D01*
X119318062Y-97712754D01*
X119574301Y-97818892D01*
X119846324Y-97873000D01*
X120123676Y-97873000D01*
X120395699Y-97818892D01*
X120651938Y-97712754D01*
X120882548Y-97558665D01*
X121078665Y-97362548D01*
X121164731Y-97233741D01*
X121335985Y-97490040D01*
X121559960Y-97714015D01*
X121618271Y-97752977D01*
X121550305Y-97969598D01*
X122585000Y-99004293D01*
X123619695Y-97969598D01*
X123551729Y-97752977D01*
X123610040Y-97714015D01*
X123834015Y-97490040D01*
X124009991Y-97226673D01*
X124131205Y-96934036D01*
X124193000Y-96623374D01*
X124193000Y-96306626D01*
X124131205Y-95995964D01*
X124009991Y-95703327D01*
X123834015Y-95439960D01*
X123610040Y-95215985D01*
X123346673Y-95040009D01*
X123054036Y-94918795D01*
X122743374Y-94857000D01*
X122426626Y-94857000D01*
X122115964Y-94918795D01*
X121823327Y-95040009D01*
X121559960Y-95215985D01*
X121335985Y-95439960D01*
X121164731Y-95696259D01*
X121078665Y-95567452D01*
X120882548Y-95371335D01*
X120651938Y-95217246D01*
X120395699Y-95111108D01*
X120123676Y-95057000D01*
X119846324Y-95057000D01*
X119574301Y-95111108D01*
X119318062Y-95217246D01*
X119087452Y-95371335D01*
X118891335Y-95567452D01*
X118855427Y-95621192D01*
X118801373Y-95490694D01*
X118636340Y-95243706D01*
X118426294Y-95033660D01*
X118179306Y-94868627D01*
X117904868Y-94754951D01*
X117613525Y-94697000D01*
X117316475Y-94697000D01*
X117025132Y-94754951D01*
X116750694Y-94868627D01*
X116503706Y-95033660D01*
X116293660Y-95243706D01*
X116128627Y-95490694D01*
X116014951Y-95765132D01*
X115957000Y-96056475D01*
X113308000Y-96056475D01*
X113308000Y-92505758D01*
X113498062Y-92632754D01*
X113754301Y-92738892D01*
X114026324Y-92793000D01*
X114303676Y-92793000D01*
X114575699Y-92738892D01*
X114831938Y-92632754D01*
X115062548Y-92478665D01*
X115258665Y-92282548D01*
X115261505Y-92278297D01*
X115812410Y-92278297D01*
X115873798Y-92529901D01*
X116113129Y-92670062D01*
X116375205Y-92760838D01*
X116649954Y-92798742D01*
X116926819Y-92782316D01*
X117195159Y-92712193D01*
X117444663Y-92591065D01*
X117536202Y-92529901D01*
X117597590Y-92278297D01*
X116705000Y-91385707D01*
X115812410Y-92278297D01*
X115261505Y-92278297D01*
X115412754Y-92051938D01*
X115436177Y-91995391D01*
X115498935Y-92124663D01*
X115560099Y-92216202D01*
X115811703Y-92277590D01*
X116704293Y-91385000D01*
X115811703Y-90492410D01*
X115560099Y-90553798D01*
X115433943Y-90769216D01*
X115412754Y-90718062D01*
X115258665Y-90487452D01*
X115062548Y-90291335D01*
X114833066Y-90138000D01*
X116049656Y-90138000D01*
X115965337Y-90178935D01*
G37*
X115965337Y-90178935D02*
X115873798Y-90240099D01*
X115812410Y-90491703D01*
X116705000Y-91384293D01*
X117597590Y-90491703D01*
X117536202Y-90240099D01*
X117361864Y-90138000D01*
X118576934Y-90138000D01*
X118347452Y-90291335D01*
X118151335Y-90487452D01*
X117997246Y-90718062D01*
X117973823Y-90774609D01*
X117911065Y-90645337D01*
X117849901Y-90553798D01*
X117598297Y-90492410D01*
X116705707Y-91385000D01*
X117598297Y-92277590D01*
X117849901Y-92216202D01*
X117976057Y-92000784D01*
X117997246Y-92051938D01*
X118151335Y-92282548D01*
X118347452Y-92478665D01*
X118578062Y-92632754D01*
X118834301Y-92738892D01*
X119106324Y-92793000D01*
X119383676Y-92793000D01*
X119655699Y-92738892D01*
X119911938Y-92632754D01*
X120142548Y-92478665D01*
X120338665Y-92282548D01*
X120492754Y-92051938D01*
X120515000Y-91998232D01*
X120537246Y-92051938D01*
X120691335Y-92282548D01*
X120887452Y-92478665D01*
X121118062Y-92632754D01*
X121374301Y-92738892D01*
X121646324Y-92793000D01*
X121923676Y-92793000D01*
X122195699Y-92738892D01*
X122451938Y-92632754D01*
X122682548Y-92478665D01*
X122878665Y-92282548D01*
X123032754Y-92051938D01*
X123055000Y-91998232D01*
X123077246Y-92051938D01*
X123231335Y-92282548D01*
X123427452Y-92478665D01*
X123658062Y-92632754D01*
X123914301Y-92738892D01*
X124186324Y-92793000D01*
X124463676Y-92793000D01*
X124735699Y-92738892D01*
X124991938Y-92632754D01*
X125222548Y-92478665D01*
X125418665Y-92282548D01*
X125572754Y-92051938D01*
X125595000Y-91998232D01*
X125617246Y-92051938D01*
X125771335Y-92282548D01*
X125967452Y-92478665D01*
X126198062Y-92632754D01*
X126454301Y-92738892D01*
X126726324Y-92793000D01*
X126845177Y-92793000D01*
X126455046Y-93183131D01*
X126142273Y-93651229D01*
X125926831Y-94171352D01*
X125817000Y-94723512D01*
X125817000Y-95286488D01*
X125926831Y-95838648D01*
X126142273Y-96358771D01*
X126455046Y-96826869D01*
X126853131Y-97224954D01*
X127321229Y-97537727D01*
X127841352Y-97753169D01*
X128393512Y-97863000D01*
X128956488Y-97863000D01*
X129508648Y-97753169D01*
X130028771Y-97537727D01*
X130496869Y-97224954D01*
X130894954Y-96826869D01*
X131207727Y-96358771D01*
X131423169Y-95838648D01*
X131533000Y-95286488D01*
X131533000Y-94723512D01*
X131423169Y-94171352D01*
X131207727Y-93651229D01*
X130894954Y-93183131D01*
X130496869Y-92785046D01*
X130170443Y-92566935D01*
X130302548Y-92478665D01*
X130498665Y-92282548D01*
X130652754Y-92051938D01*
X130675000Y-91998232D01*
X130697246Y-92051938D01*
X130851335Y-92282548D01*
X131047452Y-92478665D01*
X131278062Y-92632754D01*
X131534301Y-92738892D01*
X131806324Y-92793000D01*
X132083676Y-92793000D01*
X132355699Y-92738892D01*
X132611938Y-92632754D01*
X132842548Y-92478665D01*
X133038665Y-92282548D01*
X133192754Y-92051938D01*
X133215000Y-91998232D01*
X133237246Y-92051938D01*
X133391335Y-92282548D01*
X133587452Y-92478665D01*
X133818062Y-92632754D01*
X134074301Y-92738892D01*
X134346324Y-92793000D01*
X134623676Y-92793000D01*
X134895699Y-92738892D01*
X135151938Y-92632754D01*
X135382548Y-92478665D01*
X135578665Y-92282548D01*
X135732754Y-92051938D01*
X135755000Y-91998232D01*
X135777246Y-92051938D01*
X135931335Y-92282548D01*
X136127452Y-92478665D01*
X136358062Y-92632754D01*
X136614301Y-92738892D01*
X136886324Y-92793000D01*
X137163676Y-92793000D01*
X137357774Y-92754392D01*
X137500382Y-92897000D01*
X132175000Y-92897000D01*
X132056385Y-92908683D01*
X131942328Y-92943281D01*
X131837213Y-92999466D01*
X131745079Y-93075079D01*
X131669466Y-93167213D01*
X131613281Y-93272328D01*
X131578683Y-93386385D01*
X131567000Y-93505000D01*
X131567000Y-97505000D01*
X131578683Y-97623615D01*
X131613281Y-97737672D01*
X131669466Y-97842787D01*
X131745079Y-97934921D01*
X131837213Y-98010534D01*
X131942328Y-98066719D01*
X132056385Y-98101317D01*
X132133604Y-98108923D01*
X132030851Y-98211676D01*
X131880922Y-98436062D01*
X131777648Y-98685386D01*
X131725000Y-98950067D01*
X131725000Y-99219933D01*
X131777648Y-99484614D01*
X131880922Y-99733938D01*
X132030851Y-99958324D01*
X132221676Y-100149149D01*
X132446062Y-100299078D01*
X132695386Y-100402352D01*
X132960067Y-100455000D01*
X133229933Y-100455000D01*
X133395457Y-100422075D01*
X135721232Y-102747851D01*
X135744183Y-102775817D01*
X135855797Y-102867416D01*
X135983136Y-102935480D01*
X136079393Y-102964679D01*
X136121306Y-102977393D01*
X136265000Y-102991546D01*
X136301002Y-102988000D01*
X137462482Y-102988000D01*
X137455287Y-102991493D01*
X137366242Y-103050990D01*
X137309410Y-103298703D01*
X138175000Y-104164293D01*
X138189143Y-104150151D01*
X138189850Y-104150858D01*
X138175707Y-104165000D01*
X138189850Y-104179143D01*
X138189143Y-104179850D01*
X138175000Y-104165707D01*
X137309410Y-105031297D01*
X137361021Y-105256254D01*
X137163676Y-105217000D01*
X136886324Y-105217000D01*
X136614301Y-105271108D01*
X136358062Y-105377246D01*
X136127452Y-105531335D01*
X135931335Y-105727452D01*
X135777246Y-105958062D01*
X135755000Y-106011768D01*
X135732754Y-105958062D01*
X135578665Y-105727452D01*
X135382548Y-105531335D01*
X135151938Y-105377246D01*
X134895699Y-105271108D01*
X134623676Y-105217000D01*
X134346324Y-105217000D01*
X134074301Y-105271108D01*
X133818062Y-105377246D01*
X133587452Y-105531335D01*
X133391335Y-105727452D01*
X133237246Y-105958062D01*
X133215000Y-106011768D01*
X133192754Y-105958062D01*
X133038665Y-105727452D01*
X132842548Y-105531335D01*
X132611938Y-105377246D01*
X132355699Y-105271108D01*
X132083676Y-105217000D01*
X131806324Y-105217000D01*
X131534301Y-105271108D01*
X131278062Y-105377246D01*
X131047452Y-105531335D01*
X130851335Y-105727452D01*
X130697246Y-105958062D01*
X130675000Y-106011768D01*
X130652754Y-105958062D01*
X130498665Y-105727452D01*
X130302548Y-105531335D01*
X130170443Y-105443065D01*
X130496869Y-105224954D01*
X130894954Y-104826869D01*
X131207727Y-104358771D01*
X131310169Y-104111454D01*
X136799413Y-104111454D01*
X136815398Y-104380846D01*
X136883633Y-104641944D01*
X137001493Y-104884713D01*
X137060990Y-104973758D01*
X137308703Y-105030590D01*
X138174293Y-104165000D01*
X137308703Y-103299410D01*
X137060990Y-103356242D01*
X136924615Y-103589115D01*
X136836291Y-103844118D01*
X136799413Y-104111454D01*
X131310169Y-104111454D01*
X131423169Y-103838648D01*
X131533000Y-103286488D01*
X131533000Y-102723512D01*
X131423169Y-102171352D01*
X131207727Y-101651229D01*
X130894954Y-101183131D01*
X130496869Y-100785046D01*
X130028771Y-100472273D01*
X129508648Y-100256831D01*
X128956488Y-100147000D01*
X128393512Y-100147000D01*
X127841352Y-100256831D01*
X127321229Y-100472273D01*
X126853131Y-100785046D01*
X126455046Y-101183131D01*
X126142273Y-101651229D01*
X125926831Y-102171352D01*
X125817000Y-102723512D01*
X125817000Y-103286488D01*
X125926831Y-103838648D01*
X126142273Y-104358771D01*
X126455046Y-104826869D01*
X126845177Y-105217000D01*
X126726324Y-105217000D01*
X126454301Y-105271108D01*
X126198062Y-105377246D01*
X125967452Y-105531335D01*
X125771335Y-105727452D01*
X125617246Y-105958062D01*
X125595000Y-106011768D01*
X125572754Y-105958062D01*
X125418665Y-105727452D01*
X125222548Y-105531335D01*
X124991938Y-105377246D01*
X124735699Y-105271108D01*
X124463676Y-105217000D01*
X124186324Y-105217000D01*
X123914301Y-105271108D01*
X123658062Y-105377246D01*
X123427452Y-105531335D01*
X123231335Y-105727452D01*
X123077246Y-105958062D01*
X123055000Y-106011768D01*
X123032754Y-105958062D01*
X122878665Y-105727452D01*
X122682548Y-105531335D01*
X122451938Y-105377246D01*
X122195699Y-105271108D01*
X121923676Y-105217000D01*
X121646324Y-105217000D01*
X121374301Y-105271108D01*
X121118062Y-105377246D01*
X120887452Y-105531335D01*
X120691335Y-105727452D01*
X120537246Y-105958062D01*
X120515000Y-106011768D01*
X120492754Y-105958062D01*
X120338665Y-105727452D01*
X120142548Y-105531335D01*
X119911938Y-105377246D01*
X119655699Y-105271108D01*
X119383676Y-105217000D01*
X119106324Y-105217000D01*
X118834301Y-105271108D01*
X118578062Y-105377246D01*
X118347452Y-105531335D01*
X118151335Y-105727452D01*
X117997246Y-105958062D01*
X117975000Y-106011768D01*
X117952754Y-105958062D01*
X117798665Y-105727452D01*
X117602548Y-105531335D01*
X117371938Y-105377246D01*
X117115699Y-105271108D01*
X116843676Y-105217000D01*
X116566324Y-105217000D01*
X116294301Y-105271108D01*
X116038062Y-105377246D01*
X115807452Y-105531335D01*
X115611335Y-105727452D01*
X115572115Y-105786148D01*
X115564203Y-105705811D01*
X115529437Y-105591203D01*
X115472980Y-105485579D01*
X115397001Y-105392999D01*
X115304421Y-105317020D01*
X115198797Y-105260563D01*
X115084189Y-105225797D01*
X114965000Y-105214058D01*
X114317500Y-105217000D01*
X114165500Y-105369000D01*
X114165500Y-106624500D01*
X114185500Y-106624500D01*
X114185500Y-106625500D01*
X114165500Y-106625500D01*
X114165500Y-106645500D01*
X114164500Y-106645500D01*
X114164500Y-106625500D01*
X114144500Y-106625500D01*
X114144500Y-106624500D01*
X114164500Y-106624500D01*
X114164500Y-105369000D01*
X114012500Y-105217000D01*
X113365000Y-105214058D01*
X113308000Y-105219672D01*
X113308000Y-101656475D01*
X115997000Y-101656475D01*
X115997000Y-101953525D01*
X116054951Y-102244868D01*
X116168627Y-102519306D01*
X116333660Y-102766294D01*
X116543706Y-102976340D01*
X116790694Y-103141373D01*
X117065132Y-103255049D01*
X117356475Y-103313000D01*
X117653525Y-103313000D01*
X117944868Y-103255049D01*
X118219306Y-103141373D01*
X118466294Y-102976340D01*
X118676340Y-102766294D01*
X118841373Y-102519306D01*
X118880120Y-102425763D01*
X118891335Y-102442548D01*
X119087452Y-102638665D01*
X119318062Y-102792754D01*
X119574301Y-102898892D01*
X119846324Y-102953000D01*
X120123676Y-102953000D01*
X120395699Y-102898892D01*
X120651938Y-102792754D01*
X120882548Y-102638665D01*
X121078665Y-102442548D01*
X121164731Y-102313741D01*
X121335985Y-102570040D01*
X121559960Y-102794015D01*
X121823327Y-102969991D01*
X122115964Y-103091205D01*
X122426626Y-103153000D01*
X122743374Y-103153000D01*
X123054036Y-103091205D01*
X123346673Y-102969991D01*
X123610040Y-102794015D01*
X123834015Y-102570040D01*
X124009991Y-102306673D01*
X124131205Y-102014036D01*
X124193000Y-101703374D01*
X124193000Y-101386626D01*
X124131205Y-101075964D01*
X124009991Y-100783327D01*
X123834015Y-100519960D01*
X123610040Y-100295985D01*
X123551729Y-100257023D01*
X123619695Y-100040402D01*
X122585000Y-99005707D01*
X121550305Y-100040402D01*
X121618271Y-100257023D01*
X121559960Y-100295985D01*
X121335985Y-100519960D01*
X121164731Y-100776259D01*
X121078665Y-100647452D01*
X120882548Y-100451335D01*
X120651938Y-100297246D01*
X120395699Y-100191108D01*
X120123676Y-100137000D01*
X119846324Y-100137000D01*
X119574301Y-100191108D01*
X119318062Y-100297246D01*
X119087452Y-100451335D01*
X118891335Y-100647452D01*
X118737246Y-100878062D01*
X118722723Y-100913123D01*
X118676340Y-100843706D01*
X118466294Y-100633660D01*
X118219306Y-100468627D01*
X117944868Y-100354951D01*
X117653525Y-100297000D01*
X117356475Y-100297000D01*
X117065132Y-100354951D01*
X116790694Y-100468627D01*
X116543706Y-100633660D01*
X116333660Y-100843706D01*
X116168627Y-101090694D01*
X116054951Y-101365132D01*
X115997000Y-101656475D01*
X113308000Y-101656475D01*
X113308000Y-98942065D01*
X120970445Y-98942065D01*
X120989191Y-99258258D01*
X121069262Y-99564718D01*
X121207582Y-99849669D01*
X121277512Y-99954327D01*
X121549598Y-100039695D01*
X122584293Y-99005000D01*
X122585707Y-99005000D01*
X123620402Y-100039695D01*
X123892488Y-99954327D01*
X124052570Y-99681008D01*
X124156253Y-99381710D01*
X124199555Y-99067935D01*
X124180809Y-98751742D01*
X124100738Y-98445282D01*
X123962418Y-98160331D01*
X123892488Y-98055673D01*
X123620402Y-97970305D01*
X122585707Y-99005000D01*
X122584293Y-99005000D01*
X121549598Y-97970305D01*
X121277512Y-98055673D01*
X121117430Y-98328992D01*
X121013747Y-98628290D01*
X120970445Y-98942065D01*
X113308000Y-98942065D01*
X113308000Y-96056475D01*
X115957000Y-96056475D01*
X115957000Y-96353525D01*
X116014951Y-96644868D01*
X116128627Y-96919306D01*
X116293660Y-97166294D01*
X116503706Y-97376340D01*
X116750694Y-97541373D01*
X117025132Y-97655049D01*
X117316475Y-97713000D01*
X117613525Y-97713000D01*
X117904868Y-97655049D01*
X118179306Y-97541373D01*
X118426294Y-97376340D01*
X118636340Y-97166294D01*
X118707416Y-97059922D01*
X118737246Y-97131938D01*
X118891335Y-97362548D01*
X119087452Y-97558665D01*
X119318062Y-97712754D01*
X119574301Y-97818892D01*
X119846324Y-97873000D01*
X120123676Y-97873000D01*
X120395699Y-97818892D01*
X120651938Y-97712754D01*
X120882548Y-97558665D01*
X121078665Y-97362548D01*
X121164731Y-97233741D01*
X121335985Y-97490040D01*
X121559960Y-97714015D01*
X121618271Y-97752977D01*
X121550305Y-97969598D01*
X122585000Y-99004293D01*
X123619695Y-97969598D01*
X123551729Y-97752977D01*
X123610040Y-97714015D01*
X123834015Y-97490040D01*
X124009991Y-97226673D01*
X124131205Y-96934036D01*
X124193000Y-96623374D01*
X124193000Y-96306626D01*
X124131205Y-95995964D01*
X124009991Y-95703327D01*
X123834015Y-95439960D01*
X123610040Y-95215985D01*
X123346673Y-95040009D01*
X123054036Y-94918795D01*
X122743374Y-94857000D01*
X122426626Y-94857000D01*
X122115964Y-94918795D01*
X121823327Y-95040009D01*
X121559960Y-95215985D01*
X121335985Y-95439960D01*
X121164731Y-95696259D01*
X121078665Y-95567452D01*
X120882548Y-95371335D01*
X120651938Y-95217246D01*
X120395699Y-95111108D01*
X120123676Y-95057000D01*
X119846324Y-95057000D01*
X119574301Y-95111108D01*
X119318062Y-95217246D01*
X119087452Y-95371335D01*
X118891335Y-95567452D01*
X118855427Y-95621192D01*
X118801373Y-95490694D01*
X118636340Y-95243706D01*
X118426294Y-95033660D01*
X118179306Y-94868627D01*
X117904868Y-94754951D01*
X117613525Y-94697000D01*
X117316475Y-94697000D01*
X117025132Y-94754951D01*
X116750694Y-94868627D01*
X116503706Y-95033660D01*
X116293660Y-95243706D01*
X116128627Y-95490694D01*
X116014951Y-95765132D01*
X115957000Y-96056475D01*
X113308000Y-96056475D01*
X113308000Y-92505758D01*
X113498062Y-92632754D01*
X113754301Y-92738892D01*
X114026324Y-92793000D01*
X114303676Y-92793000D01*
X114575699Y-92738892D01*
X114831938Y-92632754D01*
X115062548Y-92478665D01*
X115258665Y-92282548D01*
X115261505Y-92278297D01*
X115812410Y-92278297D01*
X115873798Y-92529901D01*
X116113129Y-92670062D01*
X116375205Y-92760838D01*
X116649954Y-92798742D01*
X116926819Y-92782316D01*
X117195159Y-92712193D01*
X117444663Y-92591065D01*
X117536202Y-92529901D01*
X117597590Y-92278297D01*
X116705000Y-91385707D01*
X115812410Y-92278297D01*
X115261505Y-92278297D01*
X115412754Y-92051938D01*
X115436177Y-91995391D01*
X115498935Y-92124663D01*
X115560099Y-92216202D01*
X115811703Y-92277590D01*
X116704293Y-91385000D01*
X115811703Y-90492410D01*
X115560099Y-90553798D01*
X115433943Y-90769216D01*
X115412754Y-90718062D01*
X115258665Y-90487452D01*
X115062548Y-90291335D01*
X114833066Y-90138000D01*
X116049656Y-90138000D01*
X115965337Y-90178935D01*
G36*
X159687290Y-90999893D02*
G01*
X159615029Y-91276425D01*
X159749000Y-91504500D01*
X161054500Y-91504500D01*
X161054500Y-91484500D01*
X161055500Y-91484500D01*
X161055500Y-91504500D01*
X161075500Y-91504500D01*
X161075500Y-91505500D01*
X161055500Y-91505500D01*
X161055500Y-91525500D01*
X161054500Y-91525500D01*
X161054500Y-91505500D01*
X159749000Y-91505500D01*
X159697324Y-91593475D01*
X159661862Y-91574520D01*
X159523691Y-91532607D01*
X159416000Y-91522000D01*
X159379998Y-91518454D01*
X159343996Y-91522000D01*
X150711002Y-91522000D01*
X150675000Y-91518454D01*
X150531306Y-91532607D01*
X150393136Y-91574520D01*
X150265797Y-91642584D01*
X150154183Y-91734183D01*
X150131227Y-91762155D01*
X149871382Y-92022000D01*
X148445155Y-92022000D01*
X148538892Y-91795699D01*
X148593000Y-91523676D01*
X148593000Y-91246324D01*
X148538892Y-90974301D01*
X148492789Y-90862999D01*
X159753747Y-90862999D01*
X159687290Y-90999893D01*
G37*
X159687290Y-90999893D02*
X159615029Y-91276425D01*
X159749000Y-91504500D01*
X161054500Y-91504500D01*
X161054500Y-91484500D01*
X161055500Y-91484500D01*
X161055500Y-91504500D01*
X161075500Y-91504500D01*
X161075500Y-91505500D01*
X161055500Y-91505500D01*
X161055500Y-91525500D01*
X161054500Y-91525500D01*
X161054500Y-91505500D01*
X159749000Y-91505500D01*
X159697324Y-91593475D01*
X159661862Y-91574520D01*
X159523691Y-91532607D01*
X159416000Y-91522000D01*
X159379998Y-91518454D01*
X159343996Y-91522000D01*
X150711002Y-91522000D01*
X150675000Y-91518454D01*
X150531306Y-91532607D01*
X150393136Y-91574520D01*
X150265797Y-91642584D01*
X150154183Y-91734183D01*
X150131227Y-91762155D01*
X149871382Y-92022000D01*
X148445155Y-92022000D01*
X148538892Y-91795699D01*
X148593000Y-91523676D01*
X148593000Y-91246324D01*
X148538892Y-90974301D01*
X148492789Y-90862999D01*
X159753747Y-90862999D01*
X159687290Y-90999893D01*
D23*
G36*
X149048000Y-104378000D02*
G01*
X145358992Y-104378000D01*
X145349276Y-104370026D01*
X145217247Y-104299454D01*
X145073986Y-104255997D01*
X144962333Y-104245000D01*
X144962322Y-104245000D01*
X144925000Y-104241324D01*
X144887678Y-104245000D01*
X141475000Y-104245000D01*
X141475000Y-100882000D01*
X142925000Y-100882000D01*
X142949776Y-100879560D01*
X142973601Y-100872333D01*
X142995557Y-100860597D01*
X143014803Y-100844803D01*
X143030597Y-100825557D01*
X143042333Y-100803601D01*
X143049560Y-100779776D01*
X143052000Y-100755000D01*
X143052000Y-97505000D01*
X143049560Y-97480224D01*
X143042333Y-97456399D01*
X143030597Y-97434443D01*
X143014803Y-97415197D01*
X142995557Y-97399403D01*
X142973601Y-97387667D01*
X142949776Y-97380440D01*
X142925000Y-97378000D01*
X132302000Y-97378000D01*
X132302000Y-93632000D01*
X149048000Y-93632000D01*
X149048000Y-104378000D01*
G37*
X149048000Y-104378000D02*
X145358992Y-104378000D01*
X145349276Y-104370026D01*
X145217247Y-104299454D01*
X145073986Y-104255997D01*
X144962333Y-104245000D01*
X144962322Y-104245000D01*
X144925000Y-104241324D01*
X144887678Y-104245000D01*
X141475000Y-104245000D01*
X141475000Y-100882000D01*
X142925000Y-100882000D01*
X142949776Y-100879560D01*
X142973601Y-100872333D01*
X142995557Y-100860597D01*
X143014803Y-100844803D01*
X143030597Y-100825557D01*
X143042333Y-100803601D01*
X143049560Y-100779776D01*
X143052000Y-100755000D01*
X143052000Y-97505000D01*
X143049560Y-97480224D01*
X143042333Y-97456399D01*
X143030597Y-97434443D01*
X143014803Y-97415197D01*
X142995557Y-97399403D01*
X142973601Y-97387667D01*
X142949776Y-97380440D01*
X142925000Y-97378000D01*
X132302000Y-97378000D01*
X132302000Y-93632000D01*
X149048000Y-93632000D01*
X149048000Y-104378000D01*
M02*
