G04 #@! TF.GenerationSoftware,KiCad,Pcbnew,(5.1.5-0-10_14)*
G04 #@! TF.CreationDate,2020-02-22T10:41:04+08:00*
G04 #@! TF.ProjectId,audio-board,61756469-6f2d-4626-9f61-72642e6b6963,rev?*
G04 #@! TF.SameCoordinates,Original*
G04 #@! TF.FileFunction,Soldermask,Bot*
G04 #@! TF.FilePolarity,Negative*
%FSLAX46Y46*%
G04 Gerber Fmt 4.6, Leading zero omitted, Abs format (unit mm)*
G04 Created by KiCad (PCBNEW (5.1.5-0-10_14)) date 2020-02-22 10:41:04*
%MOMM*%
%LPD*%
G04 APERTURE LIST*
%ADD10C,0.100000*%
G04 APERTURE END LIST*
D10*
G36*
X148675000Y-102255000D02*
G01*
X143425000Y-102255000D01*
X143425000Y-94005000D01*
X148675000Y-94005000D01*
X148675000Y-102255000D01*
G37*
X148675000Y-102255000D02*
X143425000Y-102255000D01*
X143425000Y-94005000D01*
X148675000Y-94005000D01*
X148675000Y-102255000D01*
G36*
X147433228Y-105806703D02*
G01*
X147588100Y-105870853D01*
X147727481Y-105963985D01*
X147846015Y-106082519D01*
X147939147Y-106221900D01*
X148003297Y-106376772D01*
X148036000Y-106541184D01*
X148036000Y-106708816D01*
X148003297Y-106873228D01*
X147939147Y-107028100D01*
X147846015Y-107167481D01*
X147727481Y-107286015D01*
X147588100Y-107379147D01*
X147433228Y-107443297D01*
X147268816Y-107476000D01*
X147101184Y-107476000D01*
X146936772Y-107443297D01*
X146781900Y-107379147D01*
X146642519Y-107286015D01*
X146523985Y-107167481D01*
X146430853Y-107028100D01*
X146366703Y-106873228D01*
X146334000Y-106708816D01*
X146334000Y-106541184D01*
X146366703Y-106376772D01*
X146430853Y-106221900D01*
X146523985Y-106082519D01*
X146642519Y-105963985D01*
X146781900Y-105870853D01*
X146936772Y-105806703D01*
X147101184Y-105774000D01*
X147268816Y-105774000D01*
X147433228Y-105806703D01*
G37*
G36*
X144893228Y-105806703D02*
G01*
X145048100Y-105870853D01*
X145187481Y-105963985D01*
X145306015Y-106082519D01*
X145399147Y-106221900D01*
X145463297Y-106376772D01*
X145496000Y-106541184D01*
X145496000Y-106708816D01*
X145463297Y-106873228D01*
X145399147Y-107028100D01*
X145306015Y-107167481D01*
X145187481Y-107286015D01*
X145048100Y-107379147D01*
X144893228Y-107443297D01*
X144728816Y-107476000D01*
X144561184Y-107476000D01*
X144396772Y-107443297D01*
X144241900Y-107379147D01*
X144102519Y-107286015D01*
X143983985Y-107167481D01*
X143890853Y-107028100D01*
X143826703Y-106873228D01*
X143794000Y-106708816D01*
X143794000Y-106541184D01*
X143826703Y-106376772D01*
X143890853Y-106221900D01*
X143983985Y-106082519D01*
X144102519Y-105963985D01*
X144241900Y-105870853D01*
X144396772Y-105806703D01*
X144561184Y-105774000D01*
X144728816Y-105774000D01*
X144893228Y-105806703D01*
G37*
G36*
X142353228Y-105806703D02*
G01*
X142508100Y-105870853D01*
X142647481Y-105963985D01*
X142766015Y-106082519D01*
X142859147Y-106221900D01*
X142923297Y-106376772D01*
X142956000Y-106541184D01*
X142956000Y-106708816D01*
X142923297Y-106873228D01*
X142859147Y-107028100D01*
X142766015Y-107167481D01*
X142647481Y-107286015D01*
X142508100Y-107379147D01*
X142353228Y-107443297D01*
X142188816Y-107476000D01*
X142021184Y-107476000D01*
X141856772Y-107443297D01*
X141701900Y-107379147D01*
X141562519Y-107286015D01*
X141443985Y-107167481D01*
X141350853Y-107028100D01*
X141286703Y-106873228D01*
X141254000Y-106708816D01*
X141254000Y-106541184D01*
X141286703Y-106376772D01*
X141350853Y-106221900D01*
X141443985Y-106082519D01*
X141562519Y-105963985D01*
X141701900Y-105870853D01*
X141856772Y-105806703D01*
X142021184Y-105774000D01*
X142188816Y-105774000D01*
X142353228Y-105806703D01*
G37*
G36*
X139813228Y-105806703D02*
G01*
X139968100Y-105870853D01*
X140107481Y-105963985D01*
X140226015Y-106082519D01*
X140319147Y-106221900D01*
X140383297Y-106376772D01*
X140416000Y-106541184D01*
X140416000Y-106708816D01*
X140383297Y-106873228D01*
X140319147Y-107028100D01*
X140226015Y-107167481D01*
X140107481Y-107286015D01*
X139968100Y-107379147D01*
X139813228Y-107443297D01*
X139648816Y-107476000D01*
X139481184Y-107476000D01*
X139316772Y-107443297D01*
X139161900Y-107379147D01*
X139022519Y-107286015D01*
X138903985Y-107167481D01*
X138810853Y-107028100D01*
X138746703Y-106873228D01*
X138714000Y-106708816D01*
X138714000Y-106541184D01*
X138746703Y-106376772D01*
X138810853Y-106221900D01*
X138903985Y-106082519D01*
X139022519Y-105963985D01*
X139161900Y-105870853D01*
X139316772Y-105806703D01*
X139481184Y-105774000D01*
X139648816Y-105774000D01*
X139813228Y-105806703D01*
G37*
G36*
X137273228Y-105806703D02*
G01*
X137428100Y-105870853D01*
X137567481Y-105963985D01*
X137686015Y-106082519D01*
X137779147Y-106221900D01*
X137843297Y-106376772D01*
X137876000Y-106541184D01*
X137876000Y-106708816D01*
X137843297Y-106873228D01*
X137779147Y-107028100D01*
X137686015Y-107167481D01*
X137567481Y-107286015D01*
X137428100Y-107379147D01*
X137273228Y-107443297D01*
X137108816Y-107476000D01*
X136941184Y-107476000D01*
X136776772Y-107443297D01*
X136621900Y-107379147D01*
X136482519Y-107286015D01*
X136363985Y-107167481D01*
X136270853Y-107028100D01*
X136206703Y-106873228D01*
X136174000Y-106708816D01*
X136174000Y-106541184D01*
X136206703Y-106376772D01*
X136270853Y-106221900D01*
X136363985Y-106082519D01*
X136482519Y-105963985D01*
X136621900Y-105870853D01*
X136776772Y-105806703D01*
X136941184Y-105774000D01*
X137108816Y-105774000D01*
X137273228Y-105806703D01*
G37*
G36*
X134733228Y-105806703D02*
G01*
X134888100Y-105870853D01*
X135027481Y-105963985D01*
X135146015Y-106082519D01*
X135239147Y-106221900D01*
X135303297Y-106376772D01*
X135336000Y-106541184D01*
X135336000Y-106708816D01*
X135303297Y-106873228D01*
X135239147Y-107028100D01*
X135146015Y-107167481D01*
X135027481Y-107286015D01*
X134888100Y-107379147D01*
X134733228Y-107443297D01*
X134568816Y-107476000D01*
X134401184Y-107476000D01*
X134236772Y-107443297D01*
X134081900Y-107379147D01*
X133942519Y-107286015D01*
X133823985Y-107167481D01*
X133730853Y-107028100D01*
X133666703Y-106873228D01*
X133634000Y-106708816D01*
X133634000Y-106541184D01*
X133666703Y-106376772D01*
X133730853Y-106221900D01*
X133823985Y-106082519D01*
X133942519Y-105963985D01*
X134081900Y-105870853D01*
X134236772Y-105806703D01*
X134401184Y-105774000D01*
X134568816Y-105774000D01*
X134733228Y-105806703D01*
G37*
G36*
X132193228Y-105806703D02*
G01*
X132348100Y-105870853D01*
X132487481Y-105963985D01*
X132606015Y-106082519D01*
X132699147Y-106221900D01*
X132763297Y-106376772D01*
X132796000Y-106541184D01*
X132796000Y-106708816D01*
X132763297Y-106873228D01*
X132699147Y-107028100D01*
X132606015Y-107167481D01*
X132487481Y-107286015D01*
X132348100Y-107379147D01*
X132193228Y-107443297D01*
X132028816Y-107476000D01*
X131861184Y-107476000D01*
X131696772Y-107443297D01*
X131541900Y-107379147D01*
X131402519Y-107286015D01*
X131283985Y-107167481D01*
X131190853Y-107028100D01*
X131126703Y-106873228D01*
X131094000Y-106708816D01*
X131094000Y-106541184D01*
X131126703Y-106376772D01*
X131190853Y-106221900D01*
X131283985Y-106082519D01*
X131402519Y-105963985D01*
X131541900Y-105870853D01*
X131696772Y-105806703D01*
X131861184Y-105774000D01*
X132028816Y-105774000D01*
X132193228Y-105806703D01*
G37*
G36*
X129653228Y-105806703D02*
G01*
X129808100Y-105870853D01*
X129947481Y-105963985D01*
X130066015Y-106082519D01*
X130159147Y-106221900D01*
X130223297Y-106376772D01*
X130256000Y-106541184D01*
X130256000Y-106708816D01*
X130223297Y-106873228D01*
X130159147Y-107028100D01*
X130066015Y-107167481D01*
X129947481Y-107286015D01*
X129808100Y-107379147D01*
X129653228Y-107443297D01*
X129488816Y-107476000D01*
X129321184Y-107476000D01*
X129156772Y-107443297D01*
X129001900Y-107379147D01*
X128862519Y-107286015D01*
X128743985Y-107167481D01*
X128650853Y-107028100D01*
X128586703Y-106873228D01*
X128554000Y-106708816D01*
X128554000Y-106541184D01*
X128586703Y-106376772D01*
X128650853Y-106221900D01*
X128743985Y-106082519D01*
X128862519Y-105963985D01*
X129001900Y-105870853D01*
X129156772Y-105806703D01*
X129321184Y-105774000D01*
X129488816Y-105774000D01*
X129653228Y-105806703D01*
G37*
G36*
X127113228Y-105806703D02*
G01*
X127268100Y-105870853D01*
X127407481Y-105963985D01*
X127526015Y-106082519D01*
X127619147Y-106221900D01*
X127683297Y-106376772D01*
X127716000Y-106541184D01*
X127716000Y-106708816D01*
X127683297Y-106873228D01*
X127619147Y-107028100D01*
X127526015Y-107167481D01*
X127407481Y-107286015D01*
X127268100Y-107379147D01*
X127113228Y-107443297D01*
X126948816Y-107476000D01*
X126781184Y-107476000D01*
X126616772Y-107443297D01*
X126461900Y-107379147D01*
X126322519Y-107286015D01*
X126203985Y-107167481D01*
X126110853Y-107028100D01*
X126046703Y-106873228D01*
X126014000Y-106708816D01*
X126014000Y-106541184D01*
X126046703Y-106376772D01*
X126110853Y-106221900D01*
X126203985Y-106082519D01*
X126322519Y-105963985D01*
X126461900Y-105870853D01*
X126616772Y-105806703D01*
X126781184Y-105774000D01*
X126948816Y-105774000D01*
X127113228Y-105806703D01*
G37*
G36*
X124573228Y-105806703D02*
G01*
X124728100Y-105870853D01*
X124867481Y-105963985D01*
X124986015Y-106082519D01*
X125079147Y-106221900D01*
X125143297Y-106376772D01*
X125176000Y-106541184D01*
X125176000Y-106708816D01*
X125143297Y-106873228D01*
X125079147Y-107028100D01*
X124986015Y-107167481D01*
X124867481Y-107286015D01*
X124728100Y-107379147D01*
X124573228Y-107443297D01*
X124408816Y-107476000D01*
X124241184Y-107476000D01*
X124076772Y-107443297D01*
X123921900Y-107379147D01*
X123782519Y-107286015D01*
X123663985Y-107167481D01*
X123570853Y-107028100D01*
X123506703Y-106873228D01*
X123474000Y-106708816D01*
X123474000Y-106541184D01*
X123506703Y-106376772D01*
X123570853Y-106221900D01*
X123663985Y-106082519D01*
X123782519Y-105963985D01*
X123921900Y-105870853D01*
X124076772Y-105806703D01*
X124241184Y-105774000D01*
X124408816Y-105774000D01*
X124573228Y-105806703D01*
G37*
G36*
X122033228Y-105806703D02*
G01*
X122188100Y-105870853D01*
X122327481Y-105963985D01*
X122446015Y-106082519D01*
X122539147Y-106221900D01*
X122603297Y-106376772D01*
X122636000Y-106541184D01*
X122636000Y-106708816D01*
X122603297Y-106873228D01*
X122539147Y-107028100D01*
X122446015Y-107167481D01*
X122327481Y-107286015D01*
X122188100Y-107379147D01*
X122033228Y-107443297D01*
X121868816Y-107476000D01*
X121701184Y-107476000D01*
X121536772Y-107443297D01*
X121381900Y-107379147D01*
X121242519Y-107286015D01*
X121123985Y-107167481D01*
X121030853Y-107028100D01*
X120966703Y-106873228D01*
X120934000Y-106708816D01*
X120934000Y-106541184D01*
X120966703Y-106376772D01*
X121030853Y-106221900D01*
X121123985Y-106082519D01*
X121242519Y-105963985D01*
X121381900Y-105870853D01*
X121536772Y-105806703D01*
X121701184Y-105774000D01*
X121868816Y-105774000D01*
X122033228Y-105806703D01*
G37*
G36*
X119493228Y-105806703D02*
G01*
X119648100Y-105870853D01*
X119787481Y-105963985D01*
X119906015Y-106082519D01*
X119999147Y-106221900D01*
X120063297Y-106376772D01*
X120096000Y-106541184D01*
X120096000Y-106708816D01*
X120063297Y-106873228D01*
X119999147Y-107028100D01*
X119906015Y-107167481D01*
X119787481Y-107286015D01*
X119648100Y-107379147D01*
X119493228Y-107443297D01*
X119328816Y-107476000D01*
X119161184Y-107476000D01*
X118996772Y-107443297D01*
X118841900Y-107379147D01*
X118702519Y-107286015D01*
X118583985Y-107167481D01*
X118490853Y-107028100D01*
X118426703Y-106873228D01*
X118394000Y-106708816D01*
X118394000Y-106541184D01*
X118426703Y-106376772D01*
X118490853Y-106221900D01*
X118583985Y-106082519D01*
X118702519Y-105963985D01*
X118841900Y-105870853D01*
X118996772Y-105806703D01*
X119161184Y-105774000D01*
X119328816Y-105774000D01*
X119493228Y-105806703D01*
G37*
G36*
X116953228Y-105806703D02*
G01*
X117108100Y-105870853D01*
X117247481Y-105963985D01*
X117366015Y-106082519D01*
X117459147Y-106221900D01*
X117523297Y-106376772D01*
X117556000Y-106541184D01*
X117556000Y-106708816D01*
X117523297Y-106873228D01*
X117459147Y-107028100D01*
X117366015Y-107167481D01*
X117247481Y-107286015D01*
X117108100Y-107379147D01*
X116953228Y-107443297D01*
X116788816Y-107476000D01*
X116621184Y-107476000D01*
X116456772Y-107443297D01*
X116301900Y-107379147D01*
X116162519Y-107286015D01*
X116043985Y-107167481D01*
X115950853Y-107028100D01*
X115886703Y-106873228D01*
X115854000Y-106708816D01*
X115854000Y-106541184D01*
X115886703Y-106376772D01*
X115950853Y-106221900D01*
X116043985Y-106082519D01*
X116162519Y-105963985D01*
X116301900Y-105870853D01*
X116456772Y-105806703D01*
X116621184Y-105774000D01*
X116788816Y-105774000D01*
X116953228Y-105806703D01*
G37*
G36*
X115016000Y-107476000D02*
G01*
X113314000Y-107476000D01*
X113314000Y-105774000D01*
X115016000Y-105774000D01*
X115016000Y-107476000D01*
G37*
G36*
X129015765Y-100726703D02*
G01*
X129346177Y-100792426D01*
X129764932Y-100965880D01*
X130141802Y-101217696D01*
X130462304Y-101538198D01*
X130714120Y-101915068D01*
X130887574Y-102333823D01*
X130915931Y-102476384D01*
X130976000Y-102778370D01*
X130976000Y-103231630D01*
X130952057Y-103352000D01*
X130887574Y-103676177D01*
X130714120Y-104094932D01*
X130462304Y-104471802D01*
X130141802Y-104792304D01*
X129764932Y-105044120D01*
X129346177Y-105217574D01*
X129123903Y-105261787D01*
X128901630Y-105306000D01*
X128448370Y-105306000D01*
X128226097Y-105261787D01*
X128003823Y-105217574D01*
X127585068Y-105044120D01*
X127208198Y-104792304D01*
X126887696Y-104471802D01*
X126635880Y-104094932D01*
X126462426Y-103676177D01*
X126397943Y-103352000D01*
X126374000Y-103231630D01*
X126374000Y-102778370D01*
X126434069Y-102476384D01*
X126462426Y-102333823D01*
X126635880Y-101915068D01*
X126887696Y-101538198D01*
X127208198Y-101217696D01*
X127585068Y-100965880D01*
X128003823Y-100792426D01*
X128334235Y-100726703D01*
X128448370Y-100704000D01*
X128901630Y-100704000D01*
X129015765Y-100726703D01*
G37*
G36*
X153015765Y-100726703D02*
G01*
X153346177Y-100792426D01*
X153764932Y-100965880D01*
X154141802Y-101217696D01*
X154462304Y-101538198D01*
X154714120Y-101915068D01*
X154887574Y-102333823D01*
X154915931Y-102476384D01*
X154976000Y-102778370D01*
X154976000Y-103231630D01*
X154952057Y-103352000D01*
X154887574Y-103676177D01*
X154714120Y-104094932D01*
X154462304Y-104471802D01*
X154141802Y-104792304D01*
X153764932Y-105044120D01*
X153346177Y-105217574D01*
X153123903Y-105261787D01*
X152901630Y-105306000D01*
X152448370Y-105306000D01*
X152226097Y-105261787D01*
X152003823Y-105217574D01*
X151585068Y-105044120D01*
X151208198Y-104792304D01*
X150887696Y-104471802D01*
X150635880Y-104094932D01*
X150462426Y-103676177D01*
X150397943Y-103352000D01*
X150374000Y-103231630D01*
X150374000Y-102778370D01*
X150434069Y-102476384D01*
X150462426Y-102333823D01*
X150635880Y-101915068D01*
X150887696Y-101538198D01*
X151208198Y-101217696D01*
X151585068Y-100965880D01*
X152003823Y-100792426D01*
X152334235Y-100726703D01*
X152448370Y-100704000D01*
X152901630Y-100704000D01*
X153015765Y-100726703D01*
G37*
G36*
X161019211Y-102396000D02*
G01*
X161069072Y-102405918D01*
X161314939Y-102507759D01*
X161386554Y-102555611D01*
X161536211Y-102655609D01*
X161724391Y-102843789D01*
X161872242Y-103065063D01*
X161974082Y-103310928D01*
X162018355Y-103533501D01*
X162026000Y-103571938D01*
X162026000Y-103838062D01*
X161974082Y-104099072D01*
X161872241Y-104344939D01*
X161724390Y-104566212D01*
X161536212Y-104754390D01*
X161314939Y-104902241D01*
X161314938Y-104902242D01*
X161314937Y-104902242D01*
X161069072Y-105004082D01*
X160808063Y-105056000D01*
X160541937Y-105056000D01*
X160280928Y-105004082D01*
X160035063Y-104902242D01*
X160035062Y-104902242D01*
X160035061Y-104902241D01*
X159813788Y-104754390D01*
X159625610Y-104566212D01*
X159477759Y-104344939D01*
X159375918Y-104099072D01*
X159324000Y-103838062D01*
X159324000Y-103571938D01*
X159331646Y-103533501D01*
X159375918Y-103310928D01*
X159477758Y-103065063D01*
X159625609Y-102843789D01*
X159813789Y-102655609D01*
X159963446Y-102555611D01*
X160035061Y-102507759D01*
X160280928Y-102405918D01*
X160330789Y-102396000D01*
X160541937Y-102354000D01*
X160808063Y-102354000D01*
X161019211Y-102396000D01*
G37*
G36*
X138412142Y-103383242D02*
G01*
X138560101Y-103444529D01*
X138693255Y-103533499D01*
X138806501Y-103646745D01*
X138895471Y-103779899D01*
X138956758Y-103927858D01*
X138988000Y-104084925D01*
X138988000Y-104245075D01*
X138956758Y-104402142D01*
X138895471Y-104550101D01*
X138806501Y-104683255D01*
X138693255Y-104796501D01*
X138560101Y-104885471D01*
X138412142Y-104946758D01*
X138255075Y-104978000D01*
X138094925Y-104978000D01*
X137937858Y-104946758D01*
X137789899Y-104885471D01*
X137656745Y-104796501D01*
X137543499Y-104683255D01*
X137454529Y-104550101D01*
X137393242Y-104402142D01*
X137362000Y-104245075D01*
X137362000Y-104084925D01*
X137393242Y-103927858D01*
X137454529Y-103779899D01*
X137543499Y-103646745D01*
X137656745Y-103533499D01*
X137789899Y-103444529D01*
X137937858Y-103383242D01*
X138094925Y-103352000D01*
X138255075Y-103352000D01*
X138412142Y-103383242D01*
G37*
G36*
X117782395Y-100890546D02*
G01*
X117955466Y-100962234D01*
X118015757Y-101002519D01*
X118111227Y-101066310D01*
X118243690Y-101198773D01*
X118270191Y-101238435D01*
X118347766Y-101354534D01*
X118419454Y-101527605D01*
X118456000Y-101711333D01*
X118456000Y-101898667D01*
X118419454Y-102082395D01*
X118347766Y-102255466D01*
X118296081Y-102332818D01*
X118243690Y-102411227D01*
X118111227Y-102543690D01*
X118032939Y-102596000D01*
X117955466Y-102647766D01*
X117782395Y-102719454D01*
X117598667Y-102756000D01*
X117411333Y-102756000D01*
X117227605Y-102719454D01*
X117054534Y-102647766D01*
X116977061Y-102596000D01*
X116898773Y-102543690D01*
X116766310Y-102411227D01*
X116713919Y-102332818D01*
X116662234Y-102255466D01*
X116590546Y-102082395D01*
X116554000Y-101898667D01*
X116554000Y-101711333D01*
X116590546Y-101527605D01*
X116662234Y-101354534D01*
X116739809Y-101238435D01*
X116766310Y-101198773D01*
X116898773Y-101066310D01*
X116994243Y-101002519D01*
X117054534Y-100962234D01*
X117227605Y-100890546D01*
X117411333Y-100854000D01*
X117598667Y-100854000D01*
X117782395Y-100890546D01*
G37*
G36*
X122891564Y-100534389D02*
G01*
X123082833Y-100613615D01*
X123082835Y-100613616D01*
X123254973Y-100728635D01*
X123401365Y-100875027D01*
X123459636Y-100962235D01*
X123516385Y-101047167D01*
X123595611Y-101238436D01*
X123636000Y-101441484D01*
X123636000Y-101648516D01*
X123595611Y-101851564D01*
X123516385Y-102042833D01*
X123516384Y-102042835D01*
X123401365Y-102214973D01*
X123254973Y-102361365D01*
X123082835Y-102476384D01*
X123082834Y-102476385D01*
X123082833Y-102476385D01*
X122891564Y-102555611D01*
X122688516Y-102596000D01*
X122481484Y-102596000D01*
X122278436Y-102555611D01*
X122087167Y-102476385D01*
X122087166Y-102476385D01*
X122087165Y-102476384D01*
X121915027Y-102361365D01*
X121768635Y-102214973D01*
X121653616Y-102042835D01*
X121653615Y-102042833D01*
X121574389Y-101851564D01*
X121534000Y-101648516D01*
X121534000Y-101441484D01*
X121574389Y-101238436D01*
X121653615Y-101047167D01*
X121710365Y-100962235D01*
X121768635Y-100875027D01*
X121915027Y-100728635D01*
X122087165Y-100613616D01*
X122087167Y-100613615D01*
X122278436Y-100534389D01*
X122481484Y-100494000D01*
X122688516Y-100494000D01*
X122891564Y-100534389D01*
G37*
G36*
X120233228Y-100726703D02*
G01*
X120388100Y-100790853D01*
X120527481Y-100883985D01*
X120646015Y-101002519D01*
X120739147Y-101141900D01*
X120803297Y-101296772D01*
X120836000Y-101461184D01*
X120836000Y-101628816D01*
X120803297Y-101793228D01*
X120739147Y-101948100D01*
X120646015Y-102087481D01*
X120527481Y-102206015D01*
X120388100Y-102299147D01*
X120233228Y-102363297D01*
X120068816Y-102396000D01*
X119901184Y-102396000D01*
X119736772Y-102363297D01*
X119581900Y-102299147D01*
X119442519Y-102206015D01*
X119323985Y-102087481D01*
X119230853Y-101948100D01*
X119166703Y-101793228D01*
X119134000Y-101628816D01*
X119134000Y-101461184D01*
X119166703Y-101296772D01*
X119230853Y-101141900D01*
X119323985Y-101002519D01*
X119442519Y-100883985D01*
X119581900Y-100790853D01*
X119736772Y-100726703D01*
X119901184Y-100694000D01*
X120068816Y-100694000D01*
X120233228Y-100726703D01*
G37*
G36*
X164069072Y-97705918D02*
G01*
X164314939Y-97807759D01*
X164426328Y-97882187D01*
X164533803Y-97954000D01*
X164536212Y-97955610D01*
X164724390Y-98143788D01*
X164871886Y-98364529D01*
X164872242Y-98365063D01*
X164974082Y-98610928D01*
X165026000Y-98871937D01*
X165026000Y-99138063D01*
X164974082Y-99399072D01*
X164872242Y-99644937D01*
X164724391Y-99866211D01*
X164536211Y-100054391D01*
X164426328Y-100127813D01*
X164314939Y-100202241D01*
X164314938Y-100202242D01*
X164314937Y-100202242D01*
X164069072Y-100304082D01*
X163808063Y-100356000D01*
X163541937Y-100356000D01*
X163280928Y-100304082D01*
X163035063Y-100202242D01*
X163035062Y-100202242D01*
X163035061Y-100202241D01*
X162923672Y-100127813D01*
X162813789Y-100054391D01*
X162625609Y-99866211D01*
X162477758Y-99644937D01*
X162375918Y-99399072D01*
X162324000Y-99138063D01*
X162324000Y-98871937D01*
X162375918Y-98610928D01*
X162477758Y-98365063D01*
X162478115Y-98364529D01*
X162625610Y-98143788D01*
X162813788Y-97955610D01*
X162816198Y-97954000D01*
X162923672Y-97882187D01*
X163035061Y-97807759D01*
X163280928Y-97705918D01*
X163541937Y-97654000D01*
X163808063Y-97654000D01*
X164069072Y-97705918D01*
G37*
G36*
X159026000Y-100356000D02*
G01*
X156324000Y-100356000D01*
X156324000Y-97654000D01*
X159026000Y-97654000D01*
X159026000Y-100356000D01*
G37*
G36*
X122891564Y-97994389D02*
G01*
X123082833Y-98073615D01*
X123082835Y-98073616D01*
X123254973Y-98188635D01*
X123401365Y-98335027D01*
X123480526Y-98453499D01*
X123516385Y-98507167D01*
X123595611Y-98698436D01*
X123636000Y-98901484D01*
X123636000Y-99108516D01*
X123595611Y-99311564D01*
X123559364Y-99399072D01*
X123516384Y-99502835D01*
X123401365Y-99674973D01*
X123254973Y-99821365D01*
X123082835Y-99936384D01*
X123082834Y-99936385D01*
X123082833Y-99936385D01*
X122891564Y-100015611D01*
X122688516Y-100056000D01*
X122481484Y-100056000D01*
X122278436Y-100015611D01*
X122087167Y-99936385D01*
X122087166Y-99936385D01*
X122087165Y-99936384D01*
X121915027Y-99821365D01*
X121768635Y-99674973D01*
X121653616Y-99502835D01*
X121610636Y-99399072D01*
X121574389Y-99311564D01*
X121534000Y-99108516D01*
X121534000Y-98901484D01*
X121574389Y-98698436D01*
X121653615Y-98507167D01*
X121689475Y-98453499D01*
X121768635Y-98335027D01*
X121915027Y-98188635D01*
X122087165Y-98073616D01*
X122087167Y-98073615D01*
X122278436Y-97994389D01*
X122481484Y-97954000D01*
X122688516Y-97954000D01*
X122891564Y-97994389D01*
G37*
G36*
X133332142Y-98303242D02*
G01*
X133480101Y-98364529D01*
X133613255Y-98453499D01*
X133726501Y-98566745D01*
X133815471Y-98699899D01*
X133876758Y-98847858D01*
X133908000Y-99004925D01*
X133908000Y-99165075D01*
X133876758Y-99322142D01*
X133815471Y-99470101D01*
X133726501Y-99603255D01*
X133613255Y-99716501D01*
X133480101Y-99805471D01*
X133332142Y-99866758D01*
X133175075Y-99898000D01*
X133014925Y-99898000D01*
X132857858Y-99866758D01*
X132709899Y-99805471D01*
X132576745Y-99716501D01*
X132463499Y-99603255D01*
X132374529Y-99470101D01*
X132313242Y-99322142D01*
X132282000Y-99165075D01*
X132282000Y-99004925D01*
X132313242Y-98847858D01*
X132374529Y-98699899D01*
X132463499Y-98566745D01*
X132576745Y-98453499D01*
X132709899Y-98364529D01*
X132857858Y-98303242D01*
X133014925Y-98272000D01*
X133175075Y-98272000D01*
X133332142Y-98303242D01*
G37*
G36*
X135872142Y-98303242D02*
G01*
X136020101Y-98364529D01*
X136153255Y-98453499D01*
X136266501Y-98566745D01*
X136355471Y-98699899D01*
X136416758Y-98847858D01*
X136448000Y-99004925D01*
X136448000Y-99165075D01*
X136416758Y-99322142D01*
X136355471Y-99470101D01*
X136266501Y-99603255D01*
X136153255Y-99716501D01*
X136020101Y-99805471D01*
X135872142Y-99866758D01*
X135715075Y-99898000D01*
X135554925Y-99898000D01*
X135397858Y-99866758D01*
X135249899Y-99805471D01*
X135116745Y-99716501D01*
X135003499Y-99603255D01*
X134914529Y-99470101D01*
X134853242Y-99322142D01*
X134822000Y-99165075D01*
X134822000Y-99004925D01*
X134853242Y-98847858D01*
X134914529Y-98699899D01*
X135003499Y-98566745D01*
X135116745Y-98453499D01*
X135249899Y-98364529D01*
X135397858Y-98303242D01*
X135554925Y-98272000D01*
X135715075Y-98272000D01*
X135872142Y-98303242D01*
G37*
G36*
X138412142Y-98303242D02*
G01*
X138560101Y-98364529D01*
X138693255Y-98453499D01*
X138806501Y-98566745D01*
X138895471Y-98699899D01*
X138956758Y-98847858D01*
X138988000Y-99004925D01*
X138988000Y-99165075D01*
X138956758Y-99322142D01*
X138895471Y-99470101D01*
X138806501Y-99603255D01*
X138693255Y-99716501D01*
X138560101Y-99805471D01*
X138412142Y-99866758D01*
X138255075Y-99898000D01*
X138094925Y-99898000D01*
X137937858Y-99866758D01*
X137789899Y-99805471D01*
X137656745Y-99716501D01*
X137543499Y-99603255D01*
X137454529Y-99470101D01*
X137393242Y-99322142D01*
X137362000Y-99165075D01*
X137362000Y-99004925D01*
X137393242Y-98847858D01*
X137454529Y-98699899D01*
X137543499Y-98566745D01*
X137656745Y-98453499D01*
X137789899Y-98364529D01*
X137937858Y-98303242D01*
X138094925Y-98272000D01*
X138255075Y-98272000D01*
X138412142Y-98303242D01*
G37*
G36*
X140952142Y-98303242D02*
G01*
X141100101Y-98364529D01*
X141233255Y-98453499D01*
X141346501Y-98566745D01*
X141435471Y-98699899D01*
X141496758Y-98847858D01*
X141528000Y-99004925D01*
X141528000Y-99165075D01*
X141496758Y-99322142D01*
X141435471Y-99470101D01*
X141346501Y-99603255D01*
X141233255Y-99716501D01*
X141100101Y-99805471D01*
X140952142Y-99866758D01*
X140795075Y-99898000D01*
X140634925Y-99898000D01*
X140477858Y-99866758D01*
X140329899Y-99805471D01*
X140196745Y-99716501D01*
X140083499Y-99603255D01*
X139994529Y-99470101D01*
X139933242Y-99322142D01*
X139902000Y-99165075D01*
X139902000Y-99004925D01*
X139933242Y-98847858D01*
X139994529Y-98699899D01*
X140083499Y-98566745D01*
X140196745Y-98453499D01*
X140329899Y-98364529D01*
X140477858Y-98303242D01*
X140634925Y-98272000D01*
X140795075Y-98272000D01*
X140952142Y-98303242D01*
G37*
G36*
X122891564Y-95454389D02*
G01*
X123082833Y-95533615D01*
X123082835Y-95533616D01*
X123180349Y-95598773D01*
X123254973Y-95648635D01*
X123401365Y-95795027D01*
X123516385Y-95967167D01*
X123595611Y-96158436D01*
X123636000Y-96361484D01*
X123636000Y-96568516D01*
X123595611Y-96771564D01*
X123524314Y-96943690D01*
X123516384Y-96962835D01*
X123401365Y-97134973D01*
X123254973Y-97281365D01*
X123082835Y-97396384D01*
X123082834Y-97396385D01*
X123082833Y-97396385D01*
X122891564Y-97475611D01*
X122688516Y-97516000D01*
X122481484Y-97516000D01*
X122278436Y-97475611D01*
X122087167Y-97396385D01*
X122087166Y-97396385D01*
X122087165Y-97396384D01*
X121915027Y-97281365D01*
X121768635Y-97134973D01*
X121653616Y-96962835D01*
X121645686Y-96943690D01*
X121574389Y-96771564D01*
X121534000Y-96568516D01*
X121534000Y-96361484D01*
X121574389Y-96158436D01*
X121653615Y-95967167D01*
X121768635Y-95795027D01*
X121915027Y-95648635D01*
X121989651Y-95598773D01*
X122087165Y-95533616D01*
X122087167Y-95533615D01*
X122278436Y-95454389D01*
X122481484Y-95414000D01*
X122688516Y-95414000D01*
X122891564Y-95454389D01*
G37*
G36*
X120233228Y-95646703D02*
G01*
X120388100Y-95710853D01*
X120527481Y-95803985D01*
X120646015Y-95922519D01*
X120739147Y-96061900D01*
X120803297Y-96216772D01*
X120836000Y-96381184D01*
X120836000Y-96548816D01*
X120803297Y-96713228D01*
X120739147Y-96868100D01*
X120646015Y-97007481D01*
X120527481Y-97126015D01*
X120388100Y-97219147D01*
X120233228Y-97283297D01*
X120068816Y-97316000D01*
X119901184Y-97316000D01*
X119736772Y-97283297D01*
X119581900Y-97219147D01*
X119442519Y-97126015D01*
X119323985Y-97007481D01*
X119230853Y-96868100D01*
X119166703Y-96713228D01*
X119134000Y-96548816D01*
X119134000Y-96381184D01*
X119166703Y-96216772D01*
X119230853Y-96061900D01*
X119323985Y-95922519D01*
X119442519Y-95803985D01*
X119581900Y-95710853D01*
X119736772Y-95646703D01*
X119901184Y-95614000D01*
X120068816Y-95614000D01*
X120233228Y-95646703D01*
G37*
G36*
X153123903Y-92748213D02*
G01*
X153346177Y-92792426D01*
X153764932Y-92965880D01*
X154141802Y-93217696D01*
X154462304Y-93538198D01*
X154714120Y-93915068D01*
X154887574Y-94333823D01*
X154887574Y-94333824D01*
X154976000Y-94778370D01*
X154976000Y-95231630D01*
X154950021Y-95362234D01*
X154887574Y-95676177D01*
X154714120Y-96094932D01*
X154462304Y-96471802D01*
X154141802Y-96792304D01*
X153764932Y-97044120D01*
X153346177Y-97217574D01*
X153123903Y-97261787D01*
X152901630Y-97306000D01*
X152448370Y-97306000D01*
X152226097Y-97261787D01*
X152003823Y-97217574D01*
X151585068Y-97044120D01*
X151208198Y-96792304D01*
X150887696Y-96471802D01*
X150635880Y-96094932D01*
X150462426Y-95676177D01*
X150399979Y-95362234D01*
X150374000Y-95231630D01*
X150374000Y-94778370D01*
X150462426Y-94333824D01*
X150462426Y-94333823D01*
X150635880Y-93915068D01*
X150887696Y-93538198D01*
X151208198Y-93217696D01*
X151585068Y-92965880D01*
X152003823Y-92792426D01*
X152226097Y-92748213D01*
X152448370Y-92704000D01*
X152901630Y-92704000D01*
X153123903Y-92748213D01*
G37*
G36*
X129123903Y-92748213D02*
G01*
X129346177Y-92792426D01*
X129764932Y-92965880D01*
X130141802Y-93217696D01*
X130462304Y-93538198D01*
X130714120Y-93915068D01*
X130887574Y-94333823D01*
X130887574Y-94333824D01*
X130976000Y-94778370D01*
X130976000Y-95231630D01*
X130950021Y-95362234D01*
X130887574Y-95676177D01*
X130714120Y-96094932D01*
X130462304Y-96471802D01*
X130141802Y-96792304D01*
X129764932Y-97044120D01*
X129346177Y-97217574D01*
X129123903Y-97261787D01*
X128901630Y-97306000D01*
X128448370Y-97306000D01*
X128226097Y-97261787D01*
X128003823Y-97217574D01*
X127585068Y-97044120D01*
X127208198Y-96792304D01*
X126887696Y-96471802D01*
X126635880Y-96094932D01*
X126462426Y-95676177D01*
X126399979Y-95362234D01*
X126374000Y-95231630D01*
X126374000Y-94778370D01*
X126462426Y-94333824D01*
X126462426Y-94333823D01*
X126635880Y-93915068D01*
X126887696Y-93538198D01*
X127208198Y-93217696D01*
X127585068Y-92965880D01*
X128003823Y-92792426D01*
X128226097Y-92748213D01*
X128448370Y-92704000D01*
X128901630Y-92704000D01*
X129123903Y-92748213D01*
G37*
G36*
X117742395Y-95290546D02*
G01*
X117915466Y-95362234D01*
X117915467Y-95362235D01*
X118071227Y-95466310D01*
X118203690Y-95598773D01*
X118255409Y-95676176D01*
X118307766Y-95754534D01*
X118379454Y-95927605D01*
X118416000Y-96111333D01*
X118416000Y-96298667D01*
X118379454Y-96482395D01*
X118307766Y-96655466D01*
X118307765Y-96655467D01*
X118203690Y-96811227D01*
X118071227Y-96943690D01*
X118042577Y-96962833D01*
X117915466Y-97047766D01*
X117742395Y-97119454D01*
X117558667Y-97156000D01*
X117371333Y-97156000D01*
X117187605Y-97119454D01*
X117014534Y-97047766D01*
X116887423Y-96962833D01*
X116858773Y-96943690D01*
X116726310Y-96811227D01*
X116622235Y-96655467D01*
X116622234Y-96655466D01*
X116550546Y-96482395D01*
X116514000Y-96298667D01*
X116514000Y-96111333D01*
X116550546Y-95927605D01*
X116622234Y-95754534D01*
X116674591Y-95676176D01*
X116726310Y-95598773D01*
X116858773Y-95466310D01*
X117014533Y-95362235D01*
X117014534Y-95362234D01*
X117187605Y-95290546D01*
X117371333Y-95254000D01*
X117558667Y-95254000D01*
X117742395Y-95290546D01*
G37*
G36*
X161168512Y-90608927D02*
G01*
X161317812Y-90638624D01*
X161481784Y-90706544D01*
X161629354Y-90805147D01*
X161754853Y-90930646D01*
X161853456Y-91078216D01*
X161921376Y-91242188D01*
X161956000Y-91416259D01*
X161956000Y-91593741D01*
X161921376Y-91767812D01*
X161853456Y-91931784D01*
X161754853Y-92079354D01*
X161629354Y-92204853D01*
X161481784Y-92303456D01*
X161317812Y-92371376D01*
X161168512Y-92401073D01*
X161143742Y-92406000D01*
X160966258Y-92406000D01*
X160941488Y-92401073D01*
X160792188Y-92371376D01*
X160628216Y-92303456D01*
X160480646Y-92204853D01*
X160355147Y-92079354D01*
X160256544Y-91931784D01*
X160188624Y-91767812D01*
X160154000Y-91593741D01*
X160154000Y-91416259D01*
X160188624Y-91242188D01*
X160256544Y-91078216D01*
X160355147Y-90930646D01*
X160480646Y-90805147D01*
X160628216Y-90706544D01*
X160792188Y-90638624D01*
X160941488Y-90608927D01*
X160966258Y-90604000D01*
X161143742Y-90604000D01*
X161168512Y-90608927D01*
G37*
G36*
X163708512Y-90608927D02*
G01*
X163857812Y-90638624D01*
X164021784Y-90706544D01*
X164169354Y-90805147D01*
X164294853Y-90930646D01*
X164393456Y-91078216D01*
X164461376Y-91242188D01*
X164496000Y-91416259D01*
X164496000Y-91593741D01*
X164461376Y-91767812D01*
X164393456Y-91931784D01*
X164294853Y-92079354D01*
X164169354Y-92204853D01*
X164021784Y-92303456D01*
X163857812Y-92371376D01*
X163708512Y-92401073D01*
X163683742Y-92406000D01*
X163506258Y-92406000D01*
X163481488Y-92401073D01*
X163332188Y-92371376D01*
X163168216Y-92303456D01*
X163020646Y-92204853D01*
X162895147Y-92079354D01*
X162796544Y-91931784D01*
X162728624Y-91767812D01*
X162694000Y-91593741D01*
X162694000Y-91416259D01*
X162728624Y-91242188D01*
X162796544Y-91078216D01*
X162895147Y-90930646D01*
X163020646Y-90805147D01*
X163168216Y-90706544D01*
X163332188Y-90638624D01*
X163481488Y-90608927D01*
X163506258Y-90604000D01*
X163683742Y-90604000D01*
X163708512Y-90608927D01*
G37*
G36*
X166248512Y-90608927D02*
G01*
X166397812Y-90638624D01*
X166561784Y-90706544D01*
X166709354Y-90805147D01*
X166834853Y-90930646D01*
X166933456Y-91078216D01*
X167001376Y-91242188D01*
X167036000Y-91416259D01*
X167036000Y-91593741D01*
X167001376Y-91767812D01*
X166933456Y-91931784D01*
X166834853Y-92079354D01*
X166709354Y-92204853D01*
X166561784Y-92303456D01*
X166397812Y-92371376D01*
X166248512Y-92401073D01*
X166223742Y-92406000D01*
X166046258Y-92406000D01*
X166021488Y-92401073D01*
X165872188Y-92371376D01*
X165708216Y-92303456D01*
X165560646Y-92204853D01*
X165435147Y-92079354D01*
X165336544Y-91931784D01*
X165268624Y-91767812D01*
X165234000Y-91593741D01*
X165234000Y-91416259D01*
X165268624Y-91242188D01*
X165336544Y-91078216D01*
X165435147Y-90930646D01*
X165560646Y-90805147D01*
X165708216Y-90706544D01*
X165872188Y-90638624D01*
X166021488Y-90608927D01*
X166046258Y-90604000D01*
X166223742Y-90604000D01*
X166248512Y-90608927D01*
G37*
G36*
X169576000Y-92406000D02*
G01*
X167774000Y-92406000D01*
X167774000Y-90604000D01*
X169576000Y-90604000D01*
X169576000Y-92406000D01*
G37*
G36*
X122033228Y-90566703D02*
G01*
X122188100Y-90630853D01*
X122327481Y-90723985D01*
X122446015Y-90842519D01*
X122539147Y-90981900D01*
X122603297Y-91136772D01*
X122636000Y-91301184D01*
X122636000Y-91468816D01*
X122603297Y-91633228D01*
X122539147Y-91788100D01*
X122446015Y-91927481D01*
X122327481Y-92046015D01*
X122188100Y-92139147D01*
X122033228Y-92203297D01*
X121868816Y-92236000D01*
X121701184Y-92236000D01*
X121536772Y-92203297D01*
X121381900Y-92139147D01*
X121242519Y-92046015D01*
X121123985Y-91927481D01*
X121030853Y-91788100D01*
X120966703Y-91633228D01*
X120934000Y-91468816D01*
X120934000Y-91301184D01*
X120966703Y-91136772D01*
X121030853Y-90981900D01*
X121123985Y-90842519D01*
X121242519Y-90723985D01*
X121381900Y-90630853D01*
X121536772Y-90566703D01*
X121701184Y-90534000D01*
X121868816Y-90534000D01*
X122033228Y-90566703D01*
G37*
G36*
X119493228Y-90566703D02*
G01*
X119648100Y-90630853D01*
X119787481Y-90723985D01*
X119906015Y-90842519D01*
X119999147Y-90981900D01*
X120063297Y-91136772D01*
X120096000Y-91301184D01*
X120096000Y-91468816D01*
X120063297Y-91633228D01*
X119999147Y-91788100D01*
X119906015Y-91927481D01*
X119787481Y-92046015D01*
X119648100Y-92139147D01*
X119493228Y-92203297D01*
X119328816Y-92236000D01*
X119161184Y-92236000D01*
X118996772Y-92203297D01*
X118841900Y-92139147D01*
X118702519Y-92046015D01*
X118583985Y-91927481D01*
X118490853Y-91788100D01*
X118426703Y-91633228D01*
X118394000Y-91468816D01*
X118394000Y-91301184D01*
X118426703Y-91136772D01*
X118490853Y-90981900D01*
X118583985Y-90842519D01*
X118702519Y-90723985D01*
X118841900Y-90630853D01*
X118996772Y-90566703D01*
X119161184Y-90534000D01*
X119328816Y-90534000D01*
X119493228Y-90566703D01*
G37*
G36*
X116953228Y-90566703D02*
G01*
X117108100Y-90630853D01*
X117247481Y-90723985D01*
X117366015Y-90842519D01*
X117459147Y-90981900D01*
X117523297Y-91136772D01*
X117556000Y-91301184D01*
X117556000Y-91468816D01*
X117523297Y-91633228D01*
X117459147Y-91788100D01*
X117366015Y-91927481D01*
X117247481Y-92046015D01*
X117108100Y-92139147D01*
X116953228Y-92203297D01*
X116788816Y-92236000D01*
X116621184Y-92236000D01*
X116456772Y-92203297D01*
X116301900Y-92139147D01*
X116162519Y-92046015D01*
X116043985Y-91927481D01*
X115950853Y-91788100D01*
X115886703Y-91633228D01*
X115854000Y-91468816D01*
X115854000Y-91301184D01*
X115886703Y-91136772D01*
X115950853Y-90981900D01*
X116043985Y-90842519D01*
X116162519Y-90723985D01*
X116301900Y-90630853D01*
X116456772Y-90566703D01*
X116621184Y-90534000D01*
X116788816Y-90534000D01*
X116953228Y-90566703D01*
G37*
G36*
X114413228Y-90566703D02*
G01*
X114568100Y-90630853D01*
X114707481Y-90723985D01*
X114826015Y-90842519D01*
X114919147Y-90981900D01*
X114983297Y-91136772D01*
X115016000Y-91301184D01*
X115016000Y-91468816D01*
X114983297Y-91633228D01*
X114919147Y-91788100D01*
X114826015Y-91927481D01*
X114707481Y-92046015D01*
X114568100Y-92139147D01*
X114413228Y-92203297D01*
X114248816Y-92236000D01*
X114081184Y-92236000D01*
X113916772Y-92203297D01*
X113761900Y-92139147D01*
X113622519Y-92046015D01*
X113503985Y-91927481D01*
X113410853Y-91788100D01*
X113346703Y-91633228D01*
X113314000Y-91468816D01*
X113314000Y-91301184D01*
X113346703Y-91136772D01*
X113410853Y-90981900D01*
X113503985Y-90842519D01*
X113622519Y-90723985D01*
X113761900Y-90630853D01*
X113916772Y-90566703D01*
X114081184Y-90534000D01*
X114248816Y-90534000D01*
X114413228Y-90566703D01*
G37*
G36*
X127113228Y-90566703D02*
G01*
X127268100Y-90630853D01*
X127407481Y-90723985D01*
X127526015Y-90842519D01*
X127619147Y-90981900D01*
X127683297Y-91136772D01*
X127716000Y-91301184D01*
X127716000Y-91468816D01*
X127683297Y-91633228D01*
X127619147Y-91788100D01*
X127526015Y-91927481D01*
X127407481Y-92046015D01*
X127268100Y-92139147D01*
X127113228Y-92203297D01*
X126948816Y-92236000D01*
X126781184Y-92236000D01*
X126616772Y-92203297D01*
X126461900Y-92139147D01*
X126322519Y-92046015D01*
X126203985Y-91927481D01*
X126110853Y-91788100D01*
X126046703Y-91633228D01*
X126014000Y-91468816D01*
X126014000Y-91301184D01*
X126046703Y-91136772D01*
X126110853Y-90981900D01*
X126203985Y-90842519D01*
X126322519Y-90723985D01*
X126461900Y-90630853D01*
X126616772Y-90566703D01*
X126781184Y-90534000D01*
X126948816Y-90534000D01*
X127113228Y-90566703D01*
G37*
G36*
X142353228Y-90566703D02*
G01*
X142508100Y-90630853D01*
X142647481Y-90723985D01*
X142766015Y-90842519D01*
X142859147Y-90981900D01*
X142923297Y-91136772D01*
X142956000Y-91301184D01*
X142956000Y-91468816D01*
X142923297Y-91633228D01*
X142859147Y-91788100D01*
X142766015Y-91927481D01*
X142647481Y-92046015D01*
X142508100Y-92139147D01*
X142353228Y-92203297D01*
X142188816Y-92236000D01*
X142021184Y-92236000D01*
X141856772Y-92203297D01*
X141701900Y-92139147D01*
X141562519Y-92046015D01*
X141443985Y-91927481D01*
X141350853Y-91788100D01*
X141286703Y-91633228D01*
X141254000Y-91468816D01*
X141254000Y-91301184D01*
X141286703Y-91136772D01*
X141350853Y-90981900D01*
X141443985Y-90842519D01*
X141562519Y-90723985D01*
X141701900Y-90630853D01*
X141856772Y-90566703D01*
X142021184Y-90534000D01*
X142188816Y-90534000D01*
X142353228Y-90566703D01*
G37*
G36*
X132193228Y-90566703D02*
G01*
X132348100Y-90630853D01*
X132487481Y-90723985D01*
X132606015Y-90842519D01*
X132699147Y-90981900D01*
X132763297Y-91136772D01*
X132796000Y-91301184D01*
X132796000Y-91468816D01*
X132763297Y-91633228D01*
X132699147Y-91788100D01*
X132606015Y-91927481D01*
X132487481Y-92046015D01*
X132348100Y-92139147D01*
X132193228Y-92203297D01*
X132028816Y-92236000D01*
X131861184Y-92236000D01*
X131696772Y-92203297D01*
X131541900Y-92139147D01*
X131402519Y-92046015D01*
X131283985Y-91927481D01*
X131190853Y-91788100D01*
X131126703Y-91633228D01*
X131094000Y-91468816D01*
X131094000Y-91301184D01*
X131126703Y-91136772D01*
X131190853Y-90981900D01*
X131283985Y-90842519D01*
X131402519Y-90723985D01*
X131541900Y-90630853D01*
X131696772Y-90566703D01*
X131861184Y-90534000D01*
X132028816Y-90534000D01*
X132193228Y-90566703D01*
G37*
G36*
X134733228Y-90566703D02*
G01*
X134888100Y-90630853D01*
X135027481Y-90723985D01*
X135146015Y-90842519D01*
X135239147Y-90981900D01*
X135303297Y-91136772D01*
X135336000Y-91301184D01*
X135336000Y-91468816D01*
X135303297Y-91633228D01*
X135239147Y-91788100D01*
X135146015Y-91927481D01*
X135027481Y-92046015D01*
X134888100Y-92139147D01*
X134733228Y-92203297D01*
X134568816Y-92236000D01*
X134401184Y-92236000D01*
X134236772Y-92203297D01*
X134081900Y-92139147D01*
X133942519Y-92046015D01*
X133823985Y-91927481D01*
X133730853Y-91788100D01*
X133666703Y-91633228D01*
X133634000Y-91468816D01*
X133634000Y-91301184D01*
X133666703Y-91136772D01*
X133730853Y-90981900D01*
X133823985Y-90842519D01*
X133942519Y-90723985D01*
X134081900Y-90630853D01*
X134236772Y-90566703D01*
X134401184Y-90534000D01*
X134568816Y-90534000D01*
X134733228Y-90566703D01*
G37*
G36*
X137273228Y-90566703D02*
G01*
X137428100Y-90630853D01*
X137567481Y-90723985D01*
X137686015Y-90842519D01*
X137779147Y-90981900D01*
X137843297Y-91136772D01*
X137876000Y-91301184D01*
X137876000Y-91468816D01*
X137843297Y-91633228D01*
X137779147Y-91788100D01*
X137686015Y-91927481D01*
X137567481Y-92046015D01*
X137428100Y-92139147D01*
X137273228Y-92203297D01*
X137108816Y-92236000D01*
X136941184Y-92236000D01*
X136776772Y-92203297D01*
X136621900Y-92139147D01*
X136482519Y-92046015D01*
X136363985Y-91927481D01*
X136270853Y-91788100D01*
X136206703Y-91633228D01*
X136174000Y-91468816D01*
X136174000Y-91301184D01*
X136206703Y-91136772D01*
X136270853Y-90981900D01*
X136363985Y-90842519D01*
X136482519Y-90723985D01*
X136621900Y-90630853D01*
X136776772Y-90566703D01*
X136941184Y-90534000D01*
X137108816Y-90534000D01*
X137273228Y-90566703D01*
G37*
G36*
X139813228Y-90566703D02*
G01*
X139968100Y-90630853D01*
X140107481Y-90723985D01*
X140226015Y-90842519D01*
X140319147Y-90981900D01*
X140383297Y-91136772D01*
X140416000Y-91301184D01*
X140416000Y-91468816D01*
X140383297Y-91633228D01*
X140319147Y-91788100D01*
X140226015Y-91927481D01*
X140107481Y-92046015D01*
X139968100Y-92139147D01*
X139813228Y-92203297D01*
X139648816Y-92236000D01*
X139481184Y-92236000D01*
X139316772Y-92203297D01*
X139161900Y-92139147D01*
X139022519Y-92046015D01*
X138903985Y-91927481D01*
X138810853Y-91788100D01*
X138746703Y-91633228D01*
X138714000Y-91468816D01*
X138714000Y-91301184D01*
X138746703Y-91136772D01*
X138810853Y-90981900D01*
X138903985Y-90842519D01*
X139022519Y-90723985D01*
X139161900Y-90630853D01*
X139316772Y-90566703D01*
X139481184Y-90534000D01*
X139648816Y-90534000D01*
X139813228Y-90566703D01*
G37*
G36*
X144893228Y-90566703D02*
G01*
X145048100Y-90630853D01*
X145187481Y-90723985D01*
X145306015Y-90842519D01*
X145399147Y-90981900D01*
X145463297Y-91136772D01*
X145496000Y-91301184D01*
X145496000Y-91468816D01*
X145463297Y-91633228D01*
X145399147Y-91788100D01*
X145306015Y-91927481D01*
X145187481Y-92046015D01*
X145048100Y-92139147D01*
X144893228Y-92203297D01*
X144728816Y-92236000D01*
X144561184Y-92236000D01*
X144396772Y-92203297D01*
X144241900Y-92139147D01*
X144102519Y-92046015D01*
X143983985Y-91927481D01*
X143890853Y-91788100D01*
X143826703Y-91633228D01*
X143794000Y-91468816D01*
X143794000Y-91301184D01*
X143826703Y-91136772D01*
X143890853Y-90981900D01*
X143983985Y-90842519D01*
X144102519Y-90723985D01*
X144241900Y-90630853D01*
X144396772Y-90566703D01*
X144561184Y-90534000D01*
X144728816Y-90534000D01*
X144893228Y-90566703D01*
G37*
G36*
X147433228Y-90566703D02*
G01*
X147588100Y-90630853D01*
X147727481Y-90723985D01*
X147846015Y-90842519D01*
X147939147Y-90981900D01*
X148003297Y-91136772D01*
X148036000Y-91301184D01*
X148036000Y-91468816D01*
X148003297Y-91633228D01*
X147939147Y-91788100D01*
X147846015Y-91927481D01*
X147727481Y-92046015D01*
X147588100Y-92139147D01*
X147433228Y-92203297D01*
X147268816Y-92236000D01*
X147101184Y-92236000D01*
X146936772Y-92203297D01*
X146781900Y-92139147D01*
X146642519Y-92046015D01*
X146523985Y-91927481D01*
X146430853Y-91788100D01*
X146366703Y-91633228D01*
X146334000Y-91468816D01*
X146334000Y-91301184D01*
X146366703Y-91136772D01*
X146430853Y-90981900D01*
X146523985Y-90842519D01*
X146642519Y-90723985D01*
X146781900Y-90630853D01*
X146936772Y-90566703D01*
X147101184Y-90534000D01*
X147268816Y-90534000D01*
X147433228Y-90566703D01*
G37*
G36*
X124573228Y-90566703D02*
G01*
X124728100Y-90630853D01*
X124867481Y-90723985D01*
X124986015Y-90842519D01*
X125079147Y-90981900D01*
X125143297Y-91136772D01*
X125176000Y-91301184D01*
X125176000Y-91468816D01*
X125143297Y-91633228D01*
X125079147Y-91788100D01*
X124986015Y-91927481D01*
X124867481Y-92046015D01*
X124728100Y-92139147D01*
X124573228Y-92203297D01*
X124408816Y-92236000D01*
X124241184Y-92236000D01*
X124076772Y-92203297D01*
X123921900Y-92139147D01*
X123782519Y-92046015D01*
X123663985Y-91927481D01*
X123570853Y-91788100D01*
X123506703Y-91633228D01*
X123474000Y-91468816D01*
X123474000Y-91301184D01*
X123506703Y-91136772D01*
X123570853Y-90981900D01*
X123663985Y-90842519D01*
X123782519Y-90723985D01*
X123921900Y-90630853D01*
X124076772Y-90566703D01*
X124241184Y-90534000D01*
X124408816Y-90534000D01*
X124573228Y-90566703D01*
G37*
G36*
X129653228Y-90566703D02*
G01*
X129808100Y-90630853D01*
X129947481Y-90723985D01*
X130066015Y-90842519D01*
X130159147Y-90981900D01*
X130223297Y-91136772D01*
X130256000Y-91301184D01*
X130256000Y-91468816D01*
X130223297Y-91633228D01*
X130159147Y-91788100D01*
X130066015Y-91927481D01*
X129947481Y-92046015D01*
X129808100Y-92139147D01*
X129653228Y-92203297D01*
X129488816Y-92236000D01*
X129321184Y-92236000D01*
X129156772Y-92203297D01*
X129001900Y-92139147D01*
X128862519Y-92046015D01*
X128743985Y-91927481D01*
X128650853Y-91788100D01*
X128586703Y-91633228D01*
X128554000Y-91468816D01*
X128554000Y-91301184D01*
X128586703Y-91136772D01*
X128650853Y-90981900D01*
X128743985Y-90842519D01*
X128862519Y-90723985D01*
X129001900Y-90630853D01*
X129156772Y-90566703D01*
X129321184Y-90534000D01*
X129488816Y-90534000D01*
X129653228Y-90566703D01*
G37*
M02*
