G04 #@! TF.GenerationSoftware,KiCad,Pcbnew,(5.1.5-0-10_14)*
G04 #@! TF.CreationDate,2020-02-22T10:41:04+08:00*
G04 #@! TF.ProjectId,audio-board,61756469-6f2d-4626-9f61-72642e6b6963,rev?*
G04 #@! TF.SameCoordinates,Original*
G04 #@! TF.FileFunction,Copper,L1,Top*
G04 #@! TF.FilePolarity,Positive*
%FSLAX46Y46*%
G04 Gerber Fmt 4.6, Leading zero omitted, Abs format (unit mm)*
G04 Created by KiCad (PCBNEW (5.1.5-0-10_14)) date 2020-02-22 10:41:04*
%MOMM*%
%LPD*%
G04 APERTURE LIST*
%ADD10C,2.000000*%
%ADD11C,1.600000*%
%ADD12C,1.524000*%
%ADD13R,1.600000X1.600000*%
%ADD14R,3.800000X2.000000*%
%ADD15R,1.500000X2.000000*%
%ADD16C,0.100000*%
%ADD17C,4.500000*%
%ADD18R,2.600000X2.600000*%
%ADD19C,2.600000*%
%ADD20R,1.700000X1.700000*%
%ADD21O,1.700000X1.700000*%
%ADD22R,1.000000X1.500000*%
%ADD23R,0.600000X0.450000*%
%ADD24C,0.800000*%
%ADD25C,0.500000*%
%ADD26C,0.250000*%
%ADD27C,1.500000*%
%ADD28C,0.750000*%
%ADD29C,1.000000*%
%ADD30C,0.200000*%
G04 APERTURE END LIST*
D10*
X122585000Y-96465000D03*
X122585000Y-99005000D03*
X122585000Y-101545000D03*
D11*
X119985000Y-96465000D03*
X119985000Y-101545000D03*
D12*
X140715000Y-99085000D03*
X138175000Y-99085000D03*
X135635000Y-99085000D03*
X133095000Y-99085000D03*
X138175000Y-104165000D03*
D11*
X147185000Y-91385000D03*
X147185000Y-106625000D03*
X144645000Y-91385000D03*
X142105000Y-91385000D03*
X139565000Y-91385000D03*
X137025000Y-91385000D03*
X134485000Y-91385000D03*
X131945000Y-91385000D03*
X129405000Y-91385000D03*
X126865000Y-91385000D03*
X124325000Y-91385000D03*
X121785000Y-91385000D03*
X119245000Y-91385000D03*
X116705000Y-91385000D03*
X114165000Y-91385000D03*
X144645000Y-106625000D03*
X142105000Y-106625000D03*
X139565000Y-106625000D03*
X137025000Y-106625000D03*
X134485000Y-106625000D03*
X131945000Y-106625000D03*
X129405000Y-106625000D03*
X126865000Y-106625000D03*
X124325000Y-106625000D03*
X121785000Y-106625000D03*
X119245000Y-106625000D03*
X116705000Y-106625000D03*
D13*
X114165000Y-106625000D03*
D14*
X146175000Y-94355000D03*
D15*
X146175000Y-100655000D03*
X148475000Y-100655000D03*
X143875000Y-100655000D03*
G04 #@! TA.AperFunction,SMDPad,CuDef*
D16*
G36*
X147974504Y-102881204D02*
G01*
X147998773Y-102884804D01*
X148022571Y-102890765D01*
X148045671Y-102899030D01*
X148067849Y-102909520D01*
X148088893Y-102922133D01*
X148108598Y-102936747D01*
X148126777Y-102953223D01*
X148143253Y-102971402D01*
X148157867Y-102991107D01*
X148170480Y-103012151D01*
X148180970Y-103034329D01*
X148189235Y-103057429D01*
X148195196Y-103081227D01*
X148198796Y-103105496D01*
X148200000Y-103130000D01*
X148200000Y-104380000D01*
X148198796Y-104404504D01*
X148195196Y-104428773D01*
X148189235Y-104452571D01*
X148180970Y-104475671D01*
X148170480Y-104497849D01*
X148157867Y-104518893D01*
X148143253Y-104538598D01*
X148126777Y-104556777D01*
X148108598Y-104573253D01*
X148088893Y-104587867D01*
X148067849Y-104600480D01*
X148045671Y-104610970D01*
X148022571Y-104619235D01*
X147998773Y-104625196D01*
X147974504Y-104628796D01*
X147950000Y-104630000D01*
X147200000Y-104630000D01*
X147175496Y-104628796D01*
X147151227Y-104625196D01*
X147127429Y-104619235D01*
X147104329Y-104610970D01*
X147082151Y-104600480D01*
X147061107Y-104587867D01*
X147041402Y-104573253D01*
X147023223Y-104556777D01*
X147006747Y-104538598D01*
X146992133Y-104518893D01*
X146979520Y-104497849D01*
X146969030Y-104475671D01*
X146960765Y-104452571D01*
X146954804Y-104428773D01*
X146951204Y-104404504D01*
X146950000Y-104380000D01*
X146950000Y-103130000D01*
X146951204Y-103105496D01*
X146954804Y-103081227D01*
X146960765Y-103057429D01*
X146969030Y-103034329D01*
X146979520Y-103012151D01*
X146992133Y-102991107D01*
X147006747Y-102971402D01*
X147023223Y-102953223D01*
X147041402Y-102936747D01*
X147061107Y-102922133D01*
X147082151Y-102909520D01*
X147104329Y-102899030D01*
X147127429Y-102890765D01*
X147151227Y-102884804D01*
X147175496Y-102881204D01*
X147200000Y-102880000D01*
X147950000Y-102880000D01*
X147974504Y-102881204D01*
G37*
G04 #@! TD.AperFunction*
G04 #@! TA.AperFunction,SMDPad,CuDef*
G36*
X145174504Y-102881204D02*
G01*
X145198773Y-102884804D01*
X145222571Y-102890765D01*
X145245671Y-102899030D01*
X145267849Y-102909520D01*
X145288893Y-102922133D01*
X145308598Y-102936747D01*
X145326777Y-102953223D01*
X145343253Y-102971402D01*
X145357867Y-102991107D01*
X145370480Y-103012151D01*
X145380970Y-103034329D01*
X145389235Y-103057429D01*
X145395196Y-103081227D01*
X145398796Y-103105496D01*
X145400000Y-103130000D01*
X145400000Y-104380000D01*
X145398796Y-104404504D01*
X145395196Y-104428773D01*
X145389235Y-104452571D01*
X145380970Y-104475671D01*
X145370480Y-104497849D01*
X145357867Y-104518893D01*
X145343253Y-104538598D01*
X145326777Y-104556777D01*
X145308598Y-104573253D01*
X145288893Y-104587867D01*
X145267849Y-104600480D01*
X145245671Y-104610970D01*
X145222571Y-104619235D01*
X145198773Y-104625196D01*
X145174504Y-104628796D01*
X145150000Y-104630000D01*
X144400000Y-104630000D01*
X144375496Y-104628796D01*
X144351227Y-104625196D01*
X144327429Y-104619235D01*
X144304329Y-104610970D01*
X144282151Y-104600480D01*
X144261107Y-104587867D01*
X144241402Y-104573253D01*
X144223223Y-104556777D01*
X144206747Y-104538598D01*
X144192133Y-104518893D01*
X144179520Y-104497849D01*
X144169030Y-104475671D01*
X144160765Y-104452571D01*
X144154804Y-104428773D01*
X144151204Y-104404504D01*
X144150000Y-104380000D01*
X144150000Y-103130000D01*
X144151204Y-103105496D01*
X144154804Y-103081227D01*
X144160765Y-103057429D01*
X144169030Y-103034329D01*
X144179520Y-103012151D01*
X144192133Y-102991107D01*
X144206747Y-102971402D01*
X144223223Y-102953223D01*
X144241402Y-102936747D01*
X144261107Y-102922133D01*
X144282151Y-102909520D01*
X144304329Y-102899030D01*
X144327429Y-102890765D01*
X144351227Y-102884804D01*
X144375496Y-102881204D01*
X144400000Y-102880000D01*
X145150000Y-102880000D01*
X145174504Y-102881204D01*
G37*
G04 #@! TD.AperFunction*
G04 #@! TA.AperFunction,SMDPad,CuDef*
G36*
X141324504Y-93231204D02*
G01*
X141348773Y-93234804D01*
X141372571Y-93240765D01*
X141395671Y-93249030D01*
X141417849Y-93259520D01*
X141438893Y-93272133D01*
X141458598Y-93286747D01*
X141476777Y-93303223D01*
X141493253Y-93321402D01*
X141507867Y-93341107D01*
X141520480Y-93362151D01*
X141530970Y-93384329D01*
X141539235Y-93407429D01*
X141545196Y-93431227D01*
X141548796Y-93455496D01*
X141550000Y-93480000D01*
X141550000Y-94230000D01*
X141548796Y-94254504D01*
X141545196Y-94278773D01*
X141539235Y-94302571D01*
X141530970Y-94325671D01*
X141520480Y-94347849D01*
X141507867Y-94368893D01*
X141493253Y-94388598D01*
X141476777Y-94406777D01*
X141458598Y-94423253D01*
X141438893Y-94437867D01*
X141417849Y-94450480D01*
X141395671Y-94460970D01*
X141372571Y-94469235D01*
X141348773Y-94475196D01*
X141324504Y-94478796D01*
X141300000Y-94480000D01*
X140050000Y-94480000D01*
X140025496Y-94478796D01*
X140001227Y-94475196D01*
X139977429Y-94469235D01*
X139954329Y-94460970D01*
X139932151Y-94450480D01*
X139911107Y-94437867D01*
X139891402Y-94423253D01*
X139873223Y-94406777D01*
X139856747Y-94388598D01*
X139842133Y-94368893D01*
X139829520Y-94347849D01*
X139819030Y-94325671D01*
X139810765Y-94302571D01*
X139804804Y-94278773D01*
X139801204Y-94254504D01*
X139800000Y-94230000D01*
X139800000Y-93480000D01*
X139801204Y-93455496D01*
X139804804Y-93431227D01*
X139810765Y-93407429D01*
X139819030Y-93384329D01*
X139829520Y-93362151D01*
X139842133Y-93341107D01*
X139856747Y-93321402D01*
X139873223Y-93303223D01*
X139891402Y-93286747D01*
X139911107Y-93272133D01*
X139932151Y-93259520D01*
X139954329Y-93249030D01*
X139977429Y-93240765D01*
X140001227Y-93234804D01*
X140025496Y-93231204D01*
X140050000Y-93230000D01*
X141300000Y-93230000D01*
X141324504Y-93231204D01*
G37*
G04 #@! TD.AperFunction*
G04 #@! TA.AperFunction,SMDPad,CuDef*
G36*
X141324504Y-96031204D02*
G01*
X141348773Y-96034804D01*
X141372571Y-96040765D01*
X141395671Y-96049030D01*
X141417849Y-96059520D01*
X141438893Y-96072133D01*
X141458598Y-96086747D01*
X141476777Y-96103223D01*
X141493253Y-96121402D01*
X141507867Y-96141107D01*
X141520480Y-96162151D01*
X141530970Y-96184329D01*
X141539235Y-96207429D01*
X141545196Y-96231227D01*
X141548796Y-96255496D01*
X141550000Y-96280000D01*
X141550000Y-97030000D01*
X141548796Y-97054504D01*
X141545196Y-97078773D01*
X141539235Y-97102571D01*
X141530970Y-97125671D01*
X141520480Y-97147849D01*
X141507867Y-97168893D01*
X141493253Y-97188598D01*
X141476777Y-97206777D01*
X141458598Y-97223253D01*
X141438893Y-97237867D01*
X141417849Y-97250480D01*
X141395671Y-97260970D01*
X141372571Y-97269235D01*
X141348773Y-97275196D01*
X141324504Y-97278796D01*
X141300000Y-97280000D01*
X140050000Y-97280000D01*
X140025496Y-97278796D01*
X140001227Y-97275196D01*
X139977429Y-97269235D01*
X139954329Y-97260970D01*
X139932151Y-97250480D01*
X139911107Y-97237867D01*
X139891402Y-97223253D01*
X139873223Y-97206777D01*
X139856747Y-97188598D01*
X139842133Y-97168893D01*
X139829520Y-97147849D01*
X139819030Y-97125671D01*
X139810765Y-97102571D01*
X139804804Y-97078773D01*
X139801204Y-97054504D01*
X139800000Y-97030000D01*
X139800000Y-96280000D01*
X139801204Y-96255496D01*
X139804804Y-96231227D01*
X139810765Y-96207429D01*
X139819030Y-96184329D01*
X139829520Y-96162151D01*
X139842133Y-96141107D01*
X139856747Y-96121402D01*
X139873223Y-96103223D01*
X139891402Y-96086747D01*
X139911107Y-96072133D01*
X139932151Y-96059520D01*
X139954329Y-96049030D01*
X139977429Y-96040765D01*
X140001227Y-96034804D01*
X140025496Y-96031204D01*
X140050000Y-96030000D01*
X141300000Y-96030000D01*
X141324504Y-96031204D01*
G37*
G04 #@! TD.AperFunction*
D17*
X128675000Y-95005000D03*
X128675000Y-103005000D03*
X152675000Y-95005000D03*
X152675000Y-103005000D03*
D18*
X157675000Y-99005000D03*
D19*
X163675000Y-99005000D03*
X160675000Y-103705000D03*
G04 #@! TA.AperFunction,SMDPad,CuDef*
D16*
G36*
X167174504Y-104881204D02*
G01*
X167198773Y-104884804D01*
X167222571Y-104890765D01*
X167245671Y-104899030D01*
X167267849Y-104909520D01*
X167288893Y-104922133D01*
X167308598Y-104936747D01*
X167326777Y-104953223D01*
X167343253Y-104971402D01*
X167357867Y-104991107D01*
X167370480Y-105012151D01*
X167380970Y-105034329D01*
X167389235Y-105057429D01*
X167395196Y-105081227D01*
X167398796Y-105105496D01*
X167400000Y-105130000D01*
X167400000Y-106380000D01*
X167398796Y-106404504D01*
X167395196Y-106428773D01*
X167389235Y-106452571D01*
X167380970Y-106475671D01*
X167370480Y-106497849D01*
X167357867Y-106518893D01*
X167343253Y-106538598D01*
X167326777Y-106556777D01*
X167308598Y-106573253D01*
X167288893Y-106587867D01*
X167267849Y-106600480D01*
X167245671Y-106610970D01*
X167222571Y-106619235D01*
X167198773Y-106625196D01*
X167174504Y-106628796D01*
X167150000Y-106630000D01*
X166225000Y-106630000D01*
X166200496Y-106628796D01*
X166176227Y-106625196D01*
X166152429Y-106619235D01*
X166129329Y-106610970D01*
X166107151Y-106600480D01*
X166086107Y-106587867D01*
X166066402Y-106573253D01*
X166048223Y-106556777D01*
X166031747Y-106538598D01*
X166017133Y-106518893D01*
X166004520Y-106497849D01*
X165994030Y-106475671D01*
X165985765Y-106452571D01*
X165979804Y-106428773D01*
X165976204Y-106404504D01*
X165975000Y-106380000D01*
X165975000Y-105130000D01*
X165976204Y-105105496D01*
X165979804Y-105081227D01*
X165985765Y-105057429D01*
X165994030Y-105034329D01*
X166004520Y-105012151D01*
X166017133Y-104991107D01*
X166031747Y-104971402D01*
X166048223Y-104953223D01*
X166066402Y-104936747D01*
X166086107Y-104922133D01*
X166107151Y-104909520D01*
X166129329Y-104899030D01*
X166152429Y-104890765D01*
X166176227Y-104884804D01*
X166200496Y-104881204D01*
X166225000Y-104880000D01*
X167150000Y-104880000D01*
X167174504Y-104881204D01*
G37*
G04 #@! TD.AperFunction*
G04 #@! TA.AperFunction,SMDPad,CuDef*
G36*
X170149504Y-104881204D02*
G01*
X170173773Y-104884804D01*
X170197571Y-104890765D01*
X170220671Y-104899030D01*
X170242849Y-104909520D01*
X170263893Y-104922133D01*
X170283598Y-104936747D01*
X170301777Y-104953223D01*
X170318253Y-104971402D01*
X170332867Y-104991107D01*
X170345480Y-105012151D01*
X170355970Y-105034329D01*
X170364235Y-105057429D01*
X170370196Y-105081227D01*
X170373796Y-105105496D01*
X170375000Y-105130000D01*
X170375000Y-106380000D01*
X170373796Y-106404504D01*
X170370196Y-106428773D01*
X170364235Y-106452571D01*
X170355970Y-106475671D01*
X170345480Y-106497849D01*
X170332867Y-106518893D01*
X170318253Y-106538598D01*
X170301777Y-106556777D01*
X170283598Y-106573253D01*
X170263893Y-106587867D01*
X170242849Y-106600480D01*
X170220671Y-106610970D01*
X170197571Y-106619235D01*
X170173773Y-106625196D01*
X170149504Y-106628796D01*
X170125000Y-106630000D01*
X169200000Y-106630000D01*
X169175496Y-106628796D01*
X169151227Y-106625196D01*
X169127429Y-106619235D01*
X169104329Y-106610970D01*
X169082151Y-106600480D01*
X169061107Y-106587867D01*
X169041402Y-106573253D01*
X169023223Y-106556777D01*
X169006747Y-106538598D01*
X168992133Y-106518893D01*
X168979520Y-106497849D01*
X168969030Y-106475671D01*
X168960765Y-106452571D01*
X168954804Y-106428773D01*
X168951204Y-106404504D01*
X168950000Y-106380000D01*
X168950000Y-105130000D01*
X168951204Y-105105496D01*
X168954804Y-105081227D01*
X168960765Y-105057429D01*
X168969030Y-105034329D01*
X168979520Y-105012151D01*
X168992133Y-104991107D01*
X169006747Y-104971402D01*
X169023223Y-104953223D01*
X169041402Y-104936747D01*
X169061107Y-104922133D01*
X169082151Y-104909520D01*
X169104329Y-104899030D01*
X169127429Y-104890765D01*
X169151227Y-104884804D01*
X169175496Y-104881204D01*
X169200000Y-104880000D01*
X170125000Y-104880000D01*
X170149504Y-104881204D01*
G37*
G04 #@! TD.AperFunction*
G04 #@! TA.AperFunction,SMDPad,CuDef*
G36*
X166934703Y-101455722D02*
G01*
X166949264Y-101457882D01*
X166963543Y-101461459D01*
X166977403Y-101466418D01*
X166990710Y-101472712D01*
X167003336Y-101480280D01*
X167015159Y-101489048D01*
X167026066Y-101498934D01*
X167035952Y-101509841D01*
X167044720Y-101521664D01*
X167052288Y-101534290D01*
X167058582Y-101547597D01*
X167063541Y-101561457D01*
X167067118Y-101575736D01*
X167069278Y-101590297D01*
X167070000Y-101605000D01*
X167070000Y-103055000D01*
X167069278Y-103069703D01*
X167067118Y-103084264D01*
X167063541Y-103098543D01*
X167058582Y-103112403D01*
X167052288Y-103125710D01*
X167044720Y-103138336D01*
X167035952Y-103150159D01*
X167026066Y-103161066D01*
X167015159Y-103170952D01*
X167003336Y-103179720D01*
X166990710Y-103187288D01*
X166977403Y-103193582D01*
X166963543Y-103198541D01*
X166949264Y-103202118D01*
X166934703Y-103204278D01*
X166920000Y-103205000D01*
X166620000Y-103205000D01*
X166605297Y-103204278D01*
X166590736Y-103202118D01*
X166576457Y-103198541D01*
X166562597Y-103193582D01*
X166549290Y-103187288D01*
X166536664Y-103179720D01*
X166524841Y-103170952D01*
X166513934Y-103161066D01*
X166504048Y-103150159D01*
X166495280Y-103138336D01*
X166487712Y-103125710D01*
X166481418Y-103112403D01*
X166476459Y-103098543D01*
X166472882Y-103084264D01*
X166470722Y-103069703D01*
X166470000Y-103055000D01*
X166470000Y-101605000D01*
X166470722Y-101590297D01*
X166472882Y-101575736D01*
X166476459Y-101561457D01*
X166481418Y-101547597D01*
X166487712Y-101534290D01*
X166495280Y-101521664D01*
X166504048Y-101509841D01*
X166513934Y-101498934D01*
X166524841Y-101489048D01*
X166536664Y-101480280D01*
X166549290Y-101472712D01*
X166562597Y-101466418D01*
X166576457Y-101461459D01*
X166590736Y-101457882D01*
X166605297Y-101455722D01*
X166620000Y-101455000D01*
X166920000Y-101455000D01*
X166934703Y-101455722D01*
G37*
G04 #@! TD.AperFunction*
G04 #@! TA.AperFunction,SMDPad,CuDef*
G36*
X168204703Y-101455722D02*
G01*
X168219264Y-101457882D01*
X168233543Y-101461459D01*
X168247403Y-101466418D01*
X168260710Y-101472712D01*
X168273336Y-101480280D01*
X168285159Y-101489048D01*
X168296066Y-101498934D01*
X168305952Y-101509841D01*
X168314720Y-101521664D01*
X168322288Y-101534290D01*
X168328582Y-101547597D01*
X168333541Y-101561457D01*
X168337118Y-101575736D01*
X168339278Y-101590297D01*
X168340000Y-101605000D01*
X168340000Y-103055000D01*
X168339278Y-103069703D01*
X168337118Y-103084264D01*
X168333541Y-103098543D01*
X168328582Y-103112403D01*
X168322288Y-103125710D01*
X168314720Y-103138336D01*
X168305952Y-103150159D01*
X168296066Y-103161066D01*
X168285159Y-103170952D01*
X168273336Y-103179720D01*
X168260710Y-103187288D01*
X168247403Y-103193582D01*
X168233543Y-103198541D01*
X168219264Y-103202118D01*
X168204703Y-103204278D01*
X168190000Y-103205000D01*
X167890000Y-103205000D01*
X167875297Y-103204278D01*
X167860736Y-103202118D01*
X167846457Y-103198541D01*
X167832597Y-103193582D01*
X167819290Y-103187288D01*
X167806664Y-103179720D01*
X167794841Y-103170952D01*
X167783934Y-103161066D01*
X167774048Y-103150159D01*
X167765280Y-103138336D01*
X167757712Y-103125710D01*
X167751418Y-103112403D01*
X167746459Y-103098543D01*
X167742882Y-103084264D01*
X167740722Y-103069703D01*
X167740000Y-103055000D01*
X167740000Y-101605000D01*
X167740722Y-101590297D01*
X167742882Y-101575736D01*
X167746459Y-101561457D01*
X167751418Y-101547597D01*
X167757712Y-101534290D01*
X167765280Y-101521664D01*
X167774048Y-101509841D01*
X167783934Y-101498934D01*
X167794841Y-101489048D01*
X167806664Y-101480280D01*
X167819290Y-101472712D01*
X167832597Y-101466418D01*
X167846457Y-101461459D01*
X167860736Y-101457882D01*
X167875297Y-101455722D01*
X167890000Y-101455000D01*
X168190000Y-101455000D01*
X168204703Y-101455722D01*
G37*
G04 #@! TD.AperFunction*
G04 #@! TA.AperFunction,SMDPad,CuDef*
G36*
X169474703Y-101455722D02*
G01*
X169489264Y-101457882D01*
X169503543Y-101461459D01*
X169517403Y-101466418D01*
X169530710Y-101472712D01*
X169543336Y-101480280D01*
X169555159Y-101489048D01*
X169566066Y-101498934D01*
X169575952Y-101509841D01*
X169584720Y-101521664D01*
X169592288Y-101534290D01*
X169598582Y-101547597D01*
X169603541Y-101561457D01*
X169607118Y-101575736D01*
X169609278Y-101590297D01*
X169610000Y-101605000D01*
X169610000Y-103055000D01*
X169609278Y-103069703D01*
X169607118Y-103084264D01*
X169603541Y-103098543D01*
X169598582Y-103112403D01*
X169592288Y-103125710D01*
X169584720Y-103138336D01*
X169575952Y-103150159D01*
X169566066Y-103161066D01*
X169555159Y-103170952D01*
X169543336Y-103179720D01*
X169530710Y-103187288D01*
X169517403Y-103193582D01*
X169503543Y-103198541D01*
X169489264Y-103202118D01*
X169474703Y-103204278D01*
X169460000Y-103205000D01*
X169160000Y-103205000D01*
X169145297Y-103204278D01*
X169130736Y-103202118D01*
X169116457Y-103198541D01*
X169102597Y-103193582D01*
X169089290Y-103187288D01*
X169076664Y-103179720D01*
X169064841Y-103170952D01*
X169053934Y-103161066D01*
X169044048Y-103150159D01*
X169035280Y-103138336D01*
X169027712Y-103125710D01*
X169021418Y-103112403D01*
X169016459Y-103098543D01*
X169012882Y-103084264D01*
X169010722Y-103069703D01*
X169010000Y-103055000D01*
X169010000Y-101605000D01*
X169010722Y-101590297D01*
X169012882Y-101575736D01*
X169016459Y-101561457D01*
X169021418Y-101547597D01*
X169027712Y-101534290D01*
X169035280Y-101521664D01*
X169044048Y-101509841D01*
X169053934Y-101498934D01*
X169064841Y-101489048D01*
X169076664Y-101480280D01*
X169089290Y-101472712D01*
X169102597Y-101466418D01*
X169116457Y-101461459D01*
X169130736Y-101457882D01*
X169145297Y-101455722D01*
X169160000Y-101455000D01*
X169460000Y-101455000D01*
X169474703Y-101455722D01*
G37*
G04 #@! TD.AperFunction*
G04 #@! TA.AperFunction,SMDPad,CuDef*
G36*
X170744703Y-101455722D02*
G01*
X170759264Y-101457882D01*
X170773543Y-101461459D01*
X170787403Y-101466418D01*
X170800710Y-101472712D01*
X170813336Y-101480280D01*
X170825159Y-101489048D01*
X170836066Y-101498934D01*
X170845952Y-101509841D01*
X170854720Y-101521664D01*
X170862288Y-101534290D01*
X170868582Y-101547597D01*
X170873541Y-101561457D01*
X170877118Y-101575736D01*
X170879278Y-101590297D01*
X170880000Y-101605000D01*
X170880000Y-103055000D01*
X170879278Y-103069703D01*
X170877118Y-103084264D01*
X170873541Y-103098543D01*
X170868582Y-103112403D01*
X170862288Y-103125710D01*
X170854720Y-103138336D01*
X170845952Y-103150159D01*
X170836066Y-103161066D01*
X170825159Y-103170952D01*
X170813336Y-103179720D01*
X170800710Y-103187288D01*
X170787403Y-103193582D01*
X170773543Y-103198541D01*
X170759264Y-103202118D01*
X170744703Y-103204278D01*
X170730000Y-103205000D01*
X170430000Y-103205000D01*
X170415297Y-103204278D01*
X170400736Y-103202118D01*
X170386457Y-103198541D01*
X170372597Y-103193582D01*
X170359290Y-103187288D01*
X170346664Y-103179720D01*
X170334841Y-103170952D01*
X170323934Y-103161066D01*
X170314048Y-103150159D01*
X170305280Y-103138336D01*
X170297712Y-103125710D01*
X170291418Y-103112403D01*
X170286459Y-103098543D01*
X170282882Y-103084264D01*
X170280722Y-103069703D01*
X170280000Y-103055000D01*
X170280000Y-101605000D01*
X170280722Y-101590297D01*
X170282882Y-101575736D01*
X170286459Y-101561457D01*
X170291418Y-101547597D01*
X170297712Y-101534290D01*
X170305280Y-101521664D01*
X170314048Y-101509841D01*
X170323934Y-101498934D01*
X170334841Y-101489048D01*
X170346664Y-101480280D01*
X170359290Y-101472712D01*
X170372597Y-101466418D01*
X170386457Y-101461459D01*
X170400736Y-101457882D01*
X170415297Y-101455722D01*
X170430000Y-101455000D01*
X170730000Y-101455000D01*
X170744703Y-101455722D01*
G37*
G04 #@! TD.AperFunction*
G04 #@! TA.AperFunction,SMDPad,CuDef*
G36*
X170744703Y-96305722D02*
G01*
X170759264Y-96307882D01*
X170773543Y-96311459D01*
X170787403Y-96316418D01*
X170800710Y-96322712D01*
X170813336Y-96330280D01*
X170825159Y-96339048D01*
X170836066Y-96348934D01*
X170845952Y-96359841D01*
X170854720Y-96371664D01*
X170862288Y-96384290D01*
X170868582Y-96397597D01*
X170873541Y-96411457D01*
X170877118Y-96425736D01*
X170879278Y-96440297D01*
X170880000Y-96455000D01*
X170880000Y-97905000D01*
X170879278Y-97919703D01*
X170877118Y-97934264D01*
X170873541Y-97948543D01*
X170868582Y-97962403D01*
X170862288Y-97975710D01*
X170854720Y-97988336D01*
X170845952Y-98000159D01*
X170836066Y-98011066D01*
X170825159Y-98020952D01*
X170813336Y-98029720D01*
X170800710Y-98037288D01*
X170787403Y-98043582D01*
X170773543Y-98048541D01*
X170759264Y-98052118D01*
X170744703Y-98054278D01*
X170730000Y-98055000D01*
X170430000Y-98055000D01*
X170415297Y-98054278D01*
X170400736Y-98052118D01*
X170386457Y-98048541D01*
X170372597Y-98043582D01*
X170359290Y-98037288D01*
X170346664Y-98029720D01*
X170334841Y-98020952D01*
X170323934Y-98011066D01*
X170314048Y-98000159D01*
X170305280Y-97988336D01*
X170297712Y-97975710D01*
X170291418Y-97962403D01*
X170286459Y-97948543D01*
X170282882Y-97934264D01*
X170280722Y-97919703D01*
X170280000Y-97905000D01*
X170280000Y-96455000D01*
X170280722Y-96440297D01*
X170282882Y-96425736D01*
X170286459Y-96411457D01*
X170291418Y-96397597D01*
X170297712Y-96384290D01*
X170305280Y-96371664D01*
X170314048Y-96359841D01*
X170323934Y-96348934D01*
X170334841Y-96339048D01*
X170346664Y-96330280D01*
X170359290Y-96322712D01*
X170372597Y-96316418D01*
X170386457Y-96311459D01*
X170400736Y-96307882D01*
X170415297Y-96305722D01*
X170430000Y-96305000D01*
X170730000Y-96305000D01*
X170744703Y-96305722D01*
G37*
G04 #@! TD.AperFunction*
G04 #@! TA.AperFunction,SMDPad,CuDef*
G36*
X169474703Y-96305722D02*
G01*
X169489264Y-96307882D01*
X169503543Y-96311459D01*
X169517403Y-96316418D01*
X169530710Y-96322712D01*
X169543336Y-96330280D01*
X169555159Y-96339048D01*
X169566066Y-96348934D01*
X169575952Y-96359841D01*
X169584720Y-96371664D01*
X169592288Y-96384290D01*
X169598582Y-96397597D01*
X169603541Y-96411457D01*
X169607118Y-96425736D01*
X169609278Y-96440297D01*
X169610000Y-96455000D01*
X169610000Y-97905000D01*
X169609278Y-97919703D01*
X169607118Y-97934264D01*
X169603541Y-97948543D01*
X169598582Y-97962403D01*
X169592288Y-97975710D01*
X169584720Y-97988336D01*
X169575952Y-98000159D01*
X169566066Y-98011066D01*
X169555159Y-98020952D01*
X169543336Y-98029720D01*
X169530710Y-98037288D01*
X169517403Y-98043582D01*
X169503543Y-98048541D01*
X169489264Y-98052118D01*
X169474703Y-98054278D01*
X169460000Y-98055000D01*
X169160000Y-98055000D01*
X169145297Y-98054278D01*
X169130736Y-98052118D01*
X169116457Y-98048541D01*
X169102597Y-98043582D01*
X169089290Y-98037288D01*
X169076664Y-98029720D01*
X169064841Y-98020952D01*
X169053934Y-98011066D01*
X169044048Y-98000159D01*
X169035280Y-97988336D01*
X169027712Y-97975710D01*
X169021418Y-97962403D01*
X169016459Y-97948543D01*
X169012882Y-97934264D01*
X169010722Y-97919703D01*
X169010000Y-97905000D01*
X169010000Y-96455000D01*
X169010722Y-96440297D01*
X169012882Y-96425736D01*
X169016459Y-96411457D01*
X169021418Y-96397597D01*
X169027712Y-96384290D01*
X169035280Y-96371664D01*
X169044048Y-96359841D01*
X169053934Y-96348934D01*
X169064841Y-96339048D01*
X169076664Y-96330280D01*
X169089290Y-96322712D01*
X169102597Y-96316418D01*
X169116457Y-96311459D01*
X169130736Y-96307882D01*
X169145297Y-96305722D01*
X169160000Y-96305000D01*
X169460000Y-96305000D01*
X169474703Y-96305722D01*
G37*
G04 #@! TD.AperFunction*
G04 #@! TA.AperFunction,SMDPad,CuDef*
G36*
X168204703Y-96305722D02*
G01*
X168219264Y-96307882D01*
X168233543Y-96311459D01*
X168247403Y-96316418D01*
X168260710Y-96322712D01*
X168273336Y-96330280D01*
X168285159Y-96339048D01*
X168296066Y-96348934D01*
X168305952Y-96359841D01*
X168314720Y-96371664D01*
X168322288Y-96384290D01*
X168328582Y-96397597D01*
X168333541Y-96411457D01*
X168337118Y-96425736D01*
X168339278Y-96440297D01*
X168340000Y-96455000D01*
X168340000Y-97905000D01*
X168339278Y-97919703D01*
X168337118Y-97934264D01*
X168333541Y-97948543D01*
X168328582Y-97962403D01*
X168322288Y-97975710D01*
X168314720Y-97988336D01*
X168305952Y-98000159D01*
X168296066Y-98011066D01*
X168285159Y-98020952D01*
X168273336Y-98029720D01*
X168260710Y-98037288D01*
X168247403Y-98043582D01*
X168233543Y-98048541D01*
X168219264Y-98052118D01*
X168204703Y-98054278D01*
X168190000Y-98055000D01*
X167890000Y-98055000D01*
X167875297Y-98054278D01*
X167860736Y-98052118D01*
X167846457Y-98048541D01*
X167832597Y-98043582D01*
X167819290Y-98037288D01*
X167806664Y-98029720D01*
X167794841Y-98020952D01*
X167783934Y-98011066D01*
X167774048Y-98000159D01*
X167765280Y-97988336D01*
X167757712Y-97975710D01*
X167751418Y-97962403D01*
X167746459Y-97948543D01*
X167742882Y-97934264D01*
X167740722Y-97919703D01*
X167740000Y-97905000D01*
X167740000Y-96455000D01*
X167740722Y-96440297D01*
X167742882Y-96425736D01*
X167746459Y-96411457D01*
X167751418Y-96397597D01*
X167757712Y-96384290D01*
X167765280Y-96371664D01*
X167774048Y-96359841D01*
X167783934Y-96348934D01*
X167794841Y-96339048D01*
X167806664Y-96330280D01*
X167819290Y-96322712D01*
X167832597Y-96316418D01*
X167846457Y-96311459D01*
X167860736Y-96307882D01*
X167875297Y-96305722D01*
X167890000Y-96305000D01*
X168190000Y-96305000D01*
X168204703Y-96305722D01*
G37*
G04 #@! TD.AperFunction*
G04 #@! TA.AperFunction,SMDPad,CuDef*
G36*
X166934703Y-96305722D02*
G01*
X166949264Y-96307882D01*
X166963543Y-96311459D01*
X166977403Y-96316418D01*
X166990710Y-96322712D01*
X167003336Y-96330280D01*
X167015159Y-96339048D01*
X167026066Y-96348934D01*
X167035952Y-96359841D01*
X167044720Y-96371664D01*
X167052288Y-96384290D01*
X167058582Y-96397597D01*
X167063541Y-96411457D01*
X167067118Y-96425736D01*
X167069278Y-96440297D01*
X167070000Y-96455000D01*
X167070000Y-97905000D01*
X167069278Y-97919703D01*
X167067118Y-97934264D01*
X167063541Y-97948543D01*
X167058582Y-97962403D01*
X167052288Y-97975710D01*
X167044720Y-97988336D01*
X167035952Y-98000159D01*
X167026066Y-98011066D01*
X167015159Y-98020952D01*
X167003336Y-98029720D01*
X166990710Y-98037288D01*
X166977403Y-98043582D01*
X166963543Y-98048541D01*
X166949264Y-98052118D01*
X166934703Y-98054278D01*
X166920000Y-98055000D01*
X166620000Y-98055000D01*
X166605297Y-98054278D01*
X166590736Y-98052118D01*
X166576457Y-98048541D01*
X166562597Y-98043582D01*
X166549290Y-98037288D01*
X166536664Y-98029720D01*
X166524841Y-98020952D01*
X166513934Y-98011066D01*
X166504048Y-98000159D01*
X166495280Y-97988336D01*
X166487712Y-97975710D01*
X166481418Y-97962403D01*
X166476459Y-97948543D01*
X166472882Y-97934264D01*
X166470722Y-97919703D01*
X166470000Y-97905000D01*
X166470000Y-96455000D01*
X166470722Y-96440297D01*
X166472882Y-96425736D01*
X166476459Y-96411457D01*
X166481418Y-96397597D01*
X166487712Y-96384290D01*
X166495280Y-96371664D01*
X166504048Y-96359841D01*
X166513934Y-96348934D01*
X166524841Y-96339048D01*
X166536664Y-96330280D01*
X166549290Y-96322712D01*
X166562597Y-96316418D01*
X166576457Y-96311459D01*
X166590736Y-96307882D01*
X166605297Y-96305722D01*
X166620000Y-96305000D01*
X166920000Y-96305000D01*
X166934703Y-96305722D01*
G37*
G04 #@! TD.AperFunction*
D20*
X168675000Y-91505000D03*
D21*
X166135000Y-91505000D03*
X163595000Y-91505000D03*
X161055000Y-91505000D03*
G04 #@! TA.AperFunction,SMDPad,CuDef*
D16*
G36*
X151925000Y-92005000D02*
G01*
X151375000Y-92005000D01*
X151375000Y-92004398D01*
X151350466Y-92004398D01*
X151301635Y-91999588D01*
X151253510Y-91990016D01*
X151206555Y-91975772D01*
X151161222Y-91956995D01*
X151117949Y-91933864D01*
X151077150Y-91906604D01*
X151039221Y-91875476D01*
X151004524Y-91840779D01*
X150973396Y-91802850D01*
X150946136Y-91762051D01*
X150923005Y-91718778D01*
X150904228Y-91673445D01*
X150889984Y-91626490D01*
X150880412Y-91578365D01*
X150875602Y-91529534D01*
X150875602Y-91505000D01*
X150875000Y-91505000D01*
X150875000Y-91005000D01*
X150875602Y-91005000D01*
X150875602Y-90980466D01*
X150880412Y-90931635D01*
X150889984Y-90883510D01*
X150904228Y-90836555D01*
X150923005Y-90791222D01*
X150946136Y-90747949D01*
X150973396Y-90707150D01*
X151004524Y-90669221D01*
X151039221Y-90634524D01*
X151077150Y-90603396D01*
X151117949Y-90576136D01*
X151161222Y-90553005D01*
X151206555Y-90534228D01*
X151253510Y-90519984D01*
X151301635Y-90510412D01*
X151350466Y-90505602D01*
X151375000Y-90505602D01*
X151375000Y-90505000D01*
X151925000Y-90505000D01*
X151925000Y-92005000D01*
G37*
G04 #@! TD.AperFunction*
G04 #@! TA.AperFunction,SMDPad,CuDef*
G36*
X153975000Y-90505602D02*
G01*
X153999534Y-90505602D01*
X154048365Y-90510412D01*
X154096490Y-90519984D01*
X154143445Y-90534228D01*
X154188778Y-90553005D01*
X154232051Y-90576136D01*
X154272850Y-90603396D01*
X154310779Y-90634524D01*
X154345476Y-90669221D01*
X154376604Y-90707150D01*
X154403864Y-90747949D01*
X154426995Y-90791222D01*
X154445772Y-90836555D01*
X154460016Y-90883510D01*
X154469588Y-90931635D01*
X154474398Y-90980466D01*
X154474398Y-91005000D01*
X154475000Y-91005000D01*
X154475000Y-91505000D01*
X154474398Y-91505000D01*
X154474398Y-91529534D01*
X154469588Y-91578365D01*
X154460016Y-91626490D01*
X154445772Y-91673445D01*
X154426995Y-91718778D01*
X154403864Y-91762051D01*
X154376604Y-91802850D01*
X154345476Y-91840779D01*
X154310779Y-91875476D01*
X154272850Y-91906604D01*
X154232051Y-91933864D01*
X154188778Y-91956995D01*
X154143445Y-91975772D01*
X154096490Y-91990016D01*
X154048365Y-91999588D01*
X153999534Y-92004398D01*
X153975000Y-92004398D01*
X153975000Y-92005000D01*
X153425000Y-92005000D01*
X153425000Y-90505000D01*
X153975000Y-90505000D01*
X153975000Y-90505602D01*
G37*
G04 #@! TD.AperFunction*
D22*
X152675000Y-91255000D03*
D23*
X164725000Y-96255000D03*
X162625000Y-96255000D03*
X162625000Y-94255000D03*
X164725000Y-94255000D03*
D24*
X169175000Y-100255000D03*
X144925000Y-93755000D03*
X146175000Y-93755000D03*
X147425000Y-93755000D03*
X146175000Y-101505000D03*
X144925000Y-94755000D03*
X146175000Y-94755000D03*
X146175000Y-100255000D03*
X147425000Y-94755000D03*
X146175000Y-95755000D03*
X146175000Y-97005000D03*
X146175000Y-98255000D03*
X147425000Y-98255000D03*
X147425000Y-97005000D03*
X147425000Y-95755000D03*
X144925000Y-95755000D03*
X144925000Y-97005000D03*
X144925000Y-98255000D03*
X146175000Y-99255000D03*
D25*
X141685000Y-100655000D02*
X138175000Y-104165000D01*
X143875000Y-100655000D02*
X141685000Y-100655000D01*
D26*
X143875000Y-98980000D02*
X143875000Y-99405000D01*
X141550000Y-96655000D02*
X143875000Y-98980000D01*
X143875000Y-99405000D02*
X143875000Y-100655000D01*
X140675000Y-96655000D02*
X141550000Y-96655000D01*
X144150000Y-103755000D02*
X144775000Y-103755000D01*
X143875000Y-103480000D02*
X144150000Y-103755000D01*
X143875000Y-100655000D02*
X143875000Y-103480000D01*
D25*
X137413001Y-103403001D02*
X138175000Y-104165000D01*
X134307001Y-100297001D02*
X137413001Y-103403001D01*
X123877001Y-100297001D02*
X134307001Y-100297001D01*
X122585000Y-99005000D02*
X123877001Y-100297001D01*
D27*
X161055000Y-97385000D02*
X162675000Y-99005000D01*
X162675000Y-99005000D02*
X163675000Y-99005000D01*
X161055000Y-91505000D02*
X161055000Y-97385000D01*
D26*
X162875000Y-98205000D02*
X163675000Y-99005000D01*
X162625000Y-94255000D02*
X162625000Y-96255000D01*
X162625000Y-97955000D02*
X163675000Y-99005000D01*
X162625000Y-96255000D02*
X162625000Y-97955000D01*
X167400000Y-105755000D02*
X166687500Y-105755000D01*
X169310000Y-103845000D02*
X167400000Y-105755000D01*
X169310000Y-102330000D02*
X169310000Y-103845000D01*
X169310000Y-102330000D02*
X169310000Y-100390000D01*
X169310000Y-100390000D02*
X169175000Y-100255000D01*
D28*
X170580000Y-97055000D02*
X170580000Y-96180000D01*
D25*
X148475000Y-99155000D02*
X148475000Y-100655000D01*
X148625000Y-99005000D02*
X148475000Y-99155000D01*
X157675000Y-99005000D02*
X148625000Y-99005000D01*
D26*
X148200000Y-103755000D02*
X147575000Y-103755000D01*
X148475000Y-103480000D02*
X148200000Y-103755000D01*
X148475000Y-100655000D02*
X148475000Y-103480000D01*
D27*
X160048998Y-99005000D02*
X162498999Y-101455001D01*
X157675000Y-99005000D02*
X160048998Y-99005000D01*
X162498999Y-101455001D02*
X164841863Y-101455001D01*
X164841863Y-101455001D02*
X164841863Y-101338137D01*
X164841863Y-101338137D02*
X166425000Y-99755000D01*
D28*
X166770000Y-97180000D02*
X166770000Y-97600000D01*
X166425000Y-99255000D02*
X166425000Y-99755000D01*
X166770000Y-98910000D02*
X166425000Y-99255000D01*
X166770000Y-97180000D02*
X166770000Y-98910000D01*
D25*
X156207081Y-91255000D02*
X153975000Y-91255000D01*
X157675000Y-92722919D02*
X156207081Y-91255000D01*
X157675000Y-99005000D02*
X157675000Y-92722919D01*
D28*
X170580000Y-98055000D02*
X170580000Y-97180000D01*
X166425000Y-99755000D02*
X166900002Y-99279998D01*
X166900002Y-99279998D02*
X169355002Y-99279998D01*
X169355002Y-99279998D02*
X170580000Y-98055000D01*
D26*
X164725000Y-92915000D02*
X166135000Y-91505000D01*
X164725000Y-94255000D02*
X164725000Y-92915000D01*
X163595000Y-92707081D02*
X163595000Y-91505000D01*
X164725000Y-95780000D02*
X163595000Y-94650000D01*
X163595000Y-94650000D02*
X163595000Y-92707081D01*
X164725000Y-96255000D02*
X164725000Y-95780000D01*
D25*
X146175000Y-100655000D02*
X146175000Y-100255000D01*
X145675000Y-93855000D02*
X146175000Y-94355000D01*
X140675000Y-93855000D02*
X145675000Y-93855000D01*
X149925000Y-91255000D02*
X147425000Y-93755000D01*
X151375000Y-91255000D02*
X149925000Y-91255000D01*
D29*
X146175000Y-94355000D02*
X145575000Y-94355000D01*
X146175000Y-94355000D02*
X146175000Y-98255000D01*
X146175000Y-98255000D02*
X146175000Y-100255000D01*
X146175000Y-98255000D02*
X147425000Y-98255000D01*
X147425000Y-94755000D02*
X147425000Y-98255000D01*
X144925000Y-98255000D02*
X146175000Y-98255000D01*
X144925000Y-94755000D02*
X144925000Y-98255000D01*
D26*
X140979999Y-92510001D02*
X135669999Y-92510001D01*
X142105000Y-91385000D02*
X140979999Y-92510001D01*
X135669999Y-92510001D02*
X129675000Y-98505000D01*
X124625000Y-98505000D02*
X122585000Y-96465000D01*
X129675000Y-98505000D02*
X124625000Y-98505000D01*
X117375000Y-93255000D02*
X119245000Y-91385000D01*
X122585000Y-101545000D02*
X121110001Y-100070001D01*
X117990001Y-100070001D02*
X115425000Y-97505000D01*
X115425000Y-97505000D02*
X115425000Y-95205000D01*
X121110001Y-100070001D02*
X117990001Y-100070001D01*
X115425000Y-95205000D02*
X117375000Y-93255000D01*
D28*
X168675000Y-93505000D02*
X168425000Y-93505000D01*
X169310000Y-93890000D02*
X169310000Y-97180000D01*
X168925000Y-93505000D02*
X169310000Y-93890000D01*
X168425000Y-93505000D02*
X168925000Y-93505000D01*
X168040000Y-93890000D02*
X168040000Y-97180000D01*
X168425000Y-93505000D02*
X168040000Y-93890000D01*
D27*
X168675000Y-91505000D02*
X168675000Y-93505000D01*
D26*
X170375000Y-105755000D02*
X169662500Y-105755000D01*
X170580000Y-105550000D02*
X170375000Y-105755000D01*
X170580000Y-102330000D02*
X170580000Y-105550000D01*
X165770000Y-102330000D02*
X166770000Y-102330000D01*
X131945000Y-106625000D02*
X133070001Y-105499999D01*
X162519999Y-105580001D02*
X165770000Y-102330000D01*
X151438999Y-105580001D02*
X162519999Y-105580001D01*
X151358997Y-105499999D02*
X151438999Y-105580001D01*
X133070001Y-105499999D02*
X151358997Y-105499999D01*
D25*
X152675000Y-90005000D02*
X152675000Y-91255000D01*
X115545000Y-90005000D02*
X152675000Y-90005000D01*
X114165000Y-91385000D02*
X115545000Y-90005000D01*
D30*
G36*
X171542001Y-107872000D02*
G01*
X147853066Y-107872000D01*
X148082548Y-107718665D01*
X148278665Y-107522548D01*
X148432754Y-107291938D01*
X148538892Y-107035699D01*
X148593000Y-106763676D01*
X148593000Y-106630000D01*
X165372097Y-106630000D01*
X165383682Y-106747621D01*
X165417990Y-106860721D01*
X165473704Y-106964955D01*
X165548683Y-107056317D01*
X165640045Y-107131296D01*
X165744279Y-107187010D01*
X165857379Y-107221318D01*
X165975000Y-107232903D01*
X166537000Y-107230000D01*
X166687000Y-107080000D01*
X166687000Y-105755500D01*
X166688000Y-105755500D01*
X166688000Y-107080000D01*
X166838000Y-107230000D01*
X167400000Y-107232903D01*
X167517621Y-107221318D01*
X167630721Y-107187010D01*
X167734955Y-107131296D01*
X167826317Y-107056317D01*
X167901296Y-106964955D01*
X167957010Y-106860721D01*
X167991318Y-106747621D01*
X168002903Y-106630000D01*
X168000000Y-105905500D01*
X167850000Y-105755500D01*
X166688000Y-105755500D01*
X166687000Y-105755500D01*
X165525000Y-105755500D01*
X165375000Y-105905500D01*
X165372097Y-106630000D01*
X148593000Y-106630000D01*
X148593000Y-106486324D01*
X148542611Y-106232999D01*
X151105720Y-106232999D01*
X151157133Y-106260480D01*
X151157135Y-106260481D01*
X151295306Y-106302394D01*
X151438999Y-106316547D01*
X151475001Y-106313001D01*
X162483997Y-106313001D01*
X162519999Y-106316547D01*
X162663692Y-106302394D01*
X162675652Y-106298766D01*
X162801863Y-106260481D01*
X162929202Y-106192417D01*
X163040816Y-106100818D01*
X163063772Y-106072846D01*
X164256618Y-104880000D01*
X165372097Y-104880000D01*
X165375000Y-105604500D01*
X165525000Y-105754500D01*
X166687000Y-105754500D01*
X166687000Y-104430000D01*
X166688000Y-104430000D01*
X166688000Y-105754500D01*
X167850000Y-105754500D01*
X168000000Y-105604500D01*
X168001901Y-105130000D01*
X168339059Y-105130000D01*
X168339059Y-106380000D01*
X168355602Y-106547961D01*
X168404594Y-106709468D01*
X168484154Y-106858313D01*
X168591223Y-106988777D01*
X168721687Y-107095846D01*
X168870532Y-107175406D01*
X169032039Y-107224398D01*
X169200000Y-107240941D01*
X170125000Y-107240941D01*
X170292961Y-107224398D01*
X170454468Y-107175406D01*
X170603313Y-107095846D01*
X170733777Y-106988777D01*
X170840846Y-106858313D01*
X170920406Y-106709468D01*
X170969398Y-106547961D01*
X170985941Y-106380000D01*
X170985941Y-106180677D01*
X171072841Y-106093776D01*
X171100817Y-106070817D01*
X171192416Y-105959203D01*
X171260480Y-105831864D01*
X171283948Y-105754500D01*
X171302393Y-105693694D01*
X171316546Y-105550000D01*
X171313000Y-105513998D01*
X171313000Y-103538315D01*
X171362699Y-103477756D01*
X171433018Y-103346200D01*
X171476320Y-103203452D01*
X171490941Y-103055000D01*
X171490941Y-101605000D01*
X171476320Y-101456548D01*
X171433018Y-101313800D01*
X171362699Y-101182244D01*
X171268067Y-101066933D01*
X171152756Y-100972301D01*
X171021200Y-100901982D01*
X170878452Y-100858680D01*
X170730000Y-100844059D01*
X170430000Y-100844059D01*
X170281548Y-100858680D01*
X170138800Y-100901982D01*
X170007244Y-100972301D01*
X169987430Y-100988562D01*
X169944955Y-100953704D01*
X169840721Y-100897990D01*
X169727621Y-100863682D01*
X169610000Y-100852097D01*
X169460500Y-100855000D01*
X169310500Y-101005000D01*
X169310500Y-102329500D01*
X169330500Y-102329500D01*
X169330500Y-102330500D01*
X169310500Y-102330500D01*
X169310500Y-103655000D01*
X169460500Y-103805000D01*
X169610000Y-103807903D01*
X169727621Y-103796318D01*
X169840721Y-103762010D01*
X169847000Y-103758654D01*
X169847001Y-104269059D01*
X169200000Y-104269059D01*
X169032039Y-104285602D01*
X168870532Y-104334594D01*
X168721687Y-104414154D01*
X168591223Y-104521223D01*
X168484154Y-104651687D01*
X168404594Y-104800532D01*
X168355602Y-104962039D01*
X168339059Y-105130000D01*
X168001901Y-105130000D01*
X168002903Y-104880000D01*
X167991318Y-104762379D01*
X167957010Y-104649279D01*
X167901296Y-104545045D01*
X167826317Y-104453683D01*
X167734955Y-104378704D01*
X167630721Y-104322990D01*
X167517621Y-104288682D01*
X167400000Y-104277097D01*
X166838000Y-104280000D01*
X166688000Y-104430000D01*
X166687000Y-104430000D01*
X166537000Y-104280000D01*
X165975000Y-104277097D01*
X165857379Y-104288682D01*
X165744279Y-104322990D01*
X165640045Y-104378704D01*
X165548683Y-104453683D01*
X165473704Y-104545045D01*
X165417990Y-104649279D01*
X165383682Y-104762379D01*
X165372097Y-104880000D01*
X164256618Y-104880000D01*
X165887525Y-103249094D01*
X165916982Y-103346200D01*
X165987301Y-103477756D01*
X166081933Y-103593067D01*
X166197244Y-103687699D01*
X166328800Y-103758018D01*
X166471548Y-103801320D01*
X166620000Y-103815941D01*
X166920000Y-103815941D01*
X167068452Y-103801320D01*
X167211200Y-103758018D01*
X167342756Y-103687699D01*
X167405000Y-103636617D01*
X167467244Y-103687699D01*
X167598800Y-103758018D01*
X167741548Y-103801320D01*
X167890000Y-103815941D01*
X168190000Y-103815941D01*
X168338452Y-103801320D01*
X168481200Y-103758018D01*
X168612756Y-103687699D01*
X168632570Y-103671438D01*
X168675045Y-103706296D01*
X168779279Y-103762010D01*
X168892379Y-103796318D01*
X169010000Y-103807903D01*
X169159500Y-103805000D01*
X169309500Y-103655000D01*
X169309500Y-102330500D01*
X169289500Y-102330500D01*
X169289500Y-102329500D01*
X169309500Y-102329500D01*
X169309500Y-101005000D01*
X169159500Y-100855000D01*
X169010000Y-100852097D01*
X168892379Y-100863682D01*
X168779279Y-100897990D01*
X168675045Y-100953704D01*
X168632570Y-100988562D01*
X168612756Y-100972301D01*
X168481200Y-100901982D01*
X168338452Y-100858680D01*
X168190000Y-100844059D01*
X167890000Y-100844059D01*
X167741548Y-100858680D01*
X167598800Y-100901982D01*
X167467244Y-100972301D01*
X167405000Y-101023383D01*
X167342756Y-100972301D01*
X167211200Y-100901982D01*
X167201471Y-100899031D01*
X167432419Y-100668083D01*
X167559598Y-100513115D01*
X167685697Y-100277199D01*
X167690005Y-100262998D01*
X169306715Y-100262998D01*
X169355002Y-100267754D01*
X169403289Y-100262998D01*
X169403292Y-100262998D01*
X169547704Y-100248775D01*
X169733000Y-100192566D01*
X169903770Y-100101287D01*
X170053451Y-99978447D01*
X170084237Y-99940934D01*
X171240941Y-98784231D01*
X171278449Y-98753449D01*
X171341998Y-98676015D01*
X171401289Y-98603768D01*
X171492568Y-98432998D01*
X171512133Y-98368501D01*
X171542000Y-98270041D01*
X171542001Y-107872000D01*
G37*
X171542001Y-107872000D02*
X147853066Y-107872000D01*
X148082548Y-107718665D01*
X148278665Y-107522548D01*
X148432754Y-107291938D01*
X148538892Y-107035699D01*
X148593000Y-106763676D01*
X148593000Y-106630000D01*
X165372097Y-106630000D01*
X165383682Y-106747621D01*
X165417990Y-106860721D01*
X165473704Y-106964955D01*
X165548683Y-107056317D01*
X165640045Y-107131296D01*
X165744279Y-107187010D01*
X165857379Y-107221318D01*
X165975000Y-107232903D01*
X166537000Y-107230000D01*
X166687000Y-107080000D01*
X166687000Y-105755500D01*
X166688000Y-105755500D01*
X166688000Y-107080000D01*
X166838000Y-107230000D01*
X167400000Y-107232903D01*
X167517621Y-107221318D01*
X167630721Y-107187010D01*
X167734955Y-107131296D01*
X167826317Y-107056317D01*
X167901296Y-106964955D01*
X167957010Y-106860721D01*
X167991318Y-106747621D01*
X168002903Y-106630000D01*
X168000000Y-105905500D01*
X167850000Y-105755500D01*
X166688000Y-105755500D01*
X166687000Y-105755500D01*
X165525000Y-105755500D01*
X165375000Y-105905500D01*
X165372097Y-106630000D01*
X148593000Y-106630000D01*
X148593000Y-106486324D01*
X148542611Y-106232999D01*
X151105720Y-106232999D01*
X151157133Y-106260480D01*
X151157135Y-106260481D01*
X151295306Y-106302394D01*
X151438999Y-106316547D01*
X151475001Y-106313001D01*
X162483997Y-106313001D01*
X162519999Y-106316547D01*
X162663692Y-106302394D01*
X162675652Y-106298766D01*
X162801863Y-106260481D01*
X162929202Y-106192417D01*
X163040816Y-106100818D01*
X163063772Y-106072846D01*
X164256618Y-104880000D01*
X165372097Y-104880000D01*
X165375000Y-105604500D01*
X165525000Y-105754500D01*
X166687000Y-105754500D01*
X166687000Y-104430000D01*
X166688000Y-104430000D01*
X166688000Y-105754500D01*
X167850000Y-105754500D01*
X168000000Y-105604500D01*
X168001901Y-105130000D01*
X168339059Y-105130000D01*
X168339059Y-106380000D01*
X168355602Y-106547961D01*
X168404594Y-106709468D01*
X168484154Y-106858313D01*
X168591223Y-106988777D01*
X168721687Y-107095846D01*
X168870532Y-107175406D01*
X169032039Y-107224398D01*
X169200000Y-107240941D01*
X170125000Y-107240941D01*
X170292961Y-107224398D01*
X170454468Y-107175406D01*
X170603313Y-107095846D01*
X170733777Y-106988777D01*
X170840846Y-106858313D01*
X170920406Y-106709468D01*
X170969398Y-106547961D01*
X170985941Y-106380000D01*
X170985941Y-106180677D01*
X171072841Y-106093776D01*
X171100817Y-106070817D01*
X171192416Y-105959203D01*
X171260480Y-105831864D01*
X171283948Y-105754500D01*
X171302393Y-105693694D01*
X171316546Y-105550000D01*
X171313000Y-105513998D01*
X171313000Y-103538315D01*
X171362699Y-103477756D01*
X171433018Y-103346200D01*
X171476320Y-103203452D01*
X171490941Y-103055000D01*
X171490941Y-101605000D01*
X171476320Y-101456548D01*
X171433018Y-101313800D01*
X171362699Y-101182244D01*
X171268067Y-101066933D01*
X171152756Y-100972301D01*
X171021200Y-100901982D01*
X170878452Y-100858680D01*
X170730000Y-100844059D01*
X170430000Y-100844059D01*
X170281548Y-100858680D01*
X170138800Y-100901982D01*
X170007244Y-100972301D01*
X169987430Y-100988562D01*
X169944955Y-100953704D01*
X169840721Y-100897990D01*
X169727621Y-100863682D01*
X169610000Y-100852097D01*
X169460500Y-100855000D01*
X169310500Y-101005000D01*
X169310500Y-102329500D01*
X169330500Y-102329500D01*
X169330500Y-102330500D01*
X169310500Y-102330500D01*
X169310500Y-103655000D01*
X169460500Y-103805000D01*
X169610000Y-103807903D01*
X169727621Y-103796318D01*
X169840721Y-103762010D01*
X169847000Y-103758654D01*
X169847001Y-104269059D01*
X169200000Y-104269059D01*
X169032039Y-104285602D01*
X168870532Y-104334594D01*
X168721687Y-104414154D01*
X168591223Y-104521223D01*
X168484154Y-104651687D01*
X168404594Y-104800532D01*
X168355602Y-104962039D01*
X168339059Y-105130000D01*
X168001901Y-105130000D01*
X168002903Y-104880000D01*
X167991318Y-104762379D01*
X167957010Y-104649279D01*
X167901296Y-104545045D01*
X167826317Y-104453683D01*
X167734955Y-104378704D01*
X167630721Y-104322990D01*
X167517621Y-104288682D01*
X167400000Y-104277097D01*
X166838000Y-104280000D01*
X166688000Y-104430000D01*
X166687000Y-104430000D01*
X166537000Y-104280000D01*
X165975000Y-104277097D01*
X165857379Y-104288682D01*
X165744279Y-104322990D01*
X165640045Y-104378704D01*
X165548683Y-104453683D01*
X165473704Y-104545045D01*
X165417990Y-104649279D01*
X165383682Y-104762379D01*
X165372097Y-104880000D01*
X164256618Y-104880000D01*
X165887525Y-103249094D01*
X165916982Y-103346200D01*
X165987301Y-103477756D01*
X166081933Y-103593067D01*
X166197244Y-103687699D01*
X166328800Y-103758018D01*
X166471548Y-103801320D01*
X166620000Y-103815941D01*
X166920000Y-103815941D01*
X167068452Y-103801320D01*
X167211200Y-103758018D01*
X167342756Y-103687699D01*
X167405000Y-103636617D01*
X167467244Y-103687699D01*
X167598800Y-103758018D01*
X167741548Y-103801320D01*
X167890000Y-103815941D01*
X168190000Y-103815941D01*
X168338452Y-103801320D01*
X168481200Y-103758018D01*
X168612756Y-103687699D01*
X168632570Y-103671438D01*
X168675045Y-103706296D01*
X168779279Y-103762010D01*
X168892379Y-103796318D01*
X169010000Y-103807903D01*
X169159500Y-103805000D01*
X169309500Y-103655000D01*
X169309500Y-102330500D01*
X169289500Y-102330500D01*
X169289500Y-102329500D01*
X169309500Y-102329500D01*
X169309500Y-101005000D01*
X169159500Y-100855000D01*
X169010000Y-100852097D01*
X168892379Y-100863682D01*
X168779279Y-100897990D01*
X168675045Y-100953704D01*
X168632570Y-100988562D01*
X168612756Y-100972301D01*
X168481200Y-100901982D01*
X168338452Y-100858680D01*
X168190000Y-100844059D01*
X167890000Y-100844059D01*
X167741548Y-100858680D01*
X167598800Y-100901982D01*
X167467244Y-100972301D01*
X167405000Y-101023383D01*
X167342756Y-100972301D01*
X167211200Y-100901982D01*
X167201471Y-100899031D01*
X167432419Y-100668083D01*
X167559598Y-100513115D01*
X167685697Y-100277199D01*
X167690005Y-100262998D01*
X169306715Y-100262998D01*
X169355002Y-100267754D01*
X169403289Y-100262998D01*
X169403292Y-100262998D01*
X169547704Y-100248775D01*
X169733000Y-100192566D01*
X169903770Y-100101287D01*
X170053451Y-99978447D01*
X170084237Y-99940934D01*
X171240941Y-98784231D01*
X171278449Y-98753449D01*
X171341998Y-98676015D01*
X171401289Y-98603768D01*
X171492568Y-98432998D01*
X171512133Y-98368501D01*
X171542000Y-98270041D01*
X171542001Y-107872000D01*
G36*
X116719850Y-91370858D02*
G01*
X116705707Y-91385000D01*
X116719850Y-91399143D01*
X116719143Y-91399850D01*
X116705000Y-91385707D01*
X115816680Y-92274027D01*
X115878524Y-92523398D01*
X116116495Y-92662762D01*
X116377081Y-92753022D01*
X116650270Y-92790710D01*
X116812283Y-92781098D01*
X114932150Y-94661232D01*
X114904184Y-94684183D01*
X114812585Y-94795797D01*
X114774304Y-94867416D01*
X114744521Y-94923136D01*
X114702607Y-95061307D01*
X114688454Y-95205000D01*
X114692001Y-95241012D01*
X114692000Y-97468998D01*
X114688454Y-97505000D01*
X114702607Y-97648693D01*
X114715321Y-97690606D01*
X114744520Y-97786863D01*
X114812584Y-97914202D01*
X114904183Y-98025816D01*
X114932151Y-98048769D01*
X117209597Y-100326216D01*
X117065132Y-100354951D01*
X116790694Y-100468627D01*
X116543706Y-100633660D01*
X116333660Y-100843706D01*
X116168627Y-101090694D01*
X116054951Y-101365132D01*
X115997000Y-101656475D01*
X115997000Y-101953525D01*
X116054951Y-102244868D01*
X116168627Y-102519306D01*
X116333660Y-102766294D01*
X116543706Y-102976340D01*
X116790694Y-103141373D01*
X117065132Y-103255049D01*
X117356475Y-103313000D01*
X117653525Y-103313000D01*
X117944868Y-103255049D01*
X118219306Y-103141373D01*
X118466294Y-102976340D01*
X118676340Y-102766294D01*
X118841373Y-102519306D01*
X118880120Y-102425763D01*
X118891335Y-102442548D01*
X119087452Y-102638665D01*
X119318062Y-102792754D01*
X119574301Y-102898892D01*
X119846324Y-102953000D01*
X120123676Y-102953000D01*
X120395699Y-102898892D01*
X120651938Y-102792754D01*
X120882548Y-102638665D01*
X121078665Y-102442548D01*
X121164731Y-102313741D01*
X121335985Y-102570040D01*
X121559960Y-102794015D01*
X121823327Y-102969991D01*
X122115964Y-103091205D01*
X122426626Y-103153000D01*
X122743374Y-103153000D01*
X123054036Y-103091205D01*
X123346673Y-102969991D01*
X123610040Y-102794015D01*
X123834015Y-102570040D01*
X124009991Y-102306673D01*
X124131205Y-102014036D01*
X124193000Y-101703374D01*
X124193000Y-101386626D01*
X124131205Y-101075964D01*
X124009991Y-100783327D01*
X123834015Y-100519960D01*
X123610040Y-100295985D01*
X123546323Y-100253411D01*
X123615426Y-100036133D01*
X122585000Y-99005707D01*
X122570858Y-99019850D01*
X122570151Y-99019143D01*
X122584293Y-99005000D01*
X121553867Y-97974574D01*
X121284015Y-98060397D01*
X121124730Y-98332357D01*
X121021563Y-98630166D01*
X120978477Y-98942379D01*
X120997129Y-99256999D01*
X121018032Y-99337001D01*
X118293620Y-99337001D01*
X116158000Y-97201382D01*
X116158000Y-96963266D01*
X116293660Y-97166294D01*
X116503706Y-97376340D01*
X116750694Y-97541373D01*
X117025132Y-97655049D01*
X117316475Y-97713000D01*
X117613525Y-97713000D01*
X117904868Y-97655049D01*
X118179306Y-97541373D01*
X118426294Y-97376340D01*
X118636340Y-97166294D01*
X118707416Y-97059922D01*
X118737246Y-97131938D01*
X118891335Y-97362548D01*
X119087452Y-97558665D01*
X119318062Y-97712754D01*
X119574301Y-97818892D01*
X119846324Y-97873000D01*
X120123676Y-97873000D01*
X120395699Y-97818892D01*
X120651938Y-97712754D01*
X120882548Y-97558665D01*
X121078665Y-97362548D01*
X121164731Y-97233741D01*
X121335985Y-97490040D01*
X121559960Y-97714015D01*
X121623677Y-97756589D01*
X121554574Y-97973867D01*
X122585000Y-99004293D01*
X122599143Y-98990151D01*
X122599850Y-98990858D01*
X122585707Y-99005000D01*
X123616133Y-100035426D01*
X123885985Y-99949603D01*
X124045270Y-99677643D01*
X124148437Y-99379834D01*
X124187820Y-99094456D01*
X124215797Y-99117416D01*
X124320156Y-99173197D01*
X124343136Y-99185480D01*
X124481306Y-99227393D01*
X124625000Y-99241546D01*
X124661002Y-99238000D01*
X129638998Y-99238000D01*
X129675000Y-99241546D01*
X129818693Y-99227393D01*
X129833178Y-99222999D01*
X129956864Y-99185480D01*
X130084203Y-99117416D01*
X130195817Y-99025817D01*
X130218773Y-98997845D01*
X130266551Y-98950067D01*
X131725000Y-98950067D01*
X131725000Y-99219933D01*
X131777648Y-99484614D01*
X131880922Y-99733938D01*
X132030851Y-99958324D01*
X132221676Y-100149149D01*
X132446062Y-100299078D01*
X132695386Y-100402352D01*
X132960067Y-100455000D01*
X133229933Y-100455000D01*
X133494614Y-100402352D01*
X133743938Y-100299078D01*
X133968324Y-100149149D01*
X134159149Y-99958324D01*
X134309078Y-99733938D01*
X134365000Y-99598931D01*
X134420922Y-99733938D01*
X134570851Y-99958324D01*
X134761676Y-100149149D01*
X134986062Y-100299078D01*
X135235386Y-100402352D01*
X135500067Y-100455000D01*
X135769933Y-100455000D01*
X136034614Y-100402352D01*
X136283938Y-100299078D01*
X136508324Y-100149149D01*
X136699149Y-99958324D01*
X136849078Y-99733938D01*
X136905000Y-99598931D01*
X136960922Y-99733938D01*
X137110851Y-99958324D01*
X137301676Y-100149149D01*
X137526062Y-100299078D01*
X137775386Y-100402352D01*
X138040067Y-100455000D01*
X138309933Y-100455000D01*
X138574614Y-100402352D01*
X138823938Y-100299078D01*
X139048324Y-100149149D01*
X139239149Y-99958324D01*
X139389078Y-99733938D01*
X139445000Y-99598931D01*
X139500922Y-99733938D01*
X139650851Y-99958324D01*
X139841676Y-100149149D01*
X140066062Y-100299078D01*
X140315386Y-100402352D01*
X140580067Y-100455000D01*
X140849933Y-100455000D01*
X141114614Y-100402352D01*
X141363938Y-100299078D01*
X141588324Y-100149149D01*
X141779149Y-99958324D01*
X141929078Y-99733938D01*
X141961775Y-99655000D01*
X142522097Y-99655000D01*
X142525000Y-100504500D01*
X142675000Y-100654500D01*
X143874500Y-100654500D01*
X143874500Y-99205000D01*
X143724500Y-99055000D01*
X143125000Y-99052097D01*
X143007379Y-99063682D01*
X142894279Y-99097990D01*
X142790045Y-99153704D01*
X142698683Y-99228683D01*
X142623704Y-99320045D01*
X142567990Y-99424279D01*
X142533682Y-99537379D01*
X142522097Y-99655000D01*
X141961775Y-99655000D01*
X142032352Y-99484614D01*
X142085000Y-99219933D01*
X142085000Y-98950067D01*
X142032352Y-98685386D01*
X141929078Y-98436062D01*
X141779149Y-98211676D01*
X141588324Y-98020851D01*
X141380855Y-97882225D01*
X141550000Y-97882903D01*
X141667621Y-97871318D01*
X141780721Y-97837010D01*
X141884955Y-97781296D01*
X141976317Y-97706317D01*
X142051296Y-97614955D01*
X142107010Y-97510721D01*
X142141318Y-97397621D01*
X142152903Y-97280000D01*
X142150000Y-96805500D01*
X142000000Y-96655500D01*
X140675500Y-96655500D01*
X140675500Y-96675500D01*
X140674500Y-96675500D01*
X140674500Y-96655500D01*
X139350000Y-96655500D01*
X139200000Y-96805500D01*
X139197097Y-97280000D01*
X139208682Y-97397621D01*
X139242990Y-97510721D01*
X139298704Y-97614955D01*
X139373683Y-97706317D01*
X139465045Y-97781296D01*
X139569279Y-97837010D01*
X139682379Y-97871318D01*
X139800000Y-97882903D01*
X140049628Y-97881903D01*
X139841676Y-98020851D01*
X139650851Y-98211676D01*
X139500922Y-98436062D01*
X139445000Y-98571069D01*
X139389078Y-98436062D01*
X139239149Y-98211676D01*
X139048324Y-98020851D01*
X138823938Y-97870922D01*
X138574614Y-97767648D01*
X138309933Y-97715000D01*
X138040067Y-97715000D01*
X137775386Y-97767648D01*
X137526062Y-97870922D01*
X137301676Y-98020851D01*
X137110851Y-98211676D01*
X136960922Y-98436062D01*
X136905000Y-98571069D01*
X136849078Y-98436062D01*
X136699149Y-98211676D01*
X136508324Y-98020851D01*
X136283938Y-97870922D01*
X136034614Y-97767648D01*
X135769933Y-97715000D01*
X135500067Y-97715000D01*
X135235386Y-97767648D01*
X134986062Y-97870922D01*
X134761676Y-98020851D01*
X134570851Y-98211676D01*
X134420922Y-98436062D01*
X134365000Y-98571069D01*
X134309078Y-98436062D01*
X134159149Y-98211676D01*
X133968324Y-98020851D01*
X133743938Y-97870922D01*
X133494614Y-97767648D01*
X133229933Y-97715000D01*
X132960067Y-97715000D01*
X132695386Y-97767648D01*
X132446062Y-97870922D01*
X132221676Y-98020851D01*
X132030851Y-98211676D01*
X131880922Y-98436062D01*
X131777648Y-98685386D01*
X131725000Y-98950067D01*
X130266551Y-98950067D01*
X133186618Y-96030000D01*
X139197097Y-96030000D01*
X139200000Y-96504500D01*
X139350000Y-96654500D01*
X140674500Y-96654500D01*
X140674500Y-95580000D01*
X140675500Y-95580000D01*
X140675500Y-96654500D01*
X142000000Y-96654500D01*
X142150000Y-96504500D01*
X142152903Y-96030000D01*
X142141318Y-95912379D01*
X142107010Y-95799279D01*
X142051296Y-95695045D01*
X141976317Y-95603683D01*
X141884955Y-95528704D01*
X141780721Y-95472990D01*
X141667621Y-95438682D01*
X141550000Y-95427097D01*
X140825500Y-95430000D01*
X140675500Y-95580000D01*
X140674500Y-95580000D01*
X140524500Y-95430000D01*
X139800000Y-95427097D01*
X139682379Y-95438682D01*
X139569279Y-95472990D01*
X139465045Y-95528704D01*
X139373683Y-95603683D01*
X139298704Y-95695045D01*
X139242990Y-95799279D01*
X139208682Y-95912379D01*
X139197097Y-96030000D01*
X133186618Y-96030000D01*
X135973617Y-93243001D01*
X139226544Y-93243001D01*
X139205602Y-93312039D01*
X139189059Y-93480000D01*
X139189059Y-94230000D01*
X139205602Y-94397961D01*
X139254594Y-94559468D01*
X139334154Y-94708313D01*
X139441223Y-94838777D01*
X139571687Y-94945846D01*
X139720532Y-95025406D01*
X139882039Y-95074398D01*
X140050000Y-95090941D01*
X141300000Y-95090941D01*
X141467961Y-95074398D01*
X141629468Y-95025406D01*
X141778313Y-94945846D01*
X141908777Y-94838777D01*
X142011999Y-94713000D01*
X143664059Y-94713000D01*
X143664059Y-95355000D01*
X143675798Y-95474189D01*
X143710564Y-95588797D01*
X143767021Y-95694421D01*
X143817000Y-95755321D01*
X143817001Y-98200559D01*
X143811639Y-98255000D01*
X143833032Y-98472206D01*
X143896389Y-98681065D01*
X143999274Y-98873550D01*
X144137735Y-99042265D01*
X144152503Y-99054385D01*
X144025500Y-99055000D01*
X143875500Y-99205000D01*
X143875500Y-100654500D01*
X143895500Y-100654500D01*
X143895500Y-100655500D01*
X143875500Y-100655500D01*
X143875500Y-102105000D01*
X144025500Y-102255000D01*
X144625000Y-102257903D01*
X144742621Y-102246318D01*
X144855721Y-102212010D01*
X144959955Y-102156296D01*
X145018695Y-102108089D01*
X145085579Y-102162979D01*
X145191203Y-102219436D01*
X145305811Y-102254202D01*
X145425000Y-102265941D01*
X145510414Y-102265941D01*
X145532438Y-102287965D01*
X145546723Y-102297510D01*
X145517621Y-102288682D01*
X145400000Y-102277097D01*
X144925500Y-102280000D01*
X144775500Y-102430000D01*
X144775500Y-103754500D01*
X145850000Y-103754500D01*
X146000000Y-103604500D01*
X146002903Y-102880000D01*
X145991318Y-102762379D01*
X145957010Y-102649279D01*
X145901296Y-102545045D01*
X145826317Y-102453683D01*
X145821247Y-102449522D01*
X145880977Y-102474263D01*
X146075721Y-102513000D01*
X146274279Y-102513000D01*
X146469023Y-102474263D01*
X146652467Y-102398278D01*
X146817562Y-102287965D01*
X146839586Y-102265941D01*
X146925000Y-102265941D01*
X147044189Y-102254202D01*
X147158797Y-102219436D01*
X147264421Y-102162979D01*
X147325000Y-102113263D01*
X147385579Y-102162979D01*
X147491203Y-102219436D01*
X147605811Y-102254202D01*
X147725000Y-102265941D01*
X147742001Y-102265941D01*
X147742001Y-102269059D01*
X147200000Y-102269059D01*
X147032039Y-102285602D01*
X146870532Y-102334594D01*
X146721687Y-102414154D01*
X146591223Y-102521223D01*
X146484154Y-102651687D01*
X146404594Y-102800532D01*
X146355602Y-102962039D01*
X146339059Y-103130000D01*
X146339059Y-104380000D01*
X146355602Y-104547961D01*
X146404594Y-104709468D01*
X146435345Y-104766999D01*
X145985440Y-104766999D01*
X145991318Y-104747621D01*
X146002903Y-104630000D01*
X146000000Y-103905500D01*
X145850000Y-103755500D01*
X144775500Y-103755500D01*
X144775500Y-103775500D01*
X144774500Y-103775500D01*
X144774500Y-103755500D01*
X143700000Y-103755500D01*
X143550000Y-103905500D01*
X143547097Y-104630000D01*
X143558682Y-104747621D01*
X143564560Y-104766999D01*
X139400821Y-104766999D01*
X139418085Y-104737520D01*
X139505892Y-104484005D01*
X139542554Y-104218232D01*
X139526661Y-103950413D01*
X139458826Y-103690840D01*
X139341654Y-103449489D01*
X139282506Y-103360967D01*
X139037027Y-103303680D01*
X138175707Y-104165000D01*
X138189850Y-104179143D01*
X138189143Y-104179850D01*
X138175000Y-104165707D01*
X138160858Y-104179850D01*
X138160151Y-104179143D01*
X138174293Y-104165000D01*
X137312973Y-103303680D01*
X137067494Y-103360967D01*
X136931915Y-103592480D01*
X136844108Y-103845995D01*
X136807446Y-104111768D01*
X136823339Y-104379587D01*
X136891174Y-104639160D01*
X136953238Y-104766999D01*
X133106003Y-104766999D01*
X133070001Y-104763453D01*
X132926307Y-104777606D01*
X132808131Y-104813454D01*
X132788137Y-104819519D01*
X132660798Y-104887583D01*
X132549184Y-104979182D01*
X132526228Y-105007154D01*
X132277774Y-105255608D01*
X132083676Y-105217000D01*
X131806324Y-105217000D01*
X131534301Y-105271108D01*
X131278062Y-105377246D01*
X131047452Y-105531335D01*
X130851335Y-105727452D01*
X130697246Y-105958062D01*
X130675000Y-106011768D01*
X130652754Y-105958062D01*
X130498665Y-105727452D01*
X130302548Y-105531335D01*
X130170443Y-105443065D01*
X130496869Y-105224954D01*
X130894954Y-104826869D01*
X131207727Y-104358771D01*
X131423169Y-103838648D01*
X131529720Y-103302973D01*
X137313680Y-103302973D01*
X138175000Y-104164293D01*
X139036320Y-103302973D01*
X138979033Y-103057494D01*
X138747520Y-102921915D01*
X138626504Y-102880000D01*
X143547097Y-102880000D01*
X143550000Y-103604500D01*
X143700000Y-103754500D01*
X144774500Y-103754500D01*
X144774500Y-102430000D01*
X144624500Y-102280000D01*
X144150000Y-102277097D01*
X144032379Y-102288682D01*
X143919279Y-102322990D01*
X143815045Y-102378704D01*
X143723683Y-102453683D01*
X143648704Y-102545045D01*
X143592990Y-102649279D01*
X143558682Y-102762379D01*
X143547097Y-102880000D01*
X138626504Y-102880000D01*
X138494005Y-102834108D01*
X138228232Y-102797446D01*
X137960413Y-102813339D01*
X137700840Y-102881174D01*
X137459489Y-102998346D01*
X137370967Y-103057494D01*
X137313680Y-103302973D01*
X131529720Y-103302973D01*
X131533000Y-103286488D01*
X131533000Y-102723512D01*
X131423169Y-102171352D01*
X131209289Y-101655000D01*
X142522097Y-101655000D01*
X142533682Y-101772621D01*
X142567990Y-101885721D01*
X142623704Y-101989955D01*
X142698683Y-102081317D01*
X142790045Y-102156296D01*
X142894279Y-102212010D01*
X143007379Y-102246318D01*
X143125000Y-102257903D01*
X143724500Y-102255000D01*
X143874500Y-102105000D01*
X143874500Y-100655500D01*
X142675000Y-100655500D01*
X142525000Y-100805500D01*
X142522097Y-101655000D01*
X131209289Y-101655000D01*
X131207727Y-101651229D01*
X130894954Y-101183131D01*
X130496869Y-100785046D01*
X130028771Y-100472273D01*
X129508648Y-100256831D01*
X128956488Y-100147000D01*
X128393512Y-100147000D01*
X127841352Y-100256831D01*
X127321229Y-100472273D01*
X126853131Y-100785046D01*
X126455046Y-101183131D01*
X126142273Y-101651229D01*
X125926831Y-102171352D01*
X125817000Y-102723512D01*
X125817000Y-103286488D01*
X125926831Y-103838648D01*
X126142273Y-104358771D01*
X126455046Y-104826869D01*
X126845177Y-105217000D01*
X126726324Y-105217000D01*
X126454301Y-105271108D01*
X126198062Y-105377246D01*
X125967452Y-105531335D01*
X125771335Y-105727452D01*
X125617246Y-105958062D01*
X125595000Y-106011768D01*
X125572754Y-105958062D01*
X125418665Y-105727452D01*
X125222548Y-105531335D01*
X124991938Y-105377246D01*
X124735699Y-105271108D01*
X124463676Y-105217000D01*
X124186324Y-105217000D01*
X123914301Y-105271108D01*
X123658062Y-105377246D01*
X123427452Y-105531335D01*
X123231335Y-105727452D01*
X123077246Y-105958062D01*
X123055000Y-106011768D01*
X123032754Y-105958062D01*
X122878665Y-105727452D01*
X122682548Y-105531335D01*
X122451938Y-105377246D01*
X122195699Y-105271108D01*
X121923676Y-105217000D01*
X121646324Y-105217000D01*
X121374301Y-105271108D01*
X121118062Y-105377246D01*
X120887452Y-105531335D01*
X120691335Y-105727452D01*
X120537246Y-105958062D01*
X120515000Y-106011768D01*
X120492754Y-105958062D01*
X120338665Y-105727452D01*
X120142548Y-105531335D01*
X119911938Y-105377246D01*
X119655699Y-105271108D01*
X119383676Y-105217000D01*
X119106324Y-105217000D01*
X118834301Y-105271108D01*
X118578062Y-105377246D01*
X118347452Y-105531335D01*
X118151335Y-105727452D01*
X117997246Y-105958062D01*
X117975000Y-106011768D01*
X117952754Y-105958062D01*
X117798665Y-105727452D01*
X117602548Y-105531335D01*
X117371938Y-105377246D01*
X117115699Y-105271108D01*
X116843676Y-105217000D01*
X116566324Y-105217000D01*
X116294301Y-105271108D01*
X116038062Y-105377246D01*
X115807452Y-105531335D01*
X115611335Y-105727452D01*
X115565109Y-105796634D01*
X115556318Y-105707379D01*
X115522010Y-105594279D01*
X115466296Y-105490045D01*
X115391317Y-105398683D01*
X115299955Y-105323704D01*
X115195721Y-105267990D01*
X115082621Y-105233682D01*
X114965000Y-105222097D01*
X114315500Y-105225000D01*
X114165500Y-105375000D01*
X114165500Y-106624500D01*
X114185500Y-106624500D01*
X114185500Y-106625500D01*
X114165500Y-106625500D01*
X114165500Y-106645500D01*
X114164500Y-106645500D01*
X114164500Y-106625500D01*
X114144500Y-106625500D01*
X114144500Y-106624500D01*
X114164500Y-106624500D01*
X114164500Y-105375000D01*
X114014500Y-105225000D01*
X113365000Y-105222097D01*
X113308000Y-105227711D01*
X113308000Y-92505758D01*
X113498062Y-92632754D01*
X113754301Y-92738892D01*
X114026324Y-92793000D01*
X114303676Y-92793000D01*
X114575699Y-92738892D01*
X114831938Y-92632754D01*
X115062548Y-92478665D01*
X115258665Y-92282548D01*
X115412754Y-92051938D01*
X115440270Y-91985508D01*
X115505788Y-92120465D01*
X115566602Y-92211476D01*
X115815973Y-92273320D01*
X116704293Y-91385000D01*
X116690151Y-91370858D01*
X116690858Y-91370151D01*
X116705000Y-91384293D01*
X116719143Y-91370151D01*
X116719850Y-91370858D01*
G37*
X116719850Y-91370858D02*
X116705707Y-91385000D01*
X116719850Y-91399143D01*
X116719143Y-91399850D01*
X116705000Y-91385707D01*
X115816680Y-92274027D01*
X115878524Y-92523398D01*
X116116495Y-92662762D01*
X116377081Y-92753022D01*
X116650270Y-92790710D01*
X116812283Y-92781098D01*
X114932150Y-94661232D01*
X114904184Y-94684183D01*
X114812585Y-94795797D01*
X114774304Y-94867416D01*
X114744521Y-94923136D01*
X114702607Y-95061307D01*
X114688454Y-95205000D01*
X114692001Y-95241012D01*
X114692000Y-97468998D01*
X114688454Y-97505000D01*
X114702607Y-97648693D01*
X114715321Y-97690606D01*
X114744520Y-97786863D01*
X114812584Y-97914202D01*
X114904183Y-98025816D01*
X114932151Y-98048769D01*
X117209597Y-100326216D01*
X117065132Y-100354951D01*
X116790694Y-100468627D01*
X116543706Y-100633660D01*
X116333660Y-100843706D01*
X116168627Y-101090694D01*
X116054951Y-101365132D01*
X115997000Y-101656475D01*
X115997000Y-101953525D01*
X116054951Y-102244868D01*
X116168627Y-102519306D01*
X116333660Y-102766294D01*
X116543706Y-102976340D01*
X116790694Y-103141373D01*
X117065132Y-103255049D01*
X117356475Y-103313000D01*
X117653525Y-103313000D01*
X117944868Y-103255049D01*
X118219306Y-103141373D01*
X118466294Y-102976340D01*
X118676340Y-102766294D01*
X118841373Y-102519306D01*
X118880120Y-102425763D01*
X118891335Y-102442548D01*
X119087452Y-102638665D01*
X119318062Y-102792754D01*
X119574301Y-102898892D01*
X119846324Y-102953000D01*
X120123676Y-102953000D01*
X120395699Y-102898892D01*
X120651938Y-102792754D01*
X120882548Y-102638665D01*
X121078665Y-102442548D01*
X121164731Y-102313741D01*
X121335985Y-102570040D01*
X121559960Y-102794015D01*
X121823327Y-102969991D01*
X122115964Y-103091205D01*
X122426626Y-103153000D01*
X122743374Y-103153000D01*
X123054036Y-103091205D01*
X123346673Y-102969991D01*
X123610040Y-102794015D01*
X123834015Y-102570040D01*
X124009991Y-102306673D01*
X124131205Y-102014036D01*
X124193000Y-101703374D01*
X124193000Y-101386626D01*
X124131205Y-101075964D01*
X124009991Y-100783327D01*
X123834015Y-100519960D01*
X123610040Y-100295985D01*
X123546323Y-100253411D01*
X123615426Y-100036133D01*
X122585000Y-99005707D01*
X122570858Y-99019850D01*
X122570151Y-99019143D01*
X122584293Y-99005000D01*
X121553867Y-97974574D01*
X121284015Y-98060397D01*
X121124730Y-98332357D01*
X121021563Y-98630166D01*
X120978477Y-98942379D01*
X120997129Y-99256999D01*
X121018032Y-99337001D01*
X118293620Y-99337001D01*
X116158000Y-97201382D01*
X116158000Y-96963266D01*
X116293660Y-97166294D01*
X116503706Y-97376340D01*
X116750694Y-97541373D01*
X117025132Y-97655049D01*
X117316475Y-97713000D01*
X117613525Y-97713000D01*
X117904868Y-97655049D01*
X118179306Y-97541373D01*
X118426294Y-97376340D01*
X118636340Y-97166294D01*
X118707416Y-97059922D01*
X118737246Y-97131938D01*
X118891335Y-97362548D01*
X119087452Y-97558665D01*
X119318062Y-97712754D01*
X119574301Y-97818892D01*
X119846324Y-97873000D01*
X120123676Y-97873000D01*
X120395699Y-97818892D01*
X120651938Y-97712754D01*
X120882548Y-97558665D01*
X121078665Y-97362548D01*
X121164731Y-97233741D01*
X121335985Y-97490040D01*
X121559960Y-97714015D01*
X121623677Y-97756589D01*
X121554574Y-97973867D01*
X122585000Y-99004293D01*
X122599143Y-98990151D01*
X122599850Y-98990858D01*
X122585707Y-99005000D01*
X123616133Y-100035426D01*
X123885985Y-99949603D01*
X124045270Y-99677643D01*
X124148437Y-99379834D01*
X124187820Y-99094456D01*
X124215797Y-99117416D01*
X124320156Y-99173197D01*
X124343136Y-99185480D01*
X124481306Y-99227393D01*
X124625000Y-99241546D01*
X124661002Y-99238000D01*
X129638998Y-99238000D01*
X129675000Y-99241546D01*
X129818693Y-99227393D01*
X129833178Y-99222999D01*
X129956864Y-99185480D01*
X130084203Y-99117416D01*
X130195817Y-99025817D01*
X130218773Y-98997845D01*
X130266551Y-98950067D01*
X131725000Y-98950067D01*
X131725000Y-99219933D01*
X131777648Y-99484614D01*
X131880922Y-99733938D01*
X132030851Y-99958324D01*
X132221676Y-100149149D01*
X132446062Y-100299078D01*
X132695386Y-100402352D01*
X132960067Y-100455000D01*
X133229933Y-100455000D01*
X133494614Y-100402352D01*
X133743938Y-100299078D01*
X133968324Y-100149149D01*
X134159149Y-99958324D01*
X134309078Y-99733938D01*
X134365000Y-99598931D01*
X134420922Y-99733938D01*
X134570851Y-99958324D01*
X134761676Y-100149149D01*
X134986062Y-100299078D01*
X135235386Y-100402352D01*
X135500067Y-100455000D01*
X135769933Y-100455000D01*
X136034614Y-100402352D01*
X136283938Y-100299078D01*
X136508324Y-100149149D01*
X136699149Y-99958324D01*
X136849078Y-99733938D01*
X136905000Y-99598931D01*
X136960922Y-99733938D01*
X137110851Y-99958324D01*
X137301676Y-100149149D01*
X137526062Y-100299078D01*
X137775386Y-100402352D01*
X138040067Y-100455000D01*
X138309933Y-100455000D01*
X138574614Y-100402352D01*
X138823938Y-100299078D01*
X139048324Y-100149149D01*
X139239149Y-99958324D01*
X139389078Y-99733938D01*
X139445000Y-99598931D01*
X139500922Y-99733938D01*
X139650851Y-99958324D01*
X139841676Y-100149149D01*
X140066062Y-100299078D01*
X140315386Y-100402352D01*
X140580067Y-100455000D01*
X140849933Y-100455000D01*
X141114614Y-100402352D01*
X141363938Y-100299078D01*
X141588324Y-100149149D01*
X141779149Y-99958324D01*
X141929078Y-99733938D01*
X141961775Y-99655000D01*
X142522097Y-99655000D01*
X142525000Y-100504500D01*
X142675000Y-100654500D01*
X143874500Y-100654500D01*
X143874500Y-99205000D01*
X143724500Y-99055000D01*
X143125000Y-99052097D01*
X143007379Y-99063682D01*
X142894279Y-99097990D01*
X142790045Y-99153704D01*
X142698683Y-99228683D01*
X142623704Y-99320045D01*
X142567990Y-99424279D01*
X142533682Y-99537379D01*
X142522097Y-99655000D01*
X141961775Y-99655000D01*
X142032352Y-99484614D01*
X142085000Y-99219933D01*
X142085000Y-98950067D01*
X142032352Y-98685386D01*
X141929078Y-98436062D01*
X141779149Y-98211676D01*
X141588324Y-98020851D01*
X141380855Y-97882225D01*
X141550000Y-97882903D01*
X141667621Y-97871318D01*
X141780721Y-97837010D01*
X141884955Y-97781296D01*
X141976317Y-97706317D01*
X142051296Y-97614955D01*
X142107010Y-97510721D01*
X142141318Y-97397621D01*
X142152903Y-97280000D01*
X142150000Y-96805500D01*
X142000000Y-96655500D01*
X140675500Y-96655500D01*
X140675500Y-96675500D01*
X140674500Y-96675500D01*
X140674500Y-96655500D01*
X139350000Y-96655500D01*
X139200000Y-96805500D01*
X139197097Y-97280000D01*
X139208682Y-97397621D01*
X139242990Y-97510721D01*
X139298704Y-97614955D01*
X139373683Y-97706317D01*
X139465045Y-97781296D01*
X139569279Y-97837010D01*
X139682379Y-97871318D01*
X139800000Y-97882903D01*
X140049628Y-97881903D01*
X139841676Y-98020851D01*
X139650851Y-98211676D01*
X139500922Y-98436062D01*
X139445000Y-98571069D01*
X139389078Y-98436062D01*
X139239149Y-98211676D01*
X139048324Y-98020851D01*
X138823938Y-97870922D01*
X138574614Y-97767648D01*
X138309933Y-97715000D01*
X138040067Y-97715000D01*
X137775386Y-97767648D01*
X137526062Y-97870922D01*
X137301676Y-98020851D01*
X137110851Y-98211676D01*
X136960922Y-98436062D01*
X136905000Y-98571069D01*
X136849078Y-98436062D01*
X136699149Y-98211676D01*
X136508324Y-98020851D01*
X136283938Y-97870922D01*
X136034614Y-97767648D01*
X135769933Y-97715000D01*
X135500067Y-97715000D01*
X135235386Y-97767648D01*
X134986062Y-97870922D01*
X134761676Y-98020851D01*
X134570851Y-98211676D01*
X134420922Y-98436062D01*
X134365000Y-98571069D01*
X134309078Y-98436062D01*
X134159149Y-98211676D01*
X133968324Y-98020851D01*
X133743938Y-97870922D01*
X133494614Y-97767648D01*
X133229933Y-97715000D01*
X132960067Y-97715000D01*
X132695386Y-97767648D01*
X132446062Y-97870922D01*
X132221676Y-98020851D01*
X132030851Y-98211676D01*
X131880922Y-98436062D01*
X131777648Y-98685386D01*
X131725000Y-98950067D01*
X130266551Y-98950067D01*
X133186618Y-96030000D01*
X139197097Y-96030000D01*
X139200000Y-96504500D01*
X139350000Y-96654500D01*
X140674500Y-96654500D01*
X140674500Y-95580000D01*
X140675500Y-95580000D01*
X140675500Y-96654500D01*
X142000000Y-96654500D01*
X142150000Y-96504500D01*
X142152903Y-96030000D01*
X142141318Y-95912379D01*
X142107010Y-95799279D01*
X142051296Y-95695045D01*
X141976317Y-95603683D01*
X141884955Y-95528704D01*
X141780721Y-95472990D01*
X141667621Y-95438682D01*
X141550000Y-95427097D01*
X140825500Y-95430000D01*
X140675500Y-95580000D01*
X140674500Y-95580000D01*
X140524500Y-95430000D01*
X139800000Y-95427097D01*
X139682379Y-95438682D01*
X139569279Y-95472990D01*
X139465045Y-95528704D01*
X139373683Y-95603683D01*
X139298704Y-95695045D01*
X139242990Y-95799279D01*
X139208682Y-95912379D01*
X139197097Y-96030000D01*
X133186618Y-96030000D01*
X135973617Y-93243001D01*
X139226544Y-93243001D01*
X139205602Y-93312039D01*
X139189059Y-93480000D01*
X139189059Y-94230000D01*
X139205602Y-94397961D01*
X139254594Y-94559468D01*
X139334154Y-94708313D01*
X139441223Y-94838777D01*
X139571687Y-94945846D01*
X139720532Y-95025406D01*
X139882039Y-95074398D01*
X140050000Y-95090941D01*
X141300000Y-95090941D01*
X141467961Y-95074398D01*
X141629468Y-95025406D01*
X141778313Y-94945846D01*
X141908777Y-94838777D01*
X142011999Y-94713000D01*
X143664059Y-94713000D01*
X143664059Y-95355000D01*
X143675798Y-95474189D01*
X143710564Y-95588797D01*
X143767021Y-95694421D01*
X143817000Y-95755321D01*
X143817001Y-98200559D01*
X143811639Y-98255000D01*
X143833032Y-98472206D01*
X143896389Y-98681065D01*
X143999274Y-98873550D01*
X144137735Y-99042265D01*
X144152503Y-99054385D01*
X144025500Y-99055000D01*
X143875500Y-99205000D01*
X143875500Y-100654500D01*
X143895500Y-100654500D01*
X143895500Y-100655500D01*
X143875500Y-100655500D01*
X143875500Y-102105000D01*
X144025500Y-102255000D01*
X144625000Y-102257903D01*
X144742621Y-102246318D01*
X144855721Y-102212010D01*
X144959955Y-102156296D01*
X145018695Y-102108089D01*
X145085579Y-102162979D01*
X145191203Y-102219436D01*
X145305811Y-102254202D01*
X145425000Y-102265941D01*
X145510414Y-102265941D01*
X145532438Y-102287965D01*
X145546723Y-102297510D01*
X145517621Y-102288682D01*
X145400000Y-102277097D01*
X144925500Y-102280000D01*
X144775500Y-102430000D01*
X144775500Y-103754500D01*
X145850000Y-103754500D01*
X146000000Y-103604500D01*
X146002903Y-102880000D01*
X145991318Y-102762379D01*
X145957010Y-102649279D01*
X145901296Y-102545045D01*
X145826317Y-102453683D01*
X145821247Y-102449522D01*
X145880977Y-102474263D01*
X146075721Y-102513000D01*
X146274279Y-102513000D01*
X146469023Y-102474263D01*
X146652467Y-102398278D01*
X146817562Y-102287965D01*
X146839586Y-102265941D01*
X146925000Y-102265941D01*
X147044189Y-102254202D01*
X147158797Y-102219436D01*
X147264421Y-102162979D01*
X147325000Y-102113263D01*
X147385579Y-102162979D01*
X147491203Y-102219436D01*
X147605811Y-102254202D01*
X147725000Y-102265941D01*
X147742001Y-102265941D01*
X147742001Y-102269059D01*
X147200000Y-102269059D01*
X147032039Y-102285602D01*
X146870532Y-102334594D01*
X146721687Y-102414154D01*
X146591223Y-102521223D01*
X146484154Y-102651687D01*
X146404594Y-102800532D01*
X146355602Y-102962039D01*
X146339059Y-103130000D01*
X146339059Y-104380000D01*
X146355602Y-104547961D01*
X146404594Y-104709468D01*
X146435345Y-104766999D01*
X145985440Y-104766999D01*
X145991318Y-104747621D01*
X146002903Y-104630000D01*
X146000000Y-103905500D01*
X145850000Y-103755500D01*
X144775500Y-103755500D01*
X144775500Y-103775500D01*
X144774500Y-103775500D01*
X144774500Y-103755500D01*
X143700000Y-103755500D01*
X143550000Y-103905500D01*
X143547097Y-104630000D01*
X143558682Y-104747621D01*
X143564560Y-104766999D01*
X139400821Y-104766999D01*
X139418085Y-104737520D01*
X139505892Y-104484005D01*
X139542554Y-104218232D01*
X139526661Y-103950413D01*
X139458826Y-103690840D01*
X139341654Y-103449489D01*
X139282506Y-103360967D01*
X139037027Y-103303680D01*
X138175707Y-104165000D01*
X138189850Y-104179143D01*
X138189143Y-104179850D01*
X138175000Y-104165707D01*
X138160858Y-104179850D01*
X138160151Y-104179143D01*
X138174293Y-104165000D01*
X137312973Y-103303680D01*
X137067494Y-103360967D01*
X136931915Y-103592480D01*
X136844108Y-103845995D01*
X136807446Y-104111768D01*
X136823339Y-104379587D01*
X136891174Y-104639160D01*
X136953238Y-104766999D01*
X133106003Y-104766999D01*
X133070001Y-104763453D01*
X132926307Y-104777606D01*
X132808131Y-104813454D01*
X132788137Y-104819519D01*
X132660798Y-104887583D01*
X132549184Y-104979182D01*
X132526228Y-105007154D01*
X132277774Y-105255608D01*
X132083676Y-105217000D01*
X131806324Y-105217000D01*
X131534301Y-105271108D01*
X131278062Y-105377246D01*
X131047452Y-105531335D01*
X130851335Y-105727452D01*
X130697246Y-105958062D01*
X130675000Y-106011768D01*
X130652754Y-105958062D01*
X130498665Y-105727452D01*
X130302548Y-105531335D01*
X130170443Y-105443065D01*
X130496869Y-105224954D01*
X130894954Y-104826869D01*
X131207727Y-104358771D01*
X131423169Y-103838648D01*
X131529720Y-103302973D01*
X137313680Y-103302973D01*
X138175000Y-104164293D01*
X139036320Y-103302973D01*
X138979033Y-103057494D01*
X138747520Y-102921915D01*
X138626504Y-102880000D01*
X143547097Y-102880000D01*
X143550000Y-103604500D01*
X143700000Y-103754500D01*
X144774500Y-103754500D01*
X144774500Y-102430000D01*
X144624500Y-102280000D01*
X144150000Y-102277097D01*
X144032379Y-102288682D01*
X143919279Y-102322990D01*
X143815045Y-102378704D01*
X143723683Y-102453683D01*
X143648704Y-102545045D01*
X143592990Y-102649279D01*
X143558682Y-102762379D01*
X143547097Y-102880000D01*
X138626504Y-102880000D01*
X138494005Y-102834108D01*
X138228232Y-102797446D01*
X137960413Y-102813339D01*
X137700840Y-102881174D01*
X137459489Y-102998346D01*
X137370967Y-103057494D01*
X137313680Y-103302973D01*
X131529720Y-103302973D01*
X131533000Y-103286488D01*
X131533000Y-102723512D01*
X131423169Y-102171352D01*
X131209289Y-101655000D01*
X142522097Y-101655000D01*
X142533682Y-101772621D01*
X142567990Y-101885721D01*
X142623704Y-101989955D01*
X142698683Y-102081317D01*
X142790045Y-102156296D01*
X142894279Y-102212010D01*
X143007379Y-102246318D01*
X143125000Y-102257903D01*
X143724500Y-102255000D01*
X143874500Y-102105000D01*
X143874500Y-100655500D01*
X142675000Y-100655500D01*
X142525000Y-100805500D01*
X142522097Y-101655000D01*
X131209289Y-101655000D01*
X131207727Y-101651229D01*
X130894954Y-101183131D01*
X130496869Y-100785046D01*
X130028771Y-100472273D01*
X129508648Y-100256831D01*
X128956488Y-100147000D01*
X128393512Y-100147000D01*
X127841352Y-100256831D01*
X127321229Y-100472273D01*
X126853131Y-100785046D01*
X126455046Y-101183131D01*
X126142273Y-101651229D01*
X125926831Y-102171352D01*
X125817000Y-102723512D01*
X125817000Y-103286488D01*
X125926831Y-103838648D01*
X126142273Y-104358771D01*
X126455046Y-104826869D01*
X126845177Y-105217000D01*
X126726324Y-105217000D01*
X126454301Y-105271108D01*
X126198062Y-105377246D01*
X125967452Y-105531335D01*
X125771335Y-105727452D01*
X125617246Y-105958062D01*
X125595000Y-106011768D01*
X125572754Y-105958062D01*
X125418665Y-105727452D01*
X125222548Y-105531335D01*
X124991938Y-105377246D01*
X124735699Y-105271108D01*
X124463676Y-105217000D01*
X124186324Y-105217000D01*
X123914301Y-105271108D01*
X123658062Y-105377246D01*
X123427452Y-105531335D01*
X123231335Y-105727452D01*
X123077246Y-105958062D01*
X123055000Y-106011768D01*
X123032754Y-105958062D01*
X122878665Y-105727452D01*
X122682548Y-105531335D01*
X122451938Y-105377246D01*
X122195699Y-105271108D01*
X121923676Y-105217000D01*
X121646324Y-105217000D01*
X121374301Y-105271108D01*
X121118062Y-105377246D01*
X120887452Y-105531335D01*
X120691335Y-105727452D01*
X120537246Y-105958062D01*
X120515000Y-106011768D01*
X120492754Y-105958062D01*
X120338665Y-105727452D01*
X120142548Y-105531335D01*
X119911938Y-105377246D01*
X119655699Y-105271108D01*
X119383676Y-105217000D01*
X119106324Y-105217000D01*
X118834301Y-105271108D01*
X118578062Y-105377246D01*
X118347452Y-105531335D01*
X118151335Y-105727452D01*
X117997246Y-105958062D01*
X117975000Y-106011768D01*
X117952754Y-105958062D01*
X117798665Y-105727452D01*
X117602548Y-105531335D01*
X117371938Y-105377246D01*
X117115699Y-105271108D01*
X116843676Y-105217000D01*
X116566324Y-105217000D01*
X116294301Y-105271108D01*
X116038062Y-105377246D01*
X115807452Y-105531335D01*
X115611335Y-105727452D01*
X115565109Y-105796634D01*
X115556318Y-105707379D01*
X115522010Y-105594279D01*
X115466296Y-105490045D01*
X115391317Y-105398683D01*
X115299955Y-105323704D01*
X115195721Y-105267990D01*
X115082621Y-105233682D01*
X114965000Y-105222097D01*
X114315500Y-105225000D01*
X114165500Y-105375000D01*
X114165500Y-106624500D01*
X114185500Y-106624500D01*
X114185500Y-106625500D01*
X114165500Y-106625500D01*
X114165500Y-106645500D01*
X114164500Y-106645500D01*
X114164500Y-106625500D01*
X114144500Y-106625500D01*
X114144500Y-106624500D01*
X114164500Y-106624500D01*
X114164500Y-105375000D01*
X114014500Y-105225000D01*
X113365000Y-105222097D01*
X113308000Y-105227711D01*
X113308000Y-92505758D01*
X113498062Y-92632754D01*
X113754301Y-92738892D01*
X114026324Y-92793000D01*
X114303676Y-92793000D01*
X114575699Y-92738892D01*
X114831938Y-92632754D01*
X115062548Y-92478665D01*
X115258665Y-92282548D01*
X115412754Y-92051938D01*
X115440270Y-91985508D01*
X115505788Y-92120465D01*
X115566602Y-92211476D01*
X115815973Y-92273320D01*
X116704293Y-91385000D01*
X116690151Y-91370858D01*
X116690858Y-91370151D01*
X116705000Y-91384293D01*
X116719143Y-91370151D01*
X116719850Y-91370858D01*
G36*
X160448397Y-90187984D02*
G01*
X160203116Y-90331632D01*
X159990572Y-90520372D01*
X159818933Y-90746951D01*
X159694796Y-91002661D01*
X159622930Y-91277676D01*
X159755000Y-91504500D01*
X161054500Y-91504500D01*
X161054500Y-91484500D01*
X161055500Y-91484500D01*
X161055500Y-91504500D01*
X161075500Y-91504500D01*
X161075500Y-91505500D01*
X161055500Y-91505500D01*
X161055500Y-92805000D01*
X161282324Y-92937070D01*
X161393010Y-92915052D01*
X161661603Y-92822016D01*
X161906884Y-92678368D01*
X162119428Y-92489628D01*
X162291067Y-92263049D01*
X162315021Y-92213707D01*
X162462497Y-92434421D01*
X162665579Y-92637503D01*
X162862001Y-92768748D01*
X162862001Y-93428320D01*
X162775500Y-93430000D01*
X162625500Y-93580000D01*
X162625500Y-94254500D01*
X162645500Y-94254500D01*
X162645500Y-94255500D01*
X162625500Y-94255500D01*
X162625500Y-94930000D01*
X162775500Y-95080000D01*
X162925000Y-95082903D01*
X162996274Y-95075883D01*
X163074183Y-95170816D01*
X163102150Y-95193768D01*
X163825206Y-95916824D01*
X163814059Y-96030000D01*
X163814059Y-96480000D01*
X163825798Y-96599189D01*
X163860564Y-96713797D01*
X163917021Y-96819421D01*
X163992999Y-96912001D01*
X164085579Y-96987979D01*
X164191203Y-97044436D01*
X164305811Y-97079202D01*
X164425000Y-97090941D01*
X165025000Y-97090941D01*
X165144189Y-97079202D01*
X165258797Y-97044436D01*
X165364421Y-96987979D01*
X165457001Y-96912001D01*
X165532979Y-96819421D01*
X165589436Y-96713797D01*
X165624202Y-96599189D01*
X165635941Y-96480000D01*
X165635941Y-96030000D01*
X165624202Y-95910811D01*
X165589436Y-95796203D01*
X165532979Y-95690579D01*
X165457001Y-95597999D01*
X165428736Y-95574803D01*
X165426506Y-95567452D01*
X165405480Y-95498136D01*
X165337416Y-95370797D01*
X165245817Y-95259183D01*
X165217851Y-95236232D01*
X165068296Y-95086677D01*
X165144189Y-95079202D01*
X165258797Y-95044436D01*
X165364421Y-94987979D01*
X165457001Y-94912001D01*
X165532979Y-94819421D01*
X165589436Y-94713797D01*
X165624202Y-94599189D01*
X165635941Y-94480000D01*
X165635941Y-94030000D01*
X165624202Y-93910811D01*
X165589436Y-93796203D01*
X165532979Y-93690579D01*
X165458000Y-93599216D01*
X165458000Y-93218618D01*
X165759705Y-92916913D01*
X165991399Y-92963000D01*
X166278601Y-92963000D01*
X166560283Y-92906970D01*
X166825622Y-92797063D01*
X167064421Y-92637503D01*
X167226249Y-92475675D01*
X167260564Y-92588797D01*
X167317001Y-92694383D01*
X167317001Y-93221465D01*
X167218711Y-93341232D01*
X167127432Y-93512003D01*
X167071223Y-93697299D01*
X167058225Y-93829274D01*
X167052244Y-93890000D01*
X167057000Y-93938287D01*
X167057001Y-95707552D01*
X166920000Y-95694059D01*
X166620000Y-95694059D01*
X166471548Y-95708680D01*
X166328800Y-95751982D01*
X166197244Y-95822301D01*
X166081933Y-95916933D01*
X165987301Y-96032244D01*
X165916982Y-96163800D01*
X165873680Y-96306548D01*
X165859059Y-96455000D01*
X165859059Y-96798959D01*
X165857432Y-96802003D01*
X165801223Y-96987299D01*
X165787000Y-97131711D01*
X165787001Y-98502828D01*
X165764065Y-98525764D01*
X165726551Y-98556551D01*
X165679827Y-98613484D01*
X165666885Y-98620402D01*
X165560710Y-98707537D01*
X165560610Y-98705842D01*
X165466015Y-98343726D01*
X165302594Y-98007023D01*
X165219863Y-97883209D01*
X164919291Y-97761416D01*
X163675707Y-99005000D01*
X163689850Y-99019143D01*
X163689143Y-99019850D01*
X163675000Y-99005707D01*
X163660858Y-99019850D01*
X163660151Y-99019143D01*
X163674293Y-99005000D01*
X162430709Y-97761416D01*
X162130137Y-97883209D01*
X161940971Y-98206152D01*
X161818442Y-98559794D01*
X161782760Y-98818261D01*
X161056423Y-98091924D01*
X161013895Y-98040103D01*
X160807112Y-97870402D01*
X160601892Y-97760709D01*
X162431416Y-97760709D01*
X163675000Y-99004293D01*
X164918584Y-97760709D01*
X164796791Y-97460137D01*
X164473848Y-97270971D01*
X164120206Y-97148442D01*
X163749455Y-97097259D01*
X163375842Y-97119390D01*
X163013726Y-97213985D01*
X162677023Y-97377406D01*
X162553209Y-97460137D01*
X162431416Y-97760709D01*
X160601892Y-97760709D01*
X160571196Y-97744302D01*
X160315212Y-97666650D01*
X160115704Y-97647000D01*
X160115701Y-97647000D01*
X160048998Y-97640430D01*
X159982295Y-97647000D01*
X159580229Y-97647000D01*
X159574202Y-97585811D01*
X159539436Y-97471203D01*
X159482979Y-97365579D01*
X159407001Y-97272999D01*
X159314421Y-97197021D01*
X159208797Y-97140564D01*
X159094189Y-97105798D01*
X158975000Y-97094059D01*
X158533000Y-97094059D01*
X158533000Y-96480000D01*
X161722097Y-96480000D01*
X161733682Y-96597621D01*
X161767990Y-96710721D01*
X161823704Y-96814955D01*
X161898683Y-96906317D01*
X161990045Y-96981296D01*
X162094279Y-97037010D01*
X162207379Y-97071318D01*
X162325000Y-97082903D01*
X162474500Y-97080000D01*
X162624500Y-96930000D01*
X162624500Y-96255500D01*
X162625500Y-96255500D01*
X162625500Y-96930000D01*
X162775500Y-97080000D01*
X162925000Y-97082903D01*
X163042621Y-97071318D01*
X163155721Y-97037010D01*
X163259955Y-96981296D01*
X163351317Y-96906317D01*
X163426296Y-96814955D01*
X163482010Y-96710721D01*
X163516318Y-96597621D01*
X163527903Y-96480000D01*
X163525000Y-96405500D01*
X163375000Y-96255500D01*
X162625500Y-96255500D01*
X162624500Y-96255500D01*
X161875000Y-96255500D01*
X161725000Y-96405500D01*
X161722097Y-96480000D01*
X158533000Y-96480000D01*
X158533000Y-96030000D01*
X161722097Y-96030000D01*
X161725000Y-96104500D01*
X161875000Y-96254500D01*
X162624500Y-96254500D01*
X162624500Y-95580000D01*
X162625500Y-95580000D01*
X162625500Y-96254500D01*
X163375000Y-96254500D01*
X163525000Y-96104500D01*
X163527903Y-96030000D01*
X163516318Y-95912379D01*
X163482010Y-95799279D01*
X163426296Y-95695045D01*
X163351317Y-95603683D01*
X163259955Y-95528704D01*
X163155721Y-95472990D01*
X163042621Y-95438682D01*
X162925000Y-95427097D01*
X162775500Y-95430000D01*
X162625500Y-95580000D01*
X162624500Y-95580000D01*
X162474500Y-95430000D01*
X162325000Y-95427097D01*
X162207379Y-95438682D01*
X162094279Y-95472990D01*
X161990045Y-95528704D01*
X161898683Y-95603683D01*
X161823704Y-95695045D01*
X161767990Y-95799279D01*
X161733682Y-95912379D01*
X161722097Y-96030000D01*
X158533000Y-96030000D01*
X158533000Y-94480000D01*
X161722097Y-94480000D01*
X161733682Y-94597621D01*
X161767990Y-94710721D01*
X161823704Y-94814955D01*
X161898683Y-94906317D01*
X161990045Y-94981296D01*
X162094279Y-95037010D01*
X162207379Y-95071318D01*
X162325000Y-95082903D01*
X162474500Y-95080000D01*
X162624500Y-94930000D01*
X162624500Y-94255500D01*
X161875000Y-94255500D01*
X161725000Y-94405500D01*
X161722097Y-94480000D01*
X158533000Y-94480000D01*
X158533000Y-94030000D01*
X161722097Y-94030000D01*
X161725000Y-94104500D01*
X161875000Y-94254500D01*
X162624500Y-94254500D01*
X162624500Y-93580000D01*
X162474500Y-93430000D01*
X162325000Y-93427097D01*
X162207379Y-93438682D01*
X162094279Y-93472990D01*
X161990045Y-93528704D01*
X161898683Y-93603683D01*
X161823704Y-93695045D01*
X161767990Y-93799279D01*
X161733682Y-93912379D01*
X161722097Y-94030000D01*
X158533000Y-94030000D01*
X158533000Y-92765062D01*
X158537151Y-92722919D01*
X158530333Y-92653694D01*
X158520585Y-92554722D01*
X158471524Y-92392988D01*
X158434385Y-92323506D01*
X158391852Y-92243933D01*
X158311499Y-92146023D01*
X158284633Y-92113286D01*
X158251894Y-92086418D01*
X157897800Y-91732324D01*
X159622930Y-91732324D01*
X159694796Y-92007339D01*
X159818933Y-92263049D01*
X159990572Y-92489628D01*
X160203116Y-92678368D01*
X160448397Y-92822016D01*
X160716990Y-92915052D01*
X160827676Y-92937070D01*
X161054500Y-92805000D01*
X161054500Y-91505500D01*
X159755000Y-91505500D01*
X159622930Y-91732324D01*
X157897800Y-91732324D01*
X156843586Y-90678111D01*
X156816714Y-90645367D01*
X156686066Y-90538148D01*
X156537012Y-90458476D01*
X156375278Y-90409415D01*
X156249227Y-90397000D01*
X156249224Y-90397000D01*
X156207081Y-90392849D01*
X156164938Y-90397000D01*
X154901970Y-90397000D01*
X154869484Y-90348381D01*
X154793506Y-90255802D01*
X154724198Y-90186494D01*
X154665108Y-90138000D01*
X160592700Y-90138000D01*
X160448397Y-90187984D01*
G37*
X160448397Y-90187984D02*
X160203116Y-90331632D01*
X159990572Y-90520372D01*
X159818933Y-90746951D01*
X159694796Y-91002661D01*
X159622930Y-91277676D01*
X159755000Y-91504500D01*
X161054500Y-91504500D01*
X161054500Y-91484500D01*
X161055500Y-91484500D01*
X161055500Y-91504500D01*
X161075500Y-91504500D01*
X161075500Y-91505500D01*
X161055500Y-91505500D01*
X161055500Y-92805000D01*
X161282324Y-92937070D01*
X161393010Y-92915052D01*
X161661603Y-92822016D01*
X161906884Y-92678368D01*
X162119428Y-92489628D01*
X162291067Y-92263049D01*
X162315021Y-92213707D01*
X162462497Y-92434421D01*
X162665579Y-92637503D01*
X162862001Y-92768748D01*
X162862001Y-93428320D01*
X162775500Y-93430000D01*
X162625500Y-93580000D01*
X162625500Y-94254500D01*
X162645500Y-94254500D01*
X162645500Y-94255500D01*
X162625500Y-94255500D01*
X162625500Y-94930000D01*
X162775500Y-95080000D01*
X162925000Y-95082903D01*
X162996274Y-95075883D01*
X163074183Y-95170816D01*
X163102150Y-95193768D01*
X163825206Y-95916824D01*
X163814059Y-96030000D01*
X163814059Y-96480000D01*
X163825798Y-96599189D01*
X163860564Y-96713797D01*
X163917021Y-96819421D01*
X163992999Y-96912001D01*
X164085579Y-96987979D01*
X164191203Y-97044436D01*
X164305811Y-97079202D01*
X164425000Y-97090941D01*
X165025000Y-97090941D01*
X165144189Y-97079202D01*
X165258797Y-97044436D01*
X165364421Y-96987979D01*
X165457001Y-96912001D01*
X165532979Y-96819421D01*
X165589436Y-96713797D01*
X165624202Y-96599189D01*
X165635941Y-96480000D01*
X165635941Y-96030000D01*
X165624202Y-95910811D01*
X165589436Y-95796203D01*
X165532979Y-95690579D01*
X165457001Y-95597999D01*
X165428736Y-95574803D01*
X165426506Y-95567452D01*
X165405480Y-95498136D01*
X165337416Y-95370797D01*
X165245817Y-95259183D01*
X165217851Y-95236232D01*
X165068296Y-95086677D01*
X165144189Y-95079202D01*
X165258797Y-95044436D01*
X165364421Y-94987979D01*
X165457001Y-94912001D01*
X165532979Y-94819421D01*
X165589436Y-94713797D01*
X165624202Y-94599189D01*
X165635941Y-94480000D01*
X165635941Y-94030000D01*
X165624202Y-93910811D01*
X165589436Y-93796203D01*
X165532979Y-93690579D01*
X165458000Y-93599216D01*
X165458000Y-93218618D01*
X165759705Y-92916913D01*
X165991399Y-92963000D01*
X166278601Y-92963000D01*
X166560283Y-92906970D01*
X166825622Y-92797063D01*
X167064421Y-92637503D01*
X167226249Y-92475675D01*
X167260564Y-92588797D01*
X167317001Y-92694383D01*
X167317001Y-93221465D01*
X167218711Y-93341232D01*
X167127432Y-93512003D01*
X167071223Y-93697299D01*
X167058225Y-93829274D01*
X167052244Y-93890000D01*
X167057000Y-93938287D01*
X167057001Y-95707552D01*
X166920000Y-95694059D01*
X166620000Y-95694059D01*
X166471548Y-95708680D01*
X166328800Y-95751982D01*
X166197244Y-95822301D01*
X166081933Y-95916933D01*
X165987301Y-96032244D01*
X165916982Y-96163800D01*
X165873680Y-96306548D01*
X165859059Y-96455000D01*
X165859059Y-96798959D01*
X165857432Y-96802003D01*
X165801223Y-96987299D01*
X165787000Y-97131711D01*
X165787001Y-98502828D01*
X165764065Y-98525764D01*
X165726551Y-98556551D01*
X165679827Y-98613484D01*
X165666885Y-98620402D01*
X165560710Y-98707537D01*
X165560610Y-98705842D01*
X165466015Y-98343726D01*
X165302594Y-98007023D01*
X165219863Y-97883209D01*
X164919291Y-97761416D01*
X163675707Y-99005000D01*
X163689850Y-99019143D01*
X163689143Y-99019850D01*
X163675000Y-99005707D01*
X163660858Y-99019850D01*
X163660151Y-99019143D01*
X163674293Y-99005000D01*
X162430709Y-97761416D01*
X162130137Y-97883209D01*
X161940971Y-98206152D01*
X161818442Y-98559794D01*
X161782760Y-98818261D01*
X161056423Y-98091924D01*
X161013895Y-98040103D01*
X160807112Y-97870402D01*
X160601892Y-97760709D01*
X162431416Y-97760709D01*
X163675000Y-99004293D01*
X164918584Y-97760709D01*
X164796791Y-97460137D01*
X164473848Y-97270971D01*
X164120206Y-97148442D01*
X163749455Y-97097259D01*
X163375842Y-97119390D01*
X163013726Y-97213985D01*
X162677023Y-97377406D01*
X162553209Y-97460137D01*
X162431416Y-97760709D01*
X160601892Y-97760709D01*
X160571196Y-97744302D01*
X160315212Y-97666650D01*
X160115704Y-97647000D01*
X160115701Y-97647000D01*
X160048998Y-97640430D01*
X159982295Y-97647000D01*
X159580229Y-97647000D01*
X159574202Y-97585811D01*
X159539436Y-97471203D01*
X159482979Y-97365579D01*
X159407001Y-97272999D01*
X159314421Y-97197021D01*
X159208797Y-97140564D01*
X159094189Y-97105798D01*
X158975000Y-97094059D01*
X158533000Y-97094059D01*
X158533000Y-96480000D01*
X161722097Y-96480000D01*
X161733682Y-96597621D01*
X161767990Y-96710721D01*
X161823704Y-96814955D01*
X161898683Y-96906317D01*
X161990045Y-96981296D01*
X162094279Y-97037010D01*
X162207379Y-97071318D01*
X162325000Y-97082903D01*
X162474500Y-97080000D01*
X162624500Y-96930000D01*
X162624500Y-96255500D01*
X162625500Y-96255500D01*
X162625500Y-96930000D01*
X162775500Y-97080000D01*
X162925000Y-97082903D01*
X163042621Y-97071318D01*
X163155721Y-97037010D01*
X163259955Y-96981296D01*
X163351317Y-96906317D01*
X163426296Y-96814955D01*
X163482010Y-96710721D01*
X163516318Y-96597621D01*
X163527903Y-96480000D01*
X163525000Y-96405500D01*
X163375000Y-96255500D01*
X162625500Y-96255500D01*
X162624500Y-96255500D01*
X161875000Y-96255500D01*
X161725000Y-96405500D01*
X161722097Y-96480000D01*
X158533000Y-96480000D01*
X158533000Y-96030000D01*
X161722097Y-96030000D01*
X161725000Y-96104500D01*
X161875000Y-96254500D01*
X162624500Y-96254500D01*
X162624500Y-95580000D01*
X162625500Y-95580000D01*
X162625500Y-96254500D01*
X163375000Y-96254500D01*
X163525000Y-96104500D01*
X163527903Y-96030000D01*
X163516318Y-95912379D01*
X163482010Y-95799279D01*
X163426296Y-95695045D01*
X163351317Y-95603683D01*
X163259955Y-95528704D01*
X163155721Y-95472990D01*
X163042621Y-95438682D01*
X162925000Y-95427097D01*
X162775500Y-95430000D01*
X162625500Y-95580000D01*
X162624500Y-95580000D01*
X162474500Y-95430000D01*
X162325000Y-95427097D01*
X162207379Y-95438682D01*
X162094279Y-95472990D01*
X161990045Y-95528704D01*
X161898683Y-95603683D01*
X161823704Y-95695045D01*
X161767990Y-95799279D01*
X161733682Y-95912379D01*
X161722097Y-96030000D01*
X158533000Y-96030000D01*
X158533000Y-94480000D01*
X161722097Y-94480000D01*
X161733682Y-94597621D01*
X161767990Y-94710721D01*
X161823704Y-94814955D01*
X161898683Y-94906317D01*
X161990045Y-94981296D01*
X162094279Y-95037010D01*
X162207379Y-95071318D01*
X162325000Y-95082903D01*
X162474500Y-95080000D01*
X162624500Y-94930000D01*
X162624500Y-94255500D01*
X161875000Y-94255500D01*
X161725000Y-94405500D01*
X161722097Y-94480000D01*
X158533000Y-94480000D01*
X158533000Y-94030000D01*
X161722097Y-94030000D01*
X161725000Y-94104500D01*
X161875000Y-94254500D01*
X162624500Y-94254500D01*
X162624500Y-93580000D01*
X162474500Y-93430000D01*
X162325000Y-93427097D01*
X162207379Y-93438682D01*
X162094279Y-93472990D01*
X161990045Y-93528704D01*
X161898683Y-93603683D01*
X161823704Y-93695045D01*
X161767990Y-93799279D01*
X161733682Y-93912379D01*
X161722097Y-94030000D01*
X158533000Y-94030000D01*
X158533000Y-92765062D01*
X158537151Y-92722919D01*
X158530333Y-92653694D01*
X158520585Y-92554722D01*
X158471524Y-92392988D01*
X158434385Y-92323506D01*
X158391852Y-92243933D01*
X158311499Y-92146023D01*
X158284633Y-92113286D01*
X158251894Y-92086418D01*
X157897800Y-91732324D01*
X159622930Y-91732324D01*
X159694796Y-92007339D01*
X159818933Y-92263049D01*
X159990572Y-92489628D01*
X160203116Y-92678368D01*
X160448397Y-92822016D01*
X160716990Y-92915052D01*
X160827676Y-92937070D01*
X161054500Y-92805000D01*
X161054500Y-91505500D01*
X159755000Y-91505500D01*
X159622930Y-91732324D01*
X157897800Y-91732324D01*
X156843586Y-90678111D01*
X156816714Y-90645367D01*
X156686066Y-90538148D01*
X156537012Y-90458476D01*
X156375278Y-90409415D01*
X156249227Y-90397000D01*
X156249224Y-90397000D01*
X156207081Y-90392849D01*
X156164938Y-90397000D01*
X154901970Y-90397000D01*
X154869484Y-90348381D01*
X154793506Y-90255802D01*
X154724198Y-90186494D01*
X154665108Y-90138000D01*
X160592700Y-90138000D01*
X160448397Y-90187984D01*
M02*
