M48
INCH,TZ
T1C0.0157
T2C0.0315
T3C0.0394
T4C0.0433
T5C0.0472
T6C0.0630
T7C0.1063
%
G90
G05
T1
X57057Y-36911
X57057Y-37305
X57057Y-37699
X57057Y-38191
X57057Y-38683
X57549Y-36911
X57549Y-37305
X57549Y-37699
X57549Y-38191
X57549Y-38683
X57549Y-39077
X57549Y-39470
X57549Y-39963
X58041Y-36911
X58041Y-37305
X58041Y-37699
X58041Y-38191
X58041Y-38683
X66604Y-39470
T2
X52400Y-39010
X53400Y-39010
X54400Y-39010
X54400Y-41010
X55400Y-39010
T3
X48262Y-37978
X48262Y-38978
X48262Y-39978
X63407Y-36026
X64407Y-36026
X65407Y-36026
X66407Y-36026
T4
X44947Y-35978
X44947Y-41978
X45947Y-35978
X45947Y-41978
X46947Y-35978
X46947Y-41978
X47947Y-35978
X47947Y-41978
X48947Y-35978
X48947Y-41978
X49947Y-35978
X49947Y-41978
X50947Y-35978
X50947Y-41978
X51947Y-35978
X51947Y-41978
X52947Y-35978
X52947Y-41978
X53947Y-35978
X53947Y-41978
X54947Y-35978
X54947Y-41978
X55947Y-35978
X55947Y-41978
X56947Y-35978
X56947Y-41978
X57947Y-35978
X57947Y-41978
T5
X47238Y-37978
X47238Y-39978
T6
X62077Y-38978
X63258Y-40829
X64439Y-38978
T7
X50659Y-37404
X60108Y-37404
X50659Y-40553
X60108Y-40553
T0
M30
