G04 #@! TF.GenerationSoftware,KiCad,Pcbnew,(5.1.5-0-10_14)*
G04 #@! TF.CreationDate,2019-12-20T13:26:01+08:00*
G04 #@! TF.ProjectId,tube-offset-2,74756265-2d6f-4666-9673-65742d322e6b,rev?*
G04 #@! TF.SameCoordinates,Original*
G04 #@! TF.FileFunction,Soldermask,Bot*
G04 #@! TF.FilePolarity,Negative*
%FSLAX46Y46*%
G04 Gerber Fmt 4.6, Leading zero omitted, Abs format (unit mm)*
G04 Created by KiCad (PCBNEW (5.1.5-0-10_14)) date 2019-12-20 13:26:01*
%MOMM*%
%LPD*%
G04 APERTURE LIST*
%ADD10C,0.100000*%
G04 APERTURE END LIST*
D10*
G36*
X175113512Y-107848927D02*
G01*
X175262812Y-107878624D01*
X175426784Y-107946544D01*
X175574354Y-108045147D01*
X175699853Y-108170646D01*
X175798456Y-108318216D01*
X175866376Y-108482188D01*
X175901000Y-108656259D01*
X175901000Y-108833741D01*
X175866376Y-109007812D01*
X175798456Y-109171784D01*
X175699853Y-109319354D01*
X175574354Y-109444853D01*
X175426784Y-109543456D01*
X175262812Y-109611376D01*
X175113512Y-109641073D01*
X175088742Y-109646000D01*
X174911258Y-109646000D01*
X174886488Y-109641073D01*
X174737188Y-109611376D01*
X174573216Y-109543456D01*
X174425646Y-109444853D01*
X174300147Y-109319354D01*
X174201544Y-109171784D01*
X174133624Y-109007812D01*
X174099000Y-108833741D01*
X174099000Y-108656259D01*
X174133624Y-108482188D01*
X174201544Y-108318216D01*
X174300147Y-108170646D01*
X174425646Y-108045147D01*
X174573216Y-107946544D01*
X174737188Y-107878624D01*
X174886488Y-107848927D01*
X174911258Y-107844000D01*
X175088742Y-107844000D01*
X175113512Y-107848927D01*
G37*
G36*
X125113512Y-107848927D02*
G01*
X125262812Y-107878624D01*
X125426784Y-107946544D01*
X125574354Y-108045147D01*
X125699853Y-108170646D01*
X125798456Y-108318216D01*
X125866376Y-108482188D01*
X125901000Y-108656259D01*
X125901000Y-108833741D01*
X125866376Y-109007812D01*
X125798456Y-109171784D01*
X125699853Y-109319354D01*
X125574354Y-109444853D01*
X125426784Y-109543456D01*
X125262812Y-109611376D01*
X125113512Y-109641073D01*
X125088742Y-109646000D01*
X124911258Y-109646000D01*
X124886488Y-109641073D01*
X124737188Y-109611376D01*
X124573216Y-109543456D01*
X124425646Y-109444853D01*
X124300147Y-109319354D01*
X124201544Y-109171784D01*
X124133624Y-109007812D01*
X124099000Y-108833741D01*
X124099000Y-108656259D01*
X124133624Y-108482188D01*
X124201544Y-108318216D01*
X124300147Y-108170646D01*
X124425646Y-108045147D01*
X124573216Y-107946544D01*
X124737188Y-107878624D01*
X124886488Y-107848927D01*
X124911258Y-107844000D01*
X125088742Y-107844000D01*
X125113512Y-107848927D01*
G37*
G36*
X175113512Y-105308927D02*
G01*
X175262812Y-105338624D01*
X175426784Y-105406544D01*
X175574354Y-105505147D01*
X175699853Y-105630646D01*
X175798456Y-105778216D01*
X175866376Y-105942188D01*
X175901000Y-106116259D01*
X175901000Y-106293741D01*
X175866376Y-106467812D01*
X175798456Y-106631784D01*
X175699853Y-106779354D01*
X175574354Y-106904853D01*
X175426784Y-107003456D01*
X175262812Y-107071376D01*
X175113512Y-107101073D01*
X175088742Y-107106000D01*
X174911258Y-107106000D01*
X174886488Y-107101073D01*
X174737188Y-107071376D01*
X174573216Y-107003456D01*
X174425646Y-106904853D01*
X174300147Y-106779354D01*
X174201544Y-106631784D01*
X174133624Y-106467812D01*
X174099000Y-106293741D01*
X174099000Y-106116259D01*
X174133624Y-105942188D01*
X174201544Y-105778216D01*
X174300147Y-105630646D01*
X174425646Y-105505147D01*
X174573216Y-105406544D01*
X174737188Y-105338624D01*
X174886488Y-105308927D01*
X174911258Y-105304000D01*
X175088742Y-105304000D01*
X175113512Y-105308927D01*
G37*
G36*
X125113512Y-105308927D02*
G01*
X125262812Y-105338624D01*
X125426784Y-105406544D01*
X125574354Y-105505147D01*
X125699853Y-105630646D01*
X125798456Y-105778216D01*
X125866376Y-105942188D01*
X125901000Y-106116259D01*
X125901000Y-106293741D01*
X125866376Y-106467812D01*
X125798456Y-106631784D01*
X125699853Y-106779354D01*
X125574354Y-106904853D01*
X125426784Y-107003456D01*
X125262812Y-107071376D01*
X125113512Y-107101073D01*
X125088742Y-107106000D01*
X124911258Y-107106000D01*
X124886488Y-107101073D01*
X124737188Y-107071376D01*
X124573216Y-107003456D01*
X124425646Y-106904853D01*
X124300147Y-106779354D01*
X124201544Y-106631784D01*
X124133624Y-106467812D01*
X124099000Y-106293741D01*
X124099000Y-106116259D01*
X124133624Y-105942188D01*
X124201544Y-105778216D01*
X124300147Y-105630646D01*
X124425646Y-105505147D01*
X124573216Y-105406544D01*
X124737188Y-105338624D01*
X124886488Y-105308927D01*
X124911258Y-105304000D01*
X125088742Y-105304000D01*
X125113512Y-105308927D01*
G37*
G36*
X175113512Y-102768927D02*
G01*
X175262812Y-102798624D01*
X175426784Y-102866544D01*
X175574354Y-102965147D01*
X175699853Y-103090646D01*
X175798456Y-103238216D01*
X175866376Y-103402188D01*
X175901000Y-103576259D01*
X175901000Y-103753741D01*
X175866376Y-103927812D01*
X175798456Y-104091784D01*
X175699853Y-104239354D01*
X175574354Y-104364853D01*
X175426784Y-104463456D01*
X175262812Y-104531376D01*
X175113512Y-104561073D01*
X175088742Y-104566000D01*
X174911258Y-104566000D01*
X174886488Y-104561073D01*
X174737188Y-104531376D01*
X174573216Y-104463456D01*
X174425646Y-104364853D01*
X174300147Y-104239354D01*
X174201544Y-104091784D01*
X174133624Y-103927812D01*
X174099000Y-103753741D01*
X174099000Y-103576259D01*
X174133624Y-103402188D01*
X174201544Y-103238216D01*
X174300147Y-103090646D01*
X174425646Y-102965147D01*
X174573216Y-102866544D01*
X174737188Y-102798624D01*
X174886488Y-102768927D01*
X174911258Y-102764000D01*
X175088742Y-102764000D01*
X175113512Y-102768927D01*
G37*
G36*
X125113512Y-102768927D02*
G01*
X125262812Y-102798624D01*
X125426784Y-102866544D01*
X125574354Y-102965147D01*
X125699853Y-103090646D01*
X125798456Y-103238216D01*
X125866376Y-103402188D01*
X125901000Y-103576259D01*
X125901000Y-103753741D01*
X125866376Y-103927812D01*
X125798456Y-104091784D01*
X125699853Y-104239354D01*
X125574354Y-104364853D01*
X125426784Y-104463456D01*
X125262812Y-104531376D01*
X125113512Y-104561073D01*
X125088742Y-104566000D01*
X124911258Y-104566000D01*
X124886488Y-104561073D01*
X124737188Y-104531376D01*
X124573216Y-104463456D01*
X124425646Y-104364853D01*
X124300147Y-104239354D01*
X124201544Y-104091784D01*
X124133624Y-103927812D01*
X124099000Y-103753741D01*
X124099000Y-103576259D01*
X124133624Y-103402188D01*
X124201544Y-103238216D01*
X124300147Y-103090646D01*
X124425646Y-102965147D01*
X124573216Y-102866544D01*
X124737188Y-102798624D01*
X124886488Y-102768927D01*
X124911258Y-102764000D01*
X125088742Y-102764000D01*
X125113512Y-102768927D01*
G37*
G36*
X175901000Y-102026000D02*
G01*
X174099000Y-102026000D01*
X174099000Y-100224000D01*
X175901000Y-100224000D01*
X175901000Y-102026000D01*
G37*
G36*
X125901000Y-102026000D02*
G01*
X124099000Y-102026000D01*
X124099000Y-100224000D01*
X125901000Y-100224000D01*
X125901000Y-102026000D01*
G37*
M02*
