G04 #@! TF.GenerationSoftware,KiCad,Pcbnew,(5.1.5-0-10_14)*
G04 #@! TF.CreationDate,2019-12-20T13:26:01+08:00*
G04 #@! TF.ProjectId,tube-offset-2,74756265-2d6f-4666-9673-65742d322e6b,rev?*
G04 #@! TF.SameCoordinates,Original*
G04 #@! TF.FileFunction,Profile,NP*
%FSLAX46Y46*%
G04 Gerber Fmt 4.6, Leading zero omitted, Abs format (unit mm)*
G04 Created by KiCad (PCBNEW (5.1.5-0-10_14)) date 2019-12-20 13:26:01*
%MOMM*%
%LPD*%
G04 APERTURE LIST*
%ADD10C,0.050000*%
G04 APERTURE END LIST*
D10*
X143500000Y-105000000D02*
G75*
G03X143500000Y-105000000I-6000000J0D01*
G01*
X155250001Y-109999999D02*
X144749999Y-109999999D01*
X144749999Y-100000001D02*
X155250001Y-100000001D01*
X130250001Y-100000001D02*
X119749999Y-100000001D01*
X119749999Y-109999999D02*
X130250001Y-109999999D01*
X180250001Y-109999999D02*
X169749999Y-109999999D01*
X180250001Y-100000001D02*
X169749999Y-100000001D01*
X194749998Y-100000001D02*
G75*
G02X194749998Y-109999998I-7249998J-4999999D01*
G01*
X105250002Y-109999999D02*
G75*
G02X105250002Y-100000002I7249998J4999999D01*
G01*
X194749999Y-109999999D02*
G75*
G02X180250001Y-109999999I-7249999J4999999D01*
G01*
X180250001Y-100000001D02*
G75*
G02X194749999Y-100000001I7249999J-4999999D01*
G01*
X169749999Y-109999999D02*
G75*
G02X155250001Y-109999999I-7249999J4999999D01*
G01*
X155250001Y-100000001D02*
G75*
G02X169749999Y-100000001I7249999J-4999999D01*
G01*
X130250001Y-100000001D02*
G75*
G02X144749999Y-100000001I7249999J-4999999D01*
G01*
X144749999Y-109999999D02*
G75*
G02X130250001Y-109999999I-7249999J4999999D01*
G01*
X119749999Y-109999999D02*
G75*
G02X105250001Y-109999999I-7249999J4999999D01*
G01*
X105250001Y-100000001D02*
G75*
G02X119749999Y-100000001I7249999J-4999999D01*
G01*
X193500000Y-105000000D02*
G75*
G03X193500000Y-105000000I-6000000J0D01*
G01*
X168500000Y-105000000D02*
G75*
G03X168500000Y-105000000I-6000000J0D01*
G01*
X118500000Y-105000000D02*
G75*
G03X118500000Y-105000000I-6000000J0D01*
G01*
M02*
