<?xml version="1.0"?>
<!DOCTYPE svg PUBLIC "-//W3C//DTD SVG 1.1//EN" "http://www.w3.org/Graphics/SVG/1.1/DTD/svg11.dtd">
<svg width="51.204mm" height="53.204mm" viewBox="0 0 51.204 53.204" xmlns="http://www.w3.org/2000/svg" version="1.1">
<g id="side_outline" transform="translate(5.602000,5.602000) scale(1,-1)">
<path id="side_outline_w0000"  d="M 0.0 0.0 L 4.75 0.0 L 4.75 -5.0 L 6.0 -5.0 L 6.0 0.0 L 6.0 3.0 L 5.8 3.1 L 5.8 4.1 L 7.0 5.1 L 8.0 5.1 L 8.0 2.9999999999999996 L 8.0 -4.440892098500626e-16 L 8.0 -5.0 L 9.0 -5.0 L 10.0 -5.0 L 10.0 0.0 L 10.0 3.0 L 10.0 5.1 L 11.0 5.1 L 12.2 4.1 L 12.2 3.0999999999999996 L 12.0 2.9999999999999996 L 12.0 -4.440892098500626e-16 L 12.0 -5.0 L 13.25 -5.0 L 13.25 0.0 L 26.75 0.0 L 26.75 -5.0 L 28.0 -5.0 L 28.0 0.0 L 28.0 3.0 L 27.8 3.1 L 27.8 4.1 L 29.0 5.1 L 30.0 5.1 L 30.0 2.9999999999999996 L 30.0 -4.440892098500626e-16 L 30.0 -5.0 L 31.0 -5.0 L 32.0 -5.0 L 32.0 0.0 L 32.0 3.0 L 32.0 5.1 L 33.0 5.1 L 34.2 4.1 L 34.2 3.0999999999999996 L 34.0 2.9999999999999996 L 34.0 -4.440892098500626e-16 L 34.0 -5.0 L 35.25 -5.0 L 35.25 0.0 L 40.0 0.0 L 40.0 -9.75 L 35.0 -9.75 L 35.0 -11.0 L 40.0 -11.0 L 43.0 -11.0 L 43.1 -10.8 L 44.1 -10.8 L 45.1 -12.0 L 45.1 -13.0 L 43.0 -13.0 L 40.0 -13.0 L 35.0 -13.0 L 35.0 -14.0 L 35.0 -15.0 L 40.0 -15.0 L 43.0 -15.0 L 45.1 -15.0 L 45.1 -16.0 L 44.1 -17.2 L 43.1 -17.2 L 43.0 -17.0 L 40.0 -17.0 L 35.0 -17.0 L 35.0 -18.25 L 40.0 -18.25 L 40.0 -23.75 L 35.0 -23.75 L 35.0 -25.0 L 40.0 -25.0 L 43.0 -25.0 L 43.1 -24.8 L 44.1 -24.8 L 45.1 -26.0 L 45.1 -27.0 L 43.0 -27.0 L 40.0 -27.0 L 35.0 -27.0 L 35.0 -28.0 L 35.0 -29.0 L 40.0 -29.0 L 43.0 -29.0 L 45.1 -29.0 L 45.1 -30.0 L 44.1 -31.2 L 43.1 -31.2 L 43.0 -31.0 L 40.0 -31.0 L 35.0 -31.0 L 35.0 -32.25 L 40.0 -32.25 L 40.0 -42.0 L 35.25 -42.0 L 35.25 -37.0 L 34.0 -37.0 L 34.0 -42.0 L 34.0 -45.0 L 34.2 -45.1 L 34.2 -46.1 L 33.0 -47.1 L 32.0 -47.1 L 32.0 -45.0 L 32.0 -42.0 L 32.0 -37.0 L 31.0 -37.0 L 30.0 -37.0 L 30.0 -42.0 L 30.0 -45.0 L 30.0 -47.1 L 29.0 -47.1 L 27.8 -46.1 L 27.8 -45.1 L 28.0 -45.0 L 28.0 -42.0 L 28.0 -37.0 L 26.75 -37.0 L 26.75 -42.0 L 13.25 -42.0 L 13.25 -37.0 L 12.0 -37.0 L 12.0 -42.0 L 12.0 -45.0 L 12.2 -45.1 L 12.2 -46.1 L 11.0 -47.1 L 10.0 -47.1 L 10.0 -45.0 L 10.0 -42.0 L 10.0 -37.0 L 9.0 -37.0 L 8.0 -37.0 L 8.0 -42.0 L 8.0 -45.0 L 8.0 -47.1 L 7.0 -47.1 L 5.8 -46.1 L 5.8 -45.1 L 6.0 -45.0 L 6.0 -42.0 L 6.0 -37.0 L 4.75 -37.0 L 4.75 -42.0 L 0.0 -42.0 L 0.0 -32.25 L 5.0 -32.25 L 5.0 -31.0 L 0.0 -31.0 L -3.0 -31.0 L -3.1 -31.2 L -4.1 -31.2 L -5.1 -30.0 L -5.1 -29.0 L -2.9999999999999996 -29.0 L 4.440892098500626e-16 -29.0 L 5.0 -29.0 L 5.0 -28.0 L 5.0 -27.0 L 0.0 -27.0 L -3.0 -27.0 L -5.1 -27.0 L -5.1 -26.0 L -4.1 -24.8 L -3.0999999999999996 -24.8 L -2.9999999999999996 -25.0 L 4.440892098500626e-16 -25.0 L 5.0 -25.0 L 5.0 -23.75 L 0.0 -23.75 L 0.0 -18.25 L 5.0 -18.25 L 5.0 -17.0 L 0.0 -17.0 L -3.0 -17.0 L -3.1 -17.2 L -4.1 -17.2 L -5.1 -16.0 L -5.1 -15.0 L -2.9999999999999996 -15.0 L 4.440892098500626e-16 -15.0 L 5.0 -15.0 L 5.0 -14.0 L 5.0 -13.0 L 0.0 -13.0 L -3.0 -13.0 L -5.1 -13.0 L -5.1 -12.0 L -4.1 -10.8 L -3.0999999999999996 -10.8 L -2.9999999999999996 -11.0 L 4.440892098500626e-16 -11.0 L 5.0 -11.0 L 5.0 -9.75 L 0.0 -9.75 L 0.0 0.0 " stroke="#191919" stroke-width="0.35 px" style="stroke-width:0.35;stroke-miterlimit:4;stroke-dasharray:none;fill:none;fill-rule: evenodd "/>
<title>b'side_outline'</title>
</g>
</svg>