<?xml version="1.0"?>
<!DOCTYPE svg PUBLIC "-//W3C//DTD SVG 1.1//EN" "http://www.w3.org/Graphics/SVG/1.1/DTD/svg11.dtd">
<svg width="463.46759999999983mm" height="55.087599999999995mm" viewBox="0 0 463.46759999999983 55.087599999999995" xmlns="http://www.w3.org/2000/svg" version="1.1">
<g id="base_outline" transform="translate(4.533800,7.543800) scale(1,-1)">
<path id="base_outline_w0000"  d="M 14.209999999999999 3.0 L 28.39 3.0 L 28.39 0.0 L 28.41 0.0 L 42.61 0.0 L 42.61 3.0 L 56.790000000000006 3.0 L 56.790000000000006 0.0 L 56.81000000000001 0.0 L 71.01 0.0 L 71.01 3.0 L 85.19 3.0 L 85.19 0.0 L 85.21 0.0 L 99.41 0.0 L 99.41 3.0 L 113.58999999999999 3.0 L 113.58999999999999 0.0 L 113.60999999999999 0.0 L 127.80999999999999 0.0 L 127.80999999999999 3.0 L 141.98999999999998 3.0 L 141.98999999999998 0.0 L 142.01 0.0 L 156.20999999999998 0.0 L 156.20999999999998 3.0 L 170.39 3.0 L 170.39 0.0 L 170.41 0.0 L 184.60999999999999 0.0 L 184.60999999999999 3.0 L 198.79 3.0 L 198.79 0.0 L 198.81 0.0 L 213.01 0.0 L 213.01 3.0 L 227.19 3.0 L 227.19 0.0 L 227.21 0.0 L 241.41 0.0 L 241.41 3.0 L 255.59 3.0 L 255.59 0.0 L 255.61 0.0 L 269.81 0.0 L 269.81 3.0 L 283.99 3.0 L 283.99 0.0 L 284.01 0.0 L 298.21 0.0 L 298.21 3.0 L 312.39 3.0 L 312.39 0.0 L 312.40999999999997 0.0 L 326.60999999999996 0.0 L 326.60999999999996 3.0 L 340.78999999999996 3.0 L 340.78999999999996 0.0 L 340.80999999999995 0.0 L 355.00999999999993 0.0 L 355.00999999999993 3.0 L 369.18999999999994 3.0 L 369.18999999999994 0.0 L 369.2099999999999 0.0 L 383.4099999999999 0.0 L 383.4099999999999 3.0 L 397.5899999999999 3.0 L 397.5899999999999 0.0 L 397.6099999999999 0.0 L 411.8099999999999 0.0 L 411.8099999999999 3.0 L 425.9899999999999 3.0 L 425.9899999999999 0.0 L 426.0099999999999 0.0 L 440.20999999999987 0.0 L 440.20999999999987 3.0 L 454.3899999999999 3.0 L 454.3899999999999 0.0 L 454.3899999999999 -40.0 L 440.1899999999999 -40.0 L 440.1899999999999 -43.0 L 426.0099999999999 -43.0 L 426.0099999999999 -40.0 L 425.9899999999999 -40.0 L 411.7899999999999 -40.0 L 411.7899999999999 -43.0 L 397.6099999999999 -43.0 L 397.6099999999999 -40.0 L 397.5899999999999 -40.0 L 383.38999999999993 -40.0 L 383.38999999999993 -43.0 L 369.2099999999999 -43.0 L 369.2099999999999 -40.0 L 369.18999999999994 -40.0 L 354.98999999999995 -40.0 L 354.98999999999995 -43.0 L 340.80999999999995 -43.0 L 340.80999999999995 -40.0 L 340.78999999999996 -40.0 L 326.59 -40.0 L 326.59 -43.0 L 312.40999999999997 -43.0 L 312.40999999999997 -40.0 L 312.39 -40.0 L 298.19 -40.0 L 298.19 -43.0 L 284.01 -43.0 L 284.01 -40.0 L 283.99 -40.0 L 269.79 -40.0 L 269.79 -43.0 L 255.61000000000004 -43.0 L 255.61000000000004 -40.0 L 255.59000000000003 -40.0 L 241.39000000000004 -40.0 L 241.39000000000004 -43.0 L 227.21000000000004 -43.0 L 227.21000000000004 -40.0 L 227.19000000000003 -40.0 L 212.99000000000004 -40.0 L 212.99000000000004 -43.0 L 198.81000000000003 -43.0 L 198.81000000000003 -40.0 L 198.79000000000002 -40.0 L 184.59000000000003 -40.0 L 184.59000000000003 -43.0 L 170.41000000000003 -43.0 L 170.41000000000003 -40.0 L 170.39000000000001 -40.0 L 156.19000000000003 -40.0 L 156.19000000000003 -43.0 L 142.01000000000002 -43.0 L 142.01000000000002 -40.0 L 141.99 -40.0 L 127.79 -40.0 L 127.79 -43.0 L 113.61000000000001 -43.0 L 113.61000000000001 -40.0 L 113.59000000000002 -40.0 L 99.39000000000001 -40.0 L 99.39000000000001 -43.0 L 85.21000000000002 -43.0 L 85.21000000000002 -40.0 L 85.19000000000003 -40.0 L 70.99000000000002 -40.0 L 70.99000000000002 -43.0 L 56.81000000000003 -43.0 L 56.81000000000003 -40.0 L 56.79000000000003 -40.0 L 42.59000000000003 -40.0 L 42.59000000000003 -43.0 L 28.41000000000003 -43.0 L 28.41000000000003 -40.0 L 28.39000000000003 -40.0 L 14.19000000000003 -40.0 L 14.19000000000003 -43.0 L 0.010000000000029985 -43.0 L 0.010000000000029985 -40.0 L 0.01 0.0 L 14.209999999999999 0.0 L 14.209999999999999 3.0 " stroke="#191919" stroke-width="0.35 px" style="stroke-width:0.35;stroke-miterlimit:4;stroke-dasharray:none;fill:none;fill-rule: evenodd "/>
<circle cx="18.2" cy="-5.0" r="1.35" stroke="#191919" stroke-width="0.35 px" style="stroke-width:0.35;stroke-miterlimit:4;stroke-dasharray:none;fill:none"/>
<circle cx="18.2" cy="-35.0" r="1.35" stroke="#191919" stroke-width="0.35 px" style="stroke-width:0.35;stroke-miterlimit:4;stroke-dasharray:none;fill:none"/>
<circle cx="436.2" cy="-5.0" r="1.35" stroke="#191919" stroke-width="0.35 px" style="stroke-width:0.35;stroke-miterlimit:4;stroke-dasharray:none;fill:none"/>
<circle cx="436.2" cy="-35.0" r="1.35" stroke="#191919" stroke-width="0.35 px" style="stroke-width:0.35;stroke-miterlimit:4;stroke-dasharray:none;fill:none"/>
<path id="base_outline_w0005"  d="M 4.999999999999999 -34.0 L 4.999999999999999 -28.0 L 8.2 -28.0 L 8.2 -34.0 L 4.999999999999999 -34.0 " stroke="#191919" stroke-width="0.35 px" style="stroke-width:0.35;stroke-miterlimit:4;stroke-dasharray:none;fill:none;fill-rule: evenodd "/>
<path id="base_outline_w0006"  d="M 4.999999999999999 -6.0 L 4.999999999999999 -12.0 L 8.2 -12.0 L 8.2 -6.0 L 4.999999999999999 -6.0 " stroke="#191919" stroke-width="0.35 px" style="stroke-width:0.35;stroke-miterlimit:4;stroke-dasharray:none;fill:none;fill-rule: evenodd "/>
<path id="base_outline_w0007"  d="M 449.4 -34.0 L 449.4 -28.0 L 446.2 -28.0 L 446.2 -34.0 L 449.4 -34.0 " stroke="#191919" stroke-width="0.35 px" style="stroke-width:0.35;stroke-miterlimit:4;stroke-dasharray:none;fill:none;fill-rule: evenodd "/>
<path id="base_outline_w0008"  d="M 449.4 -6.0 L 449.4 -12.0 L 446.2 -12.0 L 446.2 -6.0 L 449.4 -6.0 " stroke="#191919" stroke-width="0.35 px" style="stroke-width:0.35;stroke-miterlimit:4;stroke-dasharray:none;fill:none;fill-rule: evenodd "/>
<circle cx="65.2" cy="-15.0" r="1.35" stroke="#191919" stroke-width="0.35 px" style="stroke-width:0.35;stroke-miterlimit:4;stroke-dasharray:none;fill:none"/>
<circle cx="65.2" cy="-23.0" r="1.35" stroke="#191919" stroke-width="0.35 px" style="stroke-width:0.35;stroke-miterlimit:4;stroke-dasharray:none;fill:none"/>
<circle cx="89.2" cy="-15.0" r="1.35" stroke="#191919" stroke-width="0.35 px" style="stroke-width:0.35;stroke-miterlimit:4;stroke-dasharray:none;fill:none"/>
<circle cx="89.2" cy="-23.0" r="1.35" stroke="#191919" stroke-width="0.35 px" style="stroke-width:0.35;stroke-miterlimit:4;stroke-dasharray:none;fill:none"/>
<circle cx="77.2" cy="-19.0" r="1.35" stroke="#191919" stroke-width="0.35 px" style="stroke-width:0.35;stroke-miterlimit:4;stroke-dasharray:none;fill:none"/>
<circle cx="165.2" cy="-15.0" r="1.35" stroke="#191919" stroke-width="0.35 px" style="stroke-width:0.35;stroke-miterlimit:4;stroke-dasharray:none;fill:none"/>
<circle cx="165.2" cy="-23.0" r="1.35" stroke="#191919" stroke-width="0.35 px" style="stroke-width:0.35;stroke-miterlimit:4;stroke-dasharray:none;fill:none"/>
<circle cx="189.2" cy="-15.0" r="1.35" stroke="#191919" stroke-width="0.35 px" style="stroke-width:0.35;stroke-miterlimit:4;stroke-dasharray:none;fill:none"/>
<circle cx="189.2" cy="-23.0" r="1.35" stroke="#191919" stroke-width="0.35 px" style="stroke-width:0.35;stroke-miterlimit:4;stroke-dasharray:none;fill:none"/>
<circle cx="177.2" cy="-19.0" r="1.35" stroke="#191919" stroke-width="0.35 px" style="stroke-width:0.35;stroke-miterlimit:4;stroke-dasharray:none;fill:none"/>
<circle cx="265.2" cy="-15.0" r="1.35" stroke="#191919" stroke-width="0.35 px" style="stroke-width:0.35;stroke-miterlimit:4;stroke-dasharray:none;fill:none"/>
<circle cx="265.2" cy="-23.0" r="1.35" stroke="#191919" stroke-width="0.35 px" style="stroke-width:0.35;stroke-miterlimit:4;stroke-dasharray:none;fill:none"/>
<circle cx="289.2" cy="-15.0" r="1.35" stroke="#191919" stroke-width="0.35 px" style="stroke-width:0.35;stroke-miterlimit:4;stroke-dasharray:none;fill:none"/>
<circle cx="289.2" cy="-23.0" r="1.35" stroke="#191919" stroke-width="0.35 px" style="stroke-width:0.35;stroke-miterlimit:4;stroke-dasharray:none;fill:none"/>
<circle cx="277.2" cy="-19.0" r="1.35" stroke="#191919" stroke-width="0.35 px" style="stroke-width:0.35;stroke-miterlimit:4;stroke-dasharray:none;fill:none"/>
<circle cx="365.2" cy="-15.0" r="1.35" stroke="#191919" stroke-width="0.35 px" style="stroke-width:0.35;stroke-miterlimit:4;stroke-dasharray:none;fill:none"/>
<circle cx="365.2" cy="-23.0" r="1.35" stroke="#191919" stroke-width="0.35 px" style="stroke-width:0.35;stroke-miterlimit:4;stroke-dasharray:none;fill:none"/>
<circle cx="389.2" cy="-15.0" r="1.35" stroke="#191919" stroke-width="0.35 px" style="stroke-width:0.35;stroke-miterlimit:4;stroke-dasharray:none;fill:none"/>
<circle cx="389.2" cy="-23.0" r="1.35" stroke="#191919" stroke-width="0.35 px" style="stroke-width:0.35;stroke-miterlimit:4;stroke-dasharray:none;fill:none"/>
<circle cx="377.2" cy="-19.0" r="1.35" stroke="#191919" stroke-width="0.35 px" style="stroke-width:0.35;stroke-miterlimit:4;stroke-dasharray:none;fill:none"/>
<title>b'base_outline'</title>
</g>
</svg>