<?xml version="1.0"?>
<!DOCTYPE svg PUBLIC "-//W3C//DTD SVG 1.1//EN" "http://www.w3.org/Graphics/SVG/1.1/DTD/svg11.dtd">
<svg width="463.46759999999983mm" height="57.087599999999995mm" viewBox="0 0 463.46759999999983 57.087599999999995" xmlns="http://www.w3.org/2000/svg" version="1.1">
<g id="back_outline" transform="translate(4.533800,7.543800) scale(1,-1)">
<path id="back_outline_w0000"  d="M 14.209999999999999 3.0 L 28.39 3.0 L 28.39 0.0 L 28.41 0.0 L 42.61 0.0 L 42.61 3.0 L 56.790000000000006 3.0 L 56.790000000000006 0.0 L 56.81000000000001 0.0 L 71.01 0.0 L 71.01 3.0 L 85.19 3.0 L 85.19 0.0 L 85.21 0.0 L 99.41 0.0 L 99.41 3.0 L 113.58999999999999 3.0 L 113.58999999999999 0.0 L 113.60999999999999 0.0 L 127.80999999999999 0.0 L 127.80999999999999 3.0 L 141.98999999999998 3.0 L 141.98999999999998 0.0 L 142.01 0.0 L 156.20999999999998 0.0 L 156.20999999999998 3.0 L 170.39 3.0 L 170.39 0.0 L 170.41 0.0 L 184.60999999999999 0.0 L 184.60999999999999 3.0 L 198.79 3.0 L 198.79 0.0 L 198.81 0.0 L 213.01 0.0 L 213.01 3.0 L 227.19 3.0 L 227.19 0.0 L 227.21 0.0 L 241.41 0.0 L 241.41 3.0 L 255.59 3.0 L 255.59 0.0 L 255.61 0.0 L 269.81 0.0 L 269.81 3.0 L 283.99 3.0 L 283.99 0.0 L 284.01 0.0 L 298.21 0.0 L 298.21 3.0 L 312.39 3.0 L 312.39 0.0 L 312.40999999999997 0.0 L 326.60999999999996 0.0 L 326.60999999999996 3.0 L 340.78999999999996 3.0 L 340.78999999999996 0.0 L 340.80999999999995 0.0 L 355.00999999999993 0.0 L 355.00999999999993 3.0 L 369.18999999999994 3.0 L 369.18999999999994 0.0 L 369.2099999999999 0.0 L 383.4099999999999 0.0 L 383.4099999999999 3.0 L 397.5899999999999 3.0 L 397.5899999999999 0.0 L 397.6099999999999 0.0 L 411.8099999999999 0.0 L 411.8099999999999 3.0 L 425.9899999999999 3.0 L 425.9899999999999 0.0 L 426.0099999999999 0.0 L 440.20999999999987 0.0 L 440.20999999999987 3.0 L 454.3899999999999 3.0 L 454.3899999999999 0.0 L 454.3899999999999 -42.0 L 440.1899999999999 -42.0 L 440.1899999999999 -45.0 L 426.0099999999999 -45.0 L 426.0099999999999 -42.0 L 425.9899999999999 -42.0 L 411.7899999999999 -42.0 L 411.7899999999999 -45.0 L 397.6099999999999 -45.0 L 397.6099999999999 -42.0 L 397.5899999999999 -42.0 L 383.38999999999993 -42.0 L 383.38999999999993 -45.0 L 369.2099999999999 -45.0 L 369.2099999999999 -42.0 L 369.18999999999994 -42.0 L 354.98999999999995 -42.0 L 354.98999999999995 -45.0 L 340.80999999999995 -45.0 L 340.80999999999995 -42.0 L 340.78999999999996 -42.0 L 326.59 -42.0 L 326.59 -45.0 L 312.40999999999997 -45.0 L 312.40999999999997 -42.0 L 312.39 -42.0 L 298.19 -42.0 L 298.19 -45.0 L 284.01 -45.0 L 284.01 -42.0 L 283.99 -42.0 L 269.79 -42.0 L 269.79 -45.0 L 255.61000000000004 -45.0 L 255.61000000000004 -42.0 L 255.59000000000003 -42.0 L 241.39000000000004 -42.0 L 241.39000000000004 -45.0 L 227.21000000000004 -45.0 L 227.21000000000004 -42.0 L 227.19000000000003 -42.0 L 212.99000000000004 -42.0 L 212.99000000000004 -45.0 L 198.81000000000003 -45.0 L 198.81000000000003 -42.0 L 198.79000000000002 -42.0 L 184.59000000000003 -42.0 L 184.59000000000003 -45.0 L 170.41000000000003 -45.0 L 170.41000000000003 -42.0 L 170.39000000000001 -42.0 L 156.19000000000003 -42.0 L 156.19000000000003 -45.0 L 142.01000000000002 -45.0 L 142.01000000000002 -42.0 L 141.99 -42.0 L 127.79 -42.0 L 127.79 -45.0 L 113.61000000000001 -45.0 L 113.61000000000001 -42.0 L 113.59000000000002 -42.0 L 99.39000000000001 -42.0 L 99.39000000000001 -45.0 L 85.21000000000002 -45.0 L 85.21000000000002 -42.0 L 85.19000000000003 -42.0 L 70.99000000000002 -42.0 L 70.99000000000002 -45.0 L 56.81000000000003 -45.0 L 56.81000000000003 -42.0 L 56.79000000000003 -42.0 L 42.59000000000003 -42.0 L 42.59000000000003 -45.0 L 28.41000000000003 -45.0 L 28.41000000000003 -42.0 L 28.39000000000003 -42.0 L 14.19000000000003 -42.0 L 14.19000000000003 -45.0 L 0.010000000000029985 -45.0 L 0.010000000000029985 -42.0 L 0.01 0.0 L 14.209999999999999 0.0 L 14.209999999999999 3.0 " stroke="#191919" stroke-width="0.35 px" style="stroke-width:0.35;stroke-miterlimit:4;stroke-dasharray:none;fill:none;fill-rule: evenodd "/>
<circle cx="17.7" cy="-21.0" r="4.5" stroke="#191919" stroke-width="0.35 px" style="stroke-width:0.35;stroke-miterlimit:4;stroke-dasharray:none;fill:none"/>
<circle cx="436.7" cy="-21.0" r="4.5" stroke="#191919" stroke-width="0.35 px" style="stroke-width:0.35;stroke-miterlimit:4;stroke-dasharray:none;fill:none"/>
<path id="back_outline_w0003"  d="M 4.999999999999999 -31.0 L 4.999999999999999 -25.0 L 8.2 -25.0 L 8.2 -31.0 L 4.999999999999999 -31.0 " stroke="#191919" stroke-width="0.35 px" style="stroke-width:0.35;stroke-miterlimit:4;stroke-dasharray:none;fill:none;fill-rule: evenodd "/>
<path id="back_outline_w0004"  d="M 4.999999999999999 -11.0 L 4.999999999999999 -17.0 L 8.2 -17.0 L 8.2 -11.0 L 4.999999999999999 -11.0 " stroke="#191919" stroke-width="0.35 px" style="stroke-width:0.35;stroke-miterlimit:4;stroke-dasharray:none;fill:none;fill-rule: evenodd "/>
<path id="back_outline_w0005"  d="M 449.4 -31.0 L 449.4 -25.0 L 446.2 -25.0 L 446.2 -31.0 L 449.4 -31.0 " stroke="#191919" stroke-width="0.35 px" style="stroke-width:0.35;stroke-miterlimit:4;stroke-dasharray:none;fill:none;fill-rule: evenodd "/>
<path id="back_outline_w0006"  d="M 449.4 -11.0 L 449.4 -17.0 L 446.2 -17.0 L 446.2 -11.0 L 449.4 -11.0 " stroke="#191919" stroke-width="0.35 px" style="stroke-width:0.35;stroke-miterlimit:4;stroke-dasharray:none;fill:none;fill-rule: evenodd "/>
<title>b'back_outline'</title>
</g>
</svg>