<?xml version="1.0"?>
<!DOCTYPE svg PUBLIC "-//W3C//DTD SVG 1.1//EN" "http://www.w3.org/Graphics/SVG/1.1/DTD/svg11.dtd">
<svg width="54.264mm" height="56.264mm" viewBox="0 0 54.264 56.264" xmlns="http://www.w3.org/2000/svg" version="1.1">
<g id="side_outline" transform="translate(7.132000,7.132000) scale(1,-1)">
<path id="side_outline_w0000"  d="M 0.0 0.0 L 4.75 0.0 L 4.75 -5.0 L 6.0 -5.0 L 6.0 0.0 L 6.0 4.5 L 5.8 4.6 L 5.8 5.6 L 7.0 6.6 L 8.0 6.6 L 8.0 4.5 L 8.0 0.0 L 8.0 -5.0 L 9.0 -5.0 L 10.0 -5.0 L 10.0 0.0 L 10.0 4.5 L 10.0 6.6 L 11.0 6.6 L 12.2 5.6 L 12.2 4.6 L 12.0 4.5 L 12.0 0.0 L 12.0 -5.0 L 13.25 -5.0 L 13.25 0.0 L 26.75 0.0 L 26.75 -5.0 L 28.0 -5.0 L 28.0 0.0 L 28.0 4.5 L 27.8 4.6 L 27.8 5.6 L 29.0 6.6 L 30.0 6.6 L 30.0 4.5 L 30.0 0.0 L 30.0 -5.0 L 31.0 -5.0 L 32.0 -5.0 L 32.0 0.0 L 32.0 4.5 L 32.0 6.6 L 33.0 6.6 L 34.2 5.6 L 34.2 4.6 L 34.0 4.5 L 34.0 0.0 L 34.0 -5.0 L 35.25 -5.0 L 35.25 0.0 L 40.0 0.0 L 40.0 -9.75 L 35.0 -9.75 L 35.0 -11.0 L 40.0 -11.0 L 44.5 -11.0 L 44.6 -10.8 L 45.6 -10.8 L 46.6 -12.0 L 46.6 -13.0 L 44.5 -13.0 L 40.0 -13.0 L 35.0 -13.0 L 35.0 -14.0 L 35.0 -15.0 L 40.0 -15.0 L 44.5 -15.0 L 46.6 -15.0 L 46.6 -16.0 L 45.6 -17.2 L 44.6 -17.2 L 44.5 -17.0 L 40.0 -17.0 L 35.0 -17.0 L 35.0 -18.25 L 40.0 -18.25 L 40.0 -23.75 L 35.0 -23.75 L 35.0 -25.0 L 40.0 -25.0 L 44.5 -25.0 L 44.6 -24.8 L 45.6 -24.8 L 46.6 -26.0 L 46.6 -27.0 L 44.5 -27.0 L 40.0 -27.0 L 35.0 -27.0 L 35.0 -28.0 L 35.0 -29.0 L 40.0 -29.0 L 44.5 -29.0 L 46.6 -29.0 L 46.6 -30.0 L 45.6 -31.2 L 44.6 -31.2 L 44.5 -31.0 L 40.0 -31.0 L 35.0 -31.0 L 35.0 -32.25 L 40.0 -32.25 L 40.0 -42.0 L 35.25 -42.0 L 35.25 -37.0 L 34.0 -37.0 L 34.0 -42.0 L 34.0 -46.5 L 34.2 -46.6 L 34.2 -47.6 L 33.0 -48.6 L 32.0 -48.6 L 32.0 -46.5 L 32.0 -42.0 L 32.0 -37.0 L 31.0 -37.0 L 30.0 -37.0 L 30.0 -42.0 L 30.0 -46.5 L 30.0 -48.6 L 29.0 -48.6 L 27.8 -47.6 L 27.8 -46.6 L 28.0 -46.5 L 28.0 -42.0 L 28.0 -37.0 L 26.75 -37.0 L 26.75 -42.0 L 13.25 -42.0 L 13.25 -37.0 L 12.0 -37.0 L 12.0 -42.0 L 12.0 -46.5 L 12.2 -46.6 L 12.2 -47.6 L 11.0 -48.6 L 10.0 -48.6 L 10.0 -46.5 L 10.0 -42.0 L 10.0 -37.0 L 9.0 -37.0 L 8.0 -37.0 L 8.0 -42.0 L 8.0 -46.5 L 8.0 -48.6 L 7.0 -48.6 L 5.8 -47.6 L 5.8 -46.6 L 6.0 -46.5 L 6.0 -42.0 L 6.0 -37.0 L 4.75 -37.0 L 4.75 -42.0 L 0.0 -42.0 L 0.0 -32.25 L 5.0 -32.25 L 5.0 -31.0 L 0.0 -31.0 L -4.5 -31.0 L -4.6 -31.2 L -5.6 -31.2 L -6.6 -30.0 L -6.6 -29.0 L -4.5 -29.0 L 0.0 -29.0 L 5.0 -29.0 L 5.0 -28.0 L 5.0 -27.0 L 0.0 -27.0 L -4.5 -27.0 L -6.6 -27.0 L -6.6 -26.0 L -5.6 -24.8 L -4.6 -24.8 L -4.5 -25.0 L 0.0 -25.0 L 5.0 -25.0 L 5.0 -23.75 L 0.0 -23.75 L 0.0 -18.25 L 5.0 -18.25 L 5.0 -17.0 L 0.0 -17.0 L -4.5 -17.0 L -4.6 -17.2 L -5.6 -17.2 L -6.6 -16.0 L -6.6 -15.0 L -4.5 -15.0 L 0.0 -15.0 L 5.0 -15.0 L 5.0 -14.0 L 5.0 -13.0 L 0.0 -13.0 L -4.5 -13.0 L -6.6 -13.0 L -6.6 -12.0 L -5.6 -10.8 L -4.6 -10.8 L -4.5 -11.0 L 0.0 -11.0 L 5.0 -11.0 L 5.0 -9.75 L 0.0 -9.75 L 0.0 0.0 " stroke="#191919" stroke-width="0.35 px" style="stroke-width:0.35;stroke-miterlimit:4;stroke-dasharray:none;fill:none;fill-rule: evenodd "/>
<title>b'side_outline'</title>
</g>
</svg>