<?xml version="1.0"?>
<!DOCTYPE svg PUBLIC "-//W3C//DTD SVG 1.1//EN" "http://www.w3.org/Graphics/SVG/1.1/DTD/svg11.dtd">
<svg width="466.5275999999999mm" height="58.1476mm" viewBox="0 0 466.5275999999999 58.1476" xmlns="http://www.w3.org/2000/svg" version="1.1">
<g id="top_outline" transform="translate(4.563800,9.073800) scale(1,-1)">
<path id="top_outline_w0000"  d="M 14.303749999999999 -44.5 L 28.5775 -44.5 L 28.5775 -40.0 L 28.5975 -40.0 L 42.89125 -40.0 L 42.89125 -44.5 L 57.165000000000006 -44.5 L 57.165000000000006 -40.0 L 57.18500000000001 -40.0 L 71.47875 -40.0 L 71.47875 -44.5 L 85.7525 -44.5 L 85.7525 -40.0 L 85.7725 -40.0 L 100.06625 -40.0 L 100.06625 -44.5 L 114.33999999999999 -44.5 L 114.33999999999999 -40.0 L 114.35999999999999 -40.0 L 128.65374999999997 -40.0 L 128.65374999999997 -44.5 L 142.92749999999998 -44.5 L 142.92749999999998 -40.0 L 142.9475 -40.0 L 157.24124999999998 -40.0 L 157.24124999999998 -44.5 L 171.515 -44.5 L 171.515 -40.0 L 171.535 -40.0 L 185.82874999999999 -40.0 L 185.82874999999999 -44.5 L 200.1025 -44.5 L 200.1025 -40.0 L 200.1225 -40.0 L 214.41625 -40.0 L 214.41625 -44.5 L 228.69 -44.5 L 228.69 -40.0 L 228.71 -40.0 L 243.00375 -40.0 L 243.00375 -44.5 L 257.27750000000003 -44.5 L 257.27750000000003 -40.0 L 257.2975 -40.0 L 271.59125 -40.0 L 271.59125 -44.5 L 285.865 -44.5 L 285.865 -40.0 L 285.885 -40.0 L 300.17875 -40.0 L 300.17875 -44.5 L 314.4525 -44.5 L 314.4525 -40.0 L 314.47249999999997 -40.0 L 328.76624999999996 -40.0 L 328.76624999999996 -44.5 L 343.03999999999996 -44.5 L 343.03999999999996 -40.0 L 343.05999999999995 -40.0 L 357.35374999999993 -40.0 L 357.35374999999993 -44.5 L 371.62749999999994 -44.5 L 371.62749999999994 -40.0 L 371.6474999999999 -40.0 L 385.9412499999999 -40.0 L 385.9412499999999 -44.5 L 400.2149999999999 -44.5 L 400.2149999999999 -40.0 L 400.2349999999999 -40.0 L 414.5287499999999 -40.0 L 414.5287499999999 -44.5 L 428.8024999999999 -44.5 L 428.8024999999999 -40.0 L 428.8224999999999 -40.0 L 443.11624999999987 -40.0 L 443.11624999999987 -44.5 L 457.3899999999999 -44.5 L 457.3899999999999 -40.0 L 457.3899999999999 0.0 L 443.0962499999999 0.0 L 443.0962499999999 4.5 L 428.8224999999999 4.5 L 428.8224999999999 0.0 L 428.8024999999999 0.0 L 414.5087499999999 0.0 L 414.5087499999999 4.5 L 400.2349999999999 4.5 L 400.2349999999999 0.0 L 400.2149999999999 0.0 L 385.92124999999993 0.0 L 385.92124999999993 4.5 L 371.6474999999999 4.5 L 371.6474999999999 0.0 L 371.62749999999994 0.0 L 357.33374999999995 0.0 L 357.33374999999995 4.5 L 343.05999999999995 4.5 L 343.05999999999995 0.0 L 343.03999999999996 0.0 L 328.74625 0.0 L 328.74625 4.5 L 314.47249999999997 4.5 L 314.47249999999997 0.0 L 314.4525 0.0 L 300.15875 0.0 L 300.15875 4.5 L 285.885 4.5 L 285.885 0.0 L 285.865 0.0 L 271.57125 0.0 L 271.57125 4.5 L 257.2975 4.5 L 257.2975 0.0 L 257.27750000000003 0.0 L 242.98375000000004 0.0 L 242.98375000000004 4.5 L 228.71000000000004 4.5 L 228.71000000000004 0.0 L 228.69000000000003 0.0 L 214.39625000000004 0.0 L 214.39625000000004 4.5 L 200.12250000000003 4.5 L 200.12250000000003 0.0 L 200.10250000000002 0.0 L 185.80875000000003 0.0 L 185.80875000000003 4.5 L 171.53500000000003 4.5 L 171.53500000000003 0.0 L 171.51500000000001 0.0 L 157.22125000000003 0.0 L 157.22125000000003 4.5 L 142.94750000000002 4.5 L 142.94750000000002 0.0 L 142.9275 0.0 L 128.63375000000002 0.0 L 128.63375000000002 4.5 L 114.36000000000001 4.5 L 114.36000000000001 0.0 L 114.34000000000002 0.0 L 100.04625000000001 0.0 L 100.04625000000001 4.5 L 85.77250000000002 4.5 L 85.77250000000002 0.0 L 85.75250000000003 0.0 L 71.45875000000002 0.0 L 71.45875000000002 4.5 L 57.18500000000003 4.5 L 57.18500000000003 0.0 L 57.16500000000003 0.0 L 42.87125000000003 0.0 L 42.87125000000003 4.5 L 28.59750000000003 4.5 L 28.59750000000003 0.0 L 28.57750000000003 0.0 L 14.28375000000003 0.0 L 14.28375000000003 4.5 L 0.010000000000029985 4.5 L 0.010000000000029985 0.0 L 0.01 -40.0 L 14.303749999999999 -40.0 L 14.303749999999999 -44.5 " stroke="#191919" stroke-width="0.35 px" style="stroke-width:0.35;stroke-miterlimit:4;stroke-dasharray:none;fill:none;fill-rule: evenodd "/>
<path id="top_outline_w0001"  d="M 4.999999999999999 -34.0 L 4.999999999999999 -28.0 L 9.7 -28.0 L 9.7 -34.0 L 4.999999999999999 -34.0 " stroke="#191919" stroke-width="0.35 px" style="stroke-width:0.35;stroke-miterlimit:4;stroke-dasharray:none;fill:none;fill-rule: evenodd "/>
<path id="top_outline_w0002"  d="M 4.999999999999999 -6.0 L 4.999999999999999 -12.0 L 9.7 -12.0 L 9.7 -6.0 L 4.999999999999999 -6.0 " stroke="#191919" stroke-width="0.35 px" style="stroke-width:0.35;stroke-miterlimit:4;stroke-dasharray:none;fill:none;fill-rule: evenodd "/>
<path id="top_outline_w0003"  d="M 452.4 -34.0 L 452.4 -28.0 L 447.7 -28.0 L 447.7 -34.0 L 452.4 -34.0 " stroke="#191919" stroke-width="0.35 px" style="stroke-width:0.35;stroke-miterlimit:4;stroke-dasharray:none;fill:none;fill-rule: evenodd "/>
<path id="top_outline_w0004"  d="M 452.4 -6.0 L 452.4 -12.0 L 447.7 -12.0 L 447.7 -6.0 L 452.4 -6.0 " stroke="#191919" stroke-width="0.35 px" style="stroke-width:0.35;stroke-miterlimit:4;stroke-dasharray:none;fill:none;fill-rule: evenodd "/>
<circle cx="41.2" cy="-23.825" r="5.025" stroke="#191919" stroke-width="0.35 px" style="stroke-width:0.35;stroke-miterlimit:4;stroke-dasharray:none;fill:none"/>
<circle cx="66.2" cy="-23.825" r="5.025" stroke="#191919" stroke-width="0.35 px" style="stroke-width:0.35;stroke-miterlimit:4;stroke-dasharray:none;fill:none"/>
<circle cx="91.2" cy="-23.825" r="5.025" stroke="#191919" stroke-width="0.35 px" style="stroke-width:0.35;stroke-miterlimit:4;stroke-dasharray:none;fill:none"/>
<circle cx="116.2" cy="-23.825" r="5.025" stroke="#191919" stroke-width="0.35 px" style="stroke-width:0.35;stroke-miterlimit:4;stroke-dasharray:none;fill:none"/>
<circle cx="141.2" cy="-23.825" r="5.025" stroke="#191919" stroke-width="0.35 px" style="stroke-width:0.35;stroke-miterlimit:4;stroke-dasharray:none;fill:none"/>
<circle cx="166.2" cy="-23.825" r="5.025" stroke="#191919" stroke-width="0.35 px" style="stroke-width:0.35;stroke-miterlimit:4;stroke-dasharray:none;fill:none"/>
<circle cx="191.2" cy="-23.825" r="5.025" stroke="#191919" stroke-width="0.35 px" style="stroke-width:0.35;stroke-miterlimit:4;stroke-dasharray:none;fill:none"/>
<circle cx="216.2" cy="-23.825" r="5.025" stroke="#191919" stroke-width="0.35 px" style="stroke-width:0.35;stroke-miterlimit:4;stroke-dasharray:none;fill:none"/>
<circle cx="241.2" cy="-23.825" r="5.025" stroke="#191919" stroke-width="0.35 px" style="stroke-width:0.35;stroke-miterlimit:4;stroke-dasharray:none;fill:none"/>
<circle cx="266.2" cy="-23.825" r="5.025" stroke="#191919" stroke-width="0.35 px" style="stroke-width:0.35;stroke-miterlimit:4;stroke-dasharray:none;fill:none"/>
<circle cx="291.2" cy="-23.825" r="5.025" stroke="#191919" stroke-width="0.35 px" style="stroke-width:0.35;stroke-miterlimit:4;stroke-dasharray:none;fill:none"/>
<circle cx="316.2" cy="-23.825" r="5.025" stroke="#191919" stroke-width="0.35 px" style="stroke-width:0.35;stroke-miterlimit:4;stroke-dasharray:none;fill:none"/>
<circle cx="341.2" cy="-23.825" r="5.025" stroke="#191919" stroke-width="0.35 px" style="stroke-width:0.35;stroke-miterlimit:4;stroke-dasharray:none;fill:none"/>
<circle cx="366.2" cy="-23.825" r="5.025" stroke="#191919" stroke-width="0.35 px" style="stroke-width:0.35;stroke-miterlimit:4;stroke-dasharray:none;fill:none"/>
<circle cx="391.2" cy="-23.825" r="5.025" stroke="#191919" stroke-width="0.35 px" style="stroke-width:0.35;stroke-miterlimit:4;stroke-dasharray:none;fill:none"/>
<circle cx="416.2" cy="-23.825" r="5.025" stroke="#191919" stroke-width="0.35 px" style="stroke-width:0.35;stroke-miterlimit:4;stroke-dasharray:none;fill:none"/>
<title>b'top_outline'</title>
</g>
</svg>