<?xml version="1.0"?>
<!DOCTYPE svg PUBLIC "-//W3C//DTD SVG 1.1//EN" "http://www.w3.org/Graphics/SVG/1.1/DTD/svg11.dtd">
<svg width="466.5275999999999mm" height="60.1476mm" viewBox="0 0 466.5275999999999 60.1476" xmlns="http://www.w3.org/2000/svg" version="1.1">
<g id="front_outline" transform="translate(4.563800,9.073800) scale(1,-1)">
<path id="front_outline_w0000"  d="M 14.303749999999999 4.5 L 28.5775 4.5 L 28.5775 0.0 L 28.5975 0.0 L 42.89125 0.0 L 42.89125 4.5 L 57.165000000000006 4.5 L 57.165000000000006 0.0 L 57.18500000000001 0.0 L 71.47875 0.0 L 71.47875 4.5 L 85.7525 4.5 L 85.7525 0.0 L 85.7725 0.0 L 100.06625 0.0 L 100.06625 4.5 L 114.33999999999999 4.5 L 114.33999999999999 0.0 L 114.35999999999999 0.0 L 128.65374999999997 0.0 L 128.65374999999997 4.5 L 142.92749999999998 4.5 L 142.92749999999998 0.0 L 142.9475 0.0 L 157.24124999999998 0.0 L 157.24124999999998 4.5 L 171.515 4.5 L 171.515 0.0 L 171.535 0.0 L 185.82874999999999 0.0 L 185.82874999999999 4.5 L 200.1025 4.5 L 200.1025 0.0 L 200.1225 0.0 L 214.41625 0.0 L 214.41625 4.5 L 228.69 4.5 L 228.69 0.0 L 228.71 0.0 L 243.00375 0.0 L 243.00375 4.5 L 257.27750000000003 4.5 L 257.27750000000003 0.0 L 257.2975 0.0 L 271.59125 0.0 L 271.59125 4.5 L 285.865 4.5 L 285.865 0.0 L 285.885 0.0 L 300.17875 0.0 L 300.17875 4.5 L 314.4525 4.5 L 314.4525 0.0 L 314.47249999999997 0.0 L 328.76624999999996 0.0 L 328.76624999999996 4.5 L 343.03999999999996 4.5 L 343.03999999999996 0.0 L 343.05999999999995 0.0 L 357.35374999999993 0.0 L 357.35374999999993 4.5 L 371.62749999999994 4.5 L 371.62749999999994 0.0 L 371.6474999999999 0.0 L 385.9412499999999 0.0 L 385.9412499999999 4.5 L 400.2149999999999 4.5 L 400.2149999999999 0.0 L 400.2349999999999 0.0 L 414.5287499999999 0.0 L 414.5287499999999 4.5 L 428.8024999999999 4.5 L 428.8024999999999 0.0 L 428.8224999999999 0.0 L 443.11624999999987 0.0 L 443.11624999999987 4.5 L 457.3899999999999 4.5 L 457.3899999999999 0.0 L 457.3899999999999 -42.0 L 443.0962499999999 -42.0 L 443.0962499999999 -46.5 L 428.8224999999999 -46.5 L 428.8224999999999 -42.0 L 428.8024999999999 -42.0 L 414.5087499999999 -42.0 L 414.5087499999999 -46.5 L 400.2349999999999 -46.5 L 400.2349999999999 -42.0 L 400.2149999999999 -42.0 L 385.92124999999993 -42.0 L 385.92124999999993 -46.5 L 371.6474999999999 -46.5 L 371.6474999999999 -42.0 L 371.62749999999994 -42.0 L 357.33374999999995 -42.0 L 357.33374999999995 -46.5 L 343.05999999999995 -46.5 L 343.05999999999995 -42.0 L 343.03999999999996 -42.0 L 328.74625 -42.0 L 328.74625 -46.5 L 314.47249999999997 -46.5 L 314.47249999999997 -42.0 L 314.4525 -42.0 L 300.15875 -42.0 L 300.15875 -46.5 L 285.885 -46.5 L 285.885 -42.0 L 285.865 -42.0 L 271.57125 -42.0 L 271.57125 -46.5 L 257.2975 -46.5 L 257.2975 -42.0 L 257.27750000000003 -42.0 L 242.98375000000004 -42.0 L 242.98375000000004 -46.5 L 228.71000000000004 -46.5 L 228.71000000000004 -42.0 L 228.69000000000003 -42.0 L 214.39625000000004 -42.0 L 214.39625000000004 -46.5 L 200.12250000000003 -46.5 L 200.12250000000003 -42.0 L 200.10250000000002 -42.0 L 185.80875000000003 -42.0 L 185.80875000000003 -46.5 L 171.53500000000003 -46.5 L 171.53500000000003 -42.0 L 171.51500000000001 -42.0 L 157.22125000000003 -42.0 L 157.22125000000003 -46.5 L 142.94750000000002 -46.5 L 142.94750000000002 -42.0 L 142.9275 -42.0 L 128.63375000000002 -42.0 L 128.63375000000002 -46.5 L 114.36000000000001 -46.5 L 114.36000000000001 -42.0 L 114.34000000000002 -42.0 L 100.04625000000001 -42.0 L 100.04625000000001 -46.5 L 85.77250000000002 -46.5 L 85.77250000000002 -42.0 L 85.75250000000003 -42.0 L 71.45875000000002 -42.0 L 71.45875000000002 -46.5 L 57.18500000000003 -46.5 L 57.18500000000003 -42.0 L 57.16500000000003 -42.0 L 42.87125000000003 -42.0 L 42.87125000000003 -46.5 L 28.59750000000003 -46.5 L 28.59750000000003 -42.0 L 28.57750000000003 -42.0 L 14.28375000000003 -42.0 L 14.28375000000003 -46.5 L 0.010000000000029985 -46.5 L 0.010000000000029985 -42.0 L 0.01 0.0 L 14.303749999999999 0.0 L 14.303749999999999 4.5 " stroke="#191919" stroke-width="0.35 px" style="stroke-width:0.35;stroke-miterlimit:4;stroke-dasharray:none;fill:none;fill-rule: evenodd "/>
<path id="front_outline_w0001"  d="M 4.999999999999999 -31.0 L 4.999999999999999 -25.0 L 9.7 -25.0 L 9.7 -31.0 L 4.999999999999999 -31.0 " stroke="#191919" stroke-width="0.35 px" style="stroke-width:0.35;stroke-miterlimit:4;stroke-dasharray:none;fill:none;fill-rule: evenodd "/>
<path id="front_outline_w0002"  d="M 4.999999999999999 -11.0 L 4.999999999999999 -17.0 L 9.7 -17.0 L 9.7 -11.0 L 4.999999999999999 -11.0 " stroke="#191919" stroke-width="0.35 px" style="stroke-width:0.35;stroke-miterlimit:4;stroke-dasharray:none;fill:none;fill-rule: evenodd "/>
<path id="front_outline_w0003"  d="M 452.4 -31.0 L 452.4 -25.0 L 447.7 -25.0 L 447.7 -31.0 L 452.4 -31.0 " stroke="#191919" stroke-width="0.35 px" style="stroke-width:0.35;stroke-miterlimit:4;stroke-dasharray:none;fill:none;fill-rule: evenodd "/>
<path id="front_outline_w0004"  d="M 452.4 -11.0 L 452.4 -17.0 L 447.7 -17.0 L 447.7 -11.0 L 452.4 -11.0 " stroke="#191919" stroke-width="0.35 px" style="stroke-width:0.35;stroke-miterlimit:4;stroke-dasharray:none;fill:none;fill-rule: evenodd "/>
<title>b'front_outline'</title>
</g>
</svg>