<?xml version="1.0"?>
<!DOCTYPE svg PUBLIC "-//W3C//DTD SVG 1.1//EN" "http://www.w3.org/Graphics/SVG/1.1/DTD/svg11.dtd">
<svg width="466.5275999999999mm" height="58.1476mm" viewBox="0 0 466.5275999999999 58.1476" xmlns="http://www.w3.org/2000/svg" version="1.1">
<g id="base_outline" transform="translate(4.563800,9.073800) scale(1,-1)">
<path id="base_outline_w0000"  d="M 14.303749999999999 4.5 L 28.5775 4.5 L 28.5775 0.0 L 28.5975 0.0 L 42.89125 0.0 L 42.89125 4.5 L 57.165000000000006 4.5 L 57.165000000000006 0.0 L 57.18500000000001 0.0 L 71.47875 0.0 L 71.47875 4.5 L 85.7525 4.5 L 85.7525 0.0 L 85.7725 0.0 L 100.06625 0.0 L 100.06625 4.5 L 114.33999999999999 4.5 L 114.33999999999999 0.0 L 114.35999999999999 0.0 L 128.65374999999997 0.0 L 128.65374999999997 4.5 L 142.92749999999998 4.5 L 142.92749999999998 0.0 L 142.9475 0.0 L 157.24124999999998 0.0 L 157.24124999999998 4.5 L 171.515 4.5 L 171.515 0.0 L 171.535 0.0 L 185.82874999999999 0.0 L 185.82874999999999 4.5 L 200.1025 4.5 L 200.1025 0.0 L 200.1225 0.0 L 214.41625 0.0 L 214.41625 4.5 L 228.69 4.5 L 228.69 0.0 L 228.71 0.0 L 243.00375 0.0 L 243.00375 4.5 L 257.27750000000003 4.5 L 257.27750000000003 0.0 L 257.2975 0.0 L 271.59125 0.0 L 271.59125 4.5 L 285.865 4.5 L 285.865 0.0 L 285.885 0.0 L 300.17875 0.0 L 300.17875 4.5 L 314.4525 4.5 L 314.4525 0.0 L 314.47249999999997 0.0 L 328.76624999999996 0.0 L 328.76624999999996 4.5 L 343.03999999999996 4.5 L 343.03999999999996 0.0 L 343.05999999999995 0.0 L 357.35374999999993 0.0 L 357.35374999999993 4.5 L 371.62749999999994 4.5 L 371.62749999999994 0.0 L 371.6474999999999 0.0 L 385.9412499999999 0.0 L 385.9412499999999 4.5 L 400.2149999999999 4.5 L 400.2149999999999 0.0 L 400.2349999999999 0.0 L 414.5287499999999 0.0 L 414.5287499999999 4.5 L 428.8024999999999 4.5 L 428.8024999999999 0.0 L 428.8224999999999 0.0 L 443.11624999999987 0.0 L 443.11624999999987 4.5 L 457.3899999999999 4.5 L 457.3899999999999 0.0 L 457.3899999999999 -40.0 L 443.0962499999999 -40.0 L 443.0962499999999 -44.5 L 428.8224999999999 -44.5 L 428.8224999999999 -40.0 L 428.8024999999999 -40.0 L 414.5087499999999 -40.0 L 414.5087499999999 -44.5 L 400.2349999999999 -44.5 L 400.2349999999999 -40.0 L 400.2149999999999 -40.0 L 385.92124999999993 -40.0 L 385.92124999999993 -44.5 L 371.6474999999999 -44.5 L 371.6474999999999 -40.0 L 371.62749999999994 -40.0 L 357.33374999999995 -40.0 L 357.33374999999995 -44.5 L 343.05999999999995 -44.5 L 343.05999999999995 -40.0 L 343.03999999999996 -40.0 L 328.74625 -40.0 L 328.74625 -44.5 L 314.47249999999997 -44.5 L 314.47249999999997 -40.0 L 314.4525 -40.0 L 300.15875 -40.0 L 300.15875 -44.5 L 285.885 -44.5 L 285.885 -40.0 L 285.865 -40.0 L 271.57125 -40.0 L 271.57125 -44.5 L 257.2975 -44.5 L 257.2975 -40.0 L 257.27750000000003 -40.0 L 242.98375000000004 -40.0 L 242.98375000000004 -44.5 L 228.71000000000004 -44.5 L 228.71000000000004 -40.0 L 228.69000000000003 -40.0 L 214.39625000000004 -40.0 L 214.39625000000004 -44.5 L 200.12250000000003 -44.5 L 200.12250000000003 -40.0 L 200.10250000000002 -40.0 L 185.80875000000003 -40.0 L 185.80875000000003 -44.5 L 171.53500000000003 -44.5 L 171.53500000000003 -40.0 L 171.51500000000001 -40.0 L 157.22125000000003 -40.0 L 157.22125000000003 -44.5 L 142.94750000000002 -44.5 L 142.94750000000002 -40.0 L 142.9275 -40.0 L 128.63375000000002 -40.0 L 128.63375000000002 -44.5 L 114.36000000000001 -44.5 L 114.36000000000001 -40.0 L 114.34000000000002 -40.0 L 100.04625000000001 -40.0 L 100.04625000000001 -44.5 L 85.77250000000002 -44.5 L 85.77250000000002 -40.0 L 85.75250000000003 -40.0 L 71.45875000000002 -40.0 L 71.45875000000002 -44.5 L 57.18500000000003 -44.5 L 57.18500000000003 -40.0 L 57.16500000000003 -40.0 L 42.87125000000003 -40.0 L 42.87125000000003 -44.5 L 28.59750000000003 -44.5 L 28.59750000000003 -40.0 L 28.57750000000003 -40.0 L 14.28375000000003 -40.0 L 14.28375000000003 -44.5 L 0.010000000000029985 -44.5 L 0.010000000000029985 -40.0 L 0.01 0.0 L 14.303749999999999 0.0 L 14.303749999999999 4.5 " stroke="#191919" stroke-width="0.35 px" style="stroke-width:0.35;stroke-miterlimit:4;stroke-dasharray:none;fill:none;fill-rule: evenodd "/>
<circle cx="19.7" cy="-5.0" r="1.35" stroke="#191919" stroke-width="0.35 px" style="stroke-width:0.35;stroke-miterlimit:4;stroke-dasharray:none;fill:none"/>
<circle cx="19.7" cy="-35.0" r="1.35" stroke="#191919" stroke-width="0.35 px" style="stroke-width:0.35;stroke-miterlimit:4;stroke-dasharray:none;fill:none"/>
<circle cx="437.7" cy="-5.0" r="1.35" stroke="#191919" stroke-width="0.35 px" style="stroke-width:0.35;stroke-miterlimit:4;stroke-dasharray:none;fill:none"/>
<circle cx="437.7" cy="-35.0" r="1.35" stroke="#191919" stroke-width="0.35 px" style="stroke-width:0.35;stroke-miterlimit:4;stroke-dasharray:none;fill:none"/>
<path id="base_outline_w0005"  d="M 4.999999999999999 -34.0 L 4.999999999999999 -28.0 L 9.7 -28.0 L 9.7 -34.0 L 4.999999999999999 -34.0 " stroke="#191919" stroke-width="0.35 px" style="stroke-width:0.35;stroke-miterlimit:4;stroke-dasharray:none;fill:none;fill-rule: evenodd "/>
<path id="base_outline_w0006"  d="M 4.999999999999999 -6.0 L 4.999999999999999 -12.0 L 9.7 -12.0 L 9.7 -6.0 L 4.999999999999999 -6.0 " stroke="#191919" stroke-width="0.35 px" style="stroke-width:0.35;stroke-miterlimit:4;stroke-dasharray:none;fill:none;fill-rule: evenodd "/>
<path id="base_outline_w0007"  d="M 452.4 -34.0 L 452.4 -28.0 L 447.7 -28.0 L 447.7 -34.0 L 452.4 -34.0 " stroke="#191919" stroke-width="0.35 px" style="stroke-width:0.35;stroke-miterlimit:4;stroke-dasharray:none;fill:none;fill-rule: evenodd "/>
<path id="base_outline_w0008"  d="M 452.4 -6.0 L 452.4 -12.0 L 447.7 -12.0 L 447.7 -6.0 L 452.4 -6.0 " stroke="#191919" stroke-width="0.35 px" style="stroke-width:0.35;stroke-miterlimit:4;stroke-dasharray:none;fill:none;fill-rule: evenodd "/>
<circle cx="66.7" cy="-15.0" r="1.35" stroke="#191919" stroke-width="0.35 px" style="stroke-width:0.35;stroke-miterlimit:4;stroke-dasharray:none;fill:none"/>
<circle cx="66.7" cy="-23.0" r="1.35" stroke="#191919" stroke-width="0.35 px" style="stroke-width:0.35;stroke-miterlimit:4;stroke-dasharray:none;fill:none"/>
<circle cx="90.7" cy="-15.0" r="1.35" stroke="#191919" stroke-width="0.35 px" style="stroke-width:0.35;stroke-miterlimit:4;stroke-dasharray:none;fill:none"/>
<circle cx="90.7" cy="-23.0" r="1.35" stroke="#191919" stroke-width="0.35 px" style="stroke-width:0.35;stroke-miterlimit:4;stroke-dasharray:none;fill:none"/>
<circle cx="78.7" cy="-19.0" r="1.35" stroke="#191919" stroke-width="0.35 px" style="stroke-width:0.35;stroke-miterlimit:4;stroke-dasharray:none;fill:none"/>
<circle cx="166.7" cy="-15.0" r="1.35" stroke="#191919" stroke-width="0.35 px" style="stroke-width:0.35;stroke-miterlimit:4;stroke-dasharray:none;fill:none"/>
<circle cx="166.7" cy="-23.0" r="1.35" stroke="#191919" stroke-width="0.35 px" style="stroke-width:0.35;stroke-miterlimit:4;stroke-dasharray:none;fill:none"/>
<circle cx="190.7" cy="-15.0" r="1.35" stroke="#191919" stroke-width="0.35 px" style="stroke-width:0.35;stroke-miterlimit:4;stroke-dasharray:none;fill:none"/>
<circle cx="190.7" cy="-23.0" r="1.35" stroke="#191919" stroke-width="0.35 px" style="stroke-width:0.35;stroke-miterlimit:4;stroke-dasharray:none;fill:none"/>
<circle cx="178.7" cy="-19.0" r="1.35" stroke="#191919" stroke-width="0.35 px" style="stroke-width:0.35;stroke-miterlimit:4;stroke-dasharray:none;fill:none"/>
<circle cx="266.7" cy="-15.0" r="1.35" stroke="#191919" stroke-width="0.35 px" style="stroke-width:0.35;stroke-miterlimit:4;stroke-dasharray:none;fill:none"/>
<circle cx="266.7" cy="-23.0" r="1.35" stroke="#191919" stroke-width="0.35 px" style="stroke-width:0.35;stroke-miterlimit:4;stroke-dasharray:none;fill:none"/>
<circle cx="290.7" cy="-15.0" r="1.35" stroke="#191919" stroke-width="0.35 px" style="stroke-width:0.35;stroke-miterlimit:4;stroke-dasharray:none;fill:none"/>
<circle cx="290.7" cy="-23.0" r="1.35" stroke="#191919" stroke-width="0.35 px" style="stroke-width:0.35;stroke-miterlimit:4;stroke-dasharray:none;fill:none"/>
<circle cx="278.7" cy="-19.0" r="1.35" stroke="#191919" stroke-width="0.35 px" style="stroke-width:0.35;stroke-miterlimit:4;stroke-dasharray:none;fill:none"/>
<circle cx="366.7" cy="-15.0" r="1.35" stroke="#191919" stroke-width="0.35 px" style="stroke-width:0.35;stroke-miterlimit:4;stroke-dasharray:none;fill:none"/>
<circle cx="366.7" cy="-23.0" r="1.35" stroke="#191919" stroke-width="0.35 px" style="stroke-width:0.35;stroke-miterlimit:4;stroke-dasharray:none;fill:none"/>
<circle cx="390.7" cy="-15.0" r="1.35" stroke="#191919" stroke-width="0.35 px" style="stroke-width:0.35;stroke-miterlimit:4;stroke-dasharray:none;fill:none"/>
<circle cx="390.7" cy="-23.0" r="1.35" stroke="#191919" stroke-width="0.35 px" style="stroke-width:0.35;stroke-miterlimit:4;stroke-dasharray:none;fill:none"/>
<circle cx="378.7" cy="-19.0" r="1.35" stroke="#191919" stroke-width="0.35 px" style="stroke-width:0.35;stroke-miterlimit:4;stroke-dasharray:none;fill:none"/>
<title>b'base_outline'</title>
</g>
</svg>