<?xml version="1.0"?>
<!DOCTYPE svg PUBLIC "-//W3C//DTD SVG 1.1//EN" "http://www.w3.org/Graphics/SVG/1.1/DTD/svg11.dtd">
<svg width="87.59760000000003mm" height="37.717600000000004mm" viewBox="0 0 87.59760000000003 37.717600000000004" xmlns="http://www.w3.org/2000/svg" version="1.1">
<g id="aud_back_outline" transform="translate(0.848800,3.858800) scale(1,-1)">
<path id="aud_back_outline_w0000"  d="M 10.7475 3.0 L 21.465000000000003 3.0 L 21.465000000000003 0.0 L 21.485000000000003 0.0 L 32.222500000000004 0.0 L 32.222500000000004 3.0 L 42.94000000000001 3.0 L 42.94000000000001 0.0 L 42.960000000000015 0.0 L 53.69750000000002 0.0 L 53.69750000000002 3.0 L 64.41500000000002 3.0 L 64.41500000000002 0.0 L 64.43500000000002 0.0 L 75.17250000000001 0.0 L 75.17250000000001 3.0 L 85.89000000000001 3.0 L 85.89000000000001 0.0 L 85.89000000000003 -30.0 L 75.15250000000003 -30.0 L 75.15250000000003 -33.0 L 64.43500000000003 -33.0 L 64.43500000000003 -30.0 L 64.41500000000003 -30.0 L 53.67750000000004 -30.0 L 53.67750000000004 -33.0 L 42.960000000000036 -33.0 L 42.960000000000036 -30.0 L 42.94000000000003 -30.0 L 32.20250000000003 -30.0 L 32.20250000000003 -33.0 L 21.485000000000024 -33.0 L 21.485000000000024 -30.0 L 21.465000000000025 -30.0 L 10.727500000000024 -30.0 L 10.727500000000024 -33.0 L 0.01000000000002288 -33.0 L 0.01000000000002288 -30.0 L 0.01 0.0 L 10.7475 0.0 L 10.7475 3.0 " stroke="#191919" stroke-width="0.35 px" style="stroke-width:0.35;stroke-miterlimit:4;stroke-dasharray:none;fill:none;fill-rule: evenodd "/>
<circle cx="37.45" cy="-22.0" r="5.0" stroke="#191919" stroke-width="0.35 px" style="stroke-width:0.35;stroke-miterlimit:4;stroke-dasharray:none;fill:none"/>
<path id="aud_back_outline_w0002"  d="M 4.999999999999999 -21.0 L 4.999999999999999 -18.0 L 8.2 -18.0 L 8.2 -21.0 L 4.999999999999999 -21.0 " stroke="#191919" stroke-width="0.35 px" style="stroke-width:0.35;stroke-miterlimit:4;stroke-dasharray:none;fill:none;fill-rule: evenodd "/>
<path id="aud_back_outline_w0003"  d="M 4.999999999999999 -9.0 L 4.999999999999999 -12.0 L 8.2 -12.0 L 8.2 -9.0 L 4.999999999999999 -9.0 " stroke="#191919" stroke-width="0.35 px" style="stroke-width:0.35;stroke-miterlimit:4;stroke-dasharray:none;fill:none;fill-rule: evenodd "/>
<path id="aud_back_outline_w0004"  d="M 80.9 -21.0 L 80.9 -18.0 L 77.7 -18.0 L 77.7 -21.0 L 80.9 -21.0 " stroke="#191919" stroke-width="0.35 px" style="stroke-width:0.35;stroke-miterlimit:4;stroke-dasharray:none;fill:none;fill-rule: evenodd "/>
<path id="aud_back_outline_w0005"  d="M 80.9 -9.0 L 80.9 -12.0 L 77.7 -12.0 L 77.7 -9.0 L 80.9 -9.0 " stroke="#191919" stroke-width="0.35 px" style="stroke-width:0.35;stroke-miterlimit:4;stroke-dasharray:none;fill:none;fill-rule: evenodd "/>
<title>b'aud_back_outline'</title>
</g>
</svg>