<?xml version="1.0"?>
<!DOCTYPE svg PUBLIC "-//W3C//DTD SVG 1.1//EN" "http://www.w3.org/Graphics/SVG/1.1/DTD/svg11.dtd">
<svg width="48.144000000000005mm" height="41.144000000000005mm" viewBox="0 0 48.144000000000005 41.144000000000005" xmlns="http://www.w3.org/2000/svg" version="1.1">
<g id="aud_side1_outline" transform="translate(5.572000,5.572000) scale(1,-1)">
<path id="aud_side1_outline_w0000"  d="M 1.75 -5.0 L 3.0 -5.0 L 3.0 0.0 L 3.0 3.0 L 2.8 3.1 L 2.8 4.1 L 3.5 5.1 L 4.0 5.1 L 4.0 2.9999999999999996 L 4.0 -4.440892098500626e-16 L 4.0 -5.0 L 4.5 -5.0 L 5.0 -5.0 L 5.0 0.0 L 5.0 3.0 L 5.0 5.1 L 5.5 5.1 L 6.2 4.1 L 6.2 3.0999999999999996 L 6.0 2.9999999999999996 L 6.0 -4.440892098500626e-16 L 6.0 -5.0 L 7.25 -5.0 L 7.25 0.0 L 29.75 0.0 L 29.75 -5.0 L 31.0 -5.0 L 31.0 0.0 L 31.0 3.0 L 30.8 3.1 L 30.8 4.1 L 31.5 5.1 L 32.0 5.1 L 32.0 2.9999999999999996 L 32.0 -4.440892098500626e-16 L 32.0 -5.0 L 32.5 -5.0 L 33.0 -5.0 L 33.0 0.0 L 33.0 3.0 L 33.0 5.1 L 33.5 5.1 L 34.2 4.1 L 34.2 3.0999999999999996 L 34.0 2.9999999999999996 L 34.0 -4.440892098500626e-16 L 34.0 -5.0 L 35.25 -5.0 L 35.25 0.0 L 37.0 0.0 L 37.0 -7.75 L 32.0 -7.75 L 32.0 -9.0 L 37.0 -9.0 L 40.0 -9.0 L 40.1 -8.8 L 41.1 -8.8 L 42.1 -9.5 L 42.1 -10.0 L 40.0 -10.0 L 37.0 -10.0 L 32.0 -10.0 L 32.0 -10.5 L 32.0 -11.0 L 37.0 -11.0 L 40.0 -11.0 L 42.1 -11.0 L 42.1 -11.5 L 41.1 -12.2 L 40.1 -12.2 L 40.0 -12.0 L 37.0 -12.0 L 32.0 -12.0 L 32.0 -13.25 L 37.0 -13.25 L 37.0 -16.75 L 32.0 -16.75 L 32.0 -18.0 L 37.0 -18.0 L 40.0 -18.0 L 40.1 -17.8 L 41.1 -17.8 L 42.1 -18.5 L 42.1 -19.0 L 40.0 -19.0 L 37.0 -19.0 L 32.0 -19.0 L 32.0 -19.5 L 32.0 -20.0 L 37.0 -20.0 L 40.0 -20.0 L 42.1 -20.0 L 42.1 -20.5 L 41.1 -21.2 L 40.1 -21.2 L 40.0 -21.0 L 37.0 -21.0 L 32.0 -21.0 L 32.0 -22.25 L 37.0 -22.25 L 37.0 -30.0 L 35.25 -30.0 L 35.25 -25.0 L 34.0 -25.0 L 34.0 -30.0 L 34.0 -33.0 L 34.2 -33.1 L 34.2 -34.1 L 33.5 -35.1 L 33.0 -35.1 L 33.0 -33.0 L 33.0 -30.0 L 33.0 -25.0 L 32.5 -25.0 L 32.0 -25.0 L 32.0 -30.0 L 32.0 -33.0 L 32.0 -35.1 L 31.5 -35.1 L 30.8 -34.1 L 30.8 -33.1 L 31.0 -33.0 L 31.0 -30.0 L 31.0 -25.0 L 29.75 -25.0 L 29.75 -30.0 L 7.25 -30.0 L 7.25 -25.0 L 6.0 -25.0 L 6.0 -30.0 L 6.0 -33.0 L 6.2 -33.1 L 6.2 -34.1 L 5.5 -35.1 L 5.0 -35.1 L 5.0 -33.0 L 5.0 -30.0 L 5.0 -25.0 L 4.5 -25.0 L 4.0 -25.0 L 4.0 -30.0 L 4.0 -33.0 L 4.0 -35.1 L 3.5 -35.1 L 2.8 -34.1 L 2.8 -33.1 L 3.0 -33.0 L 3.0 -30.0 L 3.0 -25.0 L 1.75 -25.0 L 1.75 -30.0 L 0.0 -30.0 L 0.0 -22.25 L 5.0 -22.25 L 5.0 -21.0 L 0.0 -21.0 L -3.0 -21.0 L -3.1 -21.2 L -4.1 -21.2 L -5.1 -20.5 L -5.1 -20.0 L -2.9999999999999996 -20.0 L 4.440892098500626e-16 -20.0 L 5.0 -20.0 L 5.0 -19.5 L 5.0 -19.0 L 0.0 -19.0 L -3.0 -19.0 L -5.1 -19.0 L -5.1 -18.5 L -4.1 -17.8 L -3.0999999999999996 -17.8 L -2.9999999999999996 -18.0 L 4.440892098500626e-16 -18.0 L 5.0 -18.0 L 5.0 -16.75 L 0.0 -16.75 L 0.0 -13.25 L 5.0 -13.25 L 5.0 -12.0 L 0.0 -12.0 L -3.0 -12.0 L -3.1 -12.2 L -4.1 -12.2 L -5.1 -11.5 L -5.1 -11.0 L -2.9999999999999996 -11.0 L 4.440892098500626e-16 -11.0 L 5.0 -11.0 L 5.0 -10.5 L 5.0 -10.0 L 0.0 -10.0 L -3.0 -10.0 L -5.1 -10.0 L -5.1 -9.5 L -4.1 -8.8 L -3.0999999999999996 -8.8 L -2.9999999999999996 -9.0 L 4.440892098500626e-16 -9.0 L 5.0 -9.0 L 5.0 -7.75 L 0.0 -7.75 L 0.0 0.0 L 1.75 0.0 L 1.75 -5.0 " stroke="#191919" stroke-width="0.35 px" style="stroke-width:0.35;stroke-miterlimit:4;stroke-dasharray:none;fill:none;fill-rule: evenodd "/>
<path id="aud_side1_outline_w0001"  d="M 26.0 -26.0 L 26.0 -4.0 L 11.0 -4.0 L 11.0 -26.0 L 26.0 -26.0 " stroke="#191919" stroke-width="0.35 px" style="stroke-width:0.35;stroke-miterlimit:4;stroke-dasharray:none;fill:none;fill-rule: evenodd "/>
<title>b'aud_side1_outline'</title>
</g>
</svg>