<?xml version="1.0"?>
<!DOCTYPE svg PUBLIC "-//W3C//DTD SVG 1.1//EN" "http://www.w3.org/Graphics/SVG/1.1/DTD/svg11.dtd">
<svg width="53.244mm" height="56.244mm" viewBox="0 0 53.244 56.244" xmlns="http://www.w3.org/2000/svg" version="1.1">
<g id="aud_side_outline" transform="translate(7.122000,7.122000) scale(1,-1)">
<path id="aud_side_outline_w0000"  d="M 0.0 0.0 L 4.25 0.0 L 4.25 -5.0 L 5.5 -5.0 L 5.5 0.0 L 5.5 4.5 L 4.5 4.6 L 4.5 5.6 L 5.5 6.6 L 7.0 6.6 L 7.0 4.5 L 7.0 0.0 L 7.0 -5.0 L 8.5 -5.0 L 10.0 -5.0 L 10.0 0.0 L 10.0 4.5 L 10.0 6.6 L 11.5 6.6 L 12.5 5.6 L 12.5 4.6 L 11.5 4.5 L 11.5 0.0 L 11.5 -5.0 L 12.75 -5.0 L 12.75 0.0 L 26.25 0.0 L 26.25 -5.0 L 27.5 -5.0 L 27.5 0.0 L 27.5 4.5 L 26.5 4.6 L 26.5 5.6 L 27.5 6.6 L 29.0 6.6 L 29.0 4.5 L 29.0 0.0 L 29.0 -5.0 L 30.5 -5.0 L 32.0 -5.0 L 32.0 0.0 L 32.0 4.5 L 32.0 6.6 L 33.5 6.6 L 34.5 5.6 L 34.5 4.6 L 33.5 4.5 L 33.5 0.0 L 33.5 -5.0 L 34.75 -5.0 L 34.75 0.0 L 39.0 0.0 L 39.0 -9.75 L 34.0 -9.75 L 34.0 -11.0 L 39.0 -11.0 L 43.5 -11.0 L 43.6 -10.0 L 44.6 -10.0 L 45.6 -11.0 L 45.6 -12.5 L 43.5 -12.5 L 39.0 -12.5 L 34.0 -12.5 L 34.0 -14.0 L 34.0 -15.5 L 39.0 -15.5 L 43.5 -15.5 L 45.6 -15.5 L 45.6 -17.0 L 44.6 -18.0 L 43.6 -18.0 L 43.5 -17.0 L 39.0 -17.0 L 34.0 -17.0 L 34.0 -18.25 L 39.0 -18.25 L 39.0 -23.75 L 34.0 -23.75 L 34.0 -25.0 L 39.0 -25.0 L 43.5 -25.0 L 43.6 -24.0 L 44.6 -24.0 L 45.6 -25.0 L 45.6 -26.5 L 43.5 -26.5 L 39.0 -26.5 L 34.0 -26.5 L 34.0 -28.0 L 34.0 -29.5 L 39.0 -29.5 L 43.5 -29.5 L 45.6 -29.5 L 45.6 -31.0 L 44.6 -32.0 L 43.6 -32.0 L 43.5 -31.0 L 39.0 -31.0 L 34.0 -31.0 L 34.0 -32.25 L 39.0 -32.25 L 39.0 -42.0 L 34.75 -42.0 L 34.75 -37.0 L 33.5 -37.0 L 33.5 -42.0 L 33.5 -46.5 L 34.5 -46.6 L 34.5 -47.6 L 33.5 -48.6 L 32.0 -48.6 L 32.0 -46.5 L 32.0 -42.0 L 32.0 -37.0 L 30.5 -37.0 L 29.0 -37.0 L 29.0 -42.0 L 29.0 -46.5 L 29.0 -48.6 L 27.5 -48.6 L 26.5 -47.6 L 26.5 -46.6 L 27.5 -46.5 L 27.5 -42.0 L 27.5 -37.0 L 26.25 -37.0 L 26.25 -42.0 L 12.75 -42.0 L 12.75 -37.0 L 11.5 -37.0 L 11.5 -42.0 L 11.5 -46.5 L 12.5 -46.6 L 12.5 -47.6 L 11.5 -48.6 L 10.0 -48.6 L 10.0 -46.5 L 10.0 -42.0 L 10.0 -37.0 L 8.5 -37.0 L 7.0 -37.0 L 7.0 -42.0 L 7.0 -46.5 L 7.0 -48.6 L 5.5 -48.6 L 4.5 -47.6 L 4.5 -46.6 L 5.5 -46.5 L 5.5 -42.0 L 5.5 -37.0 L 4.25 -37.0 L 4.25 -42.0 L 0.0 -42.0 L 0.0 -32.25 L 5.0 -32.25 L 5.0 -31.0 L 0.0 -31.0 L -4.5 -31.0 L -4.6 -32.0 L -5.6 -32.0 L -6.6 -31.0 L -6.6 -29.5 L -4.5 -29.5 L 0.0 -29.5 L 5.0 -29.5 L 5.0 -28.0 L 5.0 -26.5 L 0.0 -26.5 L -4.5 -26.5 L -6.6 -26.5 L -6.6 -25.0 L -5.6 -24.0 L -4.6 -24.0 L -4.5 -25.0 L 0.0 -25.0 L 5.0 -25.0 L 5.0 -23.75 L 0.0 -23.75 L 0.0 -18.25 L 5.0 -18.25 L 5.0 -17.0 L 0.0 -17.0 L -4.5 -17.0 L -4.6 -18.0 L -5.6 -18.0 L -6.6 -17.0 L -6.6 -15.5 L -4.5 -15.5 L 0.0 -15.5 L 5.0 -15.5 L 5.0 -14.0 L 5.0 -12.5 L 0.0 -12.5 L -4.5 -12.5 L -6.6 -12.5 L -6.6 -11.0 L -5.6 -10.0 L -4.6 -10.0 L -4.5 -11.0 L 0.0 -11.0 L 5.0 -11.0 L 5.0 -9.75 L 0.0 -9.75 L 0.0 0.0 " stroke="#191919" stroke-width="0.35 px" style="stroke-width:0.35;stroke-miterlimit:4;stroke-dasharray:none;fill:none;fill-rule: evenodd "/>
<title>b'aud_side_outline'</title>
</g>
</svg>