<?xml version="1.0"?>
<!DOCTYPE svg PUBLIC "-//W3C//DTD SVG 1.1//EN" "http://www.w3.org/Graphics/SVG/1.1/DTD/svg11.dtd">
<svg width="467.5475999999999mm" height="61.16759999999999mm" viewBox="0 0 467.5475999999999 61.16759999999999" xmlns="http://www.w3.org/2000/svg" version="1.1">
<g id="back_outline" transform="translate(4.573800,9.583800) scale(1,-1)">
<path id="back_outline_w0000"  d="M 14.334999999999999 5.0 L 28.64 5.0 L 28.64 0.0 L 28.66 0.0 L 42.985 0.0 L 42.985 5.0 L 57.290000000000006 5.0 L 57.290000000000006 0.0 L 57.31000000000001 0.0 L 71.635 0.0 L 71.635 5.0 L 85.94 5.0 L 85.94 0.0 L 85.96 0.0 L 100.285 0.0 L 100.285 5.0 L 114.58999999999999 5.0 L 114.58999999999999 0.0 L 114.60999999999999 0.0 L 128.93499999999997 0.0 L 128.93499999999997 5.0 L 143.23999999999998 5.0 L 143.23999999999998 0.0 L 143.26 0.0 L 157.58499999999998 0.0 L 157.58499999999998 5.0 L 171.89 5.0 L 171.89 0.0 L 171.91 0.0 L 186.23499999999999 0.0 L 186.23499999999999 5.0 L 200.54 5.0 L 200.54 0.0 L 200.56 0.0 L 214.885 0.0 L 214.885 5.0 L 229.19 5.0 L 229.19 0.0 L 229.21 0.0 L 243.535 0.0 L 243.535 5.0 L 257.84000000000003 5.0 L 257.84000000000003 0.0 L 257.86 0.0 L 272.185 0.0 L 272.185 5.0 L 286.49 5.0 L 286.49 0.0 L 286.51 0.0 L 300.835 0.0 L 300.835 5.0 L 315.14 5.0 L 315.14 0.0 L 315.15999999999997 0.0 L 329.48499999999996 0.0 L 329.48499999999996 5.0 L 343.78999999999996 5.0 L 343.78999999999996 0.0 L 343.80999999999995 0.0 L 358.13499999999993 0.0 L 358.13499999999993 5.0 L 372.43999999999994 5.0 L 372.43999999999994 0.0 L 372.4599999999999 0.0 L 386.7849999999999 0.0 L 386.7849999999999 5.0 L 401.0899999999999 5.0 L 401.0899999999999 0.0 L 401.1099999999999 0.0 L 415.4349999999999 0.0 L 415.4349999999999 5.0 L 429.7399999999999 5.0 L 429.7399999999999 0.0 L 429.7599999999999 0.0 L 444.08499999999987 0.0 L 444.08499999999987 5.0 L 458.3899999999999 5.0 L 458.3899999999999 0.0 L 458.3899999999999 -42.0 L 444.0649999999999 -42.0 L 444.0649999999999 -47.0 L 429.7599999999999 -47.0 L 429.7599999999999 -42.0 L 429.7399999999999 -42.0 L 415.4149999999999 -42.0 L 415.4149999999999 -47.0 L 401.1099999999999 -47.0 L 401.1099999999999 -42.0 L 401.0899999999999 -42.0 L 386.76499999999993 -42.0 L 386.76499999999993 -47.0 L 372.4599999999999 -47.0 L 372.4599999999999 -42.0 L 372.43999999999994 -42.0 L 358.11499999999995 -42.0 L 358.11499999999995 -47.0 L 343.80999999999995 -47.0 L 343.80999999999995 -42.0 L 343.78999999999996 -42.0 L 329.465 -42.0 L 329.465 -47.0 L 315.15999999999997 -47.0 L 315.15999999999997 -42.0 L 315.14 -42.0 L 300.815 -42.0 L 300.815 -47.0 L 286.51 -47.0 L 286.51 -42.0 L 286.49 -42.0 L 272.165 -42.0 L 272.165 -47.0 L 257.86 -47.0 L 257.86 -42.0 L 257.84000000000003 -42.0 L 243.51500000000004 -42.0 L 243.51500000000004 -47.0 L 229.21000000000004 -47.0 L 229.21000000000004 -42.0 L 229.19000000000003 -42.0 L 214.86500000000004 -42.0 L 214.86500000000004 -47.0 L 200.56000000000003 -47.0 L 200.56000000000003 -42.0 L 200.54000000000002 -42.0 L 186.21500000000003 -42.0 L 186.21500000000003 -47.0 L 171.91000000000003 -47.0 L 171.91000000000003 -42.0 L 171.89000000000001 -42.0 L 157.56500000000003 -42.0 L 157.56500000000003 -47.0 L 143.26000000000002 -47.0 L 143.26000000000002 -42.0 L 143.24 -42.0 L 128.91500000000002 -42.0 L 128.91500000000002 -47.0 L 114.61000000000001 -47.0 L 114.61000000000001 -42.0 L 114.59000000000002 -42.0 L 100.26500000000001 -42.0 L 100.26500000000001 -47.0 L 85.96000000000002 -47.0 L 85.96000000000002 -42.0 L 85.94000000000003 -42.0 L 71.61500000000002 -42.0 L 71.61500000000002 -47.0 L 57.31000000000003 -47.0 L 57.31000000000003 -42.0 L 57.29000000000003 -42.0 L 42.96500000000003 -42.0 L 42.96500000000003 -47.0 L 28.66000000000003 -47.0 L 28.66000000000003 -42.0 L 28.64000000000003 -42.0 L 14.31500000000003 -42.0 L 14.31500000000003 -47.0 L 0.010000000000029985 -47.0 L 0.010000000000029985 -42.0 L 0.01 0.0 L 14.334999999999999 0.0 L 14.334999999999999 5.0 " stroke="#191919" stroke-width="0.35 px" style="stroke-width:0.35;stroke-miterlimit:4;stroke-dasharray:none;fill:none;fill-rule: evenodd "/>
<circle cx="19.7" cy="-21.0" r="4.5" stroke="#191919" stroke-width="0.35 px" style="stroke-width:0.35;stroke-miterlimit:4;stroke-dasharray:none;fill:none"/>
<circle cx="438.7" cy="-21.0" r="4.5" stroke="#191919" stroke-width="0.35 px" style="stroke-width:0.35;stroke-miterlimit:4;stroke-dasharray:none;fill:none"/>
<path id="back_outline_w0003"  d="M 4.999999999999999 -31.0 L 4.999999999999999 -25.0 L 10.2 -25.0 L 10.2 -31.0 L 4.999999999999999 -31.0 " stroke="#191919" stroke-width="0.35 px" style="stroke-width:0.35;stroke-miterlimit:4;stroke-dasharray:none;fill:none;fill-rule: evenodd "/>
<path id="back_outline_w0004"  d="M 4.999999999999999 -11.0 L 4.999999999999999 -17.0 L 10.2 -17.0 L 10.2 -11.0 L 4.999999999999999 -11.0 " stroke="#191919" stroke-width="0.35 px" style="stroke-width:0.35;stroke-miterlimit:4;stroke-dasharray:none;fill:none;fill-rule: evenodd "/>
<path id="back_outline_w0005"  d="M 453.4 -31.0 L 453.4 -25.0 L 448.2 -25.0 L 448.2 -31.0 L 453.4 -31.0 " stroke="#191919" stroke-width="0.35 px" style="stroke-width:0.35;stroke-miterlimit:4;stroke-dasharray:none;fill:none;fill-rule: evenodd "/>
<path id="back_outline_w0006"  d="M 453.4 -11.0 L 453.4 -17.0 L 448.2 -17.0 L 448.2 -11.0 L 453.4 -11.0 " stroke="#191919" stroke-width="0.35 px" style="stroke-width:0.35;stroke-miterlimit:4;stroke-dasharray:none;fill:none;fill-rule: evenodd "/>
<title>b'back_outline'</title>
</g>
</svg>