<?xml version="1.0"?>
<!DOCTYPE svg PUBLIC "-//W3C//DTD SVG 1.1//EN" "http://www.w3.org/Graphics/SVG/1.1/DTD/svg11.dtd">
<svg width="55.284000000000006mm" height="57.284000000000006mm" viewBox="0 0 55.284000000000006 57.284000000000006" xmlns="http://www.w3.org/2000/svg" version="1.1">
<g id="side_outline" transform="translate(7.642000,7.642000) scale(1,-1)">
<path id="side_outline_w0000"  d="M 0.0 0.0 L 4.75 0.0 L 4.75 -5.0 L 6.0 -5.0 L 6.0 0.0 L 6.0 4.97 L 5.7 5.069999999999999 L 5.7 6.1 L 7.0 7.1 L 8.0 7.1 L 8.0 5.0 L 8.0 0.0 L 8.0 -5.0 L 9.0 -5.0 L 10.0 -5.0 L 10.0 0.0 L 10.0 5.0 L 10.0 7.1 L 11.0 7.1 L 12.3 6.1 L 12.3 5.069999999999999 L 12.0 4.97 L 12.0 0.0 L 12.0 -5.0 L 13.25 -5.0 L 13.25 0.0 L 26.75 0.0 L 26.75 -5.0 L 28.0 -5.0 L 28.0 0.0 L 28.0 4.97 L 27.7 5.069999999999999 L 27.7 6.1 L 29.0 7.1 L 30.0 7.1 L 30.0 5.0 L 30.0 0.0 L 30.0 -5.0 L 31.0 -5.0 L 32.0 -5.0 L 32.0 0.0 L 32.0 5.0 L 32.0 7.1 L 33.0 7.1 L 34.3 6.1 L 34.3 5.069999999999999 L 34.0 4.97 L 34.0 0.0 L 34.0 -5.0 L 35.25 -5.0 L 35.25 0.0 L 40.0 0.0 L 40.0 -9.75 L 35.0 -9.75 L 35.0 -11.0 L 40.0 -11.0 L 44.97 -11.0 L 45.07 -10.7 L 46.1 -10.7 L 47.1 -12.0 L 47.1 -13.0 L 45.0 -13.0 L 40.0 -13.0 L 35.0 -13.0 L 35.0 -14.0 L 35.0 -15.0 L 40.0 -15.0 L 45.0 -15.0 L 47.1 -15.0 L 47.1 -16.0 L 46.1 -17.3 L 45.07 -17.3 L 44.97 -17.0 L 40.0 -17.0 L 35.0 -17.0 L 35.0 -18.25 L 40.0 -18.25 L 40.0 -23.75 L 35.0 -23.75 L 35.0 -25.0 L 40.0 -25.0 L 44.97 -25.0 L 45.07 -24.7 L 46.1 -24.7 L 47.1 -26.0 L 47.1 -27.0 L 45.0 -27.0 L 40.0 -27.0 L 35.0 -27.0 L 35.0 -28.0 L 35.0 -29.0 L 40.0 -29.0 L 45.0 -29.0 L 47.1 -29.0 L 47.1 -30.0 L 46.1 -31.3 L 45.07 -31.3 L 44.97 -31.0 L 40.0 -31.0 L 35.0 -31.0 L 35.0 -32.25 L 40.0 -32.25 L 40.0 -42.0 L 35.25 -42.0 L 35.25 -37.0 L 34.0 -37.0 L 34.0 -42.0 L 34.0 -46.97 L 34.3 -47.07 L 34.3 -48.1 L 33.0 -49.1 L 32.0 -49.1 L 32.0 -47.0 L 32.0 -42.0 L 32.0 -37.0 L 31.0 -37.0 L 30.0 -37.0 L 30.0 -42.0 L 30.0 -47.0 L 30.0 -49.1 L 29.0 -49.1 L 27.7 -48.1 L 27.7 -47.07 L 28.0 -46.97 L 28.0 -42.0 L 28.0 -37.0 L 26.75 -37.0 L 26.75 -42.0 L 13.25 -42.0 L 13.25 -37.0 L 12.0 -37.0 L 12.0 -42.0 L 12.0 -46.97 L 12.3 -47.07 L 12.3 -48.1 L 11.0 -49.1 L 10.0 -49.1 L 10.0 -47.0 L 10.0 -42.0 L 10.0 -37.0 L 9.0 -37.0 L 8.0 -37.0 L 8.0 -42.0 L 8.0 -47.0 L 8.0 -49.1 L 7.0 -49.1 L 5.7 -48.1 L 5.7 -47.07 L 6.0 -46.97 L 6.0 -42.0 L 6.0 -37.0 L 4.75 -37.0 L 4.75 -42.0 L 0.0 -42.0 L 0.0 -32.25 L 5.0 -32.25 L 5.0 -31.0 L 0.0 -31.0 L -4.97 -31.0 L -5.069999999999999 -31.3 L -6.1 -31.3 L -7.1 -30.0 L -7.1 -29.0 L -5.0 -29.0 L 0.0 -29.0 L 5.0 -29.0 L 5.0 -28.0 L 5.0 -27.0 L 0.0 -27.0 L -5.0 -27.0 L -7.1 -27.0 L -7.1 -26.0 L -6.1 -24.7 L -5.069999999999999 -24.7 L -4.97 -25.0 L 0.0 -25.0 L 5.0 -25.0 L 5.0 -23.75 L 0.0 -23.75 L 0.0 -18.25 L 5.0 -18.25 L 5.0 -17.0 L 0.0 -17.0 L -4.97 -17.0 L -5.069999999999999 -17.3 L -6.1 -17.3 L -7.1 -16.0 L -7.1 -15.0 L -5.0 -15.0 L 0.0 -15.0 L 5.0 -15.0 L 5.0 -14.0 L 5.0 -13.0 L 0.0 -13.0 L -5.0 -13.0 L -7.1 -13.0 L -7.1 -12.0 L -6.1 -10.7 L -5.069999999999999 -10.7 L -4.97 -11.0 L 0.0 -11.0 L 5.0 -11.0 L 5.0 -9.75 L 0.0 -9.75 L 0.0 0.0 " stroke="#191919" stroke-width="0.35 px" style="stroke-width:0.35;stroke-miterlimit:4;stroke-dasharray:none;fill:none;fill-rule: evenodd "/>
<title>b'side_outline'</title>
</g>
</svg>