<?xml version="1.0"?>
<!DOCTYPE svg PUBLIC "-//W3C//DTD SVG 1.1//EN" "http://www.w3.org/Graphics/SVG/1.1/DTD/svg11.dtd">
<svg width="467.5475999999999mm" height="59.16759999999999mm" viewBox="0 0 467.5475999999999 59.16759999999999" xmlns="http://www.w3.org/2000/svg" version="1.1">
<g id="top_outline" transform="translate(4.573800,9.583800) scale(1,-1)">
<path id="top_outline_w0000"  d="M 14.334999999999999 -45.0 L 28.64 -45.0 L 28.64 -40.0 L 28.66 -40.0 L 42.985 -40.0 L 42.985 -45.0 L 57.290000000000006 -45.0 L 57.290000000000006 -40.0 L 57.31000000000001 -40.0 L 71.635 -40.0 L 71.635 -45.0 L 85.94 -45.0 L 85.94 -40.0 L 85.96 -40.0 L 100.285 -40.0 L 100.285 -45.0 L 114.58999999999999 -45.0 L 114.58999999999999 -40.0 L 114.60999999999999 -40.0 L 128.93499999999997 -40.0 L 128.93499999999997 -45.0 L 143.23999999999998 -45.0 L 143.23999999999998 -40.0 L 143.26 -40.0 L 157.58499999999998 -40.0 L 157.58499999999998 -45.0 L 171.89 -45.0 L 171.89 -40.0 L 171.91 -40.0 L 186.23499999999999 -40.0 L 186.23499999999999 -45.0 L 200.54 -45.0 L 200.54 -40.0 L 200.56 -40.0 L 214.885 -40.0 L 214.885 -45.0 L 229.19 -45.0 L 229.19 -40.0 L 229.21 -40.0 L 243.535 -40.0 L 243.535 -45.0 L 257.84000000000003 -45.0 L 257.84000000000003 -40.0 L 257.86 -40.0 L 272.185 -40.0 L 272.185 -45.0 L 286.49 -45.0 L 286.49 -40.0 L 286.51 -40.0 L 300.835 -40.0 L 300.835 -45.0 L 315.14 -45.0 L 315.14 -40.0 L 315.15999999999997 -40.0 L 329.48499999999996 -40.0 L 329.48499999999996 -45.0 L 343.78999999999996 -45.0 L 343.78999999999996 -40.0 L 343.80999999999995 -40.0 L 358.13499999999993 -40.0 L 358.13499999999993 -45.0 L 372.43999999999994 -45.0 L 372.43999999999994 -40.0 L 372.4599999999999 -40.0 L 386.7849999999999 -40.0 L 386.7849999999999 -45.0 L 401.0899999999999 -45.0 L 401.0899999999999 -40.0 L 401.1099999999999 -40.0 L 415.4349999999999 -40.0 L 415.4349999999999 -45.0 L 429.7399999999999 -45.0 L 429.7399999999999 -40.0 L 429.7599999999999 -40.0 L 444.08499999999987 -40.0 L 444.08499999999987 -45.0 L 458.3899999999999 -45.0 L 458.3899999999999 -40.0 L 458.3899999999999 0.0 L 444.0649999999999 0.0 L 444.0649999999999 5.0 L 429.7599999999999 5.0 L 429.7599999999999 0.0 L 429.7399999999999 0.0 L 415.4149999999999 0.0 L 415.4149999999999 5.0 L 401.1099999999999 5.0 L 401.1099999999999 0.0 L 401.0899999999999 0.0 L 386.76499999999993 0.0 L 386.76499999999993 5.0 L 372.4599999999999 5.0 L 372.4599999999999 0.0 L 372.43999999999994 0.0 L 358.11499999999995 0.0 L 358.11499999999995 5.0 L 343.80999999999995 5.0 L 343.80999999999995 0.0 L 343.78999999999996 0.0 L 329.465 0.0 L 329.465 5.0 L 315.15999999999997 5.0 L 315.15999999999997 0.0 L 315.14 0.0 L 300.815 0.0 L 300.815 5.0 L 286.51 5.0 L 286.51 0.0 L 286.49 0.0 L 272.165 0.0 L 272.165 5.0 L 257.86 5.0 L 257.86 0.0 L 257.84000000000003 0.0 L 243.51500000000004 0.0 L 243.51500000000004 5.0 L 229.21000000000004 5.0 L 229.21000000000004 0.0 L 229.19000000000003 0.0 L 214.86500000000004 0.0 L 214.86500000000004 5.0 L 200.56000000000003 5.0 L 200.56000000000003 0.0 L 200.54000000000002 0.0 L 186.21500000000003 0.0 L 186.21500000000003 5.0 L 171.91000000000003 5.0 L 171.91000000000003 0.0 L 171.89000000000001 0.0 L 157.56500000000003 0.0 L 157.56500000000003 5.0 L 143.26000000000002 5.0 L 143.26000000000002 0.0 L 143.24 0.0 L 128.91500000000002 0.0 L 128.91500000000002 5.0 L 114.61000000000001 5.0 L 114.61000000000001 0.0 L 114.59000000000002 0.0 L 100.26500000000001 0.0 L 100.26500000000001 5.0 L 85.96000000000002 5.0 L 85.96000000000002 0.0 L 85.94000000000003 0.0 L 71.61500000000002 0.0 L 71.61500000000002 5.0 L 57.31000000000003 5.0 L 57.31000000000003 0.0 L 57.29000000000003 0.0 L 42.96500000000003 0.0 L 42.96500000000003 5.0 L 28.66000000000003 5.0 L 28.66000000000003 0.0 L 28.64000000000003 0.0 L 14.31500000000003 0.0 L 14.31500000000003 5.0 L 0.010000000000029985 5.0 L 0.010000000000029985 0.0 L 0.01 -40.0 L 14.334999999999999 -40.0 L 14.334999999999999 -45.0 " stroke="#191919" stroke-width="0.35 px" style="stroke-width:0.35;stroke-miterlimit:4;stroke-dasharray:none;fill:none;fill-rule: evenodd "/>
<path id="top_outline_w0001"  d="M 4.999999999999999 -34.0 L 4.999999999999999 -28.0 L 10.2 -28.0 L 10.2 -34.0 L 4.999999999999999 -34.0 " stroke="#191919" stroke-width="0.35 px" style="stroke-width:0.35;stroke-miterlimit:4;stroke-dasharray:none;fill:none;fill-rule: evenodd "/>
<path id="top_outline_w0002"  d="M 4.999999999999999 -6.0 L 4.999999999999999 -12.0 L 10.2 -12.0 L 10.2 -6.0 L 4.999999999999999 -6.0 " stroke="#191919" stroke-width="0.35 px" style="stroke-width:0.35;stroke-miterlimit:4;stroke-dasharray:none;fill:none;fill-rule: evenodd "/>
<path id="top_outline_w0003"  d="M 453.4 -34.0 L 453.4 -28.0 L 448.2 -28.0 L 448.2 -34.0 L 453.4 -34.0 " stroke="#191919" stroke-width="0.35 px" style="stroke-width:0.35;stroke-miterlimit:4;stroke-dasharray:none;fill:none;fill-rule: evenodd "/>
<path id="top_outline_w0004"  d="M 453.4 -6.0 L 453.4 -12.0 L 448.2 -12.0 L 448.2 -6.0 L 453.4 -6.0 " stroke="#191919" stroke-width="0.35 px" style="stroke-width:0.35;stroke-miterlimit:4;stroke-dasharray:none;fill:none;fill-rule: evenodd "/>
<circle cx="41.7" cy="-23.825" r="5.025" stroke="#191919" stroke-width="0.35 px" style="stroke-width:0.35;stroke-miterlimit:4;stroke-dasharray:none;fill:none"/>
<circle cx="66.7" cy="-23.825" r="5.025" stroke="#191919" stroke-width="0.35 px" style="stroke-width:0.35;stroke-miterlimit:4;stroke-dasharray:none;fill:none"/>
<circle cx="91.7" cy="-23.825" r="5.025" stroke="#191919" stroke-width="0.35 px" style="stroke-width:0.35;stroke-miterlimit:4;stroke-dasharray:none;fill:none"/>
<circle cx="116.7" cy="-23.825" r="5.025" stroke="#191919" stroke-width="0.35 px" style="stroke-width:0.35;stroke-miterlimit:4;stroke-dasharray:none;fill:none"/>
<circle cx="141.7" cy="-23.825" r="5.025" stroke="#191919" stroke-width="0.35 px" style="stroke-width:0.35;stroke-miterlimit:4;stroke-dasharray:none;fill:none"/>
<circle cx="166.7" cy="-23.825" r="5.025" stroke="#191919" stroke-width="0.35 px" style="stroke-width:0.35;stroke-miterlimit:4;stroke-dasharray:none;fill:none"/>
<circle cx="191.7" cy="-23.825" r="5.025" stroke="#191919" stroke-width="0.35 px" style="stroke-width:0.35;stroke-miterlimit:4;stroke-dasharray:none;fill:none"/>
<circle cx="216.7" cy="-23.825" r="5.025" stroke="#191919" stroke-width="0.35 px" style="stroke-width:0.35;stroke-miterlimit:4;stroke-dasharray:none;fill:none"/>
<circle cx="241.7" cy="-23.825" r="5.025" stroke="#191919" stroke-width="0.35 px" style="stroke-width:0.35;stroke-miterlimit:4;stroke-dasharray:none;fill:none"/>
<circle cx="266.7" cy="-23.825" r="5.025" stroke="#191919" stroke-width="0.35 px" style="stroke-width:0.35;stroke-miterlimit:4;stroke-dasharray:none;fill:none"/>
<circle cx="291.7" cy="-23.825" r="5.025" stroke="#191919" stroke-width="0.35 px" style="stroke-width:0.35;stroke-miterlimit:4;stroke-dasharray:none;fill:none"/>
<circle cx="316.7" cy="-23.825" r="5.025" stroke="#191919" stroke-width="0.35 px" style="stroke-width:0.35;stroke-miterlimit:4;stroke-dasharray:none;fill:none"/>
<circle cx="341.7" cy="-23.825" r="5.025" stroke="#191919" stroke-width="0.35 px" style="stroke-width:0.35;stroke-miterlimit:4;stroke-dasharray:none;fill:none"/>
<circle cx="366.7" cy="-23.825" r="5.025" stroke="#191919" stroke-width="0.35 px" style="stroke-width:0.35;stroke-miterlimit:4;stroke-dasharray:none;fill:none"/>
<circle cx="391.7" cy="-23.825" r="5.025" stroke="#191919" stroke-width="0.35 px" style="stroke-width:0.35;stroke-miterlimit:4;stroke-dasharray:none;fill:none"/>
<circle cx="416.7" cy="-23.825" r="5.025" stroke="#191919" stroke-width="0.35 px" style="stroke-width:0.35;stroke-miterlimit:4;stroke-dasharray:none;fill:none"/>
<title>b'top_outline'</title>
</g>
</svg>