G04 #@! TF.GenerationSoftware,KiCad,Pcbnew,(5.1.5-0-10_14)*
G04 #@! TF.CreationDate,2020-01-15T18:19:52+08:00*
G04 #@! TF.ProjectId,vumeter-schematics,76756d65-7465-4722-9d73-6368656d6174,rev?*
G04 #@! TF.SameCoordinates,Original*
G04 #@! TF.FileFunction,Legend,Bot*
G04 #@! TF.FilePolarity,Positive*
%FSLAX46Y46*%
G04 Gerber Fmt 4.6, Leading zero omitted, Abs format (unit mm)*
G04 Created by KiCad (PCBNEW (5.1.5-0-10_14)) date 2020-01-15 18:19:52*
%MOMM*%
%LPD*%
G04 APERTURE LIST*
%ADD10C,0.120000*%
%ADD11C,0.150000*%
G04 APERTURE END LIST*
D10*
X174175000Y-106005000D02*
X174175000Y-105005000D01*
X157175000Y-106005000D02*
X174175000Y-106005000D01*
X174175000Y-88005000D02*
X174175000Y-105005000D01*
X157175000Y-88005000D02*
X174175000Y-88005000D01*
X157175000Y-88005000D02*
X157175000Y-106005000D01*
X107175000Y-88005000D02*
X107175000Y-106005000D01*
X107175000Y-88005000D02*
X124175000Y-88005000D01*
X124175000Y-88005000D02*
X124175000Y-105005000D01*
X107175000Y-106005000D02*
X124175000Y-106005000D01*
X124175000Y-106005000D02*
X124175000Y-105005000D01*
X142835000Y-99595000D02*
X142835000Y-100855000D01*
X142835000Y-106415000D02*
X142835000Y-105155000D01*
X139075000Y-99595000D02*
X142835000Y-99595000D01*
X136825000Y-106415000D02*
X142835000Y-106415000D01*
X141277064Y-107845000D02*
X140072936Y-107845000D01*
X141277064Y-109665000D02*
X140072936Y-109665000D01*
X133265000Y-103607064D02*
X133265000Y-102402936D01*
X135085000Y-103607064D02*
X135085000Y-102402936D01*
X146015000Y-105652936D02*
X146015000Y-106857064D01*
X147835000Y-105652936D02*
X147835000Y-106857064D01*
X101735000Y-114875000D02*
X101735000Y-112135000D01*
X101735000Y-112135000D02*
X108275000Y-112135000D01*
X108275000Y-112135000D02*
X108275000Y-114875000D01*
X108275000Y-114875000D02*
X101735000Y-114875000D01*
X100965000Y-113505000D02*
X101735000Y-113505000D01*
X109045000Y-113505000D02*
X108275000Y-113505000D01*
X120865000Y-112135000D02*
X120865000Y-114875000D01*
X120865000Y-114875000D02*
X114325000Y-114875000D01*
X114325000Y-114875000D02*
X114325000Y-112135000D01*
X114325000Y-112135000D02*
X120865000Y-112135000D01*
X121635000Y-113505000D02*
X120865000Y-113505000D01*
X113555000Y-113505000D02*
X114325000Y-113505000D01*
X167795000Y-113505000D02*
X167025000Y-113505000D01*
X159715000Y-113505000D02*
X160485000Y-113505000D01*
X167025000Y-114875000D02*
X160485000Y-114875000D01*
X167025000Y-112135000D02*
X167025000Y-114875000D01*
X160485000Y-112135000D02*
X167025000Y-112135000D01*
X160485000Y-114875000D02*
X160485000Y-112135000D01*
X172305000Y-113505000D02*
X173075000Y-113505000D01*
X180385000Y-113505000D02*
X179615000Y-113505000D01*
X173075000Y-112135000D02*
X179615000Y-112135000D01*
X173075000Y-114875000D02*
X173075000Y-112135000D01*
X179615000Y-114875000D02*
X173075000Y-114875000D01*
X179615000Y-112135000D02*
X179615000Y-114875000D01*
D11*
X169591666Y-107457380D02*
X169591666Y-106457380D01*
X169020238Y-107457380D01*
X169020238Y-106457380D01*
X167972619Y-107362142D02*
X168020238Y-107409761D01*
X168163095Y-107457380D01*
X168258333Y-107457380D01*
X168401190Y-107409761D01*
X168496428Y-107314523D01*
X168544047Y-107219285D01*
X168591666Y-107028809D01*
X168591666Y-106885952D01*
X168544047Y-106695476D01*
X168496428Y-106600238D01*
X168401190Y-106505000D01*
X168258333Y-106457380D01*
X168163095Y-106457380D01*
X168020238Y-106505000D01*
X167972619Y-106552619D01*
X167544047Y-107457380D02*
X167544047Y-106457380D01*
X167544047Y-106933571D02*
X166972619Y-106933571D01*
X166972619Y-107457380D02*
X166972619Y-106457380D01*
X166353571Y-106885952D02*
X166448809Y-106838333D01*
X166496428Y-106790714D01*
X166544047Y-106695476D01*
X166544047Y-106647857D01*
X166496428Y-106552619D01*
X166448809Y-106505000D01*
X166353571Y-106457380D01*
X166163095Y-106457380D01*
X166067857Y-106505000D01*
X166020238Y-106552619D01*
X165972619Y-106647857D01*
X165972619Y-106695476D01*
X166020238Y-106790714D01*
X166067857Y-106838333D01*
X166163095Y-106885952D01*
X166353571Y-106885952D01*
X166448809Y-106933571D01*
X166496428Y-106981190D01*
X166544047Y-107076428D01*
X166544047Y-107266904D01*
X166496428Y-107362142D01*
X166448809Y-107409761D01*
X166353571Y-107457380D01*
X166163095Y-107457380D01*
X166067857Y-107409761D01*
X166020238Y-107362142D01*
X165972619Y-107266904D01*
X165972619Y-107076428D01*
X166020238Y-106981190D01*
X166067857Y-106933571D01*
X166163095Y-106885952D01*
X165591666Y-106552619D02*
X165544047Y-106505000D01*
X165448809Y-106457380D01*
X165210714Y-106457380D01*
X165115476Y-106505000D01*
X165067857Y-106552619D01*
X165020238Y-106647857D01*
X165020238Y-106743095D01*
X165067857Y-106885952D01*
X165639285Y-107457380D01*
X165020238Y-107457380D01*
X164401190Y-106457380D02*
X164305952Y-106457380D01*
X164210714Y-106505000D01*
X164163095Y-106552619D01*
X164115476Y-106647857D01*
X164067857Y-106838333D01*
X164067857Y-107076428D01*
X164115476Y-107266904D01*
X164163095Y-107362142D01*
X164210714Y-107409761D01*
X164305952Y-107457380D01*
X164401190Y-107457380D01*
X164496428Y-107409761D01*
X164544047Y-107362142D01*
X164591666Y-107266904D01*
X164639285Y-107076428D01*
X164639285Y-106838333D01*
X164591666Y-106647857D01*
X164544047Y-106552619D01*
X164496428Y-106505000D01*
X164401190Y-106457380D01*
X163448809Y-106457380D02*
X163353571Y-106457380D01*
X163258333Y-106505000D01*
X163210714Y-106552619D01*
X163163095Y-106647857D01*
X163115476Y-106838333D01*
X163115476Y-107076428D01*
X163163095Y-107266904D01*
X163210714Y-107362142D01*
X163258333Y-107409761D01*
X163353571Y-107457380D01*
X163448809Y-107457380D01*
X163544047Y-107409761D01*
X163591666Y-107362142D01*
X163639285Y-107266904D01*
X163686904Y-107076428D01*
X163686904Y-106838333D01*
X163639285Y-106647857D01*
X163591666Y-106552619D01*
X163544047Y-106505000D01*
X163448809Y-106457380D01*
X162686904Y-107457380D02*
X162686904Y-106457380D01*
X162686904Y-106933571D02*
X162115476Y-106933571D01*
X162115476Y-107457380D02*
X162115476Y-106457380D01*
X161782142Y-106457380D02*
X161448809Y-107457380D01*
X161115476Y-106457380D01*
X158002380Y-90606190D02*
X159002380Y-90939523D01*
X158002380Y-91272857D01*
X159002380Y-91606190D02*
X158335714Y-91606190D01*
X158002380Y-91606190D02*
X158050000Y-91558571D01*
X158097619Y-91606190D01*
X158050000Y-91653809D01*
X158002380Y-91606190D01*
X158097619Y-91606190D01*
X158335714Y-92082380D02*
X159002380Y-92082380D01*
X158430952Y-92082380D02*
X158383333Y-92130000D01*
X158335714Y-92225238D01*
X158335714Y-92368095D01*
X158383333Y-92463333D01*
X158478571Y-92510952D01*
X159002380Y-92510952D01*
X165800000Y-91237142D02*
X165752380Y-91141904D01*
X165752380Y-90999047D01*
X165800000Y-90856190D01*
X165895238Y-90760952D01*
X165990476Y-90713333D01*
X166180952Y-90665714D01*
X166323809Y-90665714D01*
X166514285Y-90713333D01*
X166609523Y-90760952D01*
X166704761Y-90856190D01*
X166752380Y-90999047D01*
X166752380Y-91094285D01*
X166704761Y-91237142D01*
X166657142Y-91284761D01*
X166323809Y-91284761D01*
X166323809Y-91094285D01*
X166085714Y-91713333D02*
X166752380Y-91713333D01*
X166180952Y-91713333D02*
X166133333Y-91760952D01*
X166085714Y-91856190D01*
X166085714Y-91999047D01*
X166133333Y-92094285D01*
X166228571Y-92141904D01*
X166752380Y-92141904D01*
X166752380Y-93046666D02*
X165752380Y-93046666D01*
X166704761Y-93046666D02*
X166752380Y-92951428D01*
X166752380Y-92760952D01*
X166704761Y-92665714D01*
X166657142Y-92618095D01*
X166561904Y-92570476D01*
X166276190Y-92570476D01*
X166180952Y-92618095D01*
X166133333Y-92665714D01*
X166085714Y-92760952D01*
X166085714Y-92951428D01*
X166133333Y-93046666D01*
X165800000Y-91237142D02*
X165752380Y-91141904D01*
X165752380Y-90999047D01*
X165800000Y-90856190D01*
X165895238Y-90760952D01*
X165990476Y-90713333D01*
X166180952Y-90665714D01*
X166323809Y-90665714D01*
X166514285Y-90713333D01*
X166609523Y-90760952D01*
X166704761Y-90856190D01*
X166752380Y-90999047D01*
X166752380Y-91094285D01*
X166704761Y-91237142D01*
X166657142Y-91284761D01*
X166323809Y-91284761D01*
X166323809Y-91094285D01*
X166085714Y-91713333D02*
X166752380Y-91713333D01*
X166180952Y-91713333D02*
X166133333Y-91760952D01*
X166085714Y-91856190D01*
X166085714Y-91999047D01*
X166133333Y-92094285D01*
X166228571Y-92141904D01*
X166752380Y-92141904D01*
X166752380Y-93046666D02*
X165752380Y-93046666D01*
X166704761Y-93046666D02*
X166752380Y-92951428D01*
X166752380Y-92760952D01*
X166704761Y-92665714D01*
X166657142Y-92618095D01*
X166561904Y-92570476D01*
X166276190Y-92570476D01*
X166180952Y-92618095D01*
X166133333Y-92665714D01*
X166085714Y-92760952D01*
X166085714Y-92951428D01*
X166133333Y-93046666D01*
X158002380Y-94701428D02*
X159002380Y-95034761D01*
X158002380Y-95368095D01*
X159002380Y-95844285D02*
X158954761Y-95749047D01*
X158907142Y-95701428D01*
X158811904Y-95653809D01*
X158526190Y-95653809D01*
X158430952Y-95701428D01*
X158383333Y-95749047D01*
X158335714Y-95844285D01*
X158335714Y-95987142D01*
X158383333Y-96082380D01*
X158430952Y-96130000D01*
X158526190Y-96177619D01*
X158811904Y-96177619D01*
X158907142Y-96130000D01*
X158954761Y-96082380D01*
X159002380Y-95987142D01*
X159002380Y-95844285D01*
X158335714Y-97034761D02*
X159002380Y-97034761D01*
X158335714Y-96606190D02*
X158859523Y-96606190D01*
X158954761Y-96653809D01*
X159002380Y-96749047D01*
X159002380Y-96891904D01*
X158954761Y-96987142D01*
X158907142Y-97034761D01*
X158335714Y-97368095D02*
X158335714Y-97749047D01*
X158002380Y-97510952D02*
X158859523Y-97510952D01*
X158954761Y-97558571D01*
X159002380Y-97653809D01*
X159002380Y-97749047D01*
X159383333Y-99130000D02*
X159335714Y-99082380D01*
X159192857Y-98987142D01*
X159097619Y-98939523D01*
X158954761Y-98891904D01*
X158716666Y-98844285D01*
X158526190Y-98844285D01*
X158288095Y-98891904D01*
X158145238Y-98939523D01*
X158050000Y-98987142D01*
X157907142Y-99082380D01*
X157859523Y-99130000D01*
X159002380Y-100034761D02*
X159002380Y-99463333D01*
X159002380Y-99749047D02*
X158002380Y-99749047D01*
X158145238Y-99653809D01*
X158240476Y-99558571D01*
X158288095Y-99463333D01*
X158002380Y-100368095D02*
X158002380Y-101034761D01*
X159002380Y-100606190D01*
X158002380Y-101606190D02*
X158002380Y-101701428D01*
X158050000Y-101796666D01*
X158097619Y-101844285D01*
X158192857Y-101891904D01*
X158383333Y-101939523D01*
X158621428Y-101939523D01*
X158811904Y-101891904D01*
X158907142Y-101844285D01*
X158954761Y-101796666D01*
X159002380Y-101701428D01*
X159002380Y-101606190D01*
X158954761Y-101510952D01*
X158907142Y-101463333D01*
X158811904Y-101415714D01*
X158621428Y-101368095D01*
X158383333Y-101368095D01*
X158192857Y-101415714D01*
X158097619Y-101463333D01*
X158050000Y-101510952D01*
X158002380Y-101606190D01*
X158002380Y-102225238D02*
X159002380Y-102558571D01*
X158002380Y-102891904D01*
X159383333Y-103130000D02*
X159335714Y-103177619D01*
X159192857Y-103272857D01*
X159097619Y-103320476D01*
X158954761Y-103368095D01*
X158716666Y-103415714D01*
X158526190Y-103415714D01*
X158288095Y-103368095D01*
X158145238Y-103320476D01*
X158050000Y-103272857D01*
X157907142Y-103177619D01*
X157859523Y-103130000D01*
X119591666Y-107457380D02*
X119591666Y-106457380D01*
X119020238Y-107457380D01*
X119020238Y-106457380D01*
X117972619Y-107362142D02*
X118020238Y-107409761D01*
X118163095Y-107457380D01*
X118258333Y-107457380D01*
X118401190Y-107409761D01*
X118496428Y-107314523D01*
X118544047Y-107219285D01*
X118591666Y-107028809D01*
X118591666Y-106885952D01*
X118544047Y-106695476D01*
X118496428Y-106600238D01*
X118401190Y-106505000D01*
X118258333Y-106457380D01*
X118163095Y-106457380D01*
X118020238Y-106505000D01*
X117972619Y-106552619D01*
X117544047Y-107457380D02*
X117544047Y-106457380D01*
X117544047Y-106933571D02*
X116972619Y-106933571D01*
X116972619Y-107457380D02*
X116972619Y-106457380D01*
X116353571Y-106885952D02*
X116448809Y-106838333D01*
X116496428Y-106790714D01*
X116544047Y-106695476D01*
X116544047Y-106647857D01*
X116496428Y-106552619D01*
X116448809Y-106505000D01*
X116353571Y-106457380D01*
X116163095Y-106457380D01*
X116067857Y-106505000D01*
X116020238Y-106552619D01*
X115972619Y-106647857D01*
X115972619Y-106695476D01*
X116020238Y-106790714D01*
X116067857Y-106838333D01*
X116163095Y-106885952D01*
X116353571Y-106885952D01*
X116448809Y-106933571D01*
X116496428Y-106981190D01*
X116544047Y-107076428D01*
X116544047Y-107266904D01*
X116496428Y-107362142D01*
X116448809Y-107409761D01*
X116353571Y-107457380D01*
X116163095Y-107457380D01*
X116067857Y-107409761D01*
X116020238Y-107362142D01*
X115972619Y-107266904D01*
X115972619Y-107076428D01*
X116020238Y-106981190D01*
X116067857Y-106933571D01*
X116163095Y-106885952D01*
X115591666Y-106552619D02*
X115544047Y-106505000D01*
X115448809Y-106457380D01*
X115210714Y-106457380D01*
X115115476Y-106505000D01*
X115067857Y-106552619D01*
X115020238Y-106647857D01*
X115020238Y-106743095D01*
X115067857Y-106885952D01*
X115639285Y-107457380D01*
X115020238Y-107457380D01*
X114401190Y-106457380D02*
X114305952Y-106457380D01*
X114210714Y-106505000D01*
X114163095Y-106552619D01*
X114115476Y-106647857D01*
X114067857Y-106838333D01*
X114067857Y-107076428D01*
X114115476Y-107266904D01*
X114163095Y-107362142D01*
X114210714Y-107409761D01*
X114305952Y-107457380D01*
X114401190Y-107457380D01*
X114496428Y-107409761D01*
X114544047Y-107362142D01*
X114591666Y-107266904D01*
X114639285Y-107076428D01*
X114639285Y-106838333D01*
X114591666Y-106647857D01*
X114544047Y-106552619D01*
X114496428Y-106505000D01*
X114401190Y-106457380D01*
X113448809Y-106457380D02*
X113353571Y-106457380D01*
X113258333Y-106505000D01*
X113210714Y-106552619D01*
X113163095Y-106647857D01*
X113115476Y-106838333D01*
X113115476Y-107076428D01*
X113163095Y-107266904D01*
X113210714Y-107362142D01*
X113258333Y-107409761D01*
X113353571Y-107457380D01*
X113448809Y-107457380D01*
X113544047Y-107409761D01*
X113591666Y-107362142D01*
X113639285Y-107266904D01*
X113686904Y-107076428D01*
X113686904Y-106838333D01*
X113639285Y-106647857D01*
X113591666Y-106552619D01*
X113544047Y-106505000D01*
X113448809Y-106457380D01*
X112686904Y-107457380D02*
X112686904Y-106457380D01*
X112686904Y-106933571D02*
X112115476Y-106933571D01*
X112115476Y-107457380D02*
X112115476Y-106457380D01*
X111782142Y-106457380D02*
X111448809Y-107457380D01*
X111115476Y-106457380D01*
X108002380Y-94701428D02*
X109002380Y-95034761D01*
X108002380Y-95368095D01*
X109002380Y-95844285D02*
X108954761Y-95749047D01*
X108907142Y-95701428D01*
X108811904Y-95653809D01*
X108526190Y-95653809D01*
X108430952Y-95701428D01*
X108383333Y-95749047D01*
X108335714Y-95844285D01*
X108335714Y-95987142D01*
X108383333Y-96082380D01*
X108430952Y-96130000D01*
X108526190Y-96177619D01*
X108811904Y-96177619D01*
X108907142Y-96130000D01*
X108954761Y-96082380D01*
X109002380Y-95987142D01*
X109002380Y-95844285D01*
X108335714Y-97034761D02*
X109002380Y-97034761D01*
X108335714Y-96606190D02*
X108859523Y-96606190D01*
X108954761Y-96653809D01*
X109002380Y-96749047D01*
X109002380Y-96891904D01*
X108954761Y-96987142D01*
X108907142Y-97034761D01*
X108335714Y-97368095D02*
X108335714Y-97749047D01*
X108002380Y-97510952D02*
X108859523Y-97510952D01*
X108954761Y-97558571D01*
X109002380Y-97653809D01*
X109002380Y-97749047D01*
X109383333Y-99130000D02*
X109335714Y-99082380D01*
X109192857Y-98987142D01*
X109097619Y-98939523D01*
X108954761Y-98891904D01*
X108716666Y-98844285D01*
X108526190Y-98844285D01*
X108288095Y-98891904D01*
X108145238Y-98939523D01*
X108050000Y-98987142D01*
X107907142Y-99082380D01*
X107859523Y-99130000D01*
X109002380Y-100034761D02*
X109002380Y-99463333D01*
X109002380Y-99749047D02*
X108002380Y-99749047D01*
X108145238Y-99653809D01*
X108240476Y-99558571D01*
X108288095Y-99463333D01*
X108002380Y-100368095D02*
X108002380Y-101034761D01*
X109002380Y-100606190D01*
X108002380Y-101606190D02*
X108002380Y-101701428D01*
X108050000Y-101796666D01*
X108097619Y-101844285D01*
X108192857Y-101891904D01*
X108383333Y-101939523D01*
X108621428Y-101939523D01*
X108811904Y-101891904D01*
X108907142Y-101844285D01*
X108954761Y-101796666D01*
X109002380Y-101701428D01*
X109002380Y-101606190D01*
X108954761Y-101510952D01*
X108907142Y-101463333D01*
X108811904Y-101415714D01*
X108621428Y-101368095D01*
X108383333Y-101368095D01*
X108192857Y-101415714D01*
X108097619Y-101463333D01*
X108050000Y-101510952D01*
X108002380Y-101606190D01*
X108002380Y-102225238D02*
X109002380Y-102558571D01*
X108002380Y-102891904D01*
X109383333Y-103130000D02*
X109335714Y-103177619D01*
X109192857Y-103272857D01*
X109097619Y-103320476D01*
X108954761Y-103368095D01*
X108716666Y-103415714D01*
X108526190Y-103415714D01*
X108288095Y-103368095D01*
X108145238Y-103320476D01*
X108050000Y-103272857D01*
X107907142Y-103177619D01*
X107859523Y-103130000D01*
X115800000Y-91237142D02*
X115752380Y-91141904D01*
X115752380Y-90999047D01*
X115800000Y-90856190D01*
X115895238Y-90760952D01*
X115990476Y-90713333D01*
X116180952Y-90665714D01*
X116323809Y-90665714D01*
X116514285Y-90713333D01*
X116609523Y-90760952D01*
X116704761Y-90856190D01*
X116752380Y-90999047D01*
X116752380Y-91094285D01*
X116704761Y-91237142D01*
X116657142Y-91284761D01*
X116323809Y-91284761D01*
X116323809Y-91094285D01*
X116085714Y-91713333D02*
X116752380Y-91713333D01*
X116180952Y-91713333D02*
X116133333Y-91760952D01*
X116085714Y-91856190D01*
X116085714Y-91999047D01*
X116133333Y-92094285D01*
X116228571Y-92141904D01*
X116752380Y-92141904D01*
X116752380Y-93046666D02*
X115752380Y-93046666D01*
X116704761Y-93046666D02*
X116752380Y-92951428D01*
X116752380Y-92760952D01*
X116704761Y-92665714D01*
X116657142Y-92618095D01*
X116561904Y-92570476D01*
X116276190Y-92570476D01*
X116180952Y-92618095D01*
X116133333Y-92665714D01*
X116085714Y-92760952D01*
X116085714Y-92951428D01*
X116133333Y-93046666D01*
X115800000Y-91237142D02*
X115752380Y-91141904D01*
X115752380Y-90999047D01*
X115800000Y-90856190D01*
X115895238Y-90760952D01*
X115990476Y-90713333D01*
X116180952Y-90665714D01*
X116323809Y-90665714D01*
X116514285Y-90713333D01*
X116609523Y-90760952D01*
X116704761Y-90856190D01*
X116752380Y-90999047D01*
X116752380Y-91094285D01*
X116704761Y-91237142D01*
X116657142Y-91284761D01*
X116323809Y-91284761D01*
X116323809Y-91094285D01*
X116085714Y-91713333D02*
X116752380Y-91713333D01*
X116180952Y-91713333D02*
X116133333Y-91760952D01*
X116085714Y-91856190D01*
X116085714Y-91999047D01*
X116133333Y-92094285D01*
X116228571Y-92141904D01*
X116752380Y-92141904D01*
X116752380Y-93046666D02*
X115752380Y-93046666D01*
X116704761Y-93046666D02*
X116752380Y-92951428D01*
X116752380Y-92760952D01*
X116704761Y-92665714D01*
X116657142Y-92618095D01*
X116561904Y-92570476D01*
X116276190Y-92570476D01*
X116180952Y-92618095D01*
X116133333Y-92665714D01*
X116085714Y-92760952D01*
X116085714Y-92951428D01*
X116133333Y-93046666D01*
X108002380Y-90606190D02*
X109002380Y-90939523D01*
X108002380Y-91272857D01*
X109002380Y-91606190D02*
X108335714Y-91606190D01*
X108002380Y-91606190D02*
X108050000Y-91558571D01*
X108097619Y-91606190D01*
X108050000Y-91653809D01*
X108002380Y-91606190D01*
X108097619Y-91606190D01*
X108335714Y-92082380D02*
X109002380Y-92082380D01*
X108430952Y-92082380D02*
X108383333Y-92130000D01*
X108335714Y-92225238D01*
X108335714Y-92368095D01*
X108383333Y-92463333D01*
X108478571Y-92510952D01*
X109002380Y-92510952D01*
X144901190Y-98957380D02*
X145377380Y-98957380D01*
X145377380Y-97957380D01*
X144567857Y-98957380D02*
X144567857Y-97957380D01*
X144234523Y-98671666D01*
X143901190Y-97957380D01*
X143901190Y-98957380D01*
X142901190Y-98957380D02*
X143472619Y-98957380D01*
X143186904Y-98957380D02*
X143186904Y-97957380D01*
X143282142Y-98100238D01*
X143377380Y-98195476D01*
X143472619Y-98243095D01*
X141948809Y-98957380D02*
X142520238Y-98957380D01*
X142234523Y-98957380D02*
X142234523Y-97957380D01*
X142329761Y-98100238D01*
X142425000Y-98195476D01*
X142520238Y-98243095D01*
X140996428Y-98957380D02*
X141567857Y-98957380D01*
X141282142Y-98957380D02*
X141282142Y-97957380D01*
X141377380Y-98100238D01*
X141472619Y-98195476D01*
X141567857Y-98243095D01*
X140663095Y-97957380D02*
X139996428Y-97957380D01*
X140425000Y-98957380D01*
X139615476Y-98576428D02*
X138853571Y-98576428D01*
X138472619Y-97957380D02*
X137853571Y-97957380D01*
X138186904Y-98338333D01*
X138044047Y-98338333D01*
X137948809Y-98385952D01*
X137901190Y-98433571D01*
X137853571Y-98528809D01*
X137853571Y-98766904D01*
X137901190Y-98862142D01*
X137948809Y-98909761D01*
X138044047Y-98957380D01*
X138329761Y-98957380D01*
X138425000Y-98909761D01*
X138472619Y-98862142D01*
X137425000Y-98862142D02*
X137377380Y-98909761D01*
X137425000Y-98957380D01*
X137472619Y-98909761D01*
X137425000Y-98862142D01*
X137425000Y-98957380D01*
X137044047Y-97957380D02*
X136425000Y-97957380D01*
X136758333Y-98338333D01*
X136615476Y-98338333D01*
X136520238Y-98385952D01*
X136472619Y-98433571D01*
X136425000Y-98528809D01*
X136425000Y-98766904D01*
X136472619Y-98862142D01*
X136520238Y-98909761D01*
X136615476Y-98957380D01*
X136901190Y-98957380D01*
X136996428Y-98909761D01*
X137044047Y-98862142D01*
X144151190Y-111027380D02*
X144151190Y-110027380D01*
X144151190Y-110503571D02*
X143579761Y-110503571D01*
X143579761Y-111027380D02*
X143579761Y-110027380D01*
X143246428Y-110027380D02*
X142913095Y-111027380D01*
X142579761Y-110027380D01*
X141151190Y-110503571D02*
X141008333Y-110551190D01*
X140960714Y-110598809D01*
X140913095Y-110694047D01*
X140913095Y-110836904D01*
X140960714Y-110932142D01*
X141008333Y-110979761D01*
X141103571Y-111027380D01*
X141484523Y-111027380D01*
X141484523Y-110027380D01*
X141151190Y-110027380D01*
X141055952Y-110075000D01*
X141008333Y-110122619D01*
X140960714Y-110217857D01*
X140960714Y-110313095D01*
X141008333Y-110408333D01*
X141055952Y-110455952D01*
X141151190Y-110503571D01*
X141484523Y-110503571D01*
X140484523Y-111027380D02*
X140484523Y-110360714D01*
X140484523Y-110551190D02*
X140436904Y-110455952D01*
X140389285Y-110408333D01*
X140294047Y-110360714D01*
X140198809Y-110360714D01*
X139865476Y-111027380D02*
X139865476Y-110360714D01*
X139865476Y-110027380D02*
X139913095Y-110075000D01*
X139865476Y-110122619D01*
X139817857Y-110075000D01*
X139865476Y-110027380D01*
X139865476Y-110122619D01*
X138960714Y-111027380D02*
X138960714Y-110027380D01*
X138960714Y-110979761D02*
X139055952Y-111027380D01*
X139246428Y-111027380D01*
X139341666Y-110979761D01*
X139389285Y-110932142D01*
X139436904Y-110836904D01*
X139436904Y-110551190D01*
X139389285Y-110455952D01*
X139341666Y-110408333D01*
X139246428Y-110360714D01*
X139055952Y-110360714D01*
X138960714Y-110408333D01*
X138055952Y-110360714D02*
X138055952Y-111170238D01*
X138103571Y-111265476D01*
X138151190Y-111313095D01*
X138246428Y-111360714D01*
X138389285Y-111360714D01*
X138484523Y-111313095D01*
X138055952Y-110979761D02*
X138151190Y-111027380D01*
X138341666Y-111027380D01*
X138436904Y-110979761D01*
X138484523Y-110932142D01*
X138532142Y-110836904D01*
X138532142Y-110551190D01*
X138484523Y-110455952D01*
X138436904Y-110408333D01*
X138341666Y-110360714D01*
X138151190Y-110360714D01*
X138055952Y-110408333D01*
X137198809Y-110979761D02*
X137294047Y-111027380D01*
X137484523Y-111027380D01*
X137579761Y-110979761D01*
X137627380Y-110884523D01*
X137627380Y-110503571D01*
X137579761Y-110408333D01*
X137484523Y-110360714D01*
X137294047Y-110360714D01*
X137198809Y-110408333D01*
X137151190Y-110503571D01*
X137151190Y-110598809D01*
X137627380Y-110694047D01*
X132807380Y-102362142D02*
X132807380Y-101790714D01*
X132807380Y-102076428D02*
X131807380Y-102076428D01*
X131950238Y-101981190D01*
X132045476Y-101885952D01*
X132093095Y-101790714D01*
X131807380Y-102981190D02*
X131807380Y-103076428D01*
X131855000Y-103171666D01*
X131902619Y-103219285D01*
X131997857Y-103266904D01*
X132188333Y-103314523D01*
X132426428Y-103314523D01*
X132616904Y-103266904D01*
X132712142Y-103219285D01*
X132759761Y-103171666D01*
X132807380Y-103076428D01*
X132807380Y-102981190D01*
X132759761Y-102885952D01*
X132712142Y-102838333D01*
X132616904Y-102790714D01*
X132426428Y-102743095D01*
X132188333Y-102743095D01*
X131997857Y-102790714D01*
X131902619Y-102838333D01*
X131855000Y-102885952D01*
X131807380Y-102981190D01*
X132140714Y-104171666D02*
X132807380Y-104171666D01*
X132140714Y-103743095D02*
X132664523Y-103743095D01*
X132759761Y-103790714D01*
X132807380Y-103885952D01*
X132807380Y-104028809D01*
X132759761Y-104124047D01*
X132712142Y-104171666D01*
X149377380Y-105612142D02*
X149377380Y-105040714D01*
X149377380Y-105326428D02*
X148377380Y-105326428D01*
X148520238Y-105231190D01*
X148615476Y-105135952D01*
X148663095Y-105040714D01*
X148377380Y-106231190D02*
X148377380Y-106326428D01*
X148425000Y-106421666D01*
X148472619Y-106469285D01*
X148567857Y-106516904D01*
X148758333Y-106564523D01*
X148996428Y-106564523D01*
X149186904Y-106516904D01*
X149282142Y-106469285D01*
X149329761Y-106421666D01*
X149377380Y-106326428D01*
X149377380Y-106231190D01*
X149329761Y-106135952D01*
X149282142Y-106088333D01*
X149186904Y-106040714D01*
X148996428Y-105993095D01*
X148758333Y-105993095D01*
X148567857Y-106040714D01*
X148472619Y-106088333D01*
X148425000Y-106135952D01*
X148377380Y-106231190D01*
X148710714Y-107421666D02*
X149377380Y-107421666D01*
X148710714Y-106993095D02*
X149234523Y-106993095D01*
X149329761Y-107040714D01*
X149377380Y-107135952D01*
X149377380Y-107278809D01*
X149329761Y-107374047D01*
X149282142Y-107421666D01*
X106124047Y-112957380D02*
X106600238Y-112957380D01*
X106647857Y-113433571D01*
X106600238Y-113385952D01*
X106505000Y-113338333D01*
X106266904Y-113338333D01*
X106171666Y-113385952D01*
X106124047Y-113433571D01*
X106076428Y-113528809D01*
X106076428Y-113766904D01*
X106124047Y-113862142D01*
X106171666Y-113909761D01*
X106266904Y-113957380D01*
X106505000Y-113957380D01*
X106600238Y-113909761D01*
X106647857Y-113862142D01*
X105171666Y-112957380D02*
X105647857Y-112957380D01*
X105695476Y-113433571D01*
X105647857Y-113385952D01*
X105552619Y-113338333D01*
X105314523Y-113338333D01*
X105219285Y-113385952D01*
X105171666Y-113433571D01*
X105124047Y-113528809D01*
X105124047Y-113766904D01*
X105171666Y-113862142D01*
X105219285Y-113909761D01*
X105314523Y-113957380D01*
X105552619Y-113957380D01*
X105647857Y-113909761D01*
X105695476Y-113862142D01*
X104505000Y-112957380D02*
X104409761Y-112957380D01*
X104314523Y-113005000D01*
X104266904Y-113052619D01*
X104219285Y-113147857D01*
X104171666Y-113338333D01*
X104171666Y-113576428D01*
X104219285Y-113766904D01*
X104266904Y-113862142D01*
X104314523Y-113909761D01*
X104409761Y-113957380D01*
X104505000Y-113957380D01*
X104600238Y-113909761D01*
X104647857Y-113862142D01*
X104695476Y-113766904D01*
X104743095Y-113576428D01*
X104743095Y-113338333D01*
X104695476Y-113147857D01*
X104647857Y-113052619D01*
X104600238Y-113005000D01*
X104505000Y-112957380D01*
X103743095Y-113957380D02*
X103743095Y-112957380D01*
X103647857Y-113576428D02*
X103362142Y-113957380D01*
X103362142Y-113290714D02*
X103743095Y-113671666D01*
X118714047Y-112957380D02*
X119190238Y-112957380D01*
X119237857Y-113433571D01*
X119190238Y-113385952D01*
X119095000Y-113338333D01*
X118856904Y-113338333D01*
X118761666Y-113385952D01*
X118714047Y-113433571D01*
X118666428Y-113528809D01*
X118666428Y-113766904D01*
X118714047Y-113862142D01*
X118761666Y-113909761D01*
X118856904Y-113957380D01*
X119095000Y-113957380D01*
X119190238Y-113909761D01*
X119237857Y-113862142D01*
X117761666Y-112957380D02*
X118237857Y-112957380D01*
X118285476Y-113433571D01*
X118237857Y-113385952D01*
X118142619Y-113338333D01*
X117904523Y-113338333D01*
X117809285Y-113385952D01*
X117761666Y-113433571D01*
X117714047Y-113528809D01*
X117714047Y-113766904D01*
X117761666Y-113862142D01*
X117809285Y-113909761D01*
X117904523Y-113957380D01*
X118142619Y-113957380D01*
X118237857Y-113909761D01*
X118285476Y-113862142D01*
X117095000Y-112957380D02*
X116999761Y-112957380D01*
X116904523Y-113005000D01*
X116856904Y-113052619D01*
X116809285Y-113147857D01*
X116761666Y-113338333D01*
X116761666Y-113576428D01*
X116809285Y-113766904D01*
X116856904Y-113862142D01*
X116904523Y-113909761D01*
X116999761Y-113957380D01*
X117095000Y-113957380D01*
X117190238Y-113909761D01*
X117237857Y-113862142D01*
X117285476Y-113766904D01*
X117333095Y-113576428D01*
X117333095Y-113338333D01*
X117285476Y-113147857D01*
X117237857Y-113052619D01*
X117190238Y-113005000D01*
X117095000Y-112957380D01*
X116333095Y-113957380D02*
X116333095Y-112957380D01*
X116237857Y-113576428D02*
X115952142Y-113957380D01*
X115952142Y-113290714D02*
X116333095Y-113671666D01*
X164874047Y-112957380D02*
X165350238Y-112957380D01*
X165397857Y-113433571D01*
X165350238Y-113385952D01*
X165255000Y-113338333D01*
X165016904Y-113338333D01*
X164921666Y-113385952D01*
X164874047Y-113433571D01*
X164826428Y-113528809D01*
X164826428Y-113766904D01*
X164874047Y-113862142D01*
X164921666Y-113909761D01*
X165016904Y-113957380D01*
X165255000Y-113957380D01*
X165350238Y-113909761D01*
X165397857Y-113862142D01*
X163921666Y-112957380D02*
X164397857Y-112957380D01*
X164445476Y-113433571D01*
X164397857Y-113385952D01*
X164302619Y-113338333D01*
X164064523Y-113338333D01*
X163969285Y-113385952D01*
X163921666Y-113433571D01*
X163874047Y-113528809D01*
X163874047Y-113766904D01*
X163921666Y-113862142D01*
X163969285Y-113909761D01*
X164064523Y-113957380D01*
X164302619Y-113957380D01*
X164397857Y-113909761D01*
X164445476Y-113862142D01*
X163255000Y-112957380D02*
X163159761Y-112957380D01*
X163064523Y-113005000D01*
X163016904Y-113052619D01*
X162969285Y-113147857D01*
X162921666Y-113338333D01*
X162921666Y-113576428D01*
X162969285Y-113766904D01*
X163016904Y-113862142D01*
X163064523Y-113909761D01*
X163159761Y-113957380D01*
X163255000Y-113957380D01*
X163350238Y-113909761D01*
X163397857Y-113862142D01*
X163445476Y-113766904D01*
X163493095Y-113576428D01*
X163493095Y-113338333D01*
X163445476Y-113147857D01*
X163397857Y-113052619D01*
X163350238Y-113005000D01*
X163255000Y-112957380D01*
X162493095Y-113957380D02*
X162493095Y-112957380D01*
X162397857Y-113576428D02*
X162112142Y-113957380D01*
X162112142Y-113290714D02*
X162493095Y-113671666D01*
X177464047Y-112957380D02*
X177940238Y-112957380D01*
X177987857Y-113433571D01*
X177940238Y-113385952D01*
X177845000Y-113338333D01*
X177606904Y-113338333D01*
X177511666Y-113385952D01*
X177464047Y-113433571D01*
X177416428Y-113528809D01*
X177416428Y-113766904D01*
X177464047Y-113862142D01*
X177511666Y-113909761D01*
X177606904Y-113957380D01*
X177845000Y-113957380D01*
X177940238Y-113909761D01*
X177987857Y-113862142D01*
X176511666Y-112957380D02*
X176987857Y-112957380D01*
X177035476Y-113433571D01*
X176987857Y-113385952D01*
X176892619Y-113338333D01*
X176654523Y-113338333D01*
X176559285Y-113385952D01*
X176511666Y-113433571D01*
X176464047Y-113528809D01*
X176464047Y-113766904D01*
X176511666Y-113862142D01*
X176559285Y-113909761D01*
X176654523Y-113957380D01*
X176892619Y-113957380D01*
X176987857Y-113909761D01*
X177035476Y-113862142D01*
X175845000Y-112957380D02*
X175749761Y-112957380D01*
X175654523Y-113005000D01*
X175606904Y-113052619D01*
X175559285Y-113147857D01*
X175511666Y-113338333D01*
X175511666Y-113576428D01*
X175559285Y-113766904D01*
X175606904Y-113862142D01*
X175654523Y-113909761D01*
X175749761Y-113957380D01*
X175845000Y-113957380D01*
X175940238Y-113909761D01*
X175987857Y-113862142D01*
X176035476Y-113766904D01*
X176083095Y-113576428D01*
X176083095Y-113338333D01*
X176035476Y-113147857D01*
X175987857Y-113052619D01*
X175940238Y-113005000D01*
X175845000Y-112957380D01*
X175083095Y-113957380D02*
X175083095Y-112957380D01*
X174987857Y-113576428D02*
X174702142Y-113957380D01*
X174702142Y-113290714D02*
X175083095Y-113671666D01*
M02*
