M48
INCH,TZ
T1C0.0157
T2C0.0256
T3C0.0315
T4C0.0394
T5C0.0433
T6C0.1063
%
G90
G05
T1
X49281Y-34451
X49301Y-35553
X50053Y-39146
X52825Y-41104
X54341Y-40553
X55285Y-38683
X55315Y-40442
X56663Y-40553
X61080Y-41700
X62510Y-36774
X67392Y-42325
X67943Y-36774
X67982Y-42226
X73297Y-36715
T2
X58778Y-34923
X58778Y-35423
X59278Y-34923
X59278Y-35423
X59778Y-34923
X59778Y-35423
X60278Y-34923
X60278Y-35423
X60778Y-34923
X60778Y-35423
T3
X70093Y-35537
X71093Y-34537
X71093Y-36537
X67427Y-44687
X71427Y-44687
X62470Y-44687
X66470Y-44687
X53715Y-35537
X54715Y-34537
X54715Y-36537
X44297Y-44687
X48297Y-44687
X39719Y-35518
X40719Y-34518
X40719Y-36518
X55959Y-35518
X56959Y-34518
X56959Y-36518
X39341Y-44687
X43341Y-44687
T4
X39370Y-43110
X40620Y-43110
X41870Y-43110
X69596Y-37955
X70596Y-37955
X71596Y-37955
X68898Y-43110
X70148Y-43110
X71398Y-43110
X52234Y-34844
X52234Y-35844
X39211Y-37600
X40211Y-37600
X41211Y-37600
X36220Y-44272
X52431Y-37896
X53431Y-37896
X54431Y-37896
X49213Y-43110
X50463Y-43110
X51713Y-43110
X74577Y-34254
X74577Y-35254
X74577Y-36254
X74577Y-37254
X36683Y-39372
X36683Y-40372
X36683Y-41372
X36683Y-42372
X74085Y-39372
X74085Y-40372
X74085Y-41372
X74085Y-42372
X36191Y-34254
X36191Y-35254
X36191Y-36254
X36191Y-37254
X56337Y-37640
X57337Y-37640
X58337Y-37640
X59055Y-43110
X60305Y-43110
X61555Y-43110
X74577Y-44272
T5
X62421Y-35189
X62421Y-41189
X65421Y-35189
X67421Y-41189
X42736Y-35189
X42736Y-41189
X45736Y-35189
X47736Y-41189
T6
X50659Y-37404
X50659Y-40553
X60108Y-37404
X60108Y-40553
T0
M30
