G04 #@! TF.GenerationSoftware,KiCad,Pcbnew,(5.1.5-0-10_14)*
G04 #@! TF.CreationDate,2020-01-15T18:19:52+08:00*
G04 #@! TF.ProjectId,vumeter-schematics,76756d65-7465-4722-9d73-6368656d6174,rev?*
G04 #@! TF.SameCoordinates,Original*
G04 #@! TF.FileFunction,Soldermask,Top*
G04 #@! TF.FilePolarity,Negative*
%FSLAX46Y46*%
G04 Gerber Fmt 4.6, Leading zero omitted, Abs format (unit mm)*
G04 Created by KiCad (PCBNEW (5.1.5-0-10_14)) date 2020-01-15 18:19:52*
%MOMM*%
%LPD*%
G04 APERTURE LIST*
%ADD10C,0.100000*%
G04 APERTURE END LIST*
D10*
G36*
X181673228Y-112686703D02*
G01*
X181828100Y-112750853D01*
X181967481Y-112843985D01*
X182086015Y-112962519D01*
X182179147Y-113101900D01*
X182243297Y-113256772D01*
X182276000Y-113421184D01*
X182276000Y-113588816D01*
X182243297Y-113753228D01*
X182179147Y-113908100D01*
X182086015Y-114047481D01*
X181967481Y-114166015D01*
X181828100Y-114259147D01*
X181673228Y-114323297D01*
X181508816Y-114356000D01*
X181341184Y-114356000D01*
X181176772Y-114323297D01*
X181021900Y-114259147D01*
X180882519Y-114166015D01*
X180763985Y-114047481D01*
X180670853Y-113908100D01*
X180606703Y-113753228D01*
X180574000Y-113588816D01*
X180574000Y-113421184D01*
X180606703Y-113256772D01*
X180670853Y-113101900D01*
X180763985Y-112962519D01*
X180882519Y-112843985D01*
X181021900Y-112750853D01*
X181176772Y-112686703D01*
X181341184Y-112654000D01*
X181508816Y-112654000D01*
X181673228Y-112686703D01*
G37*
G36*
X171513228Y-112686703D02*
G01*
X171668100Y-112750853D01*
X171807481Y-112843985D01*
X171926015Y-112962519D01*
X172019147Y-113101900D01*
X172083297Y-113256772D01*
X172116000Y-113421184D01*
X172116000Y-113588816D01*
X172083297Y-113753228D01*
X172019147Y-113908100D01*
X171926015Y-114047481D01*
X171807481Y-114166015D01*
X171668100Y-114259147D01*
X171513228Y-114323297D01*
X171348816Y-114356000D01*
X171181184Y-114356000D01*
X171016772Y-114323297D01*
X170861900Y-114259147D01*
X170722519Y-114166015D01*
X170603985Y-114047481D01*
X170510853Y-113908100D01*
X170446703Y-113753228D01*
X170414000Y-113588816D01*
X170414000Y-113421184D01*
X170446703Y-113256772D01*
X170510853Y-113101900D01*
X170603985Y-112962519D01*
X170722519Y-112843985D01*
X170861900Y-112750853D01*
X171016772Y-112686703D01*
X171181184Y-112654000D01*
X171348816Y-112654000D01*
X171513228Y-112686703D01*
G37*
G36*
X169083228Y-112686703D02*
G01*
X169238100Y-112750853D01*
X169377481Y-112843985D01*
X169496015Y-112962519D01*
X169589147Y-113101900D01*
X169653297Y-113256772D01*
X169686000Y-113421184D01*
X169686000Y-113588816D01*
X169653297Y-113753228D01*
X169589147Y-113908100D01*
X169496015Y-114047481D01*
X169377481Y-114166015D01*
X169238100Y-114259147D01*
X169083228Y-114323297D01*
X168918816Y-114356000D01*
X168751184Y-114356000D01*
X168586772Y-114323297D01*
X168431900Y-114259147D01*
X168292519Y-114166015D01*
X168173985Y-114047481D01*
X168080853Y-113908100D01*
X168016703Y-113753228D01*
X167984000Y-113588816D01*
X167984000Y-113421184D01*
X168016703Y-113256772D01*
X168080853Y-113101900D01*
X168173985Y-112962519D01*
X168292519Y-112843985D01*
X168431900Y-112750853D01*
X168586772Y-112686703D01*
X168751184Y-112654000D01*
X168918816Y-112654000D01*
X169083228Y-112686703D01*
G37*
G36*
X158923228Y-112686703D02*
G01*
X159078100Y-112750853D01*
X159217481Y-112843985D01*
X159336015Y-112962519D01*
X159429147Y-113101900D01*
X159493297Y-113256772D01*
X159526000Y-113421184D01*
X159526000Y-113588816D01*
X159493297Y-113753228D01*
X159429147Y-113908100D01*
X159336015Y-114047481D01*
X159217481Y-114166015D01*
X159078100Y-114259147D01*
X158923228Y-114323297D01*
X158758816Y-114356000D01*
X158591184Y-114356000D01*
X158426772Y-114323297D01*
X158271900Y-114259147D01*
X158132519Y-114166015D01*
X158013985Y-114047481D01*
X157920853Y-113908100D01*
X157856703Y-113753228D01*
X157824000Y-113588816D01*
X157824000Y-113421184D01*
X157856703Y-113256772D01*
X157920853Y-113101900D01*
X158013985Y-112962519D01*
X158132519Y-112843985D01*
X158271900Y-112750853D01*
X158426772Y-112686703D01*
X158591184Y-112654000D01*
X158758816Y-112654000D01*
X158923228Y-112686703D01*
G37*
G36*
X122923228Y-112686703D02*
G01*
X123078100Y-112750853D01*
X123217481Y-112843985D01*
X123336015Y-112962519D01*
X123429147Y-113101900D01*
X123493297Y-113256772D01*
X123526000Y-113421184D01*
X123526000Y-113588816D01*
X123493297Y-113753228D01*
X123429147Y-113908100D01*
X123336015Y-114047481D01*
X123217481Y-114166015D01*
X123078100Y-114259147D01*
X122923228Y-114323297D01*
X122758816Y-114356000D01*
X122591184Y-114356000D01*
X122426772Y-114323297D01*
X122271900Y-114259147D01*
X122132519Y-114166015D01*
X122013985Y-114047481D01*
X121920853Y-113908100D01*
X121856703Y-113753228D01*
X121824000Y-113588816D01*
X121824000Y-113421184D01*
X121856703Y-113256772D01*
X121920853Y-113101900D01*
X122013985Y-112962519D01*
X122132519Y-112843985D01*
X122271900Y-112750853D01*
X122426772Y-112686703D01*
X122591184Y-112654000D01*
X122758816Y-112654000D01*
X122923228Y-112686703D01*
G37*
G36*
X112763228Y-112686703D02*
G01*
X112918100Y-112750853D01*
X113057481Y-112843985D01*
X113176015Y-112962519D01*
X113269147Y-113101900D01*
X113333297Y-113256772D01*
X113366000Y-113421184D01*
X113366000Y-113588816D01*
X113333297Y-113753228D01*
X113269147Y-113908100D01*
X113176015Y-114047481D01*
X113057481Y-114166015D01*
X112918100Y-114259147D01*
X112763228Y-114323297D01*
X112598816Y-114356000D01*
X112431184Y-114356000D01*
X112266772Y-114323297D01*
X112111900Y-114259147D01*
X111972519Y-114166015D01*
X111853985Y-114047481D01*
X111760853Y-113908100D01*
X111696703Y-113753228D01*
X111664000Y-113588816D01*
X111664000Y-113421184D01*
X111696703Y-113256772D01*
X111760853Y-113101900D01*
X111853985Y-112962519D01*
X111972519Y-112843985D01*
X112111900Y-112750853D01*
X112266772Y-112686703D01*
X112431184Y-112654000D01*
X112598816Y-112654000D01*
X112763228Y-112686703D01*
G37*
G36*
X110333228Y-112686703D02*
G01*
X110488100Y-112750853D01*
X110627481Y-112843985D01*
X110746015Y-112962519D01*
X110839147Y-113101900D01*
X110903297Y-113256772D01*
X110936000Y-113421184D01*
X110936000Y-113588816D01*
X110903297Y-113753228D01*
X110839147Y-113908100D01*
X110746015Y-114047481D01*
X110627481Y-114166015D01*
X110488100Y-114259147D01*
X110333228Y-114323297D01*
X110168816Y-114356000D01*
X110001184Y-114356000D01*
X109836772Y-114323297D01*
X109681900Y-114259147D01*
X109542519Y-114166015D01*
X109423985Y-114047481D01*
X109330853Y-113908100D01*
X109266703Y-113753228D01*
X109234000Y-113588816D01*
X109234000Y-113421184D01*
X109266703Y-113256772D01*
X109330853Y-113101900D01*
X109423985Y-112962519D01*
X109542519Y-112843985D01*
X109681900Y-112750853D01*
X109836772Y-112686703D01*
X110001184Y-112654000D01*
X110168816Y-112654000D01*
X110333228Y-112686703D01*
G37*
G36*
X100173228Y-112686703D02*
G01*
X100328100Y-112750853D01*
X100467481Y-112843985D01*
X100586015Y-112962519D01*
X100679147Y-113101900D01*
X100743297Y-113256772D01*
X100776000Y-113421184D01*
X100776000Y-113588816D01*
X100743297Y-113753228D01*
X100679147Y-113908100D01*
X100586015Y-114047481D01*
X100467481Y-114166015D01*
X100328100Y-114259147D01*
X100173228Y-114323297D01*
X100008816Y-114356000D01*
X99841184Y-114356000D01*
X99676772Y-114323297D01*
X99521900Y-114259147D01*
X99382519Y-114166015D01*
X99263985Y-114047481D01*
X99170853Y-113908100D01*
X99106703Y-113753228D01*
X99074000Y-113588816D01*
X99074000Y-113421184D01*
X99106703Y-113256772D01*
X99170853Y-113101900D01*
X99263985Y-112962519D01*
X99382519Y-112843985D01*
X99521900Y-112750853D01*
X99676772Y-112686703D01*
X99841184Y-112654000D01*
X100008816Y-112654000D01*
X100173228Y-112686703D01*
G37*
G36*
X92900000Y-113352000D02*
G01*
X91098000Y-113352000D01*
X91098000Y-111550000D01*
X92900000Y-111550000D01*
X92900000Y-113352000D01*
G37*
G36*
X190326000Y-113352000D02*
G01*
X188524000Y-113352000D01*
X188524000Y-111550000D01*
X190326000Y-111550000D01*
X190326000Y-113352000D01*
G37*
G36*
X103331384Y-108713802D02*
G01*
X103408818Y-108729205D01*
X103554700Y-108789631D01*
X103685990Y-108877356D01*
X103797644Y-108989010D01*
X103885369Y-109120300D01*
X103945795Y-109266182D01*
X103976600Y-109421049D01*
X103976600Y-109578951D01*
X103945795Y-109733818D01*
X103885369Y-109879700D01*
X103797644Y-110010990D01*
X103685990Y-110122644D01*
X103554700Y-110210369D01*
X103408818Y-110270795D01*
X103331385Y-110286197D01*
X103253952Y-110301600D01*
X103096048Y-110301600D01*
X103018615Y-110286197D01*
X102941182Y-110270795D01*
X102795300Y-110210369D01*
X102664010Y-110122644D01*
X102552356Y-110010990D01*
X102464631Y-109879700D01*
X102404205Y-109733818D01*
X102373400Y-109578951D01*
X102373400Y-109421049D01*
X102404205Y-109266182D01*
X102464631Y-109120300D01*
X102552356Y-108989010D01*
X102664010Y-108877356D01*
X102795300Y-108789631D01*
X102941182Y-108729205D01*
X103018616Y-108713802D01*
X103096048Y-108698400D01*
X103253952Y-108698400D01*
X103331384Y-108713802D01*
G37*
G36*
X100156384Y-108713802D02*
G01*
X100233818Y-108729205D01*
X100379700Y-108789631D01*
X100510990Y-108877356D01*
X100622644Y-108989010D01*
X100710369Y-109120300D01*
X100770795Y-109266182D01*
X100801600Y-109421049D01*
X100801600Y-109578951D01*
X100770795Y-109733818D01*
X100710369Y-109879700D01*
X100622644Y-110010990D01*
X100510990Y-110122644D01*
X100379700Y-110210369D01*
X100233818Y-110270795D01*
X100156385Y-110286197D01*
X100078952Y-110301600D01*
X99921048Y-110301600D01*
X99843615Y-110286197D01*
X99766182Y-110270795D01*
X99620300Y-110210369D01*
X99489010Y-110122644D01*
X99377356Y-110010990D01*
X99289631Y-109879700D01*
X99229205Y-109733818D01*
X99198400Y-109578951D01*
X99198400Y-109421049D01*
X99229205Y-109266182D01*
X99289631Y-109120300D01*
X99377356Y-108989010D01*
X99489010Y-108877356D01*
X99620300Y-108789631D01*
X99766182Y-108729205D01*
X99843616Y-108713802D01*
X99921048Y-108698400D01*
X100078952Y-108698400D01*
X100156384Y-108713802D01*
G37*
G36*
X106506384Y-108713802D02*
G01*
X106583818Y-108729205D01*
X106729700Y-108789631D01*
X106860990Y-108877356D01*
X106972644Y-108989010D01*
X107060369Y-109120300D01*
X107120795Y-109266182D01*
X107151600Y-109421049D01*
X107151600Y-109578951D01*
X107120795Y-109733818D01*
X107060369Y-109879700D01*
X106972644Y-110010990D01*
X106860990Y-110122644D01*
X106729700Y-110210369D01*
X106583818Y-110270795D01*
X106506385Y-110286197D01*
X106428952Y-110301600D01*
X106271048Y-110301600D01*
X106193615Y-110286197D01*
X106116182Y-110270795D01*
X105970300Y-110210369D01*
X105839010Y-110122644D01*
X105727356Y-110010990D01*
X105639631Y-109879700D01*
X105579205Y-109733818D01*
X105548400Y-109578951D01*
X105548400Y-109421049D01*
X105579205Y-109266182D01*
X105639631Y-109120300D01*
X105727356Y-108989010D01*
X105839010Y-108877356D01*
X105970300Y-108789631D01*
X106116182Y-108729205D01*
X106193616Y-108713802D01*
X106271048Y-108698400D01*
X106428952Y-108698400D01*
X106506384Y-108713802D01*
G37*
G36*
X125156384Y-108713802D02*
G01*
X125233818Y-108729205D01*
X125379700Y-108789631D01*
X125510990Y-108877356D01*
X125622644Y-108989010D01*
X125710369Y-109120300D01*
X125770795Y-109266182D01*
X125801600Y-109421049D01*
X125801600Y-109578951D01*
X125770795Y-109733818D01*
X125710369Y-109879700D01*
X125622644Y-110010990D01*
X125510990Y-110122644D01*
X125379700Y-110210369D01*
X125233818Y-110270795D01*
X125156385Y-110286197D01*
X125078952Y-110301600D01*
X124921048Y-110301600D01*
X124843615Y-110286197D01*
X124766182Y-110270795D01*
X124620300Y-110210369D01*
X124489010Y-110122644D01*
X124377356Y-110010990D01*
X124289631Y-109879700D01*
X124229205Y-109733818D01*
X124198400Y-109578951D01*
X124198400Y-109421049D01*
X124229205Y-109266182D01*
X124289631Y-109120300D01*
X124377356Y-108989010D01*
X124489010Y-108877356D01*
X124620300Y-108789631D01*
X124766182Y-108729205D01*
X124843616Y-108713802D01*
X124921048Y-108698400D01*
X125078952Y-108698400D01*
X125156384Y-108713802D01*
G37*
G36*
X128331384Y-108713802D02*
G01*
X128408818Y-108729205D01*
X128554700Y-108789631D01*
X128685990Y-108877356D01*
X128797644Y-108989010D01*
X128885369Y-109120300D01*
X128945795Y-109266182D01*
X128976600Y-109421049D01*
X128976600Y-109578951D01*
X128945795Y-109733818D01*
X128885369Y-109879700D01*
X128797644Y-110010990D01*
X128685990Y-110122644D01*
X128554700Y-110210369D01*
X128408818Y-110270795D01*
X128331385Y-110286197D01*
X128253952Y-110301600D01*
X128096048Y-110301600D01*
X128018615Y-110286197D01*
X127941182Y-110270795D01*
X127795300Y-110210369D01*
X127664010Y-110122644D01*
X127552356Y-110010990D01*
X127464631Y-109879700D01*
X127404205Y-109733818D01*
X127373400Y-109578951D01*
X127373400Y-109421049D01*
X127404205Y-109266182D01*
X127464631Y-109120300D01*
X127552356Y-108989010D01*
X127664010Y-108877356D01*
X127795300Y-108789631D01*
X127941182Y-108729205D01*
X128018616Y-108713802D01*
X128096048Y-108698400D01*
X128253952Y-108698400D01*
X128331384Y-108713802D01*
G37*
G36*
X131506384Y-108713802D02*
G01*
X131583818Y-108729205D01*
X131729700Y-108789631D01*
X131860990Y-108877356D01*
X131972644Y-108989010D01*
X132060369Y-109120300D01*
X132120795Y-109266182D01*
X132151600Y-109421049D01*
X132151600Y-109578951D01*
X132120795Y-109733818D01*
X132060369Y-109879700D01*
X131972644Y-110010990D01*
X131860990Y-110122644D01*
X131729700Y-110210369D01*
X131583818Y-110270795D01*
X131506385Y-110286197D01*
X131428952Y-110301600D01*
X131271048Y-110301600D01*
X131193615Y-110286197D01*
X131116182Y-110270795D01*
X130970300Y-110210369D01*
X130839010Y-110122644D01*
X130727356Y-110010990D01*
X130639631Y-109879700D01*
X130579205Y-109733818D01*
X130548400Y-109578951D01*
X130548400Y-109421049D01*
X130579205Y-109266182D01*
X130639631Y-109120300D01*
X130727356Y-108989010D01*
X130839010Y-108877356D01*
X130970300Y-108789631D01*
X131116182Y-108729205D01*
X131193616Y-108713802D01*
X131271048Y-108698400D01*
X131428952Y-108698400D01*
X131506384Y-108713802D01*
G37*
G36*
X150156384Y-108713802D02*
G01*
X150233818Y-108729205D01*
X150379700Y-108789631D01*
X150510990Y-108877356D01*
X150622644Y-108989010D01*
X150710369Y-109120300D01*
X150770795Y-109266182D01*
X150801600Y-109421049D01*
X150801600Y-109578951D01*
X150770795Y-109733818D01*
X150710369Y-109879700D01*
X150622644Y-110010990D01*
X150510990Y-110122644D01*
X150379700Y-110210369D01*
X150233818Y-110270795D01*
X150156385Y-110286197D01*
X150078952Y-110301600D01*
X149921048Y-110301600D01*
X149843615Y-110286197D01*
X149766182Y-110270795D01*
X149620300Y-110210369D01*
X149489010Y-110122644D01*
X149377356Y-110010990D01*
X149289631Y-109879700D01*
X149229205Y-109733818D01*
X149198400Y-109578951D01*
X149198400Y-109421049D01*
X149229205Y-109266182D01*
X149289631Y-109120300D01*
X149377356Y-108989010D01*
X149489010Y-108877356D01*
X149620300Y-108789631D01*
X149766182Y-108729205D01*
X149843616Y-108713802D01*
X149921048Y-108698400D01*
X150078952Y-108698400D01*
X150156384Y-108713802D01*
G37*
G36*
X153331384Y-108713802D02*
G01*
X153408818Y-108729205D01*
X153554700Y-108789631D01*
X153685990Y-108877356D01*
X153797644Y-108989010D01*
X153885369Y-109120300D01*
X153945795Y-109266182D01*
X153976600Y-109421049D01*
X153976600Y-109578951D01*
X153945795Y-109733818D01*
X153885369Y-109879700D01*
X153797644Y-110010990D01*
X153685990Y-110122644D01*
X153554700Y-110210369D01*
X153408818Y-110270795D01*
X153331385Y-110286197D01*
X153253952Y-110301600D01*
X153096048Y-110301600D01*
X153018615Y-110286197D01*
X152941182Y-110270795D01*
X152795300Y-110210369D01*
X152664010Y-110122644D01*
X152552356Y-110010990D01*
X152464631Y-109879700D01*
X152404205Y-109733818D01*
X152373400Y-109578951D01*
X152373400Y-109421049D01*
X152404205Y-109266182D01*
X152464631Y-109120300D01*
X152552356Y-108989010D01*
X152664010Y-108877356D01*
X152795300Y-108789631D01*
X152941182Y-108729205D01*
X153018616Y-108713802D01*
X153096048Y-108698400D01*
X153253952Y-108698400D01*
X153331384Y-108713802D01*
G37*
G36*
X156506384Y-108713802D02*
G01*
X156583818Y-108729205D01*
X156729700Y-108789631D01*
X156860990Y-108877356D01*
X156972644Y-108989010D01*
X157060369Y-109120300D01*
X157120795Y-109266182D01*
X157151600Y-109421049D01*
X157151600Y-109578951D01*
X157120795Y-109733818D01*
X157060369Y-109879700D01*
X156972644Y-110010990D01*
X156860990Y-110122644D01*
X156729700Y-110210369D01*
X156583818Y-110270795D01*
X156506385Y-110286197D01*
X156428952Y-110301600D01*
X156271048Y-110301600D01*
X156193615Y-110286197D01*
X156116182Y-110270795D01*
X155970300Y-110210369D01*
X155839010Y-110122644D01*
X155727356Y-110010990D01*
X155639631Y-109879700D01*
X155579205Y-109733818D01*
X155548400Y-109578951D01*
X155548400Y-109421049D01*
X155579205Y-109266182D01*
X155639631Y-109120300D01*
X155727356Y-108989010D01*
X155839010Y-108877356D01*
X155970300Y-108789631D01*
X156116182Y-108729205D01*
X156193616Y-108713802D01*
X156271048Y-108698400D01*
X156428952Y-108698400D01*
X156506384Y-108713802D01*
G37*
G36*
X175156384Y-108713802D02*
G01*
X175233818Y-108729205D01*
X175379700Y-108789631D01*
X175510990Y-108877356D01*
X175622644Y-108989010D01*
X175710369Y-109120300D01*
X175770795Y-109266182D01*
X175801600Y-109421049D01*
X175801600Y-109578951D01*
X175770795Y-109733818D01*
X175710369Y-109879700D01*
X175622644Y-110010990D01*
X175510990Y-110122644D01*
X175379700Y-110210369D01*
X175233818Y-110270795D01*
X175156385Y-110286197D01*
X175078952Y-110301600D01*
X174921048Y-110301600D01*
X174843615Y-110286197D01*
X174766182Y-110270795D01*
X174620300Y-110210369D01*
X174489010Y-110122644D01*
X174377356Y-110010990D01*
X174289631Y-109879700D01*
X174229205Y-109733818D01*
X174198400Y-109578951D01*
X174198400Y-109421049D01*
X174229205Y-109266182D01*
X174289631Y-109120300D01*
X174377356Y-108989010D01*
X174489010Y-108877356D01*
X174620300Y-108789631D01*
X174766182Y-108729205D01*
X174843616Y-108713802D01*
X174921048Y-108698400D01*
X175078952Y-108698400D01*
X175156384Y-108713802D01*
G37*
G36*
X178331384Y-108713802D02*
G01*
X178408818Y-108729205D01*
X178554700Y-108789631D01*
X178685990Y-108877356D01*
X178797644Y-108989010D01*
X178885369Y-109120300D01*
X178945795Y-109266182D01*
X178976600Y-109421049D01*
X178976600Y-109578951D01*
X178945795Y-109733818D01*
X178885369Y-109879700D01*
X178797644Y-110010990D01*
X178685990Y-110122644D01*
X178554700Y-110210369D01*
X178408818Y-110270795D01*
X178331385Y-110286197D01*
X178253952Y-110301600D01*
X178096048Y-110301600D01*
X178018615Y-110286197D01*
X177941182Y-110270795D01*
X177795300Y-110210369D01*
X177664010Y-110122644D01*
X177552356Y-110010990D01*
X177464631Y-109879700D01*
X177404205Y-109733818D01*
X177373400Y-109578951D01*
X177373400Y-109421049D01*
X177404205Y-109266182D01*
X177464631Y-109120300D01*
X177552356Y-108989010D01*
X177664010Y-108877356D01*
X177795300Y-108789631D01*
X177941182Y-108729205D01*
X178018616Y-108713802D01*
X178096048Y-108698400D01*
X178253952Y-108698400D01*
X178331384Y-108713802D01*
G37*
G36*
X181506384Y-108713802D02*
G01*
X181583818Y-108729205D01*
X181729700Y-108789631D01*
X181860990Y-108877356D01*
X181972644Y-108989010D01*
X182060369Y-109120300D01*
X182120795Y-109266182D01*
X182151600Y-109421049D01*
X182151600Y-109578951D01*
X182120795Y-109733818D01*
X182060369Y-109879700D01*
X181972644Y-110010990D01*
X181860990Y-110122644D01*
X181729700Y-110210369D01*
X181583818Y-110270795D01*
X181506385Y-110286197D01*
X181428952Y-110301600D01*
X181271048Y-110301600D01*
X181193615Y-110286197D01*
X181116182Y-110270795D01*
X180970300Y-110210369D01*
X180839010Y-110122644D01*
X180727356Y-110010990D01*
X180639631Y-109879700D01*
X180579205Y-109733818D01*
X180548400Y-109578951D01*
X180548400Y-109421049D01*
X180579205Y-109266182D01*
X180639631Y-109120300D01*
X180727356Y-108989010D01*
X180839010Y-108877356D01*
X180970300Y-108789631D01*
X181116182Y-108729205D01*
X181193616Y-108713802D01*
X181271048Y-108698400D01*
X181428952Y-108698400D01*
X181506384Y-108713802D01*
G37*
G36*
X93288512Y-106728927D02*
G01*
X93437812Y-106758624D01*
X93601784Y-106826544D01*
X93749354Y-106925147D01*
X93874853Y-107050646D01*
X93973456Y-107198216D01*
X94041376Y-107362188D01*
X94076000Y-107536259D01*
X94076000Y-107713741D01*
X94041376Y-107887812D01*
X93973456Y-108051784D01*
X93874853Y-108199354D01*
X93749354Y-108324853D01*
X93601784Y-108423456D01*
X93437812Y-108491376D01*
X93288512Y-108521073D01*
X93263742Y-108526000D01*
X93086258Y-108526000D01*
X93061488Y-108521073D01*
X92912188Y-108491376D01*
X92748216Y-108423456D01*
X92600646Y-108324853D01*
X92475147Y-108199354D01*
X92376544Y-108051784D01*
X92308624Y-107887812D01*
X92274000Y-107713741D01*
X92274000Y-107536259D01*
X92308624Y-107362188D01*
X92376544Y-107198216D01*
X92475147Y-107050646D01*
X92600646Y-106925147D01*
X92748216Y-106826544D01*
X92912188Y-106758624D01*
X93061488Y-106728927D01*
X93086258Y-106724000D01*
X93263742Y-106724000D01*
X93288512Y-106728927D01*
G37*
G36*
X188288512Y-106728927D02*
G01*
X188437812Y-106758624D01*
X188601784Y-106826544D01*
X188749354Y-106925147D01*
X188874853Y-107050646D01*
X188973456Y-107198216D01*
X189041376Y-107362188D01*
X189076000Y-107536259D01*
X189076000Y-107713741D01*
X189041376Y-107887812D01*
X188973456Y-108051784D01*
X188874853Y-108199354D01*
X188749354Y-108324853D01*
X188601784Y-108423456D01*
X188437812Y-108491376D01*
X188288512Y-108521073D01*
X188263742Y-108526000D01*
X188086258Y-108526000D01*
X188061488Y-108521073D01*
X187912188Y-108491376D01*
X187748216Y-108423456D01*
X187600646Y-108324853D01*
X187475147Y-108199354D01*
X187376544Y-108051784D01*
X187308624Y-107887812D01*
X187274000Y-107713741D01*
X187274000Y-107536259D01*
X187308624Y-107362188D01*
X187376544Y-107198216D01*
X187475147Y-107050646D01*
X187600646Y-106925147D01*
X187748216Y-106826544D01*
X187912188Y-106758624D01*
X188061488Y-106728927D01*
X188086258Y-106724000D01*
X188263742Y-106724000D01*
X188288512Y-106728927D01*
G37*
G36*
X144744928Y-104456764D02*
G01*
X144766009Y-104463160D01*
X144785445Y-104473548D01*
X144802476Y-104487524D01*
X144816452Y-104504555D01*
X144826840Y-104523991D01*
X144833236Y-104545072D01*
X144836000Y-104573140D01*
X144836000Y-106386860D01*
X144833236Y-106414928D01*
X144826840Y-106436009D01*
X144816452Y-106455445D01*
X144802476Y-106472476D01*
X144785445Y-106486452D01*
X144766009Y-106496840D01*
X144744928Y-106503236D01*
X144716860Y-106506000D01*
X144253140Y-106506000D01*
X144225072Y-106503236D01*
X144203991Y-106496840D01*
X144184555Y-106486452D01*
X144167524Y-106472476D01*
X144153548Y-106455445D01*
X144143160Y-106436009D01*
X144136764Y-106414928D01*
X144134000Y-106386860D01*
X144134000Y-104573140D01*
X144136764Y-104545072D01*
X144143160Y-104523991D01*
X144153548Y-104504555D01*
X144167524Y-104487524D01*
X144184555Y-104473548D01*
X144203991Y-104463160D01*
X144225072Y-104456764D01*
X144253140Y-104454000D01*
X144716860Y-104454000D01*
X144744928Y-104456764D01*
G37*
G36*
X143474928Y-104456764D02*
G01*
X143496009Y-104463160D01*
X143515445Y-104473548D01*
X143532476Y-104487524D01*
X143546452Y-104504555D01*
X143556840Y-104523991D01*
X143563236Y-104545072D01*
X143566000Y-104573140D01*
X143566000Y-106386860D01*
X143563236Y-106414928D01*
X143556840Y-106436009D01*
X143546452Y-106455445D01*
X143532476Y-106472476D01*
X143515445Y-106486452D01*
X143496009Y-106496840D01*
X143474928Y-106503236D01*
X143446860Y-106506000D01*
X142983140Y-106506000D01*
X142955072Y-106503236D01*
X142933991Y-106496840D01*
X142914555Y-106486452D01*
X142897524Y-106472476D01*
X142883548Y-106455445D01*
X142873160Y-106436009D01*
X142866764Y-106414928D01*
X142864000Y-106386860D01*
X142864000Y-104573140D01*
X142866764Y-104545072D01*
X142873160Y-104523991D01*
X142883548Y-104504555D01*
X142897524Y-104487524D01*
X142914555Y-104473548D01*
X142933991Y-104463160D01*
X142955072Y-104456764D01*
X142983140Y-104454000D01*
X143446860Y-104454000D01*
X143474928Y-104456764D01*
G37*
G36*
X142204928Y-104456764D02*
G01*
X142226009Y-104463160D01*
X142245445Y-104473548D01*
X142262476Y-104487524D01*
X142276452Y-104504555D01*
X142286840Y-104523991D01*
X142293236Y-104545072D01*
X142296000Y-104573140D01*
X142296000Y-106386860D01*
X142293236Y-106414928D01*
X142286840Y-106436009D01*
X142276452Y-106455445D01*
X142262476Y-106472476D01*
X142245445Y-106486452D01*
X142226009Y-106496840D01*
X142204928Y-106503236D01*
X142176860Y-106506000D01*
X141713140Y-106506000D01*
X141685072Y-106503236D01*
X141663991Y-106496840D01*
X141644555Y-106486452D01*
X141627524Y-106472476D01*
X141613548Y-106455445D01*
X141603160Y-106436009D01*
X141596764Y-106414928D01*
X141594000Y-106386860D01*
X141594000Y-104573140D01*
X141596764Y-104545072D01*
X141603160Y-104523991D01*
X141613548Y-104504555D01*
X141627524Y-104487524D01*
X141644555Y-104473548D01*
X141663991Y-104463160D01*
X141685072Y-104456764D01*
X141713140Y-104454000D01*
X142176860Y-104454000D01*
X142204928Y-104456764D01*
G37*
G36*
X140934928Y-104456764D02*
G01*
X140956009Y-104463160D01*
X140975445Y-104473548D01*
X140992476Y-104487524D01*
X141006452Y-104504555D01*
X141016840Y-104523991D01*
X141023236Y-104545072D01*
X141026000Y-104573140D01*
X141026000Y-106386860D01*
X141023236Y-106414928D01*
X141016840Y-106436009D01*
X141006452Y-106455445D01*
X140992476Y-106472476D01*
X140975445Y-106486452D01*
X140956009Y-106496840D01*
X140934928Y-106503236D01*
X140906860Y-106506000D01*
X140443140Y-106506000D01*
X140415072Y-106503236D01*
X140393991Y-106496840D01*
X140374555Y-106486452D01*
X140357524Y-106472476D01*
X140343548Y-106455445D01*
X140333160Y-106436009D01*
X140326764Y-106414928D01*
X140324000Y-106386860D01*
X140324000Y-104573140D01*
X140326764Y-104545072D01*
X140333160Y-104523991D01*
X140343548Y-104504555D01*
X140357524Y-104487524D01*
X140374555Y-104473548D01*
X140393991Y-104463160D01*
X140415072Y-104456764D01*
X140443140Y-104454000D01*
X140906860Y-104454000D01*
X140934928Y-104456764D01*
G37*
G36*
X139664928Y-104456764D02*
G01*
X139686009Y-104463160D01*
X139705445Y-104473548D01*
X139722476Y-104487524D01*
X139736452Y-104504555D01*
X139746840Y-104523991D01*
X139753236Y-104545072D01*
X139756000Y-104573140D01*
X139756000Y-106386860D01*
X139753236Y-106414928D01*
X139746840Y-106436009D01*
X139736452Y-106455445D01*
X139722476Y-106472476D01*
X139705445Y-106486452D01*
X139686009Y-106496840D01*
X139664928Y-106503236D01*
X139636860Y-106506000D01*
X139173140Y-106506000D01*
X139145072Y-106503236D01*
X139123991Y-106496840D01*
X139104555Y-106486452D01*
X139087524Y-106472476D01*
X139073548Y-106455445D01*
X139063160Y-106436009D01*
X139056764Y-106414928D01*
X139054000Y-106386860D01*
X139054000Y-104573140D01*
X139056764Y-104545072D01*
X139063160Y-104523991D01*
X139073548Y-104504555D01*
X139087524Y-104487524D01*
X139104555Y-104473548D01*
X139123991Y-104463160D01*
X139145072Y-104456764D01*
X139173140Y-104454000D01*
X139636860Y-104454000D01*
X139664928Y-104456764D01*
G37*
G36*
X138394928Y-104456764D02*
G01*
X138416009Y-104463160D01*
X138435445Y-104473548D01*
X138452476Y-104487524D01*
X138466452Y-104504555D01*
X138476840Y-104523991D01*
X138483236Y-104545072D01*
X138486000Y-104573140D01*
X138486000Y-106386860D01*
X138483236Y-106414928D01*
X138476840Y-106436009D01*
X138466452Y-106455445D01*
X138452476Y-106472476D01*
X138435445Y-106486452D01*
X138416009Y-106496840D01*
X138394928Y-106503236D01*
X138366860Y-106506000D01*
X137903140Y-106506000D01*
X137875072Y-106503236D01*
X137853991Y-106496840D01*
X137834555Y-106486452D01*
X137817524Y-106472476D01*
X137803548Y-106455445D01*
X137793160Y-106436009D01*
X137786764Y-106414928D01*
X137784000Y-106386860D01*
X137784000Y-104573140D01*
X137786764Y-104545072D01*
X137793160Y-104523991D01*
X137803548Y-104504555D01*
X137817524Y-104487524D01*
X137834555Y-104473548D01*
X137853991Y-104463160D01*
X137875072Y-104456764D01*
X137903140Y-104454000D01*
X138366860Y-104454000D01*
X138394928Y-104456764D01*
G37*
G36*
X137124928Y-104456764D02*
G01*
X137146009Y-104463160D01*
X137165445Y-104473548D01*
X137182476Y-104487524D01*
X137196452Y-104504555D01*
X137206840Y-104523991D01*
X137213236Y-104545072D01*
X137216000Y-104573140D01*
X137216000Y-106386860D01*
X137213236Y-106414928D01*
X137206840Y-106436009D01*
X137196452Y-106455445D01*
X137182476Y-106472476D01*
X137165445Y-106486452D01*
X137146009Y-106496840D01*
X137124928Y-106503236D01*
X137096860Y-106506000D01*
X136633140Y-106506000D01*
X136605072Y-106503236D01*
X136583991Y-106496840D01*
X136564555Y-106486452D01*
X136547524Y-106472476D01*
X136533548Y-106455445D01*
X136523160Y-106436009D01*
X136516764Y-106414928D01*
X136514000Y-106386860D01*
X136514000Y-104573140D01*
X136516764Y-104545072D01*
X136523160Y-104523991D01*
X136533548Y-104504555D01*
X136547524Y-104487524D01*
X136564555Y-104473548D01*
X136583991Y-104463160D01*
X136605072Y-104456764D01*
X136633140Y-104454000D01*
X137096860Y-104454000D01*
X137124928Y-104456764D01*
G37*
G36*
X93288512Y-104188927D02*
G01*
X93437812Y-104218624D01*
X93601784Y-104286544D01*
X93749354Y-104385147D01*
X93874853Y-104510646D01*
X93973456Y-104658216D01*
X94041376Y-104822188D01*
X94076000Y-104996259D01*
X94076000Y-105173741D01*
X94041376Y-105347812D01*
X93973456Y-105511784D01*
X93874853Y-105659354D01*
X93749354Y-105784853D01*
X93601784Y-105883456D01*
X93437812Y-105951376D01*
X93288512Y-105981073D01*
X93263742Y-105986000D01*
X93086258Y-105986000D01*
X93061488Y-105981073D01*
X92912188Y-105951376D01*
X92748216Y-105883456D01*
X92600646Y-105784853D01*
X92475147Y-105659354D01*
X92376544Y-105511784D01*
X92308624Y-105347812D01*
X92274000Y-105173741D01*
X92274000Y-104996259D01*
X92308624Y-104822188D01*
X92376544Y-104658216D01*
X92475147Y-104510646D01*
X92600646Y-104385147D01*
X92748216Y-104286544D01*
X92912188Y-104218624D01*
X93061488Y-104188927D01*
X93086258Y-104184000D01*
X93263742Y-104184000D01*
X93288512Y-104188927D01*
G37*
G36*
X188288512Y-104188927D02*
G01*
X188437812Y-104218624D01*
X188601784Y-104286544D01*
X188749354Y-104385147D01*
X188874853Y-104510646D01*
X188973456Y-104658216D01*
X189041376Y-104822188D01*
X189076000Y-104996259D01*
X189076000Y-105173741D01*
X189041376Y-105347812D01*
X188973456Y-105511784D01*
X188874853Y-105659354D01*
X188749354Y-105784853D01*
X188601784Y-105883456D01*
X188437812Y-105951376D01*
X188288512Y-105981073D01*
X188263742Y-105986000D01*
X188086258Y-105986000D01*
X188061488Y-105981073D01*
X187912188Y-105951376D01*
X187748216Y-105883456D01*
X187600646Y-105784853D01*
X187475147Y-105659354D01*
X187376544Y-105511784D01*
X187308624Y-105347812D01*
X187274000Y-105173741D01*
X187274000Y-104996259D01*
X187308624Y-104822188D01*
X187376544Y-104658216D01*
X187475147Y-104510646D01*
X187600646Y-104385147D01*
X187748216Y-104286544D01*
X187912188Y-104218624D01*
X188061488Y-104188927D01*
X188086258Y-104184000D01*
X188263742Y-104184000D01*
X188288512Y-104188927D01*
G37*
G36*
X121527395Y-103705546D02*
G01*
X121700466Y-103777234D01*
X121700467Y-103777235D01*
X121856227Y-103881310D01*
X121988690Y-104013773D01*
X121988691Y-104013775D01*
X122092766Y-104169534D01*
X122164454Y-104342605D01*
X122201000Y-104526333D01*
X122201000Y-104713667D01*
X122164454Y-104897395D01*
X122092766Y-105070466D01*
X122092765Y-105070467D01*
X121988690Y-105226227D01*
X121856227Y-105358690D01*
X121777818Y-105411081D01*
X121700466Y-105462766D01*
X121527395Y-105534454D01*
X121343667Y-105571000D01*
X121156333Y-105571000D01*
X120972605Y-105534454D01*
X120799534Y-105462766D01*
X120722182Y-105411081D01*
X120643773Y-105358690D01*
X120511310Y-105226227D01*
X120407235Y-105070467D01*
X120407234Y-105070466D01*
X120335546Y-104897395D01*
X120299000Y-104713667D01*
X120299000Y-104526333D01*
X120335546Y-104342605D01*
X120407234Y-104169534D01*
X120511309Y-104013775D01*
X120511310Y-104013773D01*
X120643773Y-103881310D01*
X120799533Y-103777235D01*
X120799534Y-103777234D01*
X120972605Y-103705546D01*
X121156333Y-103669000D01*
X121343667Y-103669000D01*
X121527395Y-103705546D01*
G37*
G36*
X108827395Y-103705546D02*
G01*
X109000466Y-103777234D01*
X109000467Y-103777235D01*
X109156227Y-103881310D01*
X109288690Y-104013773D01*
X109288691Y-104013775D01*
X109392766Y-104169534D01*
X109464454Y-104342605D01*
X109501000Y-104526333D01*
X109501000Y-104713667D01*
X109464454Y-104897395D01*
X109392766Y-105070466D01*
X109392765Y-105070467D01*
X109288690Y-105226227D01*
X109156227Y-105358690D01*
X109077818Y-105411081D01*
X109000466Y-105462766D01*
X108827395Y-105534454D01*
X108643667Y-105571000D01*
X108456333Y-105571000D01*
X108272605Y-105534454D01*
X108099534Y-105462766D01*
X108022182Y-105411081D01*
X107943773Y-105358690D01*
X107811310Y-105226227D01*
X107707235Y-105070467D01*
X107707234Y-105070466D01*
X107635546Y-104897395D01*
X107599000Y-104713667D01*
X107599000Y-104526333D01*
X107635546Y-104342605D01*
X107707234Y-104169534D01*
X107811309Y-104013775D01*
X107811310Y-104013773D01*
X107943773Y-103881310D01*
X108099533Y-103777235D01*
X108099534Y-103777234D01*
X108272605Y-103705546D01*
X108456333Y-103669000D01*
X108643667Y-103669000D01*
X108827395Y-103705546D01*
G37*
G36*
X158827395Y-103705546D02*
G01*
X159000466Y-103777234D01*
X159000467Y-103777235D01*
X159156227Y-103881310D01*
X159288690Y-104013773D01*
X159288691Y-104013775D01*
X159392766Y-104169534D01*
X159464454Y-104342605D01*
X159501000Y-104526333D01*
X159501000Y-104713667D01*
X159464454Y-104897395D01*
X159392766Y-105070466D01*
X159392765Y-105070467D01*
X159288690Y-105226227D01*
X159156227Y-105358690D01*
X159077818Y-105411081D01*
X159000466Y-105462766D01*
X158827395Y-105534454D01*
X158643667Y-105571000D01*
X158456333Y-105571000D01*
X158272605Y-105534454D01*
X158099534Y-105462766D01*
X158022182Y-105411081D01*
X157943773Y-105358690D01*
X157811310Y-105226227D01*
X157707235Y-105070467D01*
X157707234Y-105070466D01*
X157635546Y-104897395D01*
X157599000Y-104713667D01*
X157599000Y-104526333D01*
X157635546Y-104342605D01*
X157707234Y-104169534D01*
X157811309Y-104013775D01*
X157811310Y-104013773D01*
X157943773Y-103881310D01*
X158099533Y-103777235D01*
X158099534Y-103777234D01*
X158272605Y-103705546D01*
X158456333Y-103669000D01*
X158643667Y-103669000D01*
X158827395Y-103705546D01*
G37*
G36*
X171527395Y-103705546D02*
G01*
X171700466Y-103777234D01*
X171700467Y-103777235D01*
X171856227Y-103881310D01*
X171988690Y-104013773D01*
X171988691Y-104013775D01*
X172092766Y-104169534D01*
X172164454Y-104342605D01*
X172201000Y-104526333D01*
X172201000Y-104713667D01*
X172164454Y-104897395D01*
X172092766Y-105070466D01*
X172092765Y-105070467D01*
X171988690Y-105226227D01*
X171856227Y-105358690D01*
X171777818Y-105411081D01*
X171700466Y-105462766D01*
X171527395Y-105534454D01*
X171343667Y-105571000D01*
X171156333Y-105571000D01*
X170972605Y-105534454D01*
X170799534Y-105462766D01*
X170722182Y-105411081D01*
X170643773Y-105358690D01*
X170511310Y-105226227D01*
X170407235Y-105070467D01*
X170407234Y-105070466D01*
X170335546Y-104897395D01*
X170299000Y-104713667D01*
X170299000Y-104526333D01*
X170335546Y-104342605D01*
X170407234Y-104169534D01*
X170511309Y-104013775D01*
X170511310Y-104013773D01*
X170643773Y-103881310D01*
X170799533Y-103777235D01*
X170799534Y-103777234D01*
X170972605Y-103705546D01*
X171156333Y-103669000D01*
X171343667Y-103669000D01*
X171527395Y-103705546D01*
G37*
G36*
X129123903Y-100748213D02*
G01*
X129346177Y-100792426D01*
X129764932Y-100965880D01*
X130141802Y-101217696D01*
X130462304Y-101538198D01*
X130714120Y-101915068D01*
X130887574Y-102333823D01*
X130889305Y-102342524D01*
X130976000Y-102778370D01*
X130976000Y-103231630D01*
X130970708Y-103258236D01*
X130887574Y-103676177D01*
X130714120Y-104094932D01*
X130462304Y-104471802D01*
X130141802Y-104792304D01*
X129764932Y-105044120D01*
X129346177Y-105217574D01*
X129302685Y-105226225D01*
X128901630Y-105306000D01*
X128448370Y-105306000D01*
X128047315Y-105226225D01*
X128003823Y-105217574D01*
X127585068Y-105044120D01*
X127208198Y-104792304D01*
X126887696Y-104471802D01*
X126635880Y-104094932D01*
X126462426Y-103676177D01*
X126379292Y-103258236D01*
X126374000Y-103231630D01*
X126374000Y-102778370D01*
X126460695Y-102342524D01*
X126462426Y-102333823D01*
X126635880Y-101915068D01*
X126887696Y-101538198D01*
X127208198Y-101217696D01*
X127585068Y-100965880D01*
X128003823Y-100792426D01*
X128226097Y-100748213D01*
X128448370Y-100704000D01*
X128901630Y-100704000D01*
X129123903Y-100748213D01*
G37*
G36*
X153123903Y-100748213D02*
G01*
X153346177Y-100792426D01*
X153764932Y-100965880D01*
X154141802Y-101217696D01*
X154462304Y-101538198D01*
X154714120Y-101915068D01*
X154887574Y-102333823D01*
X154889305Y-102342524D01*
X154976000Y-102778370D01*
X154976000Y-103231630D01*
X154970708Y-103258236D01*
X154887574Y-103676177D01*
X154714120Y-104094932D01*
X154462304Y-104471802D01*
X154141802Y-104792304D01*
X153764932Y-105044120D01*
X153346177Y-105217574D01*
X153302685Y-105226225D01*
X152901630Y-105306000D01*
X152448370Y-105306000D01*
X152047315Y-105226225D01*
X152003823Y-105217574D01*
X151585068Y-105044120D01*
X151208198Y-104792304D01*
X150887696Y-104471802D01*
X150635880Y-104094932D01*
X150462426Y-103676177D01*
X150379292Y-103258236D01*
X150374000Y-103231630D01*
X150374000Y-102778370D01*
X150460695Y-102342524D01*
X150462426Y-102333823D01*
X150635880Y-101915068D01*
X150887696Y-101538198D01*
X151208198Y-101217696D01*
X151585068Y-100965880D01*
X152003823Y-100792426D01*
X152226097Y-100748213D01*
X152448370Y-100704000D01*
X152901630Y-100704000D01*
X153123903Y-100748213D01*
G37*
G36*
X134943604Y-103733347D02*
G01*
X134980144Y-103744432D01*
X135013821Y-103762433D01*
X135043341Y-103786659D01*
X135067567Y-103816179D01*
X135085568Y-103849856D01*
X135096653Y-103886396D01*
X135101000Y-103930538D01*
X135101000Y-104879462D01*
X135096653Y-104923604D01*
X135085568Y-104960144D01*
X135067567Y-104993821D01*
X135043341Y-105023341D01*
X135013821Y-105047567D01*
X134980144Y-105065568D01*
X134943604Y-105076653D01*
X134899462Y-105081000D01*
X133450538Y-105081000D01*
X133406396Y-105076653D01*
X133369856Y-105065568D01*
X133336179Y-105047567D01*
X133306659Y-105023341D01*
X133282433Y-104993821D01*
X133264432Y-104960144D01*
X133253347Y-104923604D01*
X133249000Y-104879462D01*
X133249000Y-103930538D01*
X133253347Y-103886396D01*
X133264432Y-103849856D01*
X133282433Y-103816179D01*
X133306659Y-103786659D01*
X133336179Y-103762433D01*
X133369856Y-103744432D01*
X133406396Y-103733347D01*
X133450538Y-103729000D01*
X134899462Y-103729000D01*
X134943604Y-103733347D01*
G37*
G36*
X93288512Y-101648927D02*
G01*
X93437812Y-101678624D01*
X93601784Y-101746544D01*
X93749354Y-101845147D01*
X93874853Y-101970646D01*
X93973456Y-102118216D01*
X94041376Y-102282188D01*
X94070407Y-102428140D01*
X94076000Y-102456258D01*
X94076000Y-102633742D01*
X94072752Y-102650072D01*
X94041376Y-102807812D01*
X93973456Y-102971784D01*
X93874853Y-103119354D01*
X93749354Y-103244853D01*
X93601784Y-103343456D01*
X93437812Y-103411376D01*
X93288512Y-103441073D01*
X93263742Y-103446000D01*
X93086258Y-103446000D01*
X93061488Y-103441073D01*
X92912188Y-103411376D01*
X92748216Y-103343456D01*
X92600646Y-103244853D01*
X92475147Y-103119354D01*
X92376544Y-102971784D01*
X92308624Y-102807812D01*
X92277248Y-102650072D01*
X92274000Y-102633742D01*
X92274000Y-102456258D01*
X92279593Y-102428140D01*
X92308624Y-102282188D01*
X92376544Y-102118216D01*
X92475147Y-101970646D01*
X92600646Y-101845147D01*
X92748216Y-101746544D01*
X92912188Y-101678624D01*
X93061488Y-101648927D01*
X93086258Y-101644000D01*
X93263742Y-101644000D01*
X93288512Y-101648927D01*
G37*
G36*
X188288512Y-101648927D02*
G01*
X188437812Y-101678624D01*
X188601784Y-101746544D01*
X188749354Y-101845147D01*
X188874853Y-101970646D01*
X188973456Y-102118216D01*
X189041376Y-102282188D01*
X189070407Y-102428140D01*
X189076000Y-102456258D01*
X189076000Y-102633742D01*
X189072752Y-102650072D01*
X189041376Y-102807812D01*
X188973456Y-102971784D01*
X188874853Y-103119354D01*
X188749354Y-103244853D01*
X188601784Y-103343456D01*
X188437812Y-103411376D01*
X188288512Y-103441073D01*
X188263742Y-103446000D01*
X188086258Y-103446000D01*
X188061488Y-103441073D01*
X187912188Y-103411376D01*
X187748216Y-103343456D01*
X187600646Y-103244853D01*
X187475147Y-103119354D01*
X187376544Y-102971784D01*
X187308624Y-102807812D01*
X187277248Y-102650072D01*
X187274000Y-102633742D01*
X187274000Y-102456258D01*
X187279593Y-102428140D01*
X187308624Y-102282188D01*
X187376544Y-102118216D01*
X187475147Y-101970646D01*
X187600646Y-101845147D01*
X187748216Y-101746544D01*
X187912188Y-101678624D01*
X188061488Y-101648927D01*
X188086258Y-101644000D01*
X188263742Y-101644000D01*
X188288512Y-101648927D01*
G37*
G36*
X163834928Y-102561764D02*
G01*
X163856009Y-102568160D01*
X163875445Y-102578548D01*
X163892476Y-102592524D01*
X163906452Y-102609555D01*
X163916840Y-102628991D01*
X163923236Y-102650072D01*
X163926000Y-102678140D01*
X163926000Y-103141860D01*
X163923236Y-103169928D01*
X163916840Y-103191009D01*
X163906452Y-103210445D01*
X163892476Y-103227476D01*
X163875445Y-103241452D01*
X163856009Y-103251840D01*
X163834928Y-103258236D01*
X163806860Y-103261000D01*
X161993140Y-103261000D01*
X161965072Y-103258236D01*
X161943991Y-103251840D01*
X161924555Y-103241452D01*
X161907524Y-103227476D01*
X161893548Y-103210445D01*
X161883160Y-103191009D01*
X161876764Y-103169928D01*
X161874000Y-103141860D01*
X161874000Y-102678140D01*
X161876764Y-102650072D01*
X161883160Y-102628991D01*
X161893548Y-102609555D01*
X161907524Y-102592524D01*
X161924555Y-102578548D01*
X161943991Y-102568160D01*
X161965072Y-102561764D01*
X161993140Y-102559000D01*
X163806860Y-102559000D01*
X163834928Y-102561764D01*
G37*
G36*
X168784928Y-102561764D02*
G01*
X168806009Y-102568160D01*
X168825445Y-102578548D01*
X168842476Y-102592524D01*
X168856452Y-102609555D01*
X168866840Y-102628991D01*
X168873236Y-102650072D01*
X168876000Y-102678140D01*
X168876000Y-103141860D01*
X168873236Y-103169928D01*
X168866840Y-103191009D01*
X168856452Y-103210445D01*
X168842476Y-103227476D01*
X168825445Y-103241452D01*
X168806009Y-103251840D01*
X168784928Y-103258236D01*
X168756860Y-103261000D01*
X166943140Y-103261000D01*
X166915072Y-103258236D01*
X166893991Y-103251840D01*
X166874555Y-103241452D01*
X166857524Y-103227476D01*
X166843548Y-103210445D01*
X166833160Y-103191009D01*
X166826764Y-103169928D01*
X166824000Y-103141860D01*
X166824000Y-102678140D01*
X166826764Y-102650072D01*
X166833160Y-102628991D01*
X166843548Y-102609555D01*
X166857524Y-102592524D01*
X166874555Y-102578548D01*
X166893991Y-102568160D01*
X166915072Y-102561764D01*
X166943140Y-102559000D01*
X168756860Y-102559000D01*
X168784928Y-102561764D01*
G37*
G36*
X114134928Y-102311764D02*
G01*
X114156009Y-102318160D01*
X114175445Y-102328548D01*
X114192476Y-102342524D01*
X114206452Y-102359555D01*
X114216840Y-102378991D01*
X114223236Y-102400072D01*
X114226000Y-102428140D01*
X114226000Y-102891860D01*
X114223236Y-102919928D01*
X114216840Y-102941009D01*
X114206452Y-102960445D01*
X114192476Y-102977476D01*
X114175445Y-102991452D01*
X114156009Y-103001840D01*
X114134928Y-103008236D01*
X114106860Y-103011000D01*
X112293140Y-103011000D01*
X112265072Y-103008236D01*
X112243991Y-103001840D01*
X112224555Y-102991452D01*
X112207524Y-102977476D01*
X112193548Y-102960445D01*
X112183160Y-102941009D01*
X112176764Y-102919928D01*
X112174000Y-102891860D01*
X112174000Y-102428140D01*
X112176764Y-102400072D01*
X112183160Y-102378991D01*
X112193548Y-102359555D01*
X112207524Y-102342524D01*
X112224555Y-102328548D01*
X112243991Y-102318160D01*
X112265072Y-102311764D01*
X112293140Y-102309000D01*
X114106860Y-102309000D01*
X114134928Y-102311764D01*
G37*
G36*
X119084928Y-102311764D02*
G01*
X119106009Y-102318160D01*
X119125445Y-102328548D01*
X119142476Y-102342524D01*
X119156452Y-102359555D01*
X119166840Y-102378991D01*
X119173236Y-102400072D01*
X119176000Y-102428140D01*
X119176000Y-102891860D01*
X119173236Y-102919928D01*
X119166840Y-102941009D01*
X119156452Y-102960445D01*
X119142476Y-102977476D01*
X119125445Y-102991452D01*
X119106009Y-103001840D01*
X119084928Y-103008236D01*
X119056860Y-103011000D01*
X117243140Y-103011000D01*
X117215072Y-103008236D01*
X117193991Y-103001840D01*
X117174555Y-102991452D01*
X117157524Y-102977476D01*
X117143548Y-102960445D01*
X117133160Y-102941009D01*
X117126764Y-102919928D01*
X117124000Y-102891860D01*
X117124000Y-102428140D01*
X117126764Y-102400072D01*
X117133160Y-102378991D01*
X117143548Y-102359555D01*
X117157524Y-102342524D01*
X117174555Y-102328548D01*
X117193991Y-102318160D01*
X117215072Y-102311764D01*
X117243140Y-102309000D01*
X119056860Y-102309000D01*
X119084928Y-102311764D01*
G37*
G36*
X134943604Y-100933347D02*
G01*
X134980144Y-100944432D01*
X135013821Y-100962433D01*
X135043341Y-100986659D01*
X135067567Y-101016179D01*
X135085568Y-101049856D01*
X135096653Y-101086396D01*
X135101000Y-101130538D01*
X135101000Y-102079462D01*
X135096653Y-102123604D01*
X135085568Y-102160144D01*
X135067567Y-102193821D01*
X135043341Y-102223341D01*
X135013821Y-102247567D01*
X134980144Y-102265568D01*
X134943604Y-102276653D01*
X134899462Y-102281000D01*
X133450538Y-102281000D01*
X133406396Y-102276653D01*
X133369856Y-102265568D01*
X133336179Y-102247567D01*
X133306659Y-102223341D01*
X133282433Y-102193821D01*
X133264432Y-102160144D01*
X133253347Y-102123604D01*
X133249000Y-102079462D01*
X133249000Y-101130538D01*
X133253347Y-101086396D01*
X133264432Y-101049856D01*
X133282433Y-101016179D01*
X133306659Y-100986659D01*
X133336179Y-100962433D01*
X133369856Y-100944432D01*
X133406396Y-100933347D01*
X133450538Y-100929000D01*
X134899462Y-100929000D01*
X134943604Y-100933347D01*
G37*
G36*
X168784928Y-101291764D02*
G01*
X168806009Y-101298160D01*
X168825445Y-101308548D01*
X168842476Y-101322524D01*
X168856452Y-101339555D01*
X168866840Y-101358991D01*
X168873236Y-101380072D01*
X168876000Y-101408140D01*
X168876000Y-101871860D01*
X168873236Y-101899928D01*
X168866840Y-101921009D01*
X168856452Y-101940445D01*
X168842476Y-101957476D01*
X168825445Y-101971452D01*
X168806009Y-101981840D01*
X168784928Y-101988236D01*
X168756860Y-101991000D01*
X166943140Y-101991000D01*
X166915072Y-101988236D01*
X166893991Y-101981840D01*
X166874555Y-101971452D01*
X166857524Y-101957476D01*
X166843548Y-101940445D01*
X166833160Y-101921009D01*
X166826764Y-101899928D01*
X166824000Y-101871860D01*
X166824000Y-101408140D01*
X166826764Y-101380072D01*
X166833160Y-101358991D01*
X166843548Y-101339555D01*
X166857524Y-101322524D01*
X166874555Y-101308548D01*
X166893991Y-101298160D01*
X166915072Y-101291764D01*
X166943140Y-101289000D01*
X168756860Y-101289000D01*
X168784928Y-101291764D01*
G37*
G36*
X163834928Y-101291764D02*
G01*
X163856009Y-101298160D01*
X163875445Y-101308548D01*
X163892476Y-101322524D01*
X163906452Y-101339555D01*
X163916840Y-101358991D01*
X163923236Y-101380072D01*
X163926000Y-101408140D01*
X163926000Y-101871860D01*
X163923236Y-101899928D01*
X163916840Y-101921009D01*
X163906452Y-101940445D01*
X163892476Y-101957476D01*
X163875445Y-101971452D01*
X163856009Y-101981840D01*
X163834928Y-101988236D01*
X163806860Y-101991000D01*
X161993140Y-101991000D01*
X161965072Y-101988236D01*
X161943991Y-101981840D01*
X161924555Y-101971452D01*
X161907524Y-101957476D01*
X161893548Y-101940445D01*
X161883160Y-101921009D01*
X161876764Y-101899928D01*
X161874000Y-101871860D01*
X161874000Y-101408140D01*
X161876764Y-101380072D01*
X161883160Y-101358991D01*
X161893548Y-101339555D01*
X161907524Y-101322524D01*
X161924555Y-101308548D01*
X161943991Y-101298160D01*
X161965072Y-101291764D01*
X161993140Y-101289000D01*
X163806860Y-101289000D01*
X163834928Y-101291764D01*
G37*
G36*
X119084928Y-101041764D02*
G01*
X119106009Y-101048160D01*
X119125445Y-101058548D01*
X119142476Y-101072524D01*
X119156452Y-101089555D01*
X119166840Y-101108991D01*
X119173236Y-101130072D01*
X119176000Y-101158140D01*
X119176000Y-101621860D01*
X119173236Y-101649928D01*
X119166840Y-101671009D01*
X119156452Y-101690445D01*
X119142476Y-101707476D01*
X119125445Y-101721452D01*
X119106009Y-101731840D01*
X119084928Y-101738236D01*
X119056860Y-101741000D01*
X117243140Y-101741000D01*
X117215072Y-101738236D01*
X117193991Y-101731840D01*
X117174555Y-101721452D01*
X117157524Y-101707476D01*
X117143548Y-101690445D01*
X117133160Y-101671009D01*
X117126764Y-101649928D01*
X117124000Y-101621860D01*
X117124000Y-101158140D01*
X117126764Y-101130072D01*
X117133160Y-101108991D01*
X117143548Y-101089555D01*
X117157524Y-101072524D01*
X117174555Y-101058548D01*
X117193991Y-101048160D01*
X117215072Y-101041764D01*
X117243140Y-101039000D01*
X119056860Y-101039000D01*
X119084928Y-101041764D01*
G37*
G36*
X114134928Y-101041764D02*
G01*
X114156009Y-101048160D01*
X114175445Y-101058548D01*
X114192476Y-101072524D01*
X114206452Y-101089555D01*
X114216840Y-101108991D01*
X114223236Y-101130072D01*
X114226000Y-101158140D01*
X114226000Y-101621860D01*
X114223236Y-101649928D01*
X114216840Y-101671009D01*
X114206452Y-101690445D01*
X114192476Y-101707476D01*
X114175445Y-101721452D01*
X114156009Y-101731840D01*
X114134928Y-101738236D01*
X114106860Y-101741000D01*
X112293140Y-101741000D01*
X112265072Y-101738236D01*
X112243991Y-101731840D01*
X112224555Y-101721452D01*
X112207524Y-101707476D01*
X112193548Y-101690445D01*
X112183160Y-101671009D01*
X112176764Y-101649928D01*
X112174000Y-101621860D01*
X112174000Y-101158140D01*
X112176764Y-101130072D01*
X112183160Y-101108991D01*
X112193548Y-101089555D01*
X112207524Y-101072524D01*
X112224555Y-101058548D01*
X112243991Y-101048160D01*
X112265072Y-101041764D01*
X112293140Y-101039000D01*
X114106860Y-101039000D01*
X114134928Y-101041764D01*
G37*
G36*
X137124928Y-99506764D02*
G01*
X137146009Y-99513160D01*
X137165445Y-99523548D01*
X137182476Y-99537524D01*
X137196452Y-99554555D01*
X137206840Y-99573991D01*
X137213236Y-99595072D01*
X137216000Y-99623140D01*
X137216000Y-101436860D01*
X137213236Y-101464928D01*
X137206840Y-101486009D01*
X137196452Y-101505445D01*
X137182476Y-101522476D01*
X137165445Y-101536452D01*
X137146009Y-101546840D01*
X137124928Y-101553236D01*
X137096860Y-101556000D01*
X136633140Y-101556000D01*
X136605072Y-101553236D01*
X136583991Y-101546840D01*
X136564555Y-101536452D01*
X136547524Y-101522476D01*
X136533548Y-101505445D01*
X136523160Y-101486009D01*
X136516764Y-101464928D01*
X136514000Y-101436860D01*
X136514000Y-99623140D01*
X136516764Y-99595072D01*
X136523160Y-99573991D01*
X136533548Y-99554555D01*
X136547524Y-99537524D01*
X136564555Y-99523548D01*
X136583991Y-99513160D01*
X136605072Y-99506764D01*
X136633140Y-99504000D01*
X137096860Y-99504000D01*
X137124928Y-99506764D01*
G37*
G36*
X144744928Y-99506764D02*
G01*
X144766009Y-99513160D01*
X144785445Y-99523548D01*
X144802476Y-99537524D01*
X144816452Y-99554555D01*
X144826840Y-99573991D01*
X144833236Y-99595072D01*
X144836000Y-99623140D01*
X144836000Y-101436860D01*
X144833236Y-101464928D01*
X144826840Y-101486009D01*
X144816452Y-101505445D01*
X144802476Y-101522476D01*
X144785445Y-101536452D01*
X144766009Y-101546840D01*
X144744928Y-101553236D01*
X144716860Y-101556000D01*
X144253140Y-101556000D01*
X144225072Y-101553236D01*
X144203991Y-101546840D01*
X144184555Y-101536452D01*
X144167524Y-101522476D01*
X144153548Y-101505445D01*
X144143160Y-101486009D01*
X144136764Y-101464928D01*
X144134000Y-101436860D01*
X144134000Y-99623140D01*
X144136764Y-99595072D01*
X144143160Y-99573991D01*
X144153548Y-99554555D01*
X144167524Y-99537524D01*
X144184555Y-99523548D01*
X144203991Y-99513160D01*
X144225072Y-99506764D01*
X144253140Y-99504000D01*
X144716860Y-99504000D01*
X144744928Y-99506764D01*
G37*
G36*
X143474928Y-99506764D02*
G01*
X143496009Y-99513160D01*
X143515445Y-99523548D01*
X143532476Y-99537524D01*
X143546452Y-99554555D01*
X143556840Y-99573991D01*
X143563236Y-99595072D01*
X143566000Y-99623140D01*
X143566000Y-101436860D01*
X143563236Y-101464928D01*
X143556840Y-101486009D01*
X143546452Y-101505445D01*
X143532476Y-101522476D01*
X143515445Y-101536452D01*
X143496009Y-101546840D01*
X143474928Y-101553236D01*
X143446860Y-101556000D01*
X142983140Y-101556000D01*
X142955072Y-101553236D01*
X142933991Y-101546840D01*
X142914555Y-101536452D01*
X142897524Y-101522476D01*
X142883548Y-101505445D01*
X142873160Y-101486009D01*
X142866764Y-101464928D01*
X142864000Y-101436860D01*
X142864000Y-99623140D01*
X142866764Y-99595072D01*
X142873160Y-99573991D01*
X142883548Y-99554555D01*
X142897524Y-99537524D01*
X142914555Y-99523548D01*
X142933991Y-99513160D01*
X142955072Y-99506764D01*
X142983140Y-99504000D01*
X143446860Y-99504000D01*
X143474928Y-99506764D01*
G37*
G36*
X140934928Y-99506764D02*
G01*
X140956009Y-99513160D01*
X140975445Y-99523548D01*
X140992476Y-99537524D01*
X141006452Y-99554555D01*
X141016840Y-99573991D01*
X141023236Y-99595072D01*
X141026000Y-99623140D01*
X141026000Y-101436860D01*
X141023236Y-101464928D01*
X141016840Y-101486009D01*
X141006452Y-101505445D01*
X140992476Y-101522476D01*
X140975445Y-101536452D01*
X140956009Y-101546840D01*
X140934928Y-101553236D01*
X140906860Y-101556000D01*
X140443140Y-101556000D01*
X140415072Y-101553236D01*
X140393991Y-101546840D01*
X140374555Y-101536452D01*
X140357524Y-101522476D01*
X140343548Y-101505445D01*
X140333160Y-101486009D01*
X140326764Y-101464928D01*
X140324000Y-101436860D01*
X140324000Y-99623140D01*
X140326764Y-99595072D01*
X140333160Y-99573991D01*
X140343548Y-99554555D01*
X140357524Y-99537524D01*
X140374555Y-99523548D01*
X140393991Y-99513160D01*
X140415072Y-99506764D01*
X140443140Y-99504000D01*
X140906860Y-99504000D01*
X140934928Y-99506764D01*
G37*
G36*
X142204928Y-99506764D02*
G01*
X142226009Y-99513160D01*
X142245445Y-99523548D01*
X142262476Y-99537524D01*
X142276452Y-99554555D01*
X142286840Y-99573991D01*
X142293236Y-99595072D01*
X142296000Y-99623140D01*
X142296000Y-101436860D01*
X142293236Y-101464928D01*
X142286840Y-101486009D01*
X142276452Y-101505445D01*
X142262476Y-101522476D01*
X142245445Y-101536452D01*
X142226009Y-101546840D01*
X142204928Y-101553236D01*
X142176860Y-101556000D01*
X141713140Y-101556000D01*
X141685072Y-101553236D01*
X141663991Y-101546840D01*
X141644555Y-101536452D01*
X141627524Y-101522476D01*
X141613548Y-101505445D01*
X141603160Y-101486009D01*
X141596764Y-101464928D01*
X141594000Y-101436860D01*
X141594000Y-99623140D01*
X141596764Y-99595072D01*
X141603160Y-99573991D01*
X141613548Y-99554555D01*
X141627524Y-99537524D01*
X141644555Y-99523548D01*
X141663991Y-99513160D01*
X141685072Y-99506764D01*
X141713140Y-99504000D01*
X142176860Y-99504000D01*
X142204928Y-99506764D01*
G37*
G36*
X139664928Y-99506764D02*
G01*
X139686009Y-99513160D01*
X139705445Y-99523548D01*
X139722476Y-99537524D01*
X139736452Y-99554555D01*
X139746840Y-99573991D01*
X139753236Y-99595072D01*
X139756000Y-99623140D01*
X139756000Y-101436860D01*
X139753236Y-101464928D01*
X139746840Y-101486009D01*
X139736452Y-101505445D01*
X139722476Y-101522476D01*
X139705445Y-101536452D01*
X139686009Y-101546840D01*
X139664928Y-101553236D01*
X139636860Y-101556000D01*
X139173140Y-101556000D01*
X139145072Y-101553236D01*
X139123991Y-101546840D01*
X139104555Y-101536452D01*
X139087524Y-101522476D01*
X139073548Y-101505445D01*
X139063160Y-101486009D01*
X139056764Y-101464928D01*
X139054000Y-101436860D01*
X139054000Y-99623140D01*
X139056764Y-99595072D01*
X139063160Y-99573991D01*
X139073548Y-99554555D01*
X139087524Y-99537524D01*
X139104555Y-99523548D01*
X139123991Y-99513160D01*
X139145072Y-99506764D01*
X139173140Y-99504000D01*
X139636860Y-99504000D01*
X139664928Y-99506764D01*
G37*
G36*
X138394928Y-99506764D02*
G01*
X138416009Y-99513160D01*
X138435445Y-99523548D01*
X138452476Y-99537524D01*
X138466452Y-99554555D01*
X138476840Y-99573991D01*
X138483236Y-99595072D01*
X138486000Y-99623140D01*
X138486000Y-101436860D01*
X138483236Y-101464928D01*
X138476840Y-101486009D01*
X138466452Y-101505445D01*
X138452476Y-101522476D01*
X138435445Y-101536452D01*
X138416009Y-101546840D01*
X138394928Y-101553236D01*
X138366860Y-101556000D01*
X137903140Y-101556000D01*
X137875072Y-101553236D01*
X137853991Y-101546840D01*
X137834555Y-101536452D01*
X137817524Y-101522476D01*
X137803548Y-101505445D01*
X137793160Y-101486009D01*
X137786764Y-101464928D01*
X137784000Y-101436860D01*
X137784000Y-99623140D01*
X137786764Y-99595072D01*
X137793160Y-99573991D01*
X137803548Y-99554555D01*
X137817524Y-99537524D01*
X137834555Y-99523548D01*
X137853991Y-99513160D01*
X137875072Y-99506764D01*
X137903140Y-99504000D01*
X138366860Y-99504000D01*
X138394928Y-99506764D01*
G37*
G36*
X172043604Y-99483347D02*
G01*
X172080144Y-99494432D01*
X172113821Y-99512433D01*
X172143341Y-99536659D01*
X172167567Y-99566179D01*
X172185568Y-99599856D01*
X172196653Y-99636396D01*
X172201000Y-99680538D01*
X172201000Y-101129462D01*
X172196653Y-101173604D01*
X172185568Y-101210144D01*
X172167567Y-101243821D01*
X172143341Y-101273341D01*
X172113821Y-101297567D01*
X172080144Y-101315568D01*
X172043604Y-101326653D01*
X171999462Y-101331000D01*
X171050538Y-101331000D01*
X171006396Y-101326653D01*
X170969856Y-101315568D01*
X170936179Y-101297567D01*
X170906659Y-101273341D01*
X170882433Y-101243821D01*
X170864432Y-101210144D01*
X170853347Y-101173604D01*
X170849000Y-101129462D01*
X170849000Y-99680538D01*
X170853347Y-99636396D01*
X170864432Y-99599856D01*
X170882433Y-99566179D01*
X170906659Y-99536659D01*
X170936179Y-99512433D01*
X170969856Y-99494432D01*
X171006396Y-99483347D01*
X171050538Y-99479000D01*
X171999462Y-99479000D01*
X172043604Y-99483347D01*
G37*
G36*
X160293604Y-99483347D02*
G01*
X160330144Y-99494432D01*
X160363821Y-99512433D01*
X160393341Y-99536659D01*
X160417567Y-99566179D01*
X160435568Y-99599856D01*
X160446653Y-99636396D01*
X160451000Y-99680538D01*
X160451000Y-101129462D01*
X160446653Y-101173604D01*
X160435568Y-101210144D01*
X160417567Y-101243821D01*
X160393341Y-101273341D01*
X160363821Y-101297567D01*
X160330144Y-101315568D01*
X160293604Y-101326653D01*
X160249462Y-101331000D01*
X159300538Y-101331000D01*
X159256396Y-101326653D01*
X159219856Y-101315568D01*
X159186179Y-101297567D01*
X159156659Y-101273341D01*
X159132433Y-101243821D01*
X159114432Y-101210144D01*
X159103347Y-101173604D01*
X159099000Y-101129462D01*
X159099000Y-99680538D01*
X159103347Y-99636396D01*
X159114432Y-99599856D01*
X159132433Y-99566179D01*
X159156659Y-99536659D01*
X159186179Y-99512433D01*
X159219856Y-99494432D01*
X159256396Y-99483347D01*
X159300538Y-99479000D01*
X160249462Y-99479000D01*
X160293604Y-99483347D01*
G37*
G36*
X157493604Y-99483347D02*
G01*
X157530144Y-99494432D01*
X157563821Y-99512433D01*
X157593341Y-99536659D01*
X157617567Y-99566179D01*
X157635568Y-99599856D01*
X157646653Y-99636396D01*
X157651000Y-99680538D01*
X157651000Y-101129462D01*
X157646653Y-101173604D01*
X157635568Y-101210144D01*
X157617567Y-101243821D01*
X157593341Y-101273341D01*
X157563821Y-101297567D01*
X157530144Y-101315568D01*
X157493604Y-101326653D01*
X157449462Y-101331000D01*
X156500538Y-101331000D01*
X156456396Y-101326653D01*
X156419856Y-101315568D01*
X156386179Y-101297567D01*
X156356659Y-101273341D01*
X156332433Y-101243821D01*
X156314432Y-101210144D01*
X156303347Y-101173604D01*
X156299000Y-101129462D01*
X156299000Y-99680538D01*
X156303347Y-99636396D01*
X156314432Y-99599856D01*
X156332433Y-99566179D01*
X156356659Y-99536659D01*
X156386179Y-99512433D01*
X156419856Y-99494432D01*
X156456396Y-99483347D01*
X156500538Y-99479000D01*
X157449462Y-99479000D01*
X157493604Y-99483347D01*
G37*
G36*
X174843604Y-99483347D02*
G01*
X174880144Y-99494432D01*
X174913821Y-99512433D01*
X174943341Y-99536659D01*
X174967567Y-99566179D01*
X174985568Y-99599856D01*
X174996653Y-99636396D01*
X175001000Y-99680538D01*
X175001000Y-101129462D01*
X174996653Y-101173604D01*
X174985568Y-101210144D01*
X174967567Y-101243821D01*
X174943341Y-101273341D01*
X174913821Y-101297567D01*
X174880144Y-101315568D01*
X174843604Y-101326653D01*
X174799462Y-101331000D01*
X173850538Y-101331000D01*
X173806396Y-101326653D01*
X173769856Y-101315568D01*
X173736179Y-101297567D01*
X173706659Y-101273341D01*
X173682433Y-101243821D01*
X173664432Y-101210144D01*
X173653347Y-101173604D01*
X173649000Y-101129462D01*
X173649000Y-99680538D01*
X173653347Y-99636396D01*
X173664432Y-99599856D01*
X173682433Y-99566179D01*
X173706659Y-99536659D01*
X173736179Y-99512433D01*
X173769856Y-99494432D01*
X173806396Y-99483347D01*
X173850538Y-99479000D01*
X174799462Y-99479000D01*
X174843604Y-99483347D01*
G37*
G36*
X124843604Y-99083347D02*
G01*
X124880144Y-99094432D01*
X124913821Y-99112433D01*
X124943341Y-99136659D01*
X124967567Y-99166179D01*
X124985568Y-99199856D01*
X124996653Y-99236396D01*
X125001000Y-99280538D01*
X125001000Y-100729462D01*
X124996653Y-100773604D01*
X124985568Y-100810144D01*
X124967567Y-100843821D01*
X124943341Y-100873341D01*
X124913821Y-100897567D01*
X124880144Y-100915568D01*
X124843604Y-100926653D01*
X124799462Y-100931000D01*
X123850538Y-100931000D01*
X123806396Y-100926653D01*
X123769856Y-100915568D01*
X123736179Y-100897567D01*
X123706659Y-100873341D01*
X123682433Y-100843821D01*
X123664432Y-100810144D01*
X123653347Y-100773604D01*
X123649000Y-100729462D01*
X123649000Y-99280538D01*
X123653347Y-99236396D01*
X123664432Y-99199856D01*
X123682433Y-99166179D01*
X123706659Y-99136659D01*
X123736179Y-99112433D01*
X123769856Y-99094432D01*
X123806396Y-99083347D01*
X123850538Y-99079000D01*
X124799462Y-99079000D01*
X124843604Y-99083347D01*
G37*
G36*
X122043604Y-99083347D02*
G01*
X122080144Y-99094432D01*
X122113821Y-99112433D01*
X122143341Y-99136659D01*
X122167567Y-99166179D01*
X122185568Y-99199856D01*
X122196653Y-99236396D01*
X122201000Y-99280538D01*
X122201000Y-100729462D01*
X122196653Y-100773604D01*
X122185568Y-100810144D01*
X122167567Y-100843821D01*
X122143341Y-100873341D01*
X122113821Y-100897567D01*
X122080144Y-100915568D01*
X122043604Y-100926653D01*
X121999462Y-100931000D01*
X121050538Y-100931000D01*
X121006396Y-100926653D01*
X120969856Y-100915568D01*
X120936179Y-100897567D01*
X120906659Y-100873341D01*
X120882433Y-100843821D01*
X120864432Y-100810144D01*
X120853347Y-100773604D01*
X120849000Y-100729462D01*
X120849000Y-99280538D01*
X120853347Y-99236396D01*
X120864432Y-99199856D01*
X120882433Y-99166179D01*
X120906659Y-99136659D01*
X120936179Y-99112433D01*
X120969856Y-99094432D01*
X121006396Y-99083347D01*
X121050538Y-99079000D01*
X121999462Y-99079000D01*
X122043604Y-99083347D01*
G37*
G36*
X110343604Y-99083347D02*
G01*
X110380144Y-99094432D01*
X110413821Y-99112433D01*
X110443341Y-99136659D01*
X110467567Y-99166179D01*
X110485568Y-99199856D01*
X110496653Y-99236396D01*
X110501000Y-99280538D01*
X110501000Y-100729462D01*
X110496653Y-100773604D01*
X110485568Y-100810144D01*
X110467567Y-100843821D01*
X110443341Y-100873341D01*
X110413821Y-100897567D01*
X110380144Y-100915568D01*
X110343604Y-100926653D01*
X110299462Y-100931000D01*
X109350538Y-100931000D01*
X109306396Y-100926653D01*
X109269856Y-100915568D01*
X109236179Y-100897567D01*
X109206659Y-100873341D01*
X109182433Y-100843821D01*
X109164432Y-100810144D01*
X109153347Y-100773604D01*
X109149000Y-100729462D01*
X109149000Y-99280538D01*
X109153347Y-99236396D01*
X109164432Y-99199856D01*
X109182433Y-99166179D01*
X109206659Y-99136659D01*
X109236179Y-99112433D01*
X109269856Y-99094432D01*
X109306396Y-99083347D01*
X109350538Y-99079000D01*
X110299462Y-99079000D01*
X110343604Y-99083347D01*
G37*
G36*
X107543604Y-99083347D02*
G01*
X107580144Y-99094432D01*
X107613821Y-99112433D01*
X107643341Y-99136659D01*
X107667567Y-99166179D01*
X107685568Y-99199856D01*
X107696653Y-99236396D01*
X107701000Y-99280538D01*
X107701000Y-100729462D01*
X107696653Y-100773604D01*
X107685568Y-100810144D01*
X107667567Y-100843821D01*
X107643341Y-100873341D01*
X107613821Y-100897567D01*
X107580144Y-100915568D01*
X107543604Y-100926653D01*
X107499462Y-100931000D01*
X106550538Y-100931000D01*
X106506396Y-100926653D01*
X106469856Y-100915568D01*
X106436179Y-100897567D01*
X106406659Y-100873341D01*
X106382433Y-100843821D01*
X106364432Y-100810144D01*
X106353347Y-100773604D01*
X106349000Y-100729462D01*
X106349000Y-99280538D01*
X106353347Y-99236396D01*
X106364432Y-99199856D01*
X106382433Y-99166179D01*
X106406659Y-99136659D01*
X106436179Y-99112433D01*
X106469856Y-99094432D01*
X106506396Y-99083347D01*
X106550538Y-99079000D01*
X107499462Y-99079000D01*
X107543604Y-99083347D01*
G37*
G36*
X94076000Y-100906000D02*
G01*
X92274000Y-100906000D01*
X92274000Y-99104000D01*
X94076000Y-99104000D01*
X94076000Y-100906000D01*
G37*
G36*
X189076000Y-100906000D02*
G01*
X187274000Y-100906000D01*
X187274000Y-99104000D01*
X189076000Y-99104000D01*
X189076000Y-100906000D01*
G37*
G36*
X168784928Y-100021764D02*
G01*
X168806009Y-100028160D01*
X168825445Y-100038548D01*
X168842476Y-100052524D01*
X168856452Y-100069555D01*
X168866840Y-100088991D01*
X168873236Y-100110072D01*
X168876000Y-100138140D01*
X168876000Y-100601860D01*
X168873236Y-100629928D01*
X168866840Y-100651009D01*
X168856452Y-100670445D01*
X168842476Y-100687476D01*
X168825445Y-100701452D01*
X168806009Y-100711840D01*
X168784928Y-100718236D01*
X168756860Y-100721000D01*
X166943140Y-100721000D01*
X166915072Y-100718236D01*
X166893991Y-100711840D01*
X166874555Y-100701452D01*
X166857524Y-100687476D01*
X166843548Y-100670445D01*
X166833160Y-100651009D01*
X166826764Y-100629928D01*
X166824000Y-100601860D01*
X166824000Y-100138140D01*
X166826764Y-100110072D01*
X166833160Y-100088991D01*
X166843548Y-100069555D01*
X166857524Y-100052524D01*
X166874555Y-100038548D01*
X166893991Y-100028160D01*
X166915072Y-100021764D01*
X166943140Y-100019000D01*
X168756860Y-100019000D01*
X168784928Y-100021764D01*
G37*
G36*
X163834928Y-100021764D02*
G01*
X163856009Y-100028160D01*
X163875445Y-100038548D01*
X163892476Y-100052524D01*
X163906452Y-100069555D01*
X163916840Y-100088991D01*
X163923236Y-100110072D01*
X163926000Y-100138140D01*
X163926000Y-100601860D01*
X163923236Y-100629928D01*
X163916840Y-100651009D01*
X163906452Y-100670445D01*
X163892476Y-100687476D01*
X163875445Y-100701452D01*
X163856009Y-100711840D01*
X163834928Y-100718236D01*
X163806860Y-100721000D01*
X161993140Y-100721000D01*
X161965072Y-100718236D01*
X161943991Y-100711840D01*
X161924555Y-100701452D01*
X161907524Y-100687476D01*
X161893548Y-100670445D01*
X161883160Y-100651009D01*
X161876764Y-100629928D01*
X161874000Y-100601860D01*
X161874000Y-100138140D01*
X161876764Y-100110072D01*
X161883160Y-100088991D01*
X161893548Y-100069555D01*
X161907524Y-100052524D01*
X161924555Y-100038548D01*
X161943991Y-100028160D01*
X161965072Y-100021764D01*
X161993140Y-100019000D01*
X163806860Y-100019000D01*
X163834928Y-100021764D01*
G37*
G36*
X114134928Y-99771764D02*
G01*
X114156009Y-99778160D01*
X114175445Y-99788548D01*
X114192476Y-99802524D01*
X114206452Y-99819555D01*
X114216840Y-99838991D01*
X114223236Y-99860072D01*
X114226000Y-99888140D01*
X114226000Y-100351860D01*
X114223236Y-100379928D01*
X114216840Y-100401009D01*
X114206452Y-100420445D01*
X114192476Y-100437476D01*
X114175445Y-100451452D01*
X114156009Y-100461840D01*
X114134928Y-100468236D01*
X114106860Y-100471000D01*
X112293140Y-100471000D01*
X112265072Y-100468236D01*
X112243991Y-100461840D01*
X112224555Y-100451452D01*
X112207524Y-100437476D01*
X112193548Y-100420445D01*
X112183160Y-100401009D01*
X112176764Y-100379928D01*
X112174000Y-100351860D01*
X112174000Y-99888140D01*
X112176764Y-99860072D01*
X112183160Y-99838991D01*
X112193548Y-99819555D01*
X112207524Y-99802524D01*
X112224555Y-99788548D01*
X112243991Y-99778160D01*
X112265072Y-99771764D01*
X112293140Y-99769000D01*
X114106860Y-99769000D01*
X114134928Y-99771764D01*
G37*
G36*
X119084928Y-99771764D02*
G01*
X119106009Y-99778160D01*
X119125445Y-99788548D01*
X119142476Y-99802524D01*
X119156452Y-99819555D01*
X119166840Y-99838991D01*
X119173236Y-99860072D01*
X119176000Y-99888140D01*
X119176000Y-100351860D01*
X119173236Y-100379928D01*
X119166840Y-100401009D01*
X119156452Y-100420445D01*
X119142476Y-100437476D01*
X119125445Y-100451452D01*
X119106009Y-100461840D01*
X119084928Y-100468236D01*
X119056860Y-100471000D01*
X117243140Y-100471000D01*
X117215072Y-100468236D01*
X117193991Y-100461840D01*
X117174555Y-100451452D01*
X117157524Y-100437476D01*
X117143548Y-100420445D01*
X117133160Y-100401009D01*
X117126764Y-100379928D01*
X117124000Y-100351860D01*
X117124000Y-99888140D01*
X117126764Y-99860072D01*
X117133160Y-99838991D01*
X117143548Y-99819555D01*
X117157524Y-99802524D01*
X117174555Y-99788548D01*
X117193991Y-99778160D01*
X117215072Y-99771764D01*
X117243140Y-99769000D01*
X119056860Y-99769000D01*
X119084928Y-99771764D01*
G37*
G36*
X168784928Y-98751764D02*
G01*
X168806009Y-98758160D01*
X168825445Y-98768548D01*
X168842476Y-98782524D01*
X168856452Y-98799555D01*
X168866840Y-98818991D01*
X168873236Y-98840072D01*
X168876000Y-98868140D01*
X168876000Y-99331860D01*
X168873236Y-99359928D01*
X168866840Y-99381009D01*
X168856452Y-99400445D01*
X168842476Y-99417476D01*
X168825445Y-99431452D01*
X168806009Y-99441840D01*
X168784928Y-99448236D01*
X168756860Y-99451000D01*
X166943140Y-99451000D01*
X166915072Y-99448236D01*
X166893991Y-99441840D01*
X166874555Y-99431452D01*
X166857524Y-99417476D01*
X166843548Y-99400445D01*
X166833160Y-99381009D01*
X166826764Y-99359928D01*
X166824000Y-99331860D01*
X166824000Y-98868140D01*
X166826764Y-98840072D01*
X166833160Y-98818991D01*
X166843548Y-98799555D01*
X166857524Y-98782524D01*
X166874555Y-98768548D01*
X166893991Y-98758160D01*
X166915072Y-98751764D01*
X166943140Y-98749000D01*
X168756860Y-98749000D01*
X168784928Y-98751764D01*
G37*
G36*
X163834928Y-98751764D02*
G01*
X163856009Y-98758160D01*
X163875445Y-98768548D01*
X163892476Y-98782524D01*
X163906452Y-98799555D01*
X163916840Y-98818991D01*
X163923236Y-98840072D01*
X163926000Y-98868140D01*
X163926000Y-99331860D01*
X163923236Y-99359928D01*
X163916840Y-99381009D01*
X163906452Y-99400445D01*
X163892476Y-99417476D01*
X163875445Y-99431452D01*
X163856009Y-99441840D01*
X163834928Y-99448236D01*
X163806860Y-99451000D01*
X161993140Y-99451000D01*
X161965072Y-99448236D01*
X161943991Y-99441840D01*
X161924555Y-99431452D01*
X161907524Y-99417476D01*
X161893548Y-99400445D01*
X161883160Y-99381009D01*
X161876764Y-99359928D01*
X161874000Y-99331860D01*
X161874000Y-98868140D01*
X161876764Y-98840072D01*
X161883160Y-98818991D01*
X161893548Y-98799555D01*
X161907524Y-98782524D01*
X161924555Y-98768548D01*
X161943991Y-98758160D01*
X161965072Y-98751764D01*
X161993140Y-98749000D01*
X163806860Y-98749000D01*
X163834928Y-98751764D01*
G37*
G36*
X114134928Y-98501764D02*
G01*
X114156009Y-98508160D01*
X114175445Y-98518548D01*
X114192476Y-98532524D01*
X114206452Y-98549555D01*
X114216840Y-98568991D01*
X114223236Y-98590072D01*
X114226000Y-98618140D01*
X114226000Y-99081860D01*
X114223236Y-99109928D01*
X114216840Y-99131009D01*
X114206452Y-99150445D01*
X114192476Y-99167476D01*
X114175445Y-99181452D01*
X114156009Y-99191840D01*
X114134928Y-99198236D01*
X114106860Y-99201000D01*
X112293140Y-99201000D01*
X112265072Y-99198236D01*
X112243991Y-99191840D01*
X112224555Y-99181452D01*
X112207524Y-99167476D01*
X112193548Y-99150445D01*
X112183160Y-99131009D01*
X112176764Y-99109928D01*
X112174000Y-99081860D01*
X112174000Y-98618140D01*
X112176764Y-98590072D01*
X112183160Y-98568991D01*
X112193548Y-98549555D01*
X112207524Y-98532524D01*
X112224555Y-98518548D01*
X112243991Y-98508160D01*
X112265072Y-98501764D01*
X112293140Y-98499000D01*
X114106860Y-98499000D01*
X114134928Y-98501764D01*
G37*
G36*
X119084928Y-98501764D02*
G01*
X119106009Y-98508160D01*
X119125445Y-98518548D01*
X119142476Y-98532524D01*
X119156452Y-98549555D01*
X119166840Y-98568991D01*
X119173236Y-98590072D01*
X119176000Y-98618140D01*
X119176000Y-99081860D01*
X119173236Y-99109928D01*
X119166840Y-99131009D01*
X119156452Y-99150445D01*
X119142476Y-99167476D01*
X119125445Y-99181452D01*
X119106009Y-99191840D01*
X119084928Y-99198236D01*
X119056860Y-99201000D01*
X117243140Y-99201000D01*
X117215072Y-99198236D01*
X117193991Y-99191840D01*
X117174555Y-99181452D01*
X117157524Y-99167476D01*
X117143548Y-99150445D01*
X117133160Y-99131009D01*
X117126764Y-99109928D01*
X117124000Y-99081860D01*
X117124000Y-98618140D01*
X117126764Y-98590072D01*
X117133160Y-98568991D01*
X117143548Y-98549555D01*
X117157524Y-98532524D01*
X117174555Y-98518548D01*
X117193991Y-98508160D01*
X117215072Y-98501764D01*
X117243140Y-98499000D01*
X119056860Y-98499000D01*
X119084928Y-98501764D01*
G37*
G36*
X182002221Y-95514867D02*
G01*
X182143785Y-95557810D01*
X182274251Y-95627546D01*
X182300605Y-95649174D01*
X182388607Y-95721394D01*
X182417051Y-95756054D01*
X182482454Y-95835748D01*
X182552190Y-95966214D01*
X182595133Y-96107778D01*
X182606000Y-96218113D01*
X182606000Y-96591886D01*
X182595133Y-96702221D01*
X182554725Y-96835429D01*
X182552189Y-96843788D01*
X182540547Y-96865568D01*
X182482454Y-96974252D01*
X182458241Y-97003756D01*
X182388607Y-97088607D01*
X182319728Y-97145133D01*
X182274252Y-97182454D01*
X182143786Y-97252190D01*
X182002222Y-97295133D01*
X181855000Y-97309633D01*
X181707779Y-97295133D01*
X181566215Y-97252190D01*
X181435749Y-97182454D01*
X181373802Y-97131616D01*
X181321393Y-97088606D01*
X181262265Y-97016557D01*
X181227546Y-96974252D01*
X181169453Y-96865568D01*
X181157811Y-96843788D01*
X181155275Y-96835429D01*
X181114867Y-96702222D01*
X181104000Y-96591887D01*
X181104000Y-96218114D01*
X181114867Y-96107779D01*
X181157810Y-95966215D01*
X181227546Y-95835749D01*
X181292949Y-95756054D01*
X181321394Y-95721393D01*
X181391066Y-95664216D01*
X181435748Y-95627546D01*
X181566214Y-95557810D01*
X181707778Y-95514867D01*
X181855000Y-95500367D01*
X182002221Y-95514867D01*
G37*
G36*
X179462221Y-95514867D02*
G01*
X179603785Y-95557810D01*
X179734251Y-95627546D01*
X179760605Y-95649174D01*
X179848607Y-95721394D01*
X179877051Y-95756054D01*
X179942454Y-95835748D01*
X180012190Y-95966214D01*
X180055133Y-96107778D01*
X180066000Y-96218113D01*
X180066000Y-96591886D01*
X180055133Y-96702221D01*
X180014725Y-96835429D01*
X180012189Y-96843788D01*
X180000547Y-96865568D01*
X179942454Y-96974252D01*
X179918241Y-97003756D01*
X179848607Y-97088607D01*
X179779728Y-97145133D01*
X179734252Y-97182454D01*
X179603786Y-97252190D01*
X179462222Y-97295133D01*
X179315000Y-97309633D01*
X179167779Y-97295133D01*
X179026215Y-97252190D01*
X178895749Y-97182454D01*
X178833802Y-97131616D01*
X178781393Y-97088606D01*
X178722265Y-97016557D01*
X178687546Y-96974252D01*
X178629453Y-96865568D01*
X178617811Y-96843788D01*
X178615275Y-96835429D01*
X178574867Y-96702222D01*
X178564000Y-96591887D01*
X178564000Y-96218114D01*
X178574867Y-96107779D01*
X178617810Y-95966215D01*
X178687546Y-95835749D01*
X178752949Y-95756054D01*
X178781394Y-95721393D01*
X178851066Y-95664216D01*
X178895748Y-95627546D01*
X179026214Y-95557810D01*
X179167778Y-95514867D01*
X179315000Y-95500367D01*
X179462221Y-95514867D01*
G37*
G36*
X177273946Y-95510607D02*
G01*
X177332548Y-95528384D01*
X177386557Y-95557252D01*
X177433897Y-95596103D01*
X177472748Y-95643443D01*
X177501616Y-95697452D01*
X177519393Y-95756054D01*
X177526000Y-95823140D01*
X177526000Y-96986860D01*
X177519393Y-97053946D01*
X177501616Y-97112548D01*
X177472748Y-97166557D01*
X177433897Y-97213897D01*
X177386557Y-97252748D01*
X177332548Y-97281616D01*
X177273946Y-97299393D01*
X177206860Y-97306000D01*
X176343140Y-97306000D01*
X176276054Y-97299393D01*
X176217452Y-97281616D01*
X176163443Y-97252748D01*
X176116103Y-97213897D01*
X176077252Y-97166557D01*
X176048384Y-97112548D01*
X176030607Y-97053946D01*
X176024000Y-96986860D01*
X176024000Y-95823140D01*
X176030607Y-95756054D01*
X176048384Y-95697452D01*
X176077252Y-95643443D01*
X176116103Y-95596103D01*
X176163443Y-95557252D01*
X176217452Y-95528384D01*
X176276054Y-95510607D01*
X176343140Y-95504000D01*
X177206860Y-95504000D01*
X177273946Y-95510607D01*
G37*
G36*
X129053435Y-92734196D02*
G01*
X129346177Y-92792426D01*
X129764932Y-92965880D01*
X130141802Y-93217696D01*
X130462304Y-93538198D01*
X130714120Y-93915068D01*
X130887574Y-94333823D01*
X130887574Y-94333824D01*
X130976000Y-94778370D01*
X130976000Y-95231630D01*
X130958797Y-95318113D01*
X130887574Y-95676177D01*
X130714120Y-96094932D01*
X130462304Y-96471802D01*
X130141802Y-96792304D01*
X129764932Y-97044120D01*
X129346177Y-97217574D01*
X129219774Y-97242717D01*
X128901630Y-97306000D01*
X128448370Y-97306000D01*
X128130226Y-97242717D01*
X128003823Y-97217574D01*
X127585068Y-97044120D01*
X127208198Y-96792304D01*
X126887696Y-96471802D01*
X126635880Y-96094932D01*
X126462426Y-95676177D01*
X126391203Y-95318113D01*
X126374000Y-95231630D01*
X126374000Y-94778370D01*
X126462426Y-94333824D01*
X126462426Y-94333823D01*
X126635880Y-93915068D01*
X126887696Y-93538198D01*
X127208198Y-93217696D01*
X127585068Y-92965880D01*
X128003823Y-92792426D01*
X128296565Y-92734196D01*
X128448370Y-92704000D01*
X128901630Y-92704000D01*
X129053435Y-92734196D01*
G37*
G36*
X153053435Y-92734196D02*
G01*
X153346177Y-92792426D01*
X153764932Y-92965880D01*
X154141802Y-93217696D01*
X154462304Y-93538198D01*
X154714120Y-93915068D01*
X154887574Y-94333823D01*
X154887574Y-94333824D01*
X154976000Y-94778370D01*
X154976000Y-95231630D01*
X154958797Y-95318113D01*
X154887574Y-95676177D01*
X154714120Y-96094932D01*
X154462304Y-96471802D01*
X154141802Y-96792304D01*
X153764932Y-97044120D01*
X153346177Y-97217574D01*
X153219774Y-97242717D01*
X152901630Y-97306000D01*
X152448370Y-97306000D01*
X152130226Y-97242717D01*
X152003823Y-97217574D01*
X151585068Y-97044120D01*
X151208198Y-96792304D01*
X150887696Y-96471802D01*
X150635880Y-96094932D01*
X150462426Y-95676177D01*
X150391203Y-95318113D01*
X150374000Y-95231630D01*
X150374000Y-94778370D01*
X150462426Y-94333824D01*
X150462426Y-94333823D01*
X150635880Y-93915068D01*
X150887696Y-93538198D01*
X151208198Y-93217696D01*
X151585068Y-92965880D01*
X152003823Y-92792426D01*
X152296565Y-92734196D01*
X152448370Y-92704000D01*
X152901630Y-92704000D01*
X153053435Y-92734196D01*
G37*
G36*
X135862221Y-95364867D02*
G01*
X136003785Y-95407810D01*
X136003787Y-95407811D01*
X136023062Y-95418114D01*
X136134251Y-95477546D01*
X136174536Y-95510607D01*
X136248607Y-95571394D01*
X136285360Y-95616179D01*
X136342454Y-95685748D01*
X136342455Y-95685750D01*
X136404710Y-95802219D01*
X136412190Y-95816214D01*
X136455133Y-95957778D01*
X136466000Y-96068113D01*
X136466000Y-96441886D01*
X136455133Y-96552221D01*
X136412190Y-96693786D01*
X136342454Y-96824252D01*
X136333281Y-96835429D01*
X136248607Y-96938607D01*
X136169221Y-97003756D01*
X136134252Y-97032454D01*
X136003786Y-97102190D01*
X135862222Y-97145133D01*
X135715000Y-97159633D01*
X135567779Y-97145133D01*
X135426215Y-97102190D01*
X135295749Y-97032454D01*
X135224829Y-96974252D01*
X135181393Y-96938606D01*
X135117226Y-96860417D01*
X135087546Y-96824252D01*
X135017810Y-96693786D01*
X134974867Y-96552222D01*
X134964000Y-96441887D01*
X134964000Y-96068114D01*
X134974867Y-95957779D01*
X135017810Y-95816215D01*
X135025291Y-95802220D01*
X135087545Y-95685751D01*
X135087546Y-95685749D01*
X135128714Y-95635585D01*
X135181394Y-95571393D01*
X135267941Y-95500367D01*
X135295748Y-95477546D01*
X135406937Y-95418114D01*
X135426212Y-95407811D01*
X135426214Y-95407810D01*
X135567778Y-95364867D01*
X135715000Y-95350367D01*
X135862221Y-95364867D01*
G37*
G36*
X138402221Y-95364867D02*
G01*
X138543785Y-95407810D01*
X138543787Y-95407811D01*
X138563062Y-95418114D01*
X138674251Y-95477546D01*
X138714536Y-95510607D01*
X138788607Y-95571394D01*
X138825360Y-95616179D01*
X138882454Y-95685748D01*
X138882455Y-95685750D01*
X138944710Y-95802219D01*
X138952190Y-95816214D01*
X138995133Y-95957778D01*
X139006000Y-96068113D01*
X139006000Y-96441886D01*
X138995133Y-96552221D01*
X138952190Y-96693786D01*
X138882454Y-96824252D01*
X138873281Y-96835429D01*
X138788607Y-96938607D01*
X138709221Y-97003756D01*
X138674252Y-97032454D01*
X138543786Y-97102190D01*
X138402222Y-97145133D01*
X138255000Y-97159633D01*
X138107779Y-97145133D01*
X137966215Y-97102190D01*
X137835749Y-97032454D01*
X137764829Y-96974252D01*
X137721393Y-96938606D01*
X137657226Y-96860417D01*
X137627546Y-96824252D01*
X137557810Y-96693786D01*
X137514867Y-96552222D01*
X137504000Y-96441887D01*
X137504000Y-96068114D01*
X137514867Y-95957779D01*
X137557810Y-95816215D01*
X137565291Y-95802220D01*
X137627545Y-95685751D01*
X137627546Y-95685749D01*
X137668714Y-95635585D01*
X137721394Y-95571393D01*
X137807941Y-95500367D01*
X137835748Y-95477546D01*
X137946937Y-95418114D01*
X137966212Y-95407811D01*
X137966214Y-95407810D01*
X138107778Y-95364867D01*
X138255000Y-95350367D01*
X138402221Y-95364867D01*
G37*
G36*
X133673946Y-95360607D02*
G01*
X133732548Y-95378384D01*
X133786557Y-95407252D01*
X133833897Y-95446103D01*
X133872748Y-95493443D01*
X133901616Y-95547452D01*
X133919393Y-95606054D01*
X133926000Y-95673140D01*
X133926000Y-96836860D01*
X133919393Y-96903946D01*
X133901616Y-96962548D01*
X133872748Y-97016557D01*
X133833897Y-97063897D01*
X133786557Y-97102748D01*
X133732548Y-97131616D01*
X133673946Y-97149393D01*
X133606860Y-97156000D01*
X132743140Y-97156000D01*
X132676054Y-97149393D01*
X132617452Y-97131616D01*
X132563443Y-97102748D01*
X132516103Y-97063897D01*
X132477252Y-97016557D01*
X132448384Y-96962548D01*
X132430607Y-96903946D01*
X132424000Y-96836860D01*
X132424000Y-95673140D01*
X132430607Y-95606054D01*
X132448384Y-95547452D01*
X132477252Y-95493443D01*
X132516103Y-95446103D01*
X132563443Y-95407252D01*
X132617452Y-95378384D01*
X132676054Y-95360607D01*
X132743140Y-95354000D01*
X133606860Y-95354000D01*
X133673946Y-95360607D01*
G37*
G36*
X173343604Y-95533347D02*
G01*
X173380144Y-95544432D01*
X173413821Y-95562433D01*
X173443341Y-95586659D01*
X173467567Y-95616179D01*
X173485568Y-95649856D01*
X173496653Y-95686396D01*
X173501000Y-95730538D01*
X173501000Y-96679462D01*
X173496653Y-96723604D01*
X173485568Y-96760144D01*
X173467567Y-96793821D01*
X173443341Y-96823341D01*
X173413821Y-96847567D01*
X173380144Y-96865568D01*
X173343604Y-96876653D01*
X173299462Y-96881000D01*
X171850538Y-96881000D01*
X171806396Y-96876653D01*
X171769856Y-96865568D01*
X171736179Y-96847567D01*
X171706659Y-96823341D01*
X171682433Y-96793821D01*
X171664432Y-96760144D01*
X171653347Y-96723604D01*
X171649000Y-96679462D01*
X171649000Y-95730538D01*
X171653347Y-95686396D01*
X171664432Y-95649856D01*
X171682433Y-95616179D01*
X171706659Y-95586659D01*
X171736179Y-95562433D01*
X171769856Y-95544432D01*
X171806396Y-95533347D01*
X171850538Y-95529000D01*
X173299462Y-95529000D01*
X173343604Y-95533347D01*
G37*
G36*
X163343604Y-95533347D02*
G01*
X163380144Y-95544432D01*
X163413821Y-95562433D01*
X163443341Y-95586659D01*
X163467567Y-95616179D01*
X163485568Y-95649856D01*
X163496653Y-95686396D01*
X163501000Y-95730538D01*
X163501000Y-96679462D01*
X163496653Y-96723604D01*
X163485568Y-96760144D01*
X163467567Y-96793821D01*
X163443341Y-96823341D01*
X163413821Y-96847567D01*
X163380144Y-96865568D01*
X163343604Y-96876653D01*
X163299462Y-96881000D01*
X161850538Y-96881000D01*
X161806396Y-96876653D01*
X161769856Y-96865568D01*
X161736179Y-96847567D01*
X161706659Y-96823341D01*
X161682433Y-96793821D01*
X161664432Y-96760144D01*
X161653347Y-96723604D01*
X161649000Y-96679462D01*
X161649000Y-95730538D01*
X161653347Y-95686396D01*
X161664432Y-95649856D01*
X161682433Y-95616179D01*
X161706659Y-95586659D01*
X161736179Y-95562433D01*
X161769856Y-95544432D01*
X161806396Y-95533347D01*
X161850538Y-95529000D01*
X163299462Y-95529000D01*
X163343604Y-95533347D01*
G37*
G36*
X168743604Y-95533347D02*
G01*
X168780144Y-95544432D01*
X168813821Y-95562433D01*
X168843341Y-95586659D01*
X168867567Y-95616179D01*
X168885568Y-95649856D01*
X168896653Y-95686396D01*
X168901000Y-95730538D01*
X168901000Y-96679462D01*
X168896653Y-96723604D01*
X168885568Y-96760144D01*
X168867567Y-96793821D01*
X168843341Y-96823341D01*
X168813821Y-96847567D01*
X168780144Y-96865568D01*
X168743604Y-96876653D01*
X168699462Y-96881000D01*
X167250538Y-96881000D01*
X167206396Y-96876653D01*
X167169856Y-96865568D01*
X167136179Y-96847567D01*
X167106659Y-96823341D01*
X167082433Y-96793821D01*
X167064432Y-96760144D01*
X167053347Y-96723604D01*
X167049000Y-96679462D01*
X167049000Y-95730538D01*
X167053347Y-95686396D01*
X167064432Y-95649856D01*
X167082433Y-95616179D01*
X167106659Y-95586659D01*
X167136179Y-95562433D01*
X167169856Y-95544432D01*
X167206396Y-95533347D01*
X167250538Y-95529000D01*
X168699462Y-95529000D01*
X168743604Y-95533347D01*
G37*
G36*
X159543604Y-95533347D02*
G01*
X159580144Y-95544432D01*
X159613821Y-95562433D01*
X159643341Y-95586659D01*
X159667567Y-95616179D01*
X159685568Y-95649856D01*
X159696653Y-95686396D01*
X159701000Y-95730538D01*
X159701000Y-96679462D01*
X159696653Y-96723604D01*
X159685568Y-96760144D01*
X159667567Y-96793821D01*
X159643341Y-96823341D01*
X159613821Y-96847567D01*
X159580144Y-96865568D01*
X159543604Y-96876653D01*
X159499462Y-96881000D01*
X158050538Y-96881000D01*
X158006396Y-96876653D01*
X157969856Y-96865568D01*
X157936179Y-96847567D01*
X157906659Y-96823341D01*
X157882433Y-96793821D01*
X157864432Y-96760144D01*
X157853347Y-96723604D01*
X157849000Y-96679462D01*
X157849000Y-95730538D01*
X157853347Y-95686396D01*
X157864432Y-95649856D01*
X157882433Y-95616179D01*
X157906659Y-95586659D01*
X157936179Y-95562433D01*
X157969856Y-95544432D01*
X158006396Y-95533347D01*
X158050538Y-95529000D01*
X159499462Y-95529000D01*
X159543604Y-95533347D01*
G37*
G36*
X145782222Y-94714867D02*
G01*
X145923786Y-94757810D01*
X146054252Y-94827546D01*
X146084040Y-94851992D01*
X146168607Y-94921393D01*
X146228547Y-94994432D01*
X146262454Y-95035748D01*
X146332190Y-95166214D01*
X146375133Y-95307779D01*
X146386000Y-95418114D01*
X146386000Y-95791887D01*
X146375133Y-95902222D01*
X146336220Y-96030500D01*
X146332189Y-96043788D01*
X146309166Y-96086860D01*
X146262454Y-96174252D01*
X146232998Y-96210144D01*
X146168607Y-96288606D01*
X146107058Y-96339117D01*
X146054251Y-96382454D01*
X146054249Y-96382455D01*
X145943061Y-96441887D01*
X145923785Y-96452190D01*
X145782221Y-96495133D01*
X145635000Y-96509633D01*
X145487778Y-96495133D01*
X145346214Y-96452190D01*
X145326939Y-96441887D01*
X145215750Y-96382455D01*
X145215748Y-96382454D01*
X145147754Y-96326653D01*
X145101394Y-96288607D01*
X145037562Y-96210826D01*
X145007546Y-96174251D01*
X144954095Y-96074252D01*
X144937811Y-96043787D01*
X144933780Y-96030500D01*
X144894867Y-95902221D01*
X144884000Y-95791886D01*
X144884000Y-95418113D01*
X144894867Y-95307778D01*
X144937810Y-95166214D01*
X145007546Y-95035748D01*
X145050550Y-94983347D01*
X145101393Y-94921394D01*
X145181012Y-94856054D01*
X145215749Y-94827546D01*
X145346215Y-94757810D01*
X145487779Y-94714867D01*
X145635000Y-94700367D01*
X145782222Y-94714867D01*
G37*
G36*
X143242222Y-94714867D02*
G01*
X143383786Y-94757810D01*
X143514252Y-94827546D01*
X143544040Y-94851992D01*
X143628607Y-94921393D01*
X143688547Y-94994432D01*
X143722454Y-95035748D01*
X143792190Y-95166214D01*
X143835133Y-95307779D01*
X143846000Y-95418114D01*
X143846000Y-95791887D01*
X143835133Y-95902222D01*
X143796220Y-96030500D01*
X143792189Y-96043788D01*
X143769166Y-96086860D01*
X143722454Y-96174252D01*
X143692998Y-96210144D01*
X143628607Y-96288606D01*
X143567058Y-96339117D01*
X143514251Y-96382454D01*
X143514249Y-96382455D01*
X143403061Y-96441887D01*
X143383785Y-96452190D01*
X143242221Y-96495133D01*
X143095000Y-96509633D01*
X142947778Y-96495133D01*
X142806214Y-96452190D01*
X142786939Y-96441887D01*
X142675750Y-96382455D01*
X142675748Y-96382454D01*
X142607754Y-96326653D01*
X142561394Y-96288607D01*
X142497562Y-96210826D01*
X142467546Y-96174251D01*
X142414095Y-96074252D01*
X142397811Y-96043787D01*
X142393780Y-96030500D01*
X142354867Y-95902221D01*
X142344000Y-95791886D01*
X142344000Y-95418113D01*
X142354867Y-95307778D01*
X142397810Y-95166214D01*
X142467546Y-95035748D01*
X142510550Y-94983347D01*
X142561393Y-94921394D01*
X142641012Y-94856054D01*
X142675749Y-94827546D01*
X142806215Y-94757810D01*
X142947779Y-94714867D01*
X143095000Y-94700367D01*
X143242222Y-94714867D01*
G37*
G36*
X148673946Y-94710607D02*
G01*
X148732548Y-94728384D01*
X148786557Y-94757252D01*
X148833897Y-94796103D01*
X148872748Y-94843443D01*
X148901616Y-94897452D01*
X148919393Y-94956054D01*
X148926000Y-95023140D01*
X148926000Y-96186860D01*
X148919393Y-96253946D01*
X148901616Y-96312548D01*
X148872748Y-96366557D01*
X148833897Y-96413897D01*
X148786557Y-96452748D01*
X148732548Y-96481616D01*
X148673946Y-96499393D01*
X148606860Y-96506000D01*
X147743140Y-96506000D01*
X147676054Y-96499393D01*
X147617452Y-96481616D01*
X147563443Y-96452748D01*
X147516103Y-96413897D01*
X147477252Y-96366557D01*
X147448384Y-96312548D01*
X147430607Y-96253946D01*
X147424000Y-96186860D01*
X147424000Y-95023140D01*
X147430607Y-94956054D01*
X147448384Y-94897452D01*
X147477252Y-94843443D01*
X147516103Y-94796103D01*
X147563443Y-94757252D01*
X147617452Y-94728384D01*
X147676054Y-94710607D01*
X147743140Y-94704000D01*
X148606860Y-94704000D01*
X148673946Y-94710607D01*
G37*
G36*
X99742222Y-94614867D02*
G01*
X99883786Y-94657810D01*
X100014252Y-94727546D01*
X100044040Y-94751992D01*
X100128607Y-94821393D01*
X100169221Y-94870883D01*
X100222454Y-94935748D01*
X100222455Y-94935750D01*
X100275906Y-95035748D01*
X100292190Y-95066214D01*
X100335133Y-95207779D01*
X100346000Y-95318114D01*
X100346000Y-95691887D01*
X100335133Y-95802222D01*
X100304798Y-95902222D01*
X100292189Y-95943788D01*
X100280203Y-95966212D01*
X100222454Y-96074252D01*
X100194940Y-96107778D01*
X100128607Y-96188606D01*
X100067058Y-96239117D01*
X100014251Y-96282454D01*
X99883785Y-96352190D01*
X99742221Y-96395133D01*
X99595000Y-96409633D01*
X99447778Y-96395133D01*
X99306214Y-96352190D01*
X99175748Y-96282454D01*
X99122942Y-96239117D01*
X99061394Y-96188607D01*
X98995063Y-96107781D01*
X98967546Y-96074251D01*
X98905291Y-95957781D01*
X98897811Y-95943787D01*
X98885202Y-95902221D01*
X98854867Y-95802221D01*
X98844548Y-95697452D01*
X98844000Y-95691887D01*
X98844000Y-95318112D01*
X98854867Y-95207780D01*
X98854867Y-95207778D01*
X98897810Y-95066214D01*
X98914095Y-95035748D01*
X98967545Y-94935750D01*
X98967546Y-94935748D01*
X99032949Y-94856054D01*
X99061393Y-94821394D01*
X99139552Y-94757252D01*
X99175749Y-94727546D01*
X99306215Y-94657810D01*
X99447779Y-94614867D01*
X99595000Y-94600367D01*
X99742222Y-94614867D01*
G37*
G36*
X102282222Y-94614867D02*
G01*
X102423786Y-94657810D01*
X102554252Y-94727546D01*
X102584040Y-94751992D01*
X102668607Y-94821393D01*
X102709221Y-94870883D01*
X102762454Y-94935748D01*
X102762455Y-94935750D01*
X102815906Y-95035748D01*
X102832190Y-95066214D01*
X102875133Y-95207779D01*
X102886000Y-95318114D01*
X102886000Y-95691887D01*
X102875133Y-95802222D01*
X102844798Y-95902222D01*
X102832189Y-95943788D01*
X102820203Y-95966212D01*
X102762454Y-96074252D01*
X102734940Y-96107778D01*
X102668607Y-96188606D01*
X102607058Y-96239117D01*
X102554251Y-96282454D01*
X102423785Y-96352190D01*
X102282221Y-96395133D01*
X102135000Y-96409633D01*
X101987778Y-96395133D01*
X101846214Y-96352190D01*
X101715748Y-96282454D01*
X101662942Y-96239117D01*
X101601394Y-96188607D01*
X101535063Y-96107781D01*
X101507546Y-96074251D01*
X101445291Y-95957781D01*
X101437811Y-95943787D01*
X101425202Y-95902221D01*
X101394867Y-95802221D01*
X101384548Y-95697452D01*
X101384000Y-95691887D01*
X101384000Y-95318112D01*
X101394867Y-95207780D01*
X101394867Y-95207778D01*
X101437810Y-95066214D01*
X101454095Y-95035748D01*
X101507545Y-94935750D01*
X101507546Y-94935748D01*
X101572949Y-94856054D01*
X101601393Y-94821394D01*
X101679552Y-94757252D01*
X101715749Y-94727546D01*
X101846215Y-94657810D01*
X101987779Y-94614867D01*
X102135000Y-94600367D01*
X102282222Y-94614867D01*
G37*
G36*
X105173946Y-94610607D02*
G01*
X105232548Y-94628384D01*
X105286557Y-94657252D01*
X105333897Y-94696103D01*
X105372748Y-94743443D01*
X105401616Y-94797452D01*
X105419393Y-94856054D01*
X105426000Y-94923140D01*
X105426000Y-96086860D01*
X105419393Y-96153946D01*
X105401616Y-96212548D01*
X105372748Y-96266557D01*
X105333897Y-96313897D01*
X105286557Y-96352748D01*
X105232548Y-96381616D01*
X105173946Y-96399393D01*
X105106860Y-96406000D01*
X104243140Y-96406000D01*
X104176054Y-96399393D01*
X104117452Y-96381616D01*
X104063443Y-96352748D01*
X104016103Y-96313897D01*
X103977252Y-96266557D01*
X103948384Y-96212548D01*
X103930607Y-96153946D01*
X103924000Y-96086860D01*
X103924000Y-94923140D01*
X103930607Y-94856054D01*
X103948384Y-94797452D01*
X103977252Y-94743443D01*
X104016103Y-94696103D01*
X104063443Y-94657252D01*
X104117452Y-94628384D01*
X104176054Y-94610607D01*
X104243140Y-94604000D01*
X105106860Y-94604000D01*
X105173946Y-94610607D01*
G37*
G36*
X122693604Y-94983347D02*
G01*
X122730144Y-94994432D01*
X122763821Y-95012433D01*
X122793341Y-95036659D01*
X122817567Y-95066179D01*
X122835568Y-95099856D01*
X122846653Y-95136396D01*
X122851000Y-95180538D01*
X122851000Y-96129462D01*
X122846653Y-96173604D01*
X122835568Y-96210144D01*
X122817567Y-96243821D01*
X122793341Y-96273341D01*
X122763821Y-96297567D01*
X122730144Y-96315568D01*
X122693604Y-96326653D01*
X122649462Y-96331000D01*
X121200538Y-96331000D01*
X121156396Y-96326653D01*
X121119856Y-96315568D01*
X121086179Y-96297567D01*
X121056659Y-96273341D01*
X121032433Y-96243821D01*
X121014432Y-96210144D01*
X121003347Y-96173604D01*
X120999000Y-96129462D01*
X120999000Y-95180538D01*
X121003347Y-95136396D01*
X121014432Y-95099856D01*
X121032433Y-95066179D01*
X121056659Y-95036659D01*
X121086179Y-95012433D01*
X121119856Y-94994432D01*
X121156396Y-94983347D01*
X121200538Y-94979000D01*
X122649462Y-94979000D01*
X122693604Y-94983347D01*
G37*
G36*
X109943604Y-94983347D02*
G01*
X109980144Y-94994432D01*
X110013821Y-95012433D01*
X110043341Y-95036659D01*
X110067567Y-95066179D01*
X110085568Y-95099856D01*
X110096653Y-95136396D01*
X110101000Y-95180538D01*
X110101000Y-96129462D01*
X110096653Y-96173604D01*
X110085568Y-96210144D01*
X110067567Y-96243821D01*
X110043341Y-96273341D01*
X110013821Y-96297567D01*
X109980144Y-96315568D01*
X109943604Y-96326653D01*
X109899462Y-96331000D01*
X108450538Y-96331000D01*
X108406396Y-96326653D01*
X108369856Y-96315568D01*
X108336179Y-96297567D01*
X108306659Y-96273341D01*
X108282433Y-96243821D01*
X108264432Y-96210144D01*
X108253347Y-96173604D01*
X108249000Y-96129462D01*
X108249000Y-95180538D01*
X108253347Y-95136396D01*
X108264432Y-95099856D01*
X108282433Y-95066179D01*
X108306659Y-95036659D01*
X108336179Y-95012433D01*
X108369856Y-94994432D01*
X108406396Y-94983347D01*
X108450538Y-94979000D01*
X109899462Y-94979000D01*
X109943604Y-94983347D01*
G37*
G36*
X118943604Y-94983347D02*
G01*
X118980144Y-94994432D01*
X119013821Y-95012433D01*
X119043341Y-95036659D01*
X119067567Y-95066179D01*
X119085568Y-95099856D01*
X119096653Y-95136396D01*
X119101000Y-95180538D01*
X119101000Y-96129462D01*
X119096653Y-96173604D01*
X119085568Y-96210144D01*
X119067567Y-96243821D01*
X119043341Y-96273341D01*
X119013821Y-96297567D01*
X118980144Y-96315568D01*
X118943604Y-96326653D01*
X118899462Y-96331000D01*
X117450538Y-96331000D01*
X117406396Y-96326653D01*
X117369856Y-96315568D01*
X117336179Y-96297567D01*
X117306659Y-96273341D01*
X117282433Y-96243821D01*
X117264432Y-96210144D01*
X117253347Y-96173604D01*
X117249000Y-96129462D01*
X117249000Y-95180538D01*
X117253347Y-95136396D01*
X117264432Y-95099856D01*
X117282433Y-95066179D01*
X117306659Y-95036659D01*
X117336179Y-95012433D01*
X117369856Y-94994432D01*
X117406396Y-94983347D01*
X117450538Y-94979000D01*
X118899462Y-94979000D01*
X118943604Y-94983347D01*
G37*
G36*
X113943604Y-94983347D02*
G01*
X113980144Y-94994432D01*
X114013821Y-95012433D01*
X114043341Y-95036659D01*
X114067567Y-95066179D01*
X114085568Y-95099856D01*
X114096653Y-95136396D01*
X114101000Y-95180538D01*
X114101000Y-96129462D01*
X114096653Y-96173604D01*
X114085568Y-96210144D01*
X114067567Y-96243821D01*
X114043341Y-96273341D01*
X114013821Y-96297567D01*
X113980144Y-96315568D01*
X113943604Y-96326653D01*
X113899462Y-96331000D01*
X112450538Y-96331000D01*
X112406396Y-96326653D01*
X112369856Y-96315568D01*
X112336179Y-96297567D01*
X112306659Y-96273341D01*
X112282433Y-96243821D01*
X112264432Y-96210144D01*
X112253347Y-96173604D01*
X112249000Y-96129462D01*
X112249000Y-95180538D01*
X112253347Y-95136396D01*
X112264432Y-95099856D01*
X112282433Y-95066179D01*
X112306659Y-95036659D01*
X112336179Y-95012433D01*
X112369856Y-94994432D01*
X112406396Y-94983347D01*
X112450538Y-94979000D01*
X113899462Y-94979000D01*
X113943604Y-94983347D01*
G37*
G36*
X189538512Y-93728927D02*
G01*
X189687812Y-93758624D01*
X189851784Y-93826544D01*
X189999354Y-93925147D01*
X190124853Y-94050646D01*
X190223456Y-94198216D01*
X190291376Y-94362188D01*
X190326000Y-94536259D01*
X190326000Y-94713741D01*
X190291376Y-94887812D01*
X190223456Y-95051784D01*
X190124853Y-95199354D01*
X189999354Y-95324853D01*
X189851784Y-95423456D01*
X189687812Y-95491376D01*
X189539467Y-95520883D01*
X189513742Y-95526000D01*
X189336258Y-95526000D01*
X189310533Y-95520883D01*
X189162188Y-95491376D01*
X188998216Y-95423456D01*
X188850646Y-95324853D01*
X188725147Y-95199354D01*
X188626544Y-95051784D01*
X188558624Y-94887812D01*
X188524000Y-94713741D01*
X188524000Y-94536259D01*
X188558624Y-94362188D01*
X188626544Y-94198216D01*
X188725147Y-94050646D01*
X188850646Y-93925147D01*
X188998216Y-93826544D01*
X189162188Y-93758624D01*
X189311488Y-93728927D01*
X189336258Y-93724000D01*
X189513742Y-93724000D01*
X189538512Y-93728927D01*
G37*
G36*
X92038512Y-93728927D02*
G01*
X92187812Y-93758624D01*
X92351784Y-93826544D01*
X92499354Y-93925147D01*
X92624853Y-94050646D01*
X92723456Y-94198216D01*
X92791376Y-94362188D01*
X92826000Y-94536259D01*
X92826000Y-94713741D01*
X92791376Y-94887812D01*
X92723456Y-95051784D01*
X92624853Y-95199354D01*
X92499354Y-95324853D01*
X92351784Y-95423456D01*
X92187812Y-95491376D01*
X92039467Y-95520883D01*
X92013742Y-95526000D01*
X91836258Y-95526000D01*
X91810533Y-95520883D01*
X91662188Y-95491376D01*
X91498216Y-95423456D01*
X91350646Y-95324853D01*
X91225147Y-95199354D01*
X91126544Y-95051784D01*
X91058624Y-94887812D01*
X91024000Y-94713741D01*
X91024000Y-94536259D01*
X91058624Y-94362188D01*
X91126544Y-94198216D01*
X91225147Y-94050646D01*
X91350646Y-93925147D01*
X91498216Y-93826544D01*
X91662188Y-93758624D01*
X91811488Y-93728927D01*
X91836258Y-93724000D01*
X92013742Y-93724000D01*
X92038512Y-93728927D01*
G37*
G36*
X163343604Y-92733347D02*
G01*
X163380144Y-92744432D01*
X163413821Y-92762433D01*
X163443341Y-92786659D01*
X163467567Y-92816179D01*
X163485568Y-92849856D01*
X163496653Y-92886396D01*
X163501000Y-92930538D01*
X163501000Y-93879462D01*
X163496653Y-93923604D01*
X163485568Y-93960144D01*
X163467567Y-93993821D01*
X163443341Y-94023341D01*
X163413821Y-94047567D01*
X163380144Y-94065568D01*
X163343604Y-94076653D01*
X163299462Y-94081000D01*
X161850538Y-94081000D01*
X161806396Y-94076653D01*
X161769856Y-94065568D01*
X161736179Y-94047567D01*
X161706659Y-94023341D01*
X161682433Y-93993821D01*
X161664432Y-93960144D01*
X161653347Y-93923604D01*
X161649000Y-93879462D01*
X161649000Y-92930538D01*
X161653347Y-92886396D01*
X161664432Y-92849856D01*
X161682433Y-92816179D01*
X161706659Y-92786659D01*
X161736179Y-92762433D01*
X161769856Y-92744432D01*
X161806396Y-92733347D01*
X161850538Y-92729000D01*
X163299462Y-92729000D01*
X163343604Y-92733347D01*
G37*
G36*
X173343604Y-92733347D02*
G01*
X173380144Y-92744432D01*
X173413821Y-92762433D01*
X173443341Y-92786659D01*
X173467567Y-92816179D01*
X173485568Y-92849856D01*
X173496653Y-92886396D01*
X173501000Y-92930538D01*
X173501000Y-93879462D01*
X173496653Y-93923604D01*
X173485568Y-93960144D01*
X173467567Y-93993821D01*
X173443341Y-94023341D01*
X173413821Y-94047567D01*
X173380144Y-94065568D01*
X173343604Y-94076653D01*
X173299462Y-94081000D01*
X171850538Y-94081000D01*
X171806396Y-94076653D01*
X171769856Y-94065568D01*
X171736179Y-94047567D01*
X171706659Y-94023341D01*
X171682433Y-93993821D01*
X171664432Y-93960144D01*
X171653347Y-93923604D01*
X171649000Y-93879462D01*
X171649000Y-92930538D01*
X171653347Y-92886396D01*
X171664432Y-92849856D01*
X171682433Y-92816179D01*
X171706659Y-92786659D01*
X171736179Y-92762433D01*
X171769856Y-92744432D01*
X171806396Y-92733347D01*
X171850538Y-92729000D01*
X173299462Y-92729000D01*
X173343604Y-92733347D01*
G37*
G36*
X159543604Y-92733347D02*
G01*
X159580144Y-92744432D01*
X159613821Y-92762433D01*
X159643341Y-92786659D01*
X159667567Y-92816179D01*
X159685568Y-92849856D01*
X159696653Y-92886396D01*
X159701000Y-92930538D01*
X159701000Y-93879462D01*
X159696653Y-93923604D01*
X159685568Y-93960144D01*
X159667567Y-93993821D01*
X159643341Y-94023341D01*
X159613821Y-94047567D01*
X159580144Y-94065568D01*
X159543604Y-94076653D01*
X159499462Y-94081000D01*
X158050538Y-94081000D01*
X158006396Y-94076653D01*
X157969856Y-94065568D01*
X157936179Y-94047567D01*
X157906659Y-94023341D01*
X157882433Y-93993821D01*
X157864432Y-93960144D01*
X157853347Y-93923604D01*
X157849000Y-93879462D01*
X157849000Y-92930538D01*
X157853347Y-92886396D01*
X157864432Y-92849856D01*
X157882433Y-92816179D01*
X157906659Y-92786659D01*
X157936179Y-92762433D01*
X157969856Y-92744432D01*
X158006396Y-92733347D01*
X158050538Y-92729000D01*
X159499462Y-92729000D01*
X159543604Y-92733347D01*
G37*
G36*
X168743604Y-92733347D02*
G01*
X168780144Y-92744432D01*
X168813821Y-92762433D01*
X168843341Y-92786659D01*
X168867567Y-92816179D01*
X168885568Y-92849856D01*
X168896653Y-92886396D01*
X168901000Y-92930538D01*
X168901000Y-93879462D01*
X168896653Y-93923604D01*
X168885568Y-93960144D01*
X168867567Y-93993821D01*
X168843341Y-94023341D01*
X168813821Y-94047567D01*
X168780144Y-94065568D01*
X168743604Y-94076653D01*
X168699462Y-94081000D01*
X167250538Y-94081000D01*
X167206396Y-94076653D01*
X167169856Y-94065568D01*
X167136179Y-94047567D01*
X167106659Y-94023341D01*
X167082433Y-93993821D01*
X167064432Y-93960144D01*
X167053347Y-93923604D01*
X167049000Y-93879462D01*
X167049000Y-92930538D01*
X167053347Y-92886396D01*
X167064432Y-92849856D01*
X167082433Y-92816179D01*
X167106659Y-92786659D01*
X167136179Y-92762433D01*
X167169856Y-92744432D01*
X167206396Y-92733347D01*
X167250538Y-92729000D01*
X168699462Y-92729000D01*
X168743604Y-92733347D01*
G37*
G36*
X180700589Y-92043876D02*
G01*
X180799893Y-92063629D01*
X180940206Y-92121748D01*
X181066484Y-92206125D01*
X181173875Y-92313516D01*
X181258252Y-92439794D01*
X181316371Y-92580107D01*
X181316371Y-92580109D01*
X181345988Y-92729000D01*
X181346000Y-92729063D01*
X181346000Y-92880937D01*
X181316371Y-93029893D01*
X181258252Y-93170206D01*
X181173875Y-93296484D01*
X181066484Y-93403875D01*
X180940206Y-93488252D01*
X180799893Y-93546371D01*
X180700589Y-93566124D01*
X180650938Y-93576000D01*
X180499062Y-93576000D01*
X180449411Y-93566124D01*
X180350107Y-93546371D01*
X180209794Y-93488252D01*
X180083516Y-93403875D01*
X179976125Y-93296484D01*
X179891748Y-93170206D01*
X179833629Y-93029893D01*
X179804000Y-92880937D01*
X179804000Y-92729063D01*
X179804013Y-92729000D01*
X179833629Y-92580109D01*
X179833629Y-92580107D01*
X179891748Y-92439794D01*
X179976125Y-92313516D01*
X180083516Y-92206125D01*
X180209794Y-92121748D01*
X180350107Y-92063629D01*
X180449411Y-92043876D01*
X180499062Y-92034000D01*
X180650938Y-92034000D01*
X180700589Y-92043876D01*
G37*
G36*
X139100589Y-92043876D02*
G01*
X139199893Y-92063629D01*
X139340206Y-92121748D01*
X139466484Y-92206125D01*
X139573875Y-92313516D01*
X139658252Y-92439794D01*
X139716371Y-92580107D01*
X139716371Y-92580109D01*
X139745988Y-92729000D01*
X139746000Y-92729063D01*
X139746000Y-92880937D01*
X139716371Y-93029893D01*
X139658252Y-93170206D01*
X139573875Y-93296484D01*
X139466484Y-93403875D01*
X139340206Y-93488252D01*
X139199893Y-93546371D01*
X139100589Y-93566124D01*
X139050938Y-93576000D01*
X138899062Y-93576000D01*
X138849411Y-93566124D01*
X138750107Y-93546371D01*
X138609794Y-93488252D01*
X138483516Y-93403875D01*
X138376125Y-93296484D01*
X138291748Y-93170206D01*
X138233629Y-93029893D01*
X138204000Y-92880937D01*
X138204000Y-92729063D01*
X138204013Y-92729000D01*
X138233629Y-92580109D01*
X138233629Y-92580107D01*
X138291748Y-92439794D01*
X138376125Y-92313516D01*
X138483516Y-92206125D01*
X138609794Y-92121748D01*
X138750107Y-92063629D01*
X138849411Y-92043876D01*
X138899062Y-92034000D01*
X139050938Y-92034000D01*
X139100589Y-92043876D01*
G37*
G36*
X122693604Y-92183347D02*
G01*
X122730144Y-92194432D01*
X122763821Y-92212433D01*
X122793341Y-92236659D01*
X122817567Y-92266179D01*
X122835568Y-92299856D01*
X122846653Y-92336396D01*
X122851000Y-92380538D01*
X122851000Y-93329462D01*
X122846653Y-93373604D01*
X122835568Y-93410144D01*
X122817567Y-93443821D01*
X122793341Y-93473341D01*
X122763821Y-93497567D01*
X122730144Y-93515568D01*
X122693604Y-93526653D01*
X122649462Y-93531000D01*
X121200538Y-93531000D01*
X121156396Y-93526653D01*
X121119856Y-93515568D01*
X121086179Y-93497567D01*
X121056659Y-93473341D01*
X121032433Y-93443821D01*
X121014432Y-93410144D01*
X121003347Y-93373604D01*
X120999000Y-93329462D01*
X120999000Y-92380538D01*
X121003347Y-92336396D01*
X121014432Y-92299856D01*
X121032433Y-92266179D01*
X121056659Y-92236659D01*
X121086179Y-92212433D01*
X121119856Y-92194432D01*
X121156396Y-92183347D01*
X121200538Y-92179000D01*
X122649462Y-92179000D01*
X122693604Y-92183347D01*
G37*
G36*
X109943604Y-92183347D02*
G01*
X109980144Y-92194432D01*
X110013821Y-92212433D01*
X110043341Y-92236659D01*
X110067567Y-92266179D01*
X110085568Y-92299856D01*
X110096653Y-92336396D01*
X110101000Y-92380538D01*
X110101000Y-93329462D01*
X110096653Y-93373604D01*
X110085568Y-93410144D01*
X110067567Y-93443821D01*
X110043341Y-93473341D01*
X110013821Y-93497567D01*
X109980144Y-93515568D01*
X109943604Y-93526653D01*
X109899462Y-93531000D01*
X108450538Y-93531000D01*
X108406396Y-93526653D01*
X108369856Y-93515568D01*
X108336179Y-93497567D01*
X108306659Y-93473341D01*
X108282433Y-93443821D01*
X108264432Y-93410144D01*
X108253347Y-93373604D01*
X108249000Y-93329462D01*
X108249000Y-92380538D01*
X108253347Y-92336396D01*
X108264432Y-92299856D01*
X108282433Y-92266179D01*
X108306659Y-92236659D01*
X108336179Y-92212433D01*
X108369856Y-92194432D01*
X108406396Y-92183347D01*
X108450538Y-92179000D01*
X109899462Y-92179000D01*
X109943604Y-92183347D01*
G37*
G36*
X118943604Y-92183347D02*
G01*
X118980144Y-92194432D01*
X119013821Y-92212433D01*
X119043341Y-92236659D01*
X119067567Y-92266179D01*
X119085568Y-92299856D01*
X119096653Y-92336396D01*
X119101000Y-92380538D01*
X119101000Y-93329462D01*
X119096653Y-93373604D01*
X119085568Y-93410144D01*
X119067567Y-93443821D01*
X119043341Y-93473341D01*
X119013821Y-93497567D01*
X118980144Y-93515568D01*
X118943604Y-93526653D01*
X118899462Y-93531000D01*
X117450538Y-93531000D01*
X117406396Y-93526653D01*
X117369856Y-93515568D01*
X117336179Y-93497567D01*
X117306659Y-93473341D01*
X117282433Y-93443821D01*
X117264432Y-93410144D01*
X117253347Y-93373604D01*
X117249000Y-93329462D01*
X117249000Y-92380538D01*
X117253347Y-92336396D01*
X117264432Y-92299856D01*
X117282433Y-92266179D01*
X117306659Y-92236659D01*
X117336179Y-92212433D01*
X117369856Y-92194432D01*
X117406396Y-92183347D01*
X117450538Y-92179000D01*
X118899462Y-92179000D01*
X118943604Y-92183347D01*
G37*
G36*
X113943604Y-92183347D02*
G01*
X113980144Y-92194432D01*
X114013821Y-92212433D01*
X114043341Y-92236659D01*
X114067567Y-92266179D01*
X114085568Y-92299856D01*
X114096653Y-92336396D01*
X114101000Y-92380538D01*
X114101000Y-93329462D01*
X114096653Y-93373604D01*
X114085568Y-93410144D01*
X114067567Y-93443821D01*
X114043341Y-93473341D01*
X114013821Y-93497567D01*
X113980144Y-93515568D01*
X113943604Y-93526653D01*
X113899462Y-93531000D01*
X112450538Y-93531000D01*
X112406396Y-93526653D01*
X112369856Y-93515568D01*
X112336179Y-93497567D01*
X112306659Y-93473341D01*
X112282433Y-93443821D01*
X112264432Y-93410144D01*
X112253347Y-93373604D01*
X112249000Y-93329462D01*
X112249000Y-92380538D01*
X112253347Y-92336396D01*
X112264432Y-92299856D01*
X112282433Y-92266179D01*
X112306659Y-92236659D01*
X112336179Y-92212433D01*
X112369856Y-92194432D01*
X112406396Y-92183347D01*
X112450538Y-92179000D01*
X113899462Y-92179000D01*
X113943604Y-92183347D01*
G37*
G36*
X144800589Y-91993876D02*
G01*
X144899893Y-92013629D01*
X145040206Y-92071748D01*
X145166484Y-92156125D01*
X145273875Y-92263516D01*
X145358252Y-92389794D01*
X145416371Y-92530107D01*
X145426317Y-92580109D01*
X145446000Y-92679062D01*
X145446000Y-92830938D01*
X145442237Y-92849856D01*
X145416371Y-92979893D01*
X145358252Y-93120206D01*
X145273875Y-93246484D01*
X145166484Y-93353875D01*
X145040206Y-93438252D01*
X144899893Y-93496371D01*
X144800589Y-93516124D01*
X144750938Y-93526000D01*
X144599062Y-93526000D01*
X144549411Y-93516124D01*
X144450107Y-93496371D01*
X144309794Y-93438252D01*
X144183516Y-93353875D01*
X144076125Y-93246484D01*
X143991748Y-93120206D01*
X143933629Y-92979893D01*
X143907763Y-92849856D01*
X143904000Y-92830938D01*
X143904000Y-92679062D01*
X143923683Y-92580109D01*
X143933629Y-92530107D01*
X143991748Y-92389794D01*
X144076125Y-92263516D01*
X144183516Y-92156125D01*
X144309794Y-92071748D01*
X144450107Y-92013629D01*
X144549411Y-91993876D01*
X144599062Y-91984000D01*
X144750938Y-91984000D01*
X144800589Y-91993876D01*
G37*
G36*
X103550589Y-91993876D02*
G01*
X103649893Y-92013629D01*
X103790206Y-92071748D01*
X103916484Y-92156125D01*
X104023875Y-92263516D01*
X104108252Y-92389794D01*
X104166371Y-92530107D01*
X104176317Y-92580109D01*
X104196000Y-92679062D01*
X104196000Y-92830938D01*
X104192237Y-92849856D01*
X104166371Y-92979893D01*
X104108252Y-93120206D01*
X104023875Y-93246484D01*
X103916484Y-93353875D01*
X103790206Y-93438252D01*
X103649893Y-93496371D01*
X103550589Y-93516124D01*
X103500938Y-93526000D01*
X103349062Y-93526000D01*
X103299411Y-93516124D01*
X103200107Y-93496371D01*
X103059794Y-93438252D01*
X102933516Y-93353875D01*
X102826125Y-93246484D01*
X102741748Y-93120206D01*
X102683629Y-92979893D01*
X102657763Y-92849856D01*
X102654000Y-92830938D01*
X102654000Y-92679062D01*
X102673683Y-92580109D01*
X102683629Y-92530107D01*
X102741748Y-92389794D01*
X102826125Y-92263516D01*
X102933516Y-92156125D01*
X103059794Y-92071748D01*
X103200107Y-92013629D01*
X103299411Y-91993876D01*
X103349062Y-91984000D01*
X103500938Y-91984000D01*
X103550589Y-91993876D01*
G37*
G36*
X92038512Y-91188927D02*
G01*
X92187812Y-91218624D01*
X92351784Y-91286544D01*
X92499354Y-91385147D01*
X92624853Y-91510646D01*
X92723456Y-91658216D01*
X92791376Y-91822188D01*
X92809116Y-91911376D01*
X92826000Y-91996258D01*
X92826000Y-92173742D01*
X92821884Y-92194432D01*
X92791376Y-92347812D01*
X92723456Y-92511784D01*
X92624853Y-92659354D01*
X92499354Y-92784853D01*
X92351784Y-92883456D01*
X92187812Y-92951376D01*
X92038512Y-92981073D01*
X92013742Y-92986000D01*
X91836258Y-92986000D01*
X91811488Y-92981073D01*
X91662188Y-92951376D01*
X91498216Y-92883456D01*
X91350646Y-92784853D01*
X91225147Y-92659354D01*
X91126544Y-92511784D01*
X91058624Y-92347812D01*
X91028116Y-92194432D01*
X91024000Y-92173742D01*
X91024000Y-91996258D01*
X91040884Y-91911376D01*
X91058624Y-91822188D01*
X91126544Y-91658216D01*
X91225147Y-91510646D01*
X91350646Y-91385147D01*
X91498216Y-91286544D01*
X91662188Y-91218624D01*
X91811488Y-91188927D01*
X91836258Y-91184000D01*
X92013742Y-91184000D01*
X92038512Y-91188927D01*
G37*
G36*
X189538512Y-91188927D02*
G01*
X189687812Y-91218624D01*
X189851784Y-91286544D01*
X189999354Y-91385147D01*
X190124853Y-91510646D01*
X190223456Y-91658216D01*
X190291376Y-91822188D01*
X190309116Y-91911376D01*
X190326000Y-91996258D01*
X190326000Y-92173742D01*
X190321884Y-92194432D01*
X190291376Y-92347812D01*
X190223456Y-92511784D01*
X190124853Y-92659354D01*
X189999354Y-92784853D01*
X189851784Y-92883456D01*
X189687812Y-92951376D01*
X189538512Y-92981073D01*
X189513742Y-92986000D01*
X189336258Y-92986000D01*
X189311488Y-92981073D01*
X189162188Y-92951376D01*
X188998216Y-92883456D01*
X188850646Y-92784853D01*
X188725147Y-92659354D01*
X188626544Y-92511784D01*
X188558624Y-92347812D01*
X188528116Y-92194432D01*
X188524000Y-92173742D01*
X188524000Y-91996258D01*
X188540884Y-91911376D01*
X188558624Y-91822188D01*
X188626544Y-91658216D01*
X188725147Y-91510646D01*
X188850646Y-91385147D01*
X188998216Y-91286544D01*
X189162188Y-91218624D01*
X189311488Y-91188927D01*
X189336258Y-91184000D01*
X189513742Y-91184000D01*
X189538512Y-91188927D01*
G37*
G36*
X132788512Y-90148927D02*
G01*
X132937812Y-90178624D01*
X133101784Y-90246544D01*
X133249354Y-90345147D01*
X133374853Y-90470646D01*
X133473456Y-90618216D01*
X133541376Y-90782188D01*
X133576000Y-90956259D01*
X133576000Y-91133741D01*
X133541376Y-91307812D01*
X133473456Y-91471784D01*
X133374853Y-91619354D01*
X133249354Y-91744853D01*
X133101784Y-91843456D01*
X132937812Y-91911376D01*
X132788512Y-91941073D01*
X132763742Y-91946000D01*
X132586258Y-91946000D01*
X132561488Y-91941073D01*
X132412188Y-91911376D01*
X132248216Y-91843456D01*
X132100646Y-91744853D01*
X131975147Y-91619354D01*
X131876544Y-91471784D01*
X131808624Y-91307812D01*
X131774000Y-91133741D01*
X131774000Y-90956259D01*
X131808624Y-90782188D01*
X131876544Y-90618216D01*
X131975147Y-90470646D01*
X132100646Y-90345147D01*
X132248216Y-90246544D01*
X132412188Y-90178624D01*
X132561488Y-90148927D01*
X132586258Y-90144000D01*
X132763742Y-90144000D01*
X132788512Y-90148927D01*
G37*
G36*
X178160589Y-89503876D02*
G01*
X178259893Y-89523629D01*
X178400206Y-89581748D01*
X178526484Y-89666125D01*
X178633875Y-89773516D01*
X178718252Y-89899794D01*
X178776371Y-90040107D01*
X178776371Y-90040109D01*
X178806000Y-90189062D01*
X178806000Y-90340938D01*
X178799290Y-90374671D01*
X178776371Y-90489893D01*
X178718252Y-90630206D01*
X178633875Y-90756484D01*
X178526484Y-90863875D01*
X178400206Y-90948252D01*
X178259893Y-91006371D01*
X178160589Y-91026124D01*
X178110938Y-91036000D01*
X177959062Y-91036000D01*
X177909411Y-91026124D01*
X177810107Y-91006371D01*
X177669794Y-90948252D01*
X177543516Y-90863875D01*
X177436125Y-90756484D01*
X177351748Y-90630206D01*
X177293629Y-90489893D01*
X177270710Y-90374671D01*
X177264000Y-90340938D01*
X177264000Y-90189062D01*
X177293629Y-90040109D01*
X177293629Y-90040107D01*
X177351748Y-89899794D01*
X177436125Y-89773516D01*
X177543516Y-89666125D01*
X177669794Y-89581748D01*
X177810107Y-89523629D01*
X177909411Y-89503876D01*
X177959062Y-89494000D01*
X178110938Y-89494000D01*
X178160589Y-89503876D01*
G37*
G36*
X136560589Y-89503876D02*
G01*
X136659893Y-89523629D01*
X136800206Y-89581748D01*
X136926484Y-89666125D01*
X137033875Y-89773516D01*
X137118252Y-89899794D01*
X137176371Y-90040107D01*
X137176371Y-90040109D01*
X137206000Y-90189062D01*
X137206000Y-90340938D01*
X137199290Y-90374671D01*
X137176371Y-90489893D01*
X137118252Y-90630206D01*
X137033875Y-90756484D01*
X136926484Y-90863875D01*
X136800206Y-90948252D01*
X136659893Y-91006371D01*
X136560589Y-91026124D01*
X136510938Y-91036000D01*
X136359062Y-91036000D01*
X136309411Y-91026124D01*
X136210107Y-91006371D01*
X136069794Y-90948252D01*
X135943516Y-90863875D01*
X135836125Y-90756484D01*
X135751748Y-90630206D01*
X135693629Y-90489893D01*
X135670710Y-90374671D01*
X135664000Y-90340938D01*
X135664000Y-90189062D01*
X135693629Y-90040109D01*
X135693629Y-90040107D01*
X135751748Y-89899794D01*
X135836125Y-89773516D01*
X135943516Y-89666125D01*
X136069794Y-89581748D01*
X136210107Y-89523629D01*
X136309411Y-89503876D01*
X136359062Y-89494000D01*
X136510938Y-89494000D01*
X136560589Y-89503876D01*
G37*
G36*
X101010589Y-89453876D02*
G01*
X101109893Y-89473629D01*
X101250206Y-89531748D01*
X101376484Y-89616125D01*
X101483875Y-89723516D01*
X101568252Y-89849794D01*
X101626371Y-89990107D01*
X101636317Y-90040109D01*
X101656000Y-90139062D01*
X101656000Y-90290938D01*
X101649162Y-90325314D01*
X101626371Y-90439893D01*
X101568252Y-90580206D01*
X101483875Y-90706484D01*
X101376484Y-90813875D01*
X101250206Y-90898252D01*
X101109893Y-90956371D01*
X101010589Y-90976124D01*
X100960938Y-90986000D01*
X100809062Y-90986000D01*
X100759411Y-90976124D01*
X100660107Y-90956371D01*
X100519794Y-90898252D01*
X100393516Y-90813875D01*
X100286125Y-90706484D01*
X100201748Y-90580206D01*
X100143629Y-90439893D01*
X100120838Y-90325314D01*
X100114000Y-90290938D01*
X100114000Y-90139062D01*
X100133683Y-90040109D01*
X100143629Y-89990107D01*
X100201748Y-89849794D01*
X100286125Y-89723516D01*
X100393516Y-89616125D01*
X100519794Y-89531748D01*
X100660107Y-89473629D01*
X100759411Y-89453876D01*
X100809062Y-89444000D01*
X100960938Y-89444000D01*
X101010589Y-89453876D01*
G37*
G36*
X142260589Y-89453876D02*
G01*
X142359893Y-89473629D01*
X142500206Y-89531748D01*
X142626484Y-89616125D01*
X142733875Y-89723516D01*
X142818252Y-89849794D01*
X142876371Y-89990107D01*
X142886317Y-90040109D01*
X142906000Y-90139062D01*
X142906000Y-90290938D01*
X142899162Y-90325314D01*
X142876371Y-90439893D01*
X142818252Y-90580206D01*
X142733875Y-90706484D01*
X142626484Y-90813875D01*
X142500206Y-90898252D01*
X142359893Y-90956371D01*
X142260589Y-90976124D01*
X142210938Y-90986000D01*
X142059062Y-90986000D01*
X142009411Y-90976124D01*
X141910107Y-90956371D01*
X141769794Y-90898252D01*
X141643516Y-90813875D01*
X141536125Y-90706484D01*
X141451748Y-90580206D01*
X141393629Y-90439893D01*
X141370838Y-90325314D01*
X141364000Y-90290938D01*
X141364000Y-90139062D01*
X141383683Y-90040109D01*
X141393629Y-89990107D01*
X141451748Y-89849794D01*
X141536125Y-89723516D01*
X141643516Y-89616125D01*
X141769794Y-89531748D01*
X141910107Y-89473629D01*
X142009411Y-89453876D01*
X142059062Y-89444000D01*
X142210938Y-89444000D01*
X142260589Y-89453876D01*
G37*
G36*
X92038512Y-88648927D02*
G01*
X92187812Y-88678624D01*
X92351784Y-88746544D01*
X92499354Y-88845147D01*
X92624853Y-88970646D01*
X92723456Y-89118216D01*
X92791376Y-89282188D01*
X92826000Y-89456259D01*
X92826000Y-89633741D01*
X92791376Y-89807812D01*
X92723456Y-89971784D01*
X92624853Y-90119354D01*
X92499354Y-90244853D01*
X92351784Y-90343456D01*
X92187812Y-90411376D01*
X92038512Y-90441073D01*
X92013742Y-90446000D01*
X91836258Y-90446000D01*
X91811488Y-90441073D01*
X91662188Y-90411376D01*
X91498216Y-90343456D01*
X91350646Y-90244853D01*
X91225147Y-90119354D01*
X91126544Y-89971784D01*
X91058624Y-89807812D01*
X91024000Y-89633741D01*
X91024000Y-89456259D01*
X91058624Y-89282188D01*
X91126544Y-89118216D01*
X91225147Y-88970646D01*
X91350646Y-88845147D01*
X91498216Y-88746544D01*
X91662188Y-88678624D01*
X91811488Y-88648927D01*
X91836258Y-88644000D01*
X92013742Y-88644000D01*
X92038512Y-88648927D01*
G37*
G36*
X189538512Y-88648927D02*
G01*
X189687812Y-88678624D01*
X189851784Y-88746544D01*
X189999354Y-88845147D01*
X190124853Y-88970646D01*
X190223456Y-89118216D01*
X190291376Y-89282188D01*
X190326000Y-89456259D01*
X190326000Y-89633741D01*
X190291376Y-89807812D01*
X190223456Y-89971784D01*
X190124853Y-90119354D01*
X189999354Y-90244853D01*
X189851784Y-90343456D01*
X189687812Y-90411376D01*
X189538512Y-90441073D01*
X189513742Y-90446000D01*
X189336258Y-90446000D01*
X189311488Y-90441073D01*
X189162188Y-90411376D01*
X188998216Y-90343456D01*
X188850646Y-90244853D01*
X188725147Y-90119354D01*
X188626544Y-89971784D01*
X188558624Y-89807812D01*
X188524000Y-89633741D01*
X188524000Y-89456259D01*
X188558624Y-89282188D01*
X188626544Y-89118216D01*
X188725147Y-88970646D01*
X188850646Y-88845147D01*
X188998216Y-88746544D01*
X189162188Y-88678624D01*
X189311488Y-88648927D01*
X189336258Y-88644000D01*
X189513742Y-88644000D01*
X189538512Y-88648927D01*
G37*
G36*
X153236552Y-89541331D02*
G01*
X153318627Y-89575328D01*
X153318629Y-89575329D01*
X153355813Y-89600175D01*
X153392495Y-89624685D01*
X153455315Y-89687505D01*
X153504672Y-89761373D01*
X153538669Y-89843448D01*
X153556000Y-89930579D01*
X153556000Y-90019421D01*
X153538669Y-90106552D01*
X153525202Y-90139063D01*
X153504671Y-90188629D01*
X153504381Y-90189063D01*
X153455315Y-90262495D01*
X153392495Y-90325315D01*
X153365345Y-90343456D01*
X153318629Y-90374671D01*
X153318628Y-90374672D01*
X153318627Y-90374672D01*
X153236552Y-90408669D01*
X153149421Y-90426000D01*
X153060579Y-90426000D01*
X152973448Y-90408669D01*
X152891373Y-90374672D01*
X152891372Y-90374672D01*
X152891371Y-90374671D01*
X152844655Y-90343456D01*
X152817505Y-90325315D01*
X152754685Y-90262495D01*
X152705619Y-90189063D01*
X152705329Y-90188629D01*
X152684798Y-90139063D01*
X152671331Y-90106552D01*
X152654000Y-90019421D01*
X152654000Y-89930579D01*
X152671331Y-89843448D01*
X152705328Y-89761373D01*
X152754685Y-89687505D01*
X152817505Y-89624685D01*
X152854187Y-89600175D01*
X152891371Y-89575329D01*
X152891373Y-89575328D01*
X152973448Y-89541331D01*
X153060579Y-89524000D01*
X153149421Y-89524000D01*
X153236552Y-89541331D01*
G37*
G36*
X151966552Y-89541331D02*
G01*
X152048627Y-89575328D01*
X152048629Y-89575329D01*
X152085813Y-89600175D01*
X152122495Y-89624685D01*
X152185315Y-89687505D01*
X152234672Y-89761373D01*
X152268669Y-89843448D01*
X152286000Y-89930579D01*
X152286000Y-90019421D01*
X152268669Y-90106552D01*
X152255202Y-90139063D01*
X152234671Y-90188629D01*
X152234381Y-90189063D01*
X152185315Y-90262495D01*
X152122495Y-90325315D01*
X152095345Y-90343456D01*
X152048629Y-90374671D01*
X152048628Y-90374672D01*
X152048627Y-90374672D01*
X151966552Y-90408669D01*
X151879421Y-90426000D01*
X151790579Y-90426000D01*
X151703448Y-90408669D01*
X151621373Y-90374672D01*
X151621372Y-90374672D01*
X151621371Y-90374671D01*
X151574655Y-90343456D01*
X151547505Y-90325315D01*
X151484685Y-90262495D01*
X151435619Y-90189063D01*
X151435329Y-90188629D01*
X151414798Y-90139063D01*
X151401331Y-90106552D01*
X151384000Y-90019421D01*
X151384000Y-89930579D01*
X151401331Y-89843448D01*
X151435328Y-89761373D01*
X151484685Y-89687505D01*
X151547505Y-89624685D01*
X151584187Y-89600175D01*
X151621371Y-89575329D01*
X151621373Y-89575328D01*
X151703448Y-89541331D01*
X151790579Y-89524000D01*
X151879421Y-89524000D01*
X151966552Y-89541331D01*
G37*
G36*
X154506552Y-89541331D02*
G01*
X154588627Y-89575328D01*
X154588629Y-89575329D01*
X154625813Y-89600175D01*
X154662495Y-89624685D01*
X154725315Y-89687505D01*
X154774672Y-89761373D01*
X154808669Y-89843448D01*
X154826000Y-89930579D01*
X154826000Y-90019421D01*
X154808669Y-90106552D01*
X154795202Y-90139063D01*
X154774671Y-90188629D01*
X154774381Y-90189063D01*
X154725315Y-90262495D01*
X154662495Y-90325315D01*
X154635345Y-90343456D01*
X154588629Y-90374671D01*
X154588628Y-90374672D01*
X154588627Y-90374672D01*
X154506552Y-90408669D01*
X154419421Y-90426000D01*
X154330579Y-90426000D01*
X154243448Y-90408669D01*
X154161373Y-90374672D01*
X154161372Y-90374672D01*
X154161371Y-90374671D01*
X154114655Y-90343456D01*
X154087505Y-90325315D01*
X154024685Y-90262495D01*
X153975619Y-90189063D01*
X153975329Y-90188629D01*
X153954798Y-90139063D01*
X153941331Y-90106552D01*
X153924000Y-90019421D01*
X153924000Y-89930579D01*
X153941331Y-89843448D01*
X153975328Y-89761373D01*
X154024685Y-89687505D01*
X154087505Y-89624685D01*
X154124187Y-89600175D01*
X154161371Y-89575329D01*
X154161373Y-89575328D01*
X154243448Y-89541331D01*
X154330579Y-89524000D01*
X154419421Y-89524000D01*
X154506552Y-89541331D01*
G37*
G36*
X150696552Y-89541331D02*
G01*
X150778627Y-89575328D01*
X150778629Y-89575329D01*
X150815813Y-89600175D01*
X150852495Y-89624685D01*
X150915315Y-89687505D01*
X150964672Y-89761373D01*
X150998669Y-89843448D01*
X151016000Y-89930579D01*
X151016000Y-90019421D01*
X150998669Y-90106552D01*
X150985202Y-90139063D01*
X150964671Y-90188629D01*
X150964381Y-90189063D01*
X150915315Y-90262495D01*
X150852495Y-90325315D01*
X150825345Y-90343456D01*
X150778629Y-90374671D01*
X150778628Y-90374672D01*
X150778627Y-90374672D01*
X150696552Y-90408669D01*
X150609421Y-90426000D01*
X150520579Y-90426000D01*
X150433448Y-90408669D01*
X150351373Y-90374672D01*
X150351372Y-90374672D01*
X150351371Y-90374671D01*
X150304655Y-90343456D01*
X150277505Y-90325315D01*
X150214685Y-90262495D01*
X150165619Y-90189063D01*
X150165329Y-90188629D01*
X150144798Y-90139063D01*
X150131331Y-90106552D01*
X150114000Y-90019421D01*
X150114000Y-89930579D01*
X150131331Y-89843448D01*
X150165328Y-89761373D01*
X150214685Y-89687505D01*
X150277505Y-89624685D01*
X150314187Y-89600175D01*
X150351371Y-89575329D01*
X150351373Y-89575328D01*
X150433448Y-89541331D01*
X150520579Y-89524000D01*
X150609421Y-89524000D01*
X150696552Y-89541331D01*
G37*
G36*
X149426552Y-89541331D02*
G01*
X149508627Y-89575328D01*
X149508629Y-89575329D01*
X149545813Y-89600175D01*
X149582495Y-89624685D01*
X149645315Y-89687505D01*
X149694672Y-89761373D01*
X149728669Y-89843448D01*
X149746000Y-89930579D01*
X149746000Y-90019421D01*
X149728669Y-90106552D01*
X149715202Y-90139063D01*
X149694671Y-90188629D01*
X149694381Y-90189063D01*
X149645315Y-90262495D01*
X149582495Y-90325315D01*
X149555345Y-90343456D01*
X149508629Y-90374671D01*
X149508628Y-90374672D01*
X149508627Y-90374672D01*
X149426552Y-90408669D01*
X149339421Y-90426000D01*
X149250579Y-90426000D01*
X149163448Y-90408669D01*
X149081373Y-90374672D01*
X149081372Y-90374672D01*
X149081371Y-90374671D01*
X149034655Y-90343456D01*
X149007505Y-90325315D01*
X148944685Y-90262495D01*
X148895619Y-90189063D01*
X148895329Y-90188629D01*
X148874798Y-90139063D01*
X148861331Y-90106552D01*
X148844000Y-90019421D01*
X148844000Y-89930579D01*
X148861331Y-89843448D01*
X148895328Y-89761373D01*
X148944685Y-89687505D01*
X149007505Y-89624685D01*
X149044187Y-89600175D01*
X149081371Y-89575329D01*
X149081373Y-89575328D01*
X149163448Y-89541331D01*
X149250579Y-89524000D01*
X149339421Y-89524000D01*
X149426552Y-89541331D01*
G37*
G36*
X108827395Y-88465546D02*
G01*
X109000466Y-88537234D01*
X109000467Y-88537235D01*
X109156227Y-88641310D01*
X109288690Y-88773773D01*
X109288691Y-88773775D01*
X109392766Y-88929534D01*
X109464454Y-89102605D01*
X109501000Y-89286333D01*
X109501000Y-89473667D01*
X109464454Y-89657395D01*
X109392766Y-89830466D01*
X109379851Y-89849794D01*
X109288690Y-89986227D01*
X109156227Y-90118690D01*
X109077818Y-90171081D01*
X109000466Y-90222766D01*
X108827395Y-90294454D01*
X108643667Y-90331000D01*
X108456333Y-90331000D01*
X108272605Y-90294454D01*
X108099534Y-90222766D01*
X108022182Y-90171081D01*
X107943773Y-90118690D01*
X107811310Y-89986227D01*
X107720149Y-89849794D01*
X107707234Y-89830466D01*
X107635546Y-89657395D01*
X107599000Y-89473667D01*
X107599000Y-89286333D01*
X107635546Y-89102605D01*
X107707234Y-88929534D01*
X107811309Y-88773775D01*
X107811310Y-88773773D01*
X107943773Y-88641310D01*
X108099533Y-88537235D01*
X108099534Y-88537234D01*
X108272605Y-88465546D01*
X108456333Y-88429000D01*
X108643667Y-88429000D01*
X108827395Y-88465546D01*
G37*
G36*
X166447395Y-88465546D02*
G01*
X166620466Y-88537234D01*
X166620467Y-88537235D01*
X166776227Y-88641310D01*
X166908690Y-88773773D01*
X166908691Y-88773775D01*
X167012766Y-88929534D01*
X167084454Y-89102605D01*
X167121000Y-89286333D01*
X167121000Y-89473667D01*
X167084454Y-89657395D01*
X167012766Y-89830466D01*
X166999851Y-89849794D01*
X166908690Y-89986227D01*
X166776227Y-90118690D01*
X166697818Y-90171081D01*
X166620466Y-90222766D01*
X166447395Y-90294454D01*
X166263667Y-90331000D01*
X166076333Y-90331000D01*
X165892605Y-90294454D01*
X165719534Y-90222766D01*
X165642182Y-90171081D01*
X165563773Y-90118690D01*
X165431310Y-89986227D01*
X165340149Y-89849794D01*
X165327234Y-89830466D01*
X165255546Y-89657395D01*
X165219000Y-89473667D01*
X165219000Y-89286333D01*
X165255546Y-89102605D01*
X165327234Y-88929534D01*
X165431309Y-88773775D01*
X165431310Y-88773773D01*
X165563773Y-88641310D01*
X165719533Y-88537235D01*
X165719534Y-88537234D01*
X165892605Y-88465546D01*
X166076333Y-88429000D01*
X166263667Y-88429000D01*
X166447395Y-88465546D01*
G37*
G36*
X116447395Y-88465546D02*
G01*
X116620466Y-88537234D01*
X116620467Y-88537235D01*
X116776227Y-88641310D01*
X116908690Y-88773773D01*
X116908691Y-88773775D01*
X117012766Y-88929534D01*
X117084454Y-89102605D01*
X117121000Y-89286333D01*
X117121000Y-89473667D01*
X117084454Y-89657395D01*
X117012766Y-89830466D01*
X116999851Y-89849794D01*
X116908690Y-89986227D01*
X116776227Y-90118690D01*
X116697818Y-90171081D01*
X116620466Y-90222766D01*
X116447395Y-90294454D01*
X116263667Y-90331000D01*
X116076333Y-90331000D01*
X115892605Y-90294454D01*
X115719534Y-90222766D01*
X115642182Y-90171081D01*
X115563773Y-90118690D01*
X115431310Y-89986227D01*
X115340149Y-89849794D01*
X115327234Y-89830466D01*
X115255546Y-89657395D01*
X115219000Y-89473667D01*
X115219000Y-89286333D01*
X115255546Y-89102605D01*
X115327234Y-88929534D01*
X115431309Y-88773775D01*
X115431310Y-88773773D01*
X115563773Y-88641310D01*
X115719533Y-88537235D01*
X115719534Y-88537234D01*
X115892605Y-88465546D01*
X116076333Y-88429000D01*
X116263667Y-88429000D01*
X116447395Y-88465546D01*
G37*
G36*
X158827395Y-88465546D02*
G01*
X159000466Y-88537234D01*
X159000467Y-88537235D01*
X159156227Y-88641310D01*
X159288690Y-88773773D01*
X159288691Y-88773775D01*
X159392766Y-88929534D01*
X159464454Y-89102605D01*
X159501000Y-89286333D01*
X159501000Y-89473667D01*
X159464454Y-89657395D01*
X159392766Y-89830466D01*
X159379851Y-89849794D01*
X159288690Y-89986227D01*
X159156227Y-90118690D01*
X159077818Y-90171081D01*
X159000466Y-90222766D01*
X158827395Y-90294454D01*
X158643667Y-90331000D01*
X158456333Y-90331000D01*
X158272605Y-90294454D01*
X158099534Y-90222766D01*
X158022182Y-90171081D01*
X157943773Y-90118690D01*
X157811310Y-89986227D01*
X157720149Y-89849794D01*
X157707234Y-89830466D01*
X157635546Y-89657395D01*
X157599000Y-89473667D01*
X157599000Y-89286333D01*
X157635546Y-89102605D01*
X157707234Y-88929534D01*
X157811309Y-88773775D01*
X157811310Y-88773773D01*
X157943773Y-88641310D01*
X158099533Y-88537235D01*
X158099534Y-88537234D01*
X158272605Y-88465546D01*
X158456333Y-88429000D01*
X158643667Y-88429000D01*
X158827395Y-88465546D01*
G37*
G36*
X127156000Y-90331000D02*
G01*
X125994000Y-90331000D01*
X125994000Y-87679000D01*
X127156000Y-87679000D01*
X127156000Y-90331000D01*
G37*
G36*
X129356000Y-90331000D02*
G01*
X128194000Y-90331000D01*
X128194000Y-87679000D01*
X129356000Y-87679000D01*
X129356000Y-90331000D01*
G37*
G36*
X133576000Y-89406000D02*
G01*
X131774000Y-89406000D01*
X131774000Y-87604000D01*
X133576000Y-87604000D01*
X133576000Y-89406000D01*
G37*
G36*
X153236552Y-88271331D02*
G01*
X153318627Y-88305328D01*
X153318629Y-88305329D01*
X153346385Y-88323875D01*
X153392495Y-88354685D01*
X153455315Y-88417505D01*
X153504672Y-88491373D01*
X153538669Y-88573448D01*
X153556000Y-88660579D01*
X153556000Y-88749421D01*
X153538669Y-88836552D01*
X153504672Y-88918627D01*
X153504671Y-88918629D01*
X153455314Y-88992496D01*
X153392496Y-89055314D01*
X153318629Y-89104671D01*
X153318628Y-89104672D01*
X153318627Y-89104672D01*
X153236552Y-89138669D01*
X153149421Y-89156000D01*
X153060579Y-89156000D01*
X152973448Y-89138669D01*
X152891373Y-89104672D01*
X152891372Y-89104672D01*
X152891371Y-89104671D01*
X152817504Y-89055314D01*
X152754686Y-88992496D01*
X152705329Y-88918629D01*
X152705328Y-88918627D01*
X152671331Y-88836552D01*
X152654000Y-88749421D01*
X152654000Y-88660579D01*
X152671331Y-88573448D01*
X152705328Y-88491373D01*
X152754685Y-88417505D01*
X152817505Y-88354685D01*
X152863615Y-88323875D01*
X152891371Y-88305329D01*
X152891373Y-88305328D01*
X152973448Y-88271331D01*
X153060579Y-88254000D01*
X153149421Y-88254000D01*
X153236552Y-88271331D01*
G37*
G36*
X154826000Y-89156000D02*
G01*
X153924000Y-89156000D01*
X153924000Y-88254000D01*
X154826000Y-88254000D01*
X154826000Y-89156000D01*
G37*
G36*
X151966552Y-88271331D02*
G01*
X152048627Y-88305328D01*
X152048629Y-88305329D01*
X152076385Y-88323875D01*
X152122495Y-88354685D01*
X152185315Y-88417505D01*
X152234672Y-88491373D01*
X152268669Y-88573448D01*
X152286000Y-88660579D01*
X152286000Y-88749421D01*
X152268669Y-88836552D01*
X152234672Y-88918627D01*
X152234671Y-88918629D01*
X152185314Y-88992496D01*
X152122496Y-89055314D01*
X152048629Y-89104671D01*
X152048628Y-89104672D01*
X152048627Y-89104672D01*
X151966552Y-89138669D01*
X151879421Y-89156000D01*
X151790579Y-89156000D01*
X151703448Y-89138669D01*
X151621373Y-89104672D01*
X151621372Y-89104672D01*
X151621371Y-89104671D01*
X151547504Y-89055314D01*
X151484686Y-88992496D01*
X151435329Y-88918629D01*
X151435328Y-88918627D01*
X151401331Y-88836552D01*
X151384000Y-88749421D01*
X151384000Y-88660579D01*
X151401331Y-88573448D01*
X151435328Y-88491373D01*
X151484685Y-88417505D01*
X151547505Y-88354685D01*
X151593615Y-88323875D01*
X151621371Y-88305329D01*
X151621373Y-88305328D01*
X151703448Y-88271331D01*
X151790579Y-88254000D01*
X151879421Y-88254000D01*
X151966552Y-88271331D01*
G37*
G36*
X149426552Y-88271331D02*
G01*
X149508627Y-88305328D01*
X149508629Y-88305329D01*
X149536385Y-88323875D01*
X149582495Y-88354685D01*
X149645315Y-88417505D01*
X149694672Y-88491373D01*
X149728669Y-88573448D01*
X149746000Y-88660579D01*
X149746000Y-88749421D01*
X149728669Y-88836552D01*
X149694672Y-88918627D01*
X149694671Y-88918629D01*
X149645314Y-88992496D01*
X149582496Y-89055314D01*
X149508629Y-89104671D01*
X149508628Y-89104672D01*
X149508627Y-89104672D01*
X149426552Y-89138669D01*
X149339421Y-89156000D01*
X149250579Y-89156000D01*
X149163448Y-89138669D01*
X149081373Y-89104672D01*
X149081372Y-89104672D01*
X149081371Y-89104671D01*
X149007504Y-89055314D01*
X148944686Y-88992496D01*
X148895329Y-88918629D01*
X148895328Y-88918627D01*
X148861331Y-88836552D01*
X148844000Y-88749421D01*
X148844000Y-88660579D01*
X148861331Y-88573448D01*
X148895328Y-88491373D01*
X148944685Y-88417505D01*
X149007505Y-88354685D01*
X149053615Y-88323875D01*
X149081371Y-88305329D01*
X149081373Y-88305328D01*
X149163448Y-88271331D01*
X149250579Y-88254000D01*
X149339421Y-88254000D01*
X149426552Y-88271331D01*
G37*
G36*
X150696552Y-88271331D02*
G01*
X150778627Y-88305328D01*
X150778629Y-88305329D01*
X150806385Y-88323875D01*
X150852495Y-88354685D01*
X150915315Y-88417505D01*
X150964672Y-88491373D01*
X150998669Y-88573448D01*
X151016000Y-88660579D01*
X151016000Y-88749421D01*
X150998669Y-88836552D01*
X150964672Y-88918627D01*
X150964671Y-88918629D01*
X150915314Y-88992496D01*
X150852496Y-89055314D01*
X150778629Y-89104671D01*
X150778628Y-89104672D01*
X150778627Y-89104672D01*
X150696552Y-89138669D01*
X150609421Y-89156000D01*
X150520579Y-89156000D01*
X150433448Y-89138669D01*
X150351373Y-89104672D01*
X150351372Y-89104672D01*
X150351371Y-89104671D01*
X150277504Y-89055314D01*
X150214686Y-88992496D01*
X150165329Y-88918629D01*
X150165328Y-88918627D01*
X150131331Y-88836552D01*
X150114000Y-88749421D01*
X150114000Y-88660579D01*
X150131331Y-88573448D01*
X150165328Y-88491373D01*
X150214685Y-88417505D01*
X150277505Y-88354685D01*
X150323615Y-88323875D01*
X150351371Y-88305329D01*
X150351373Y-88305328D01*
X150433448Y-88271331D01*
X150520579Y-88254000D01*
X150609421Y-88254000D01*
X150696552Y-88271331D01*
G37*
G36*
X180700589Y-86963876D02*
G01*
X180799893Y-86983629D01*
X180940206Y-87041748D01*
X181066484Y-87126125D01*
X181173875Y-87233516D01*
X181258252Y-87359794D01*
X181316371Y-87500107D01*
X181346000Y-87649063D01*
X181346000Y-87800937D01*
X181316371Y-87949893D01*
X181258252Y-88090206D01*
X181173875Y-88216484D01*
X181066484Y-88323875D01*
X180940206Y-88408252D01*
X180799893Y-88466371D01*
X180700589Y-88486124D01*
X180650938Y-88496000D01*
X180499062Y-88496000D01*
X180449411Y-88486124D01*
X180350107Y-88466371D01*
X180209794Y-88408252D01*
X180083516Y-88323875D01*
X179976125Y-88216484D01*
X179891748Y-88090206D01*
X179833629Y-87949893D01*
X179804000Y-87800937D01*
X179804000Y-87649063D01*
X179833629Y-87500107D01*
X179891748Y-87359794D01*
X179976125Y-87233516D01*
X180083516Y-87126125D01*
X180209794Y-87041748D01*
X180350107Y-86983629D01*
X180449411Y-86963876D01*
X180499062Y-86954000D01*
X180650938Y-86954000D01*
X180700589Y-86963876D01*
G37*
G36*
X139100589Y-86963876D02*
G01*
X139199893Y-86983629D01*
X139340206Y-87041748D01*
X139466484Y-87126125D01*
X139573875Y-87233516D01*
X139658252Y-87359794D01*
X139716371Y-87500107D01*
X139746000Y-87649063D01*
X139746000Y-87800937D01*
X139716371Y-87949893D01*
X139658252Y-88090206D01*
X139573875Y-88216484D01*
X139466484Y-88323875D01*
X139340206Y-88408252D01*
X139199893Y-88466371D01*
X139100589Y-88486124D01*
X139050938Y-88496000D01*
X138899062Y-88496000D01*
X138849411Y-88486124D01*
X138750107Y-88466371D01*
X138609794Y-88408252D01*
X138483516Y-88323875D01*
X138376125Y-88216484D01*
X138291748Y-88090206D01*
X138233629Y-87949893D01*
X138204000Y-87800937D01*
X138204000Y-87649063D01*
X138233629Y-87500107D01*
X138291748Y-87359794D01*
X138376125Y-87233516D01*
X138483516Y-87126125D01*
X138609794Y-87041748D01*
X138750107Y-86983629D01*
X138849411Y-86963876D01*
X138899062Y-86954000D01*
X139050938Y-86954000D01*
X139100589Y-86963876D01*
G37*
G36*
X144800589Y-86913876D02*
G01*
X144899893Y-86933629D01*
X145040206Y-86991748D01*
X145166484Y-87076125D01*
X145273875Y-87183516D01*
X145358252Y-87309794D01*
X145416371Y-87450107D01*
X145446000Y-87599063D01*
X145446000Y-87750937D01*
X145416371Y-87899893D01*
X145358252Y-88040206D01*
X145273875Y-88166484D01*
X145166484Y-88273875D01*
X145040206Y-88358252D01*
X144899893Y-88416371D01*
X144800589Y-88436124D01*
X144750938Y-88446000D01*
X144599062Y-88446000D01*
X144549411Y-88436124D01*
X144450107Y-88416371D01*
X144309794Y-88358252D01*
X144183516Y-88273875D01*
X144076125Y-88166484D01*
X143991748Y-88040206D01*
X143933629Y-87899893D01*
X143904000Y-87750937D01*
X143904000Y-87599063D01*
X143933629Y-87450107D01*
X143991748Y-87309794D01*
X144076125Y-87183516D01*
X144183516Y-87076125D01*
X144309794Y-86991748D01*
X144450107Y-86933629D01*
X144549411Y-86913876D01*
X144599062Y-86904000D01*
X144750938Y-86904000D01*
X144800589Y-86913876D01*
G37*
G36*
X103550589Y-86913876D02*
G01*
X103649893Y-86933629D01*
X103790206Y-86991748D01*
X103916484Y-87076125D01*
X104023875Y-87183516D01*
X104108252Y-87309794D01*
X104166371Y-87450107D01*
X104196000Y-87599063D01*
X104196000Y-87750937D01*
X104166371Y-87899893D01*
X104108252Y-88040206D01*
X104023875Y-88166484D01*
X103916484Y-88273875D01*
X103790206Y-88358252D01*
X103649893Y-88416371D01*
X103550589Y-88436124D01*
X103500938Y-88446000D01*
X103349062Y-88446000D01*
X103299411Y-88436124D01*
X103200107Y-88416371D01*
X103059794Y-88358252D01*
X102933516Y-88273875D01*
X102826125Y-88166484D01*
X102741748Y-88040206D01*
X102683629Y-87899893D01*
X102654000Y-87750937D01*
X102654000Y-87599063D01*
X102683629Y-87450107D01*
X102741748Y-87309794D01*
X102826125Y-87183516D01*
X102933516Y-87076125D01*
X103059794Y-86991748D01*
X103200107Y-86933629D01*
X103299411Y-86913876D01*
X103349062Y-86904000D01*
X103500938Y-86904000D01*
X103550589Y-86913876D01*
G37*
G36*
X92826000Y-87906000D02*
G01*
X91024000Y-87906000D01*
X91024000Y-86104000D01*
X92826000Y-86104000D01*
X92826000Y-87906000D01*
G37*
G36*
X190326000Y-87906000D02*
G01*
X188524000Y-87906000D01*
X188524000Y-86104000D01*
X190326000Y-86104000D01*
X190326000Y-87906000D01*
G37*
M02*
