G04 #@! TF.GenerationSoftware,KiCad,Pcbnew,(5.1.5-0-10_14)*
G04 #@! TF.CreationDate,2019-12-20T13:31:07+08:00*
G04 #@! TF.ProjectId,tube-offset-1,74756265-2d6f-4666-9673-65742d312e6b,rev?*
G04 #@! TF.SameCoordinates,Original*
G04 #@! TF.FileFunction,Legend,Top*
G04 #@! TF.FilePolarity,Positive*
%FSLAX46Y46*%
G04 Gerber Fmt 4.6, Leading zero omitted, Abs format (unit mm)*
G04 Created by KiCad (PCBNEW (5.1.5-0-10_14)) date 2019-12-20 13:31:07*
%MOMM*%
%LPD*%
G04 APERTURE LIST*
%ADD10C,0.120000*%
%ADD11C,0.127000*%
%ADD12C,0.254000*%
G04 APERTURE END LIST*
D10*
X102500000Y-99795000D02*
X103830000Y-99795000D01*
X103830000Y-99795000D02*
X103830000Y-101125000D01*
X103830000Y-102395000D02*
X103830000Y-110075000D01*
X101170000Y-110075000D02*
X103830000Y-110075000D01*
X101170000Y-102395000D02*
X101170000Y-110075000D01*
X101170000Y-102395000D02*
X103830000Y-102395000D01*
X125000000Y-99795000D02*
X126330000Y-99795000D01*
X126330000Y-99795000D02*
X126330000Y-101125000D01*
X126330000Y-102395000D02*
X126330000Y-110075000D01*
X123670000Y-110075000D02*
X126330000Y-110075000D01*
X123670000Y-102395000D02*
X123670000Y-110075000D01*
X123670000Y-102395000D02*
X126330000Y-102395000D01*
X175000000Y-99795000D02*
X176330000Y-99795000D01*
X176330000Y-99795000D02*
X176330000Y-101125000D01*
X176330000Y-102395000D02*
X176330000Y-110075000D01*
X173670000Y-110075000D02*
X176330000Y-110075000D01*
X173670000Y-102395000D02*
X173670000Y-110075000D01*
X173670000Y-102395000D02*
X176330000Y-102395000D01*
X196170000Y-102395000D02*
X198830000Y-102395000D01*
X196170000Y-102395000D02*
X196170000Y-110075000D01*
X196170000Y-110075000D02*
X198830000Y-110075000D01*
X198830000Y-102395000D02*
X198830000Y-110075000D01*
X198830000Y-99795000D02*
X198830000Y-101125000D01*
X197500000Y-99795000D02*
X198830000Y-99795000D01*
D11*
X109325000Y-106830000D02*
X109960000Y-106830000D01*
X115357500Y-106830000D02*
X115675000Y-106830000D01*
X115675000Y-106830000D02*
G75*
G03X115675000Y-103337500I0J1746250D01*
G01*
X109325000Y-106830000D02*
G75*
G02X109325000Y-103337500I0J1746250D01*
G01*
D12*
X107578700Y-105083800D02*
G75*
G02X109325000Y-103337500I1746300J0D01*
G01*
X109324901Y-106829999D02*
G75*
G02X107578700Y-105083800I-1J1746200D01*
G01*
X109324900Y-106830000D02*
X109960000Y-106830000D01*
X109960000Y-106830000D02*
X115357500Y-106830000D01*
X115357500Y-106830000D02*
X115675100Y-106830000D01*
X117421300Y-105083798D02*
G75*
G02X115675100Y-106830000I-1746201J-1D01*
G01*
X115675000Y-103337500D02*
G75*
G02X117421300Y-105083800I0J-1746300D01*
G01*
X115675000Y-103337500D02*
X109325000Y-103337500D01*
X115675000Y-106195000D02*
X109325000Y-106195000D01*
X140675000Y-106195000D02*
X134325000Y-106195000D01*
X140675000Y-103337500D02*
X134325000Y-103337500D01*
X140675000Y-103337500D02*
G75*
G02X142421300Y-105083800I0J-1746300D01*
G01*
X142421300Y-105083798D02*
G75*
G02X140675100Y-106830000I-1746201J-1D01*
G01*
X140357500Y-106830000D02*
X140675100Y-106830000D01*
X134960000Y-106830000D02*
X140357500Y-106830000D01*
X134324900Y-106830000D02*
X134960000Y-106830000D01*
X134324901Y-106829999D02*
G75*
G02X132578700Y-105083800I-1J1746200D01*
G01*
X132578700Y-105083800D02*
G75*
G02X134325000Y-103337500I1746300J0D01*
G01*
D11*
X134325000Y-106830000D02*
G75*
G02X134325000Y-103337500I0J1746250D01*
G01*
X140675000Y-106830000D02*
G75*
G03X140675000Y-103337500I0J1746250D01*
G01*
X140357500Y-106830000D02*
X140675000Y-106830000D01*
X134325000Y-106830000D02*
X134960000Y-106830000D01*
X159325000Y-106830000D02*
X159960000Y-106830000D01*
X165357500Y-106830000D02*
X165675000Y-106830000D01*
X165675000Y-106830000D02*
G75*
G03X165675000Y-103337500I0J1746250D01*
G01*
X159325000Y-106830000D02*
G75*
G02X159325000Y-103337500I0J1746250D01*
G01*
D12*
X157578700Y-105083800D02*
G75*
G02X159325000Y-103337500I1746300J0D01*
G01*
X159324901Y-106829999D02*
G75*
G02X157578700Y-105083800I-1J1746200D01*
G01*
X159324900Y-106830000D02*
X159960000Y-106830000D01*
X159960000Y-106830000D02*
X165357500Y-106830000D01*
X165357500Y-106830000D02*
X165675100Y-106830000D01*
X167421300Y-105083798D02*
G75*
G02X165675100Y-106830000I-1746201J-1D01*
G01*
X165675000Y-103337500D02*
G75*
G02X167421300Y-105083800I0J-1746300D01*
G01*
X165675000Y-103337500D02*
X159325000Y-103337500D01*
X165675000Y-106195000D02*
X159325000Y-106195000D01*
X190675000Y-106195000D02*
X184325000Y-106195000D01*
X190675000Y-103337500D02*
X184325000Y-103337500D01*
X190675000Y-103337500D02*
G75*
G02X192421300Y-105083800I0J-1746300D01*
G01*
X192421300Y-105083798D02*
G75*
G02X190675100Y-106830000I-1746201J-1D01*
G01*
X190357500Y-106830000D02*
X190675100Y-106830000D01*
X184960000Y-106830000D02*
X190357500Y-106830000D01*
X184324900Y-106830000D02*
X184960000Y-106830000D01*
X184324901Y-106829999D02*
G75*
G02X182578700Y-105083800I-1J1746200D01*
G01*
X182578700Y-105083800D02*
G75*
G02X184325000Y-103337500I1746300J0D01*
G01*
D11*
X184325000Y-106830000D02*
G75*
G02X184325000Y-103337500I0J1746250D01*
G01*
X190675000Y-106830000D02*
G75*
G03X190675000Y-103337500I0J1746250D01*
G01*
X190357500Y-106830000D02*
X190675000Y-106830000D01*
X184325000Y-106830000D02*
X184960000Y-106830000D01*
M02*
