M48
INCH,TZ
T1C0.0236
T2C0.0394
%
G90
G05
T1
X43041Y-41309
X44291Y-41309
X45541Y-41309
X72569Y-41309
X73819Y-41309
X75069Y-41309
X62726Y-41309
X63976Y-41309
X65226Y-41309
X52884Y-41309
X54134Y-41309
X55384Y-41309
T2
X49213Y-39813
X49213Y-40813
X49213Y-41813
X49213Y-42813
X68898Y-39813
X68898Y-40813
X68898Y-41813
X68898Y-42813
X40354Y-39813
X40354Y-40813
X40354Y-41813
X40354Y-42813
X77756Y-39813
X77756Y-40813
X77756Y-41813
X77756Y-42813
T0
M30
