G04 #@! TF.GenerationSoftware,KiCad,Pcbnew,(5.1.5-0-10_14)*
G04 #@! TF.CreationDate,2019-12-20T13:31:07+08:00*
G04 #@! TF.ProjectId,tube-offset-1,74756265-2d6f-4666-9673-65742d312e6b,rev?*
G04 #@! TF.SameCoordinates,Original*
G04 #@! TF.FileFunction,Soldermask,Bot*
G04 #@! TF.FilePolarity,Negative*
%FSLAX46Y46*%
G04 Gerber Fmt 4.6, Leading zero omitted, Abs format (unit mm)*
G04 Created by KiCad (PCBNEW (5.1.5-0-10_14)) date 2019-12-20 13:31:07*
%MOMM*%
%LPD*%
G04 APERTURE LIST*
%ADD10C,0.100000*%
G04 APERTURE END LIST*
D10*
G36*
X197613512Y-107848927D02*
G01*
X197762812Y-107878624D01*
X197926784Y-107946544D01*
X198074354Y-108045147D01*
X198199853Y-108170646D01*
X198298456Y-108318216D01*
X198366376Y-108482188D01*
X198401000Y-108656259D01*
X198401000Y-108833741D01*
X198366376Y-109007812D01*
X198298456Y-109171784D01*
X198199853Y-109319354D01*
X198074354Y-109444853D01*
X197926784Y-109543456D01*
X197762812Y-109611376D01*
X197613512Y-109641073D01*
X197588742Y-109646000D01*
X197411258Y-109646000D01*
X197386488Y-109641073D01*
X197237188Y-109611376D01*
X197073216Y-109543456D01*
X196925646Y-109444853D01*
X196800147Y-109319354D01*
X196701544Y-109171784D01*
X196633624Y-109007812D01*
X196599000Y-108833741D01*
X196599000Y-108656259D01*
X196633624Y-108482188D01*
X196701544Y-108318216D01*
X196800147Y-108170646D01*
X196925646Y-108045147D01*
X197073216Y-107946544D01*
X197237188Y-107878624D01*
X197386488Y-107848927D01*
X197411258Y-107844000D01*
X197588742Y-107844000D01*
X197613512Y-107848927D01*
G37*
G36*
X175113512Y-107848927D02*
G01*
X175262812Y-107878624D01*
X175426784Y-107946544D01*
X175574354Y-108045147D01*
X175699853Y-108170646D01*
X175798456Y-108318216D01*
X175866376Y-108482188D01*
X175901000Y-108656259D01*
X175901000Y-108833741D01*
X175866376Y-109007812D01*
X175798456Y-109171784D01*
X175699853Y-109319354D01*
X175574354Y-109444853D01*
X175426784Y-109543456D01*
X175262812Y-109611376D01*
X175113512Y-109641073D01*
X175088742Y-109646000D01*
X174911258Y-109646000D01*
X174886488Y-109641073D01*
X174737188Y-109611376D01*
X174573216Y-109543456D01*
X174425646Y-109444853D01*
X174300147Y-109319354D01*
X174201544Y-109171784D01*
X174133624Y-109007812D01*
X174099000Y-108833741D01*
X174099000Y-108656259D01*
X174133624Y-108482188D01*
X174201544Y-108318216D01*
X174300147Y-108170646D01*
X174425646Y-108045147D01*
X174573216Y-107946544D01*
X174737188Y-107878624D01*
X174886488Y-107848927D01*
X174911258Y-107844000D01*
X175088742Y-107844000D01*
X175113512Y-107848927D01*
G37*
G36*
X125113512Y-107848927D02*
G01*
X125262812Y-107878624D01*
X125426784Y-107946544D01*
X125574354Y-108045147D01*
X125699853Y-108170646D01*
X125798456Y-108318216D01*
X125866376Y-108482188D01*
X125901000Y-108656259D01*
X125901000Y-108833741D01*
X125866376Y-109007812D01*
X125798456Y-109171784D01*
X125699853Y-109319354D01*
X125574354Y-109444853D01*
X125426784Y-109543456D01*
X125262812Y-109611376D01*
X125113512Y-109641073D01*
X125088742Y-109646000D01*
X124911258Y-109646000D01*
X124886488Y-109641073D01*
X124737188Y-109611376D01*
X124573216Y-109543456D01*
X124425646Y-109444853D01*
X124300147Y-109319354D01*
X124201544Y-109171784D01*
X124133624Y-109007812D01*
X124099000Y-108833741D01*
X124099000Y-108656259D01*
X124133624Y-108482188D01*
X124201544Y-108318216D01*
X124300147Y-108170646D01*
X124425646Y-108045147D01*
X124573216Y-107946544D01*
X124737188Y-107878624D01*
X124886488Y-107848927D01*
X124911258Y-107844000D01*
X125088742Y-107844000D01*
X125113512Y-107848927D01*
G37*
G36*
X102613512Y-107848927D02*
G01*
X102762812Y-107878624D01*
X102926784Y-107946544D01*
X103074354Y-108045147D01*
X103199853Y-108170646D01*
X103298456Y-108318216D01*
X103366376Y-108482188D01*
X103401000Y-108656259D01*
X103401000Y-108833741D01*
X103366376Y-109007812D01*
X103298456Y-109171784D01*
X103199853Y-109319354D01*
X103074354Y-109444853D01*
X102926784Y-109543456D01*
X102762812Y-109611376D01*
X102613512Y-109641073D01*
X102588742Y-109646000D01*
X102411258Y-109646000D01*
X102386488Y-109641073D01*
X102237188Y-109611376D01*
X102073216Y-109543456D01*
X101925646Y-109444853D01*
X101800147Y-109319354D01*
X101701544Y-109171784D01*
X101633624Y-109007812D01*
X101599000Y-108833741D01*
X101599000Y-108656259D01*
X101633624Y-108482188D01*
X101701544Y-108318216D01*
X101800147Y-108170646D01*
X101925646Y-108045147D01*
X102073216Y-107946544D01*
X102237188Y-107878624D01*
X102386488Y-107848927D01*
X102411258Y-107844000D01*
X102588742Y-107844000D01*
X102613512Y-107848927D01*
G37*
G36*
X125113512Y-105308927D02*
G01*
X125262812Y-105338624D01*
X125426784Y-105406544D01*
X125574354Y-105505147D01*
X125699853Y-105630646D01*
X125798456Y-105778216D01*
X125866376Y-105942188D01*
X125901000Y-106116259D01*
X125901000Y-106293741D01*
X125866376Y-106467812D01*
X125798456Y-106631784D01*
X125699853Y-106779354D01*
X125574354Y-106904853D01*
X125426784Y-107003456D01*
X125262812Y-107071376D01*
X125113512Y-107101073D01*
X125088742Y-107106000D01*
X124911258Y-107106000D01*
X124886488Y-107101073D01*
X124737188Y-107071376D01*
X124573216Y-107003456D01*
X124425646Y-106904853D01*
X124300147Y-106779354D01*
X124201544Y-106631784D01*
X124133624Y-106467812D01*
X124099000Y-106293741D01*
X124099000Y-106116259D01*
X124133624Y-105942188D01*
X124201544Y-105778216D01*
X124300147Y-105630646D01*
X124425646Y-105505147D01*
X124573216Y-105406544D01*
X124737188Y-105338624D01*
X124886488Y-105308927D01*
X124911258Y-105304000D01*
X125088742Y-105304000D01*
X125113512Y-105308927D01*
G37*
G36*
X197613512Y-105308927D02*
G01*
X197762812Y-105338624D01*
X197926784Y-105406544D01*
X198074354Y-105505147D01*
X198199853Y-105630646D01*
X198298456Y-105778216D01*
X198366376Y-105942188D01*
X198401000Y-106116259D01*
X198401000Y-106293741D01*
X198366376Y-106467812D01*
X198298456Y-106631784D01*
X198199853Y-106779354D01*
X198074354Y-106904853D01*
X197926784Y-107003456D01*
X197762812Y-107071376D01*
X197613512Y-107101073D01*
X197588742Y-107106000D01*
X197411258Y-107106000D01*
X197386488Y-107101073D01*
X197237188Y-107071376D01*
X197073216Y-107003456D01*
X196925646Y-106904853D01*
X196800147Y-106779354D01*
X196701544Y-106631784D01*
X196633624Y-106467812D01*
X196599000Y-106293741D01*
X196599000Y-106116259D01*
X196633624Y-105942188D01*
X196701544Y-105778216D01*
X196800147Y-105630646D01*
X196925646Y-105505147D01*
X197073216Y-105406544D01*
X197237188Y-105338624D01*
X197386488Y-105308927D01*
X197411258Y-105304000D01*
X197588742Y-105304000D01*
X197613512Y-105308927D01*
G37*
G36*
X175113512Y-105308927D02*
G01*
X175262812Y-105338624D01*
X175426784Y-105406544D01*
X175574354Y-105505147D01*
X175699853Y-105630646D01*
X175798456Y-105778216D01*
X175866376Y-105942188D01*
X175901000Y-106116259D01*
X175901000Y-106293741D01*
X175866376Y-106467812D01*
X175798456Y-106631784D01*
X175699853Y-106779354D01*
X175574354Y-106904853D01*
X175426784Y-107003456D01*
X175262812Y-107071376D01*
X175113512Y-107101073D01*
X175088742Y-107106000D01*
X174911258Y-107106000D01*
X174886488Y-107101073D01*
X174737188Y-107071376D01*
X174573216Y-107003456D01*
X174425646Y-106904853D01*
X174300147Y-106779354D01*
X174201544Y-106631784D01*
X174133624Y-106467812D01*
X174099000Y-106293741D01*
X174099000Y-106116259D01*
X174133624Y-105942188D01*
X174201544Y-105778216D01*
X174300147Y-105630646D01*
X174425646Y-105505147D01*
X174573216Y-105406544D01*
X174737188Y-105338624D01*
X174886488Y-105308927D01*
X174911258Y-105304000D01*
X175088742Y-105304000D01*
X175113512Y-105308927D01*
G37*
G36*
X102613512Y-105308927D02*
G01*
X102762812Y-105338624D01*
X102926784Y-105406544D01*
X103074354Y-105505147D01*
X103199853Y-105630646D01*
X103298456Y-105778216D01*
X103366376Y-105942188D01*
X103401000Y-106116259D01*
X103401000Y-106293741D01*
X103366376Y-106467812D01*
X103298456Y-106631784D01*
X103199853Y-106779354D01*
X103074354Y-106904853D01*
X102926784Y-107003456D01*
X102762812Y-107071376D01*
X102613512Y-107101073D01*
X102588742Y-107106000D01*
X102411258Y-107106000D01*
X102386488Y-107101073D01*
X102237188Y-107071376D01*
X102073216Y-107003456D01*
X101925646Y-106904853D01*
X101800147Y-106779354D01*
X101701544Y-106631784D01*
X101633624Y-106467812D01*
X101599000Y-106293741D01*
X101599000Y-106116259D01*
X101633624Y-105942188D01*
X101701544Y-105778216D01*
X101800147Y-105630646D01*
X101925646Y-105505147D01*
X102073216Y-105406544D01*
X102237188Y-105338624D01*
X102386488Y-105308927D01*
X102411258Y-105304000D01*
X102588742Y-105304000D01*
X102613512Y-105308927D01*
G37*
G36*
X134516230Y-104294594D02*
G01*
X134635542Y-104344014D01*
X134635543Y-104344015D01*
X134742921Y-104415762D01*
X134834238Y-104507079D01*
X134873607Y-104566000D01*
X134905986Y-104614458D01*
X134955406Y-104733770D01*
X134980600Y-104860428D01*
X134980600Y-104989572D01*
X134955406Y-105116230D01*
X134905986Y-105235542D01*
X134905985Y-105235543D01*
X134834238Y-105342921D01*
X134742921Y-105434238D01*
X134671173Y-105482178D01*
X134635542Y-105505986D01*
X134516230Y-105555406D01*
X134389572Y-105580600D01*
X134260428Y-105580600D01*
X134133770Y-105555406D01*
X134014458Y-105505986D01*
X133978827Y-105482178D01*
X133907079Y-105434238D01*
X133815762Y-105342921D01*
X133744015Y-105235543D01*
X133744014Y-105235542D01*
X133694594Y-105116230D01*
X133669400Y-104989572D01*
X133669400Y-104860428D01*
X133694594Y-104733770D01*
X133744014Y-104614458D01*
X133776393Y-104566000D01*
X133815762Y-104507079D01*
X133907079Y-104415762D01*
X134014457Y-104344015D01*
X134014458Y-104344014D01*
X134133770Y-104294594D01*
X134260428Y-104269400D01*
X134389572Y-104269400D01*
X134516230Y-104294594D01*
G37*
G36*
X115866230Y-104294594D02*
G01*
X115985542Y-104344014D01*
X115985543Y-104344015D01*
X116092921Y-104415762D01*
X116184238Y-104507079D01*
X116223607Y-104566000D01*
X116255986Y-104614458D01*
X116305406Y-104733770D01*
X116330600Y-104860428D01*
X116330600Y-104989572D01*
X116305406Y-105116230D01*
X116255986Y-105235542D01*
X116255985Y-105235543D01*
X116184238Y-105342921D01*
X116092921Y-105434238D01*
X116021173Y-105482178D01*
X115985542Y-105505986D01*
X115866230Y-105555406D01*
X115739572Y-105580600D01*
X115610428Y-105580600D01*
X115483770Y-105555406D01*
X115364458Y-105505986D01*
X115328827Y-105482178D01*
X115257079Y-105434238D01*
X115165762Y-105342921D01*
X115094015Y-105235543D01*
X115094014Y-105235542D01*
X115044594Y-105116230D01*
X115019400Y-104989572D01*
X115019400Y-104860428D01*
X115044594Y-104733770D01*
X115094014Y-104614458D01*
X115126393Y-104566000D01*
X115165762Y-104507079D01*
X115257079Y-104415762D01*
X115364457Y-104344015D01*
X115364458Y-104344014D01*
X115483770Y-104294594D01*
X115610428Y-104269400D01*
X115739572Y-104269400D01*
X115866230Y-104294594D01*
G37*
G36*
X112691230Y-104294594D02*
G01*
X112810542Y-104344014D01*
X112810543Y-104344015D01*
X112917921Y-104415762D01*
X113009238Y-104507079D01*
X113048607Y-104566000D01*
X113080986Y-104614458D01*
X113130406Y-104733770D01*
X113155600Y-104860428D01*
X113155600Y-104989572D01*
X113130406Y-105116230D01*
X113080986Y-105235542D01*
X113080985Y-105235543D01*
X113009238Y-105342921D01*
X112917921Y-105434238D01*
X112846173Y-105482178D01*
X112810542Y-105505986D01*
X112691230Y-105555406D01*
X112564572Y-105580600D01*
X112435428Y-105580600D01*
X112308770Y-105555406D01*
X112189458Y-105505986D01*
X112153827Y-105482178D01*
X112082079Y-105434238D01*
X111990762Y-105342921D01*
X111919015Y-105235543D01*
X111919014Y-105235542D01*
X111869594Y-105116230D01*
X111844400Y-104989572D01*
X111844400Y-104860428D01*
X111869594Y-104733770D01*
X111919014Y-104614458D01*
X111951393Y-104566000D01*
X111990762Y-104507079D01*
X112082079Y-104415762D01*
X112189457Y-104344015D01*
X112189458Y-104344014D01*
X112308770Y-104294594D01*
X112435428Y-104269400D01*
X112564572Y-104269400D01*
X112691230Y-104294594D01*
G37*
G36*
X109516230Y-104294594D02*
G01*
X109635542Y-104344014D01*
X109635543Y-104344015D01*
X109742921Y-104415762D01*
X109834238Y-104507079D01*
X109873607Y-104566000D01*
X109905986Y-104614458D01*
X109955406Y-104733770D01*
X109980600Y-104860428D01*
X109980600Y-104989572D01*
X109955406Y-105116230D01*
X109905986Y-105235542D01*
X109905985Y-105235543D01*
X109834238Y-105342921D01*
X109742921Y-105434238D01*
X109671173Y-105482178D01*
X109635542Y-105505986D01*
X109516230Y-105555406D01*
X109389572Y-105580600D01*
X109260428Y-105580600D01*
X109133770Y-105555406D01*
X109014458Y-105505986D01*
X108978827Y-105482178D01*
X108907079Y-105434238D01*
X108815762Y-105342921D01*
X108744015Y-105235543D01*
X108744014Y-105235542D01*
X108694594Y-105116230D01*
X108669400Y-104989572D01*
X108669400Y-104860428D01*
X108694594Y-104733770D01*
X108744014Y-104614458D01*
X108776393Y-104566000D01*
X108815762Y-104507079D01*
X108907079Y-104415762D01*
X109014457Y-104344015D01*
X109014458Y-104344014D01*
X109133770Y-104294594D01*
X109260428Y-104269400D01*
X109389572Y-104269400D01*
X109516230Y-104294594D01*
G37*
G36*
X190866230Y-104294594D02*
G01*
X190985542Y-104344014D01*
X190985543Y-104344015D01*
X191092921Y-104415762D01*
X191184238Y-104507079D01*
X191223607Y-104566000D01*
X191255986Y-104614458D01*
X191305406Y-104733770D01*
X191330600Y-104860428D01*
X191330600Y-104989572D01*
X191305406Y-105116230D01*
X191255986Y-105235542D01*
X191255985Y-105235543D01*
X191184238Y-105342921D01*
X191092921Y-105434238D01*
X191021173Y-105482178D01*
X190985542Y-105505986D01*
X190866230Y-105555406D01*
X190739572Y-105580600D01*
X190610428Y-105580600D01*
X190483770Y-105555406D01*
X190364458Y-105505986D01*
X190328827Y-105482178D01*
X190257079Y-105434238D01*
X190165762Y-105342921D01*
X190094015Y-105235543D01*
X190094014Y-105235542D01*
X190044594Y-105116230D01*
X190019400Y-104989572D01*
X190019400Y-104860428D01*
X190044594Y-104733770D01*
X190094014Y-104614458D01*
X190126393Y-104566000D01*
X190165762Y-104507079D01*
X190257079Y-104415762D01*
X190364457Y-104344015D01*
X190364458Y-104344014D01*
X190483770Y-104294594D01*
X190610428Y-104269400D01*
X190739572Y-104269400D01*
X190866230Y-104294594D01*
G37*
G36*
X187691230Y-104294594D02*
G01*
X187810542Y-104344014D01*
X187810543Y-104344015D01*
X187917921Y-104415762D01*
X188009238Y-104507079D01*
X188048607Y-104566000D01*
X188080986Y-104614458D01*
X188130406Y-104733770D01*
X188155600Y-104860428D01*
X188155600Y-104989572D01*
X188130406Y-105116230D01*
X188080986Y-105235542D01*
X188080985Y-105235543D01*
X188009238Y-105342921D01*
X187917921Y-105434238D01*
X187846173Y-105482178D01*
X187810542Y-105505986D01*
X187691230Y-105555406D01*
X187564572Y-105580600D01*
X187435428Y-105580600D01*
X187308770Y-105555406D01*
X187189458Y-105505986D01*
X187153827Y-105482178D01*
X187082079Y-105434238D01*
X186990762Y-105342921D01*
X186919015Y-105235543D01*
X186919014Y-105235542D01*
X186869594Y-105116230D01*
X186844400Y-104989572D01*
X186844400Y-104860428D01*
X186869594Y-104733770D01*
X186919014Y-104614458D01*
X186951393Y-104566000D01*
X186990762Y-104507079D01*
X187082079Y-104415762D01*
X187189457Y-104344015D01*
X187189458Y-104344014D01*
X187308770Y-104294594D01*
X187435428Y-104269400D01*
X187564572Y-104269400D01*
X187691230Y-104294594D01*
G37*
G36*
X184516230Y-104294594D02*
G01*
X184635542Y-104344014D01*
X184635543Y-104344015D01*
X184742921Y-104415762D01*
X184834238Y-104507079D01*
X184873607Y-104566000D01*
X184905986Y-104614458D01*
X184955406Y-104733770D01*
X184980600Y-104860428D01*
X184980600Y-104989572D01*
X184955406Y-105116230D01*
X184905986Y-105235542D01*
X184905985Y-105235543D01*
X184834238Y-105342921D01*
X184742921Y-105434238D01*
X184671173Y-105482178D01*
X184635542Y-105505986D01*
X184516230Y-105555406D01*
X184389572Y-105580600D01*
X184260428Y-105580600D01*
X184133770Y-105555406D01*
X184014458Y-105505986D01*
X183978827Y-105482178D01*
X183907079Y-105434238D01*
X183815762Y-105342921D01*
X183744015Y-105235543D01*
X183744014Y-105235542D01*
X183694594Y-105116230D01*
X183669400Y-104989572D01*
X183669400Y-104860428D01*
X183694594Y-104733770D01*
X183744014Y-104614458D01*
X183776393Y-104566000D01*
X183815762Y-104507079D01*
X183907079Y-104415762D01*
X184014457Y-104344015D01*
X184014458Y-104344014D01*
X184133770Y-104294594D01*
X184260428Y-104269400D01*
X184389572Y-104269400D01*
X184516230Y-104294594D01*
G37*
G36*
X159516230Y-104294594D02*
G01*
X159635542Y-104344014D01*
X159635543Y-104344015D01*
X159742921Y-104415762D01*
X159834238Y-104507079D01*
X159873607Y-104566000D01*
X159905986Y-104614458D01*
X159955406Y-104733770D01*
X159980600Y-104860428D01*
X159980600Y-104989572D01*
X159955406Y-105116230D01*
X159905986Y-105235542D01*
X159905985Y-105235543D01*
X159834238Y-105342921D01*
X159742921Y-105434238D01*
X159671173Y-105482178D01*
X159635542Y-105505986D01*
X159516230Y-105555406D01*
X159389572Y-105580600D01*
X159260428Y-105580600D01*
X159133770Y-105555406D01*
X159014458Y-105505986D01*
X158978827Y-105482178D01*
X158907079Y-105434238D01*
X158815762Y-105342921D01*
X158744015Y-105235543D01*
X158744014Y-105235542D01*
X158694594Y-105116230D01*
X158669400Y-104989572D01*
X158669400Y-104860428D01*
X158694594Y-104733770D01*
X158744014Y-104614458D01*
X158776393Y-104566000D01*
X158815762Y-104507079D01*
X158907079Y-104415762D01*
X159014457Y-104344015D01*
X159014458Y-104344014D01*
X159133770Y-104294594D01*
X159260428Y-104269400D01*
X159389572Y-104269400D01*
X159516230Y-104294594D01*
G37*
G36*
X162691230Y-104294594D02*
G01*
X162810542Y-104344014D01*
X162810543Y-104344015D01*
X162917921Y-104415762D01*
X163009238Y-104507079D01*
X163048607Y-104566000D01*
X163080986Y-104614458D01*
X163130406Y-104733770D01*
X163155600Y-104860428D01*
X163155600Y-104989572D01*
X163130406Y-105116230D01*
X163080986Y-105235542D01*
X163080985Y-105235543D01*
X163009238Y-105342921D01*
X162917921Y-105434238D01*
X162846173Y-105482178D01*
X162810542Y-105505986D01*
X162691230Y-105555406D01*
X162564572Y-105580600D01*
X162435428Y-105580600D01*
X162308770Y-105555406D01*
X162189458Y-105505986D01*
X162153827Y-105482178D01*
X162082079Y-105434238D01*
X161990762Y-105342921D01*
X161919015Y-105235543D01*
X161919014Y-105235542D01*
X161869594Y-105116230D01*
X161844400Y-104989572D01*
X161844400Y-104860428D01*
X161869594Y-104733770D01*
X161919014Y-104614458D01*
X161951393Y-104566000D01*
X161990762Y-104507079D01*
X162082079Y-104415762D01*
X162189457Y-104344015D01*
X162189458Y-104344014D01*
X162308770Y-104294594D01*
X162435428Y-104269400D01*
X162564572Y-104269400D01*
X162691230Y-104294594D01*
G37*
G36*
X165866230Y-104294594D02*
G01*
X165985542Y-104344014D01*
X165985543Y-104344015D01*
X166092921Y-104415762D01*
X166184238Y-104507079D01*
X166223607Y-104566000D01*
X166255986Y-104614458D01*
X166305406Y-104733770D01*
X166330600Y-104860428D01*
X166330600Y-104989572D01*
X166305406Y-105116230D01*
X166255986Y-105235542D01*
X166255985Y-105235543D01*
X166184238Y-105342921D01*
X166092921Y-105434238D01*
X166021173Y-105482178D01*
X165985542Y-105505986D01*
X165866230Y-105555406D01*
X165739572Y-105580600D01*
X165610428Y-105580600D01*
X165483770Y-105555406D01*
X165364458Y-105505986D01*
X165328827Y-105482178D01*
X165257079Y-105434238D01*
X165165762Y-105342921D01*
X165094015Y-105235543D01*
X165094014Y-105235542D01*
X165044594Y-105116230D01*
X165019400Y-104989572D01*
X165019400Y-104860428D01*
X165044594Y-104733770D01*
X165094014Y-104614458D01*
X165126393Y-104566000D01*
X165165762Y-104507079D01*
X165257079Y-104415762D01*
X165364457Y-104344015D01*
X165364458Y-104344014D01*
X165483770Y-104294594D01*
X165610428Y-104269400D01*
X165739572Y-104269400D01*
X165866230Y-104294594D01*
G37*
G36*
X140866230Y-104294594D02*
G01*
X140985542Y-104344014D01*
X140985543Y-104344015D01*
X141092921Y-104415762D01*
X141184238Y-104507079D01*
X141223607Y-104566000D01*
X141255986Y-104614458D01*
X141305406Y-104733770D01*
X141330600Y-104860428D01*
X141330600Y-104989572D01*
X141305406Y-105116230D01*
X141255986Y-105235542D01*
X141255985Y-105235543D01*
X141184238Y-105342921D01*
X141092921Y-105434238D01*
X141021173Y-105482178D01*
X140985542Y-105505986D01*
X140866230Y-105555406D01*
X140739572Y-105580600D01*
X140610428Y-105580600D01*
X140483770Y-105555406D01*
X140364458Y-105505986D01*
X140328827Y-105482178D01*
X140257079Y-105434238D01*
X140165762Y-105342921D01*
X140094015Y-105235543D01*
X140094014Y-105235542D01*
X140044594Y-105116230D01*
X140019400Y-104989572D01*
X140019400Y-104860428D01*
X140044594Y-104733770D01*
X140094014Y-104614458D01*
X140126393Y-104566000D01*
X140165762Y-104507079D01*
X140257079Y-104415762D01*
X140364457Y-104344015D01*
X140364458Y-104344014D01*
X140483770Y-104294594D01*
X140610428Y-104269400D01*
X140739572Y-104269400D01*
X140866230Y-104294594D01*
G37*
G36*
X137691230Y-104294594D02*
G01*
X137810542Y-104344014D01*
X137810543Y-104344015D01*
X137917921Y-104415762D01*
X138009238Y-104507079D01*
X138048607Y-104566000D01*
X138080986Y-104614458D01*
X138130406Y-104733770D01*
X138155600Y-104860428D01*
X138155600Y-104989572D01*
X138130406Y-105116230D01*
X138080986Y-105235542D01*
X138080985Y-105235543D01*
X138009238Y-105342921D01*
X137917921Y-105434238D01*
X137846173Y-105482178D01*
X137810542Y-105505986D01*
X137691230Y-105555406D01*
X137564572Y-105580600D01*
X137435428Y-105580600D01*
X137308770Y-105555406D01*
X137189458Y-105505986D01*
X137153827Y-105482178D01*
X137082079Y-105434238D01*
X136990762Y-105342921D01*
X136919015Y-105235543D01*
X136919014Y-105235542D01*
X136869594Y-105116230D01*
X136844400Y-104989572D01*
X136844400Y-104860428D01*
X136869594Y-104733770D01*
X136919014Y-104614458D01*
X136951393Y-104566000D01*
X136990762Y-104507079D01*
X137082079Y-104415762D01*
X137189457Y-104344015D01*
X137189458Y-104344014D01*
X137308770Y-104294594D01*
X137435428Y-104269400D01*
X137564572Y-104269400D01*
X137691230Y-104294594D01*
G37*
G36*
X197613512Y-102768927D02*
G01*
X197762812Y-102798624D01*
X197926784Y-102866544D01*
X198074354Y-102965147D01*
X198199853Y-103090646D01*
X198298456Y-103238216D01*
X198366376Y-103402188D01*
X198401000Y-103576259D01*
X198401000Y-103753741D01*
X198366376Y-103927812D01*
X198298456Y-104091784D01*
X198199853Y-104239354D01*
X198074354Y-104364853D01*
X197926784Y-104463456D01*
X197762812Y-104531376D01*
X197613512Y-104561073D01*
X197588742Y-104566000D01*
X197411258Y-104566000D01*
X197386488Y-104561073D01*
X197237188Y-104531376D01*
X197073216Y-104463456D01*
X196925646Y-104364853D01*
X196800147Y-104239354D01*
X196701544Y-104091784D01*
X196633624Y-103927812D01*
X196599000Y-103753741D01*
X196599000Y-103576259D01*
X196633624Y-103402188D01*
X196701544Y-103238216D01*
X196800147Y-103090646D01*
X196925646Y-102965147D01*
X197073216Y-102866544D01*
X197237188Y-102798624D01*
X197386488Y-102768927D01*
X197411258Y-102764000D01*
X197588742Y-102764000D01*
X197613512Y-102768927D01*
G37*
G36*
X175113512Y-102768927D02*
G01*
X175262812Y-102798624D01*
X175426784Y-102866544D01*
X175574354Y-102965147D01*
X175699853Y-103090646D01*
X175798456Y-103238216D01*
X175866376Y-103402188D01*
X175901000Y-103576259D01*
X175901000Y-103753741D01*
X175866376Y-103927812D01*
X175798456Y-104091784D01*
X175699853Y-104239354D01*
X175574354Y-104364853D01*
X175426784Y-104463456D01*
X175262812Y-104531376D01*
X175113512Y-104561073D01*
X175088742Y-104566000D01*
X174911258Y-104566000D01*
X174886488Y-104561073D01*
X174737188Y-104531376D01*
X174573216Y-104463456D01*
X174425646Y-104364853D01*
X174300147Y-104239354D01*
X174201544Y-104091784D01*
X174133624Y-103927812D01*
X174099000Y-103753741D01*
X174099000Y-103576259D01*
X174133624Y-103402188D01*
X174201544Y-103238216D01*
X174300147Y-103090646D01*
X174425646Y-102965147D01*
X174573216Y-102866544D01*
X174737188Y-102798624D01*
X174886488Y-102768927D01*
X174911258Y-102764000D01*
X175088742Y-102764000D01*
X175113512Y-102768927D01*
G37*
G36*
X125113512Y-102768927D02*
G01*
X125262812Y-102798624D01*
X125426784Y-102866544D01*
X125574354Y-102965147D01*
X125699853Y-103090646D01*
X125798456Y-103238216D01*
X125866376Y-103402188D01*
X125901000Y-103576259D01*
X125901000Y-103753741D01*
X125866376Y-103927812D01*
X125798456Y-104091784D01*
X125699853Y-104239354D01*
X125574354Y-104364853D01*
X125426784Y-104463456D01*
X125262812Y-104531376D01*
X125113512Y-104561073D01*
X125088742Y-104566000D01*
X124911258Y-104566000D01*
X124886488Y-104561073D01*
X124737188Y-104531376D01*
X124573216Y-104463456D01*
X124425646Y-104364853D01*
X124300147Y-104239354D01*
X124201544Y-104091784D01*
X124133624Y-103927812D01*
X124099000Y-103753741D01*
X124099000Y-103576259D01*
X124133624Y-103402188D01*
X124201544Y-103238216D01*
X124300147Y-103090646D01*
X124425646Y-102965147D01*
X124573216Y-102866544D01*
X124737188Y-102798624D01*
X124886488Y-102768927D01*
X124911258Y-102764000D01*
X125088742Y-102764000D01*
X125113512Y-102768927D01*
G37*
G36*
X102613512Y-102768927D02*
G01*
X102762812Y-102798624D01*
X102926784Y-102866544D01*
X103074354Y-102965147D01*
X103199853Y-103090646D01*
X103298456Y-103238216D01*
X103366376Y-103402188D01*
X103401000Y-103576259D01*
X103401000Y-103753741D01*
X103366376Y-103927812D01*
X103298456Y-104091784D01*
X103199853Y-104239354D01*
X103074354Y-104364853D01*
X102926784Y-104463456D01*
X102762812Y-104531376D01*
X102613512Y-104561073D01*
X102588742Y-104566000D01*
X102411258Y-104566000D01*
X102386488Y-104561073D01*
X102237188Y-104531376D01*
X102073216Y-104463456D01*
X101925646Y-104364853D01*
X101800147Y-104239354D01*
X101701544Y-104091784D01*
X101633624Y-103927812D01*
X101599000Y-103753741D01*
X101599000Y-103576259D01*
X101633624Y-103402188D01*
X101701544Y-103238216D01*
X101800147Y-103090646D01*
X101925646Y-102965147D01*
X102073216Y-102866544D01*
X102237188Y-102798624D01*
X102386488Y-102768927D01*
X102411258Y-102764000D01*
X102588742Y-102764000D01*
X102613512Y-102768927D01*
G37*
G36*
X198401000Y-102026000D02*
G01*
X196599000Y-102026000D01*
X196599000Y-100224000D01*
X198401000Y-100224000D01*
X198401000Y-102026000D01*
G37*
G36*
X175901000Y-102026000D02*
G01*
X174099000Y-102026000D01*
X174099000Y-100224000D01*
X175901000Y-100224000D01*
X175901000Y-102026000D01*
G37*
G36*
X125901000Y-102026000D02*
G01*
X124099000Y-102026000D01*
X124099000Y-100224000D01*
X125901000Y-100224000D01*
X125901000Y-102026000D01*
G37*
G36*
X103401000Y-102026000D02*
G01*
X101599000Y-102026000D01*
X101599000Y-100224000D01*
X103401000Y-100224000D01*
X103401000Y-102026000D01*
G37*
M02*
